<?xml version="1.0" standalone="no"?>
<!DOCTYPE svg PUBLIC "-//W3C//DTD SVG 1.1//EN" "http://www.w3.org/Graphics/SVG/1.1/DTD/svg11.dtd" >
<svg xmlns="http://www.w3.org/2000/svg" xmlns:xlink="http://www.w3.org/1999/xlink" version="1.1">
<metadata>
Created by FontForge 20170731 at Sun Nov 27 06:51:40 2022
 By Aleksey,,,
Copyright 2020, Kris Sowersby, Klim Type Foundry.
</metadata>
<defs>
<font id="FinancierDisplay-Regular" horiz-adv-x="980" >
  <font-face 
    font-family="Financier Display"
    font-weight="400"
    font-stretch="normal"
    units-per-em="2048"
    panose-1="2 2 5 3 7 5 6 6 2 3"
    ascent="1638"
    descent="-410"
    x-height="872"
    cap-height="1241"
    bbox="-295 -432 2071 1688"
    underline-thickness="51"
    underline-position="-193"
    unicode-range="U+0020-FB02"
  />
<missing-glyph horiz-adv-x="1804" 
d="M502 -430l20 51l21 86l-8 107l-7 213l-82 204l-40 123l-78 156l-123 258l12 84l25 20l41 -2l36 -36l87 -125l36 -70l43 -61l19 -11l4 37l-16 68l-21 76l-20 86l-76 327l-2 56l39 22l65 -43l39 -98l45 -97l39 -110l84 -221l-8 147l-17 150l-26 272l-6 61l10 39l27 25
l26 12l27 -12l20 -25l76 -338l39 -215l47 -141l57 533l43 94l17 8l22 -6l27 -23l16 -30l6 -47l5 -74l8 -434l10 -140l16 -69l23 -31l47 6l41 45l94 96l60 45l104 39l104 -26l-2 -33l-241 -309l-39 -72l-43 -53l-180 -182l-60 -117l-6 -133l19 -97l-72 -34l-148 -7zM887 115
l96 57l21 59l-5 84l-18 56l-18 22l-70 19l-137 -13l-47 -26l-19 -72l6 -80l29 -76l39 -24zM1004 133h24l78 25l76 41l35 22l6 10l-15 25l-102 84l-72 39l-18 4v-12l22 -52l2 -69l-14 -66zM678 158l-19 73l-8 52l8 49v22l13 23l-70 -29l-86 -59l-12 -13l6 -20l59 -57l58 -39z
M854 158l-66 14l-24 21l-23 51l13 71l55 45l84 -12l31 -20l20 -74l-18 -51l-21 -25z" />
    <glyph glyph-name="fi" unicode="fi" horiz-adv-x="1005" 
d="M866 887v-735q0 -72 23.5 -90.5t99.5 -18.5v-43h-424v43q75 0 98 18.5t23 90.5v657h-354v-657q0 -72 23.5 -90.5t97.5 -18.5v-43h-422v43q75 0 98 18.5t23 90.5v657h-101v35l101 28v15q0 200 114 332.5t295 132.5q123 0 219 -52l-6 -223h-41q-3 110 -46.5 165.5
t-135.5 55.5q-97 0 -158 -88.5t-61 -255.5v-90q430 0 534 23z" />
    <glyph glyph-name="fl" unicode="fl" horiz-adv-x="1009" 
d="M453 43v-43h-422v43q75 0 98 18.5t23 90.5v657h-101v35l101 28v21q0 200 104 329.5t279 129.5q109 0 204 -54l117 39h10v-1185q0 -72 23 -90.5t98 -18.5v-43h-422v43q75 0 98 18.5t23 90.5v1050q-9 45 -48.5 73t-98.5 28q-102 0 -154.5 -89t-52.5 -256v-90q134 0 223 9
l-12 -68h-211v-657q0 -72 23.5 -90.5t97.5 -18.5z" />
    <glyph glyph-name="f_b" unicode="fb" horiz-adv-x="1533" 
d="M989 -20q-169 0 -303 47v1175q-9 45 -48.5 73t-98.5 28q-102 0 -154.5 -89t-52.5 -256v-90q134 0 223 9l-12 -68h-211v-657q0 -72 23.5 -90.5t97.5 -18.5v-43h-422v43q75 0 98 18.5t23 90.5v657h-101v35l101 28v21q0 200 104 329.5t279 129.5q109 0 204 -54l117 39h10
v-594q40 61 111.5 105.5t157.5 44.5q154 0 256 -114t102 -300q0 -148 -71.5 -263.5t-185.5 -175.5t-247 -60zM999 33q132 0 221 101.5t89 293.5q0 166 -64 272.5t-188 106.5q-60 0 -109.5 -28.5t-81.5 -73.5v-533q0 -75 34.5 -107t98.5 -32z" />
    <glyph glyph-name="f_f_b" unicode="ffb" horiz-adv-x="2068" 
d="M2028 479q0 -148 -71 -263.5t-184.5 -175.5t-246.5 -60q-171 0 -305 47v1175q-9 45 -48.5 73t-99.5 28q-102 0 -154.5 -89t-52.5 -256v-90q136 0 224 9l-13 -68h-211v-657q0 -72 23.5 -90.5t99.5 -18.5v-43h-424v43q75 0 98 18.5t23 90.5v657h-354v-657q0 -72 23.5 -90.5
t97.5 -18.5v-43h-422v43q75 0 98 18.5t23 90.5v657h-101v35l101 28v19q0 186 92.5 305t249.5 119q104 0 178 -43l-6 -170h-41q-6 162 -131 162q-78 0 -120 -75.5t-42 -219.5v-105q265 0 354 13v16q0 200 104 329.5t279 129.5q110 0 205 -54l117 39h10v-594
q40 61 111.5 105.5t156.5 44.5q155 0 257 -114t102 -300zM1534 33q132 0 220.5 101.5t88.5 293.5q0 166 -64 272.5t-188 106.5q-59 0 -108.5 -28.5t-81.5 -73.5v-533q0 -75 34.5 -107t98.5 -32z" />
    <glyph glyph-name="f_f" unicode="ff" horiz-adv-x="1087" 
d="M686 877v20q0 197 103.5 326t277.5 129q119 0 207 -49l-4 -197h-41q-7 192 -168 192q-93 0 -144 -81t-51 -244v-105q140 0 228 9l-13 -68h-215v-657q0 -73 26.5 -91t125.5 -18v-43h-453v43q75 0 98 18.5t23 90.5v657h-354v-657q0 -72 23.5 -90.5t97.5 -18.5v-43h-422v43
q75 0 98 18.5t23 90.5v657h-101v35l101 28v19q0 186 92.5 305t249.5 119q104 0 178 -43l-6 -170h-41q-6 162 -131 162q-78 0 -120 -75.5t-42 -219.5v-105q265 0 354 13z" />
    <glyph glyph-name="f_h" unicode="fh" horiz-adv-x="1546" 
d="M453 43v-43h-422v43q75 0 98 18.5t23 90.5v657h-101v35l101 28v21q0 200 104 329.5t279 129.5q109 0 204 -54l117 39h10v-635q35 72 111 131.5t170 59.5q131 0 198.5 -84t67.5 -215v-442q0 -72 23 -90.5t100 -18.5v-43h-422v43q75 0 97 18.5t22 90.5v407q0 112 -46 170.5
t-134 58.5q-60 0 -110.5 -36t-76.5 -90v-510q0 -72 23 -90.5t98 -18.5v-43h-422v43q75 0 98 18.5t23 90.5v1050q-9 45 -48.5 73t-98.5 28q-102 0 -154.5 -89t-52.5 -256v-90q134 0 223 9l-12 -68h-211v-657q0 -72 23.5 -90.5t97.5 -18.5z" />
    <glyph glyph-name="f_f_h" unicode="ffh" horiz-adv-x="2080" 
d="M453 43v-43h-422v43q75 0 98 18.5t23 90.5v657h-101v35l101 28v19q0 186 92.5 305t249.5 119q104 0 178 -43l-6 -170h-41q-6 162 -131 162q-78 0 -120 -75.5t-42 -219.5v-105q265 0 354 13v16q0 200 104 329.5t279 129.5q110 0 205 -54l117 39h10v-635q35 72 111 131.5
t169 59.5q132 0 200.5 -84t68.5 -215v-442q0 -73 22 -91t99 -18v-43h-422v43q75 0 97.5 18.5t22.5 90.5v407q0 112 -47 170.5t-135 58.5q-60 0 -110 -36t-76 -90v-510q0 -72 23 -90.5t98 -18.5v-43h-422v43q77 0 99 18t22 91v1050q-9 45 -48.5 73t-99.5 28
q-102 0 -154.5 -89t-52.5 -256v-90q136 0 224 9l-13 -68h-211v-657q0 -72 23.5 -90.5t99.5 -18.5v-43h-424v43q75 0 98 18.5t23 90.5v657h-354v-657q0 -72 23.5 -90.5t97.5 -18.5z" />
    <glyph glyph-name="f_idieresis" unicode="f&#xef;" horiz-adv-x="1005" 
d="M813 1157q0 42 31.5 71t73.5 29q43 0 72.5 -28.5t29.5 -71.5q0 -44 -29.5 -73t-72.5 -29q-42 0 -73.5 29.5t-31.5 72.5zM152 872v46q0 189 93.5 311.5t250.5 122.5q102 0 180 -47l-6 -183h-41q-3 176 -131 176q-166 0 -166 -311v-123q430 0 534 23v-735q0 -72 23.5 -90.5
t99.5 -18.5v-43h-424v43q75 0 98 18.5t23 90.5v657h-354v-657q0 -72 23.5 -90.5t97.5 -18.5v-43h-422v43q75 0 98 18.5t23 90.5v657h-101v35z" />
    <glyph glyph-name="f_f_i" unicode="ffi" horiz-adv-x="1542" 
d="M686 877v10q0 200 114.5 332.5t295.5 132.5q123 0 219 -52l-6 -223h-41q-3 110 -47 165.5t-136 55.5q-97 0 -158 -88.5t-61 -255.5v-90q432 0 535 23v-735q0 -72 23.5 -90.5t99.5 -18.5v-43h-424v43q75 0 98 18.5t23 90.5v657h-355v-657q0 -72 23.5 -90.5t99.5 -18.5v-43
h-424v43q75 0 98 18.5t23 90.5v657h-354v-657q0 -72 23.5 -90.5t97.5 -18.5v-43h-422v43q75 0 98 18.5t23 90.5v657h-101v35l101 28v19q0 186 92.5 305t249.5 119q104 0 178 -43l-6 -170h-41q-6 162 -131 162q-78 0 -120 -75.5t-42 -219.5v-105q265 0 354 13z" />
    <glyph glyph-name="f_f_idieresis" unicode="ff&#xef;" horiz-adv-x="1542" 
d="M1348 1157q0 42 31 71t73 29q43 0 72.5 -28.5t29.5 -71.5q0 -44 -29.5 -73t-72.5 -29q-42 0 -73 29.5t-31 72.5zM866 864q432 0 535 23v-735q0 -72 23.5 -90.5t99.5 -18.5v-43h-424v43q75 0 98 18.5t23 90.5v657h-355v-657q0 -72 23.5 -90.5t99.5 -18.5v-43h-424v43
q75 0 98 18.5t23 90.5v657h-354v-657q0 -72 23.5 -90.5t97.5 -18.5v-43h-422v43q75 0 98 18.5t23 90.5v657h-101v35l101 28v19q0 186 92.5 305t249.5 119q104 0 178 -43l-6 -170h-41q-6 162 -131 162q-78 0 -120 -75.5t-42 -219.5v-105q265 0 354 13v41q0 189 93.5 311.5
t250.5 122.5q105 0 180 -47l-4 -183h-41q-6 176 -133 176q-166 0 -166 -311v-123z" />
    <glyph glyph-name="f_j" unicode="fj" horiz-adv-x="991" 
d="M537 -410q-61 0 -113.5 17.5t-77.5 42.5l21 33q55 -39 131 -39q88 0 138 53.5t50 163.5v948h-354v-657q0 -72 23.5 -90.5t97.5 -18.5v-43h-422v43q75 0 98 18.5t23 90.5v657h-101v35l101 28v15q0 200 114 332.5t295 132.5q123 0 219 -52l-6 -223h-41q-3 110 -46.5 165.5
t-135.5 55.5q-97 0 -158 -88.5t-61 -255.5v-90q430 0 534 23v-961q0 -162 -92.5 -249t-236.5 -87z" />
    <glyph glyph-name="f_f_j" unicode="ffj" horiz-adv-x="1525" 
d="M1073 -410q-63 0 -115 17.5t-77 42.5l20 33q55 -39 131 -39q90 0 139.5 53.5t49.5 163.5v948h-355v-657q0 -72 23.5 -90.5t99.5 -18.5v-43h-424v43q75 0 98 18.5t23 90.5v657h-354v-657q0 -72 23.5 -90.5t97.5 -18.5v-43h-422v43q75 0 98 18.5t23 90.5v657h-101v35
l101 28v19q0 186 92.5 305t249.5 119q104 0 178 -43l-6 -170h-41q-6 162 -131 162q-78 0 -120 -75.5t-42 -219.5v-105q265 0 354 13v10q0 200 114.5 332.5t295.5 132.5q123 0 219 -52l-6 -223h-41q-3 110 -47 165.5t-136 55.5q-97 0 -158 -88.5t-61 -255.5v-90q432 0 535 23
v-961q0 -162 -92 -249t-236 -87z" />
    <glyph glyph-name="f_k" unicode="fk" horiz-adv-x="1519" 
d="M453 43v-43h-422v43q75 0 98 18.5t23 90.5v657h-101v35l101 28v21q0 200 104 329.5t279 129.5q109 0 204 -54l117 39h10v-1185q0 -72 23 -90.5t98 -18.5v-43h-422v43q75 0 98 18.5t23 90.5v1050q-9 45 -48.5 73t-98.5 28q-102 0 -154.5 -89t-52.5 -256v-90q134 0 223 9
l-12 -68h-211v-657q0 -72 23.5 -90.5t97.5 -18.5zM1040 553l297 -381q62 -77 99.5 -102.5t91.5 -26.5v-43h-275l-323 424q-12 15 -24.5 28.5t-19.5 19.5l-7 7l284 254q54 47 54 68q0 28 -84 28v43h350v-43q-74 0 -131.5 -27.5t-122.5 -84.5z" />
    <glyph glyph-name="f_f_k" unicode="ffk" horiz-adv-x="2056" 
d="M1575 553l297 -381q62 -77 99 -102.5t91 -26.5v-43h-274l-324 424q-12 15 -25 28.5t-19 19.5l-7 7l287 254q51 48 51 68q0 28 -84 28v43h350v-43q-73 0 -130 -27.5t-124 -84.5zM1221 152v1050q-9 45 -48.5 73t-99.5 28q-102 0 -154.5 -89t-52.5 -256v-90q136 0 224 9
l-13 -68h-211v-657q0 -72 23.5 -90.5t99.5 -18.5v-43h-424v43q75 0 98 18.5t23 90.5v657h-354v-657q0 -72 23.5 -90.5t97.5 -18.5v-43h-422v43q75 0 98 18.5t23 90.5v657h-101v35l101 28v19q0 186 92.5 305t249.5 119q104 0 178 -43l-6 -170h-41q-6 162 -131 162
q-78 0 -120 -75.5t-42 -219.5v-105q265 0 354 13v16q0 200 104 329.5t279 129.5q110 0 205 -54l117 39h10v-1185q0 -72 23 -90.5t98 -18.5v-43h-422v43q77 0 99 18t22 91z" />
    <glyph glyph-name="f_f_l" unicode="ffl" horiz-adv-x="1544" 
d="M1221 1202q-9 45 -48.5 73t-99.5 28q-102 0 -154.5 -89t-52.5 -256v-90q136 0 224 9l-13 -68h-211v-657q0 -72 23.5 -90.5t99.5 -18.5v-43h-424v43q75 0 98 18.5t23 90.5v657h-354v-657q0 -72 23.5 -90.5t97.5 -18.5v-43h-422v43q75 0 98 18.5t23 90.5v657h-101v35
l101 28v19q0 186 92.5 305t249.5 119q104 0 178 -43l-6 -170h-41q-6 162 -131 162q-78 0 -120 -75.5t-42 -219.5v-105q265 0 354 13v16q0 200 104 329.5t279 129.5q110 0 205 -54l117 39h10v-1185q0 -72 23 -90.5t98 -18.5v-43h-422v43q77 0 99 18t22 91v1050z" />
    <glyph glyph-name=".notdef" horiz-adv-x="1804" 
d="M502 -430l20 51l21 86l-8 107l-7 213l-82 204l-40 123l-78 156l-123 258l12 84l25 20l41 -2l36 -36l87 -125l36 -70l43 -61l19 -11l4 37l-16 68l-21 76l-20 86l-76 327l-2 56l39 22l65 -43l39 -98l45 -97l39 -110l84 -221l-8 147l-17 150l-26 272l-6 61l10 39l27 25
l26 12l27 -12l20 -25l76 -338l39 -215l47 -141l57 533l43 94l17 8l22 -6l27 -23l16 -30l6 -47l5 -74l8 -434l10 -140l16 -69l23 -31l47 6l41 45l94 96l60 45l104 39l104 -26l-2 -33l-241 -309l-39 -72l-43 -53l-180 -182l-60 -117l-6 -133l19 -97l-72 -34l-148 -7zM887 115
l96 57l21 59l-5 84l-18 56l-18 22l-70 19l-137 -13l-47 -26l-19 -72l6 -80l29 -76l39 -24zM1004 133h24l78 25l76 41l35 22l6 10l-15 25l-102 84l-72 39l-18 4v-12l22 -52l2 -69l-14 -66zM678 158l-19 73l-8 52l8 49v22l13 23l-70 -29l-86 -59l-12 -13l6 -20l59 -57l58 -39z
M854 158l-66 14l-24 21l-23 51l13 71l55 45l84 -12l31 -20l20 -74l-18 -51l-21 -25z" />
    <glyph glyph-name=".null" horiz-adv-x="0" 
 />
    <glyph glyph-name="nonmarkingreturn" horiz-adv-x="682" 
 />
    <glyph glyph-name="space" unicode=" " horiz-adv-x="348" 
 />
    <glyph glyph-name="exclam" unicode="!" horiz-adv-x="393" 
d="M211 360h-29q-4 83 -23.5 233.5t-45.5 325.5t-31 211q0 50 32.5 91t82.5 41t82 -40.5t32 -91.5q-1 -11 -47.5 -335t-52.5 -435zM82 96q0 47 34 81t81 34q49 0 82.5 -33.5t33.5 -81.5q0 -50 -33.5 -83t-82.5 -33q-48 0 -81.5 33.5t-33.5 82.5z" />
    <glyph glyph-name="quotedbl" unicode="&#x22;" horiz-adv-x="585" 
d="M170 872h-20q-15 110 -37 196.5t-36 126t-14 50.5q0 40 28 73.5t69 33.5t68.5 -33.5t27.5 -73.5q0 -11 -13.5 -50.5t-35.5 -126t-37 -196.5zM436 872h-20q-15 110 -37 196.5t-35.5 126t-13.5 50.5q0 40 27.5 73.5t68.5 33.5t68.5 -33.5t27.5 -73.5q0 -11 -13.5 -50.5
t-35.5 -126t-37 -196.5z" />
    <glyph glyph-name="numbersign" unicode="#" horiz-adv-x="993" 
d="M561 438l113 363h-242l-113 -363h242zM809 391h-211l-127 -411l-41 32l117 379h-242l-127 -411l-39 32l117 379h-195l11 47h198l111 363h-207l10 47h211l127 414l41 -33l-117 -381h242l127 414l39 -33l-117 -381h195l-10 -47h-199l-111 -363h207z" />
    <glyph glyph-name="dollar" unicode="$" horiz-adv-x="921" 
d="M418 764l80 -39v475q-14 2 -45 2q-25 0 -37 -2v-434zM219 995q0 -76 39.5 -122t116.5 -87v406q-72 -22 -114 -75.5t-42 -121.5zM444 39q22 0 54 4v475l-82 41v-518q10 -2 28 -2zM715 270q0 76 -42 126.5t-132 99.5v-445q80 20 127 74.5t47 144.5zM498 -201v189
q-16 -2 -47 -2q-23 0 -35 2v-168l-41 -21v193q-90 11 -171.5 46t-129.5 75l-21 295l39 2q23 -152 99 -246.5t184 -116.5v533l-72 34q-115 57 -172 127.5t-57 180.5q0 122 84.5 211.5t216.5 113.5v178l41 21v-195q12 2 37 2q31 0 45 -2v174l43 21v-199q149 -23 254 -104
l12 -262l-35 -2q-12 124 -73 205t-158 106v-485l61 -31q60 -30 103.5 -59.5t81 -69t56.5 -89t19 -108.5q0 -136 -90 -232.5t-231 -121.5v-174z" />
    <glyph glyph-name="percent" unicode="%" horiz-adv-x="1204" 
d="M598 950q0 -120 -80.5 -215.5t-181.5 -95.5q-100 0 -179 95.5t-79 215.5q0 121 79 216.5t179 95.5q101 0 181.5 -95.5t80.5 -216.5zM883 1001l-666 -1001h-90q83 76 192 240l664 1001h92q-83 -76 -192 -240zM459 950q0 124 -31.5 198.5t-91.5 74.5q-58 0 -89.5 -74.5
t-31.5 -198.5q0 -121 31.5 -196.5t89.5 -75.5q59 0 91 75t32 197zM606 291q0 120 80 215.5t180 95.5q101 0 180.5 -95.5t79.5 -215.5q0 -121 -79.5 -216t-180.5 -95q-100 0 -180 95t-80 216zM745 291q0 -124 31.5 -198.5t89.5 -74.5q60 0 91.5 74.5t31.5 198.5
q0 122 -32 197t-91 75q-58 0 -89.5 -75.5t-31.5 -196.5z" />
    <glyph glyph-name="ampersand" unicode="&#x26;" horiz-adv-x="1380" 
d="M1120 -20q-143 0 -229 98l-43 51q-166 -149 -383 -149q-100 0 -190 42t-148.5 125t-58.5 189q0 221 292 358l-10 13q-114 134 -114 262q0 127 94 210t221 83q136 0 216.5 -68t80.5 -176q0 -99 -85.5 -176t-201.5 -113l371 -426q60 87 97 186.5t42 176.5q2 28 -6 46.5
t-21.5 29t-41 16t-53 7t-68.5 1.5v47h448v-47q-94 0 -133.5 -26t-52.5 -83q-54 -224 -176 -395l73 -84q92 -106 193 -106q57 0 104 30l15 -30q-95 -92 -232 -92zM498 801l37 -43q85 39 132.5 103t47.5 169q0 80 -39 130t-115 50q-79 0 -122.5 -52.5t-43.5 -129.5
q0 -112 103 -227zM571 74q126 0 240 96l-422 492q-73 -45 -112 -107.5t-39 -157.5q0 -142 99 -232.5t234 -90.5z" />
    <glyph glyph-name="quotesingle" unicode="'" horiz-adv-x="319" 
d="M170 872h-20q-15 110 -37 196.5t-36 126t-14 50.5q0 40 28 73.5t69 33.5t68.5 -33.5t27.5 -73.5q0 -11 -13.5 -50.5t-35.5 -126t-37 -196.5z" />
    <glyph glyph-name="parenleft" unicode="(" horiz-adv-x="626" 
d="M80 539q0 242 133.5 447.5t353.5 344.5l25 -22q-171 -136 -257.5 -338.5t-86.5 -431.5t86.5 -431.5t257.5 -338.5l-25 -23q-220 139 -353.5 345t-133.5 448z" />
    <glyph glyph-name="parenright" unicode=")" horiz-adv-x="626" 
d="M59 1331q221 -139 354.5 -344.5t133.5 -447.5t-133.5 -448t-354.5 -345l-24 23q171 136 257.5 338.5t86.5 431.5t-86.5 431.5t-257.5 338.5z" />
    <glyph glyph-name="asterisk" unicode="*" horiz-adv-x="575" 
d="M287 1020l-49 184q0 23 14 40.5t35 17.5q22 0 35.5 -17.5t13.5 -40.5zM109 1157q19 0 30 -8l137 -135l-186 49q-29 18 -29 47q0 21 14 34t34 13zM512 1110q0 -29 -29 -47l-186 -49l137 135q13 8 31 8q19 0 33 -13t14 -34zM61 905q0 29 29 47l186 47l-137 -135
q-12 -6 -30 -6q-20 0 -34 13t-14 34zM465 858q-16 0 -31 6l-137 135l186 -47q29 -18 29 -47q0 -21 -14 -34t-33 -13zM287 993l49 -184q0 -22 -13.5 -39.5t-35.5 -17.5q-21 0 -35 18t-14 39z" />
    <glyph glyph-name="plus" unicode="+" horiz-adv-x="960" 
d="M872 569h-364v-362h-57v362h-363v58h363v362h57v-362h364v-58z" />
    <glyph glyph-name="comma" unicode="," horiz-adv-x="374" 
d="M209 -8q-8 -2 -25 -2q-46 0 -78 30t-32 82q0 44 32 76.5t74 32.5q56 0 89.5 -37.5t33.5 -107.5q0 -98 -70 -178t-178 -95l-8 35q83 21 122.5 69t39.5 95z" />
    <glyph glyph-name="hyphen" unicode="-" horiz-adv-x="548" 
d="M446 434h-364l20 78h365z" />
    <glyph glyph-name="period" unicode="." horiz-adv-x="374" 
d="M72 96q0 48 33.5 81.5t82.5 33.5q47 0 81 -34t34 -81q0 -49 -33.5 -82.5t-81.5 -33.5q-50 0 -83 33t-33 83z" />
    <glyph glyph-name="slash" unicode="/" horiz-adv-x="813" 
d="M41 -250l668 1581h63l-668 -1581h-63z" />
    <glyph glyph-name="zero" unicode="0" horiz-adv-x="1101" 
d="M63 621q0 127 41 246t108 205t156.5 138t182.5 52q124 0 236.5 -87t181.5 -236t69 -318t-69 -318t-181.5 -236t-236.5 -87q-93 0 -182.5 52t-156.5 138t-108 205t-41 246zM829 621q0 168 -28.5 296.5t-92.5 207.5t-157 79t-157 -79t-92 -207t-28 -297t28 -297t92 -207.5
t157 -79.5q70 0 124.5 45t87.5 125t49.5 184.5t16.5 229.5z" />
    <glyph glyph-name="one" unicode="1" horiz-adv-x="651" 
d="M430 930v-774q0 -73 38 -91t161 -18v-47h-588v47q122 0 161.5 18t39.5 91v895q0 44 -9.5 58.5t-39.5 14.5q-7 0 -160 -24v41l407 121q-10 -90 -10 -332z" />
    <glyph glyph-name="two" unicode="2" horiz-adv-x="913" 
d="M807 0h-801v8q165 158 275.5 275t177 199t100.5 150.5t44.5 116.5t10.5 111q0 115 -68 188.5t-184 73.5q-105 0 -173 -68t-97 -186l-39 6q21 160 130 274t268 114q160 0 257 -94t97 -246q0 -40 -10 -82t-23 -78t-42 -80.5t-50 -75.5t-65.5 -78.5t-69.5 -74t-80.5 -77.5
t-80.5 -73.5t-88 -77.5t-85 -75h387q107 0 159 36t81 133h39z" />
    <glyph glyph-name="three" unicode="3" horiz-adv-x="901" 
d="M301 1083q-73 0 -106.5 -36.5t-63.5 -139.5h-35l51 334h699v-8l-445 -528q65 10 128.5 6.5t121 -30t101.5 -66.5t70 -103t26 -139q0 -115 -61.5 -207t-156.5 -139t-202 -47q-149 0 -256.5 86.5t-144.5 216.5l39 20q42 -110 125 -173.5t196 -63.5q124 0 199.5 81.5
t75.5 217.5q0 77 -30 138.5t-81 95.5t-117.5 45.5t-138.5 -11.5l-6 8l360 442h-348z" />
    <glyph glyph-name="four" unicode="4" horiz-adv-x="1099" 
d="M154 528h411v492zM928 47v-47h-541v47q108 0 143 17t35 88v297h-536v14l665 794h58v-729h45q117 0 168 6t98 29h8l-49 -114h-270v-297q0 -71 34.5 -88t141.5 -17z" />
    <glyph glyph-name="five" unicode="5" horiz-adv-x="921" 
d="M522 1231q65 0 95.5 0.5t65.5 3.5t48 7t29.5 14.5t24 22.5t18.5 34h39l-70 -244h-496l-65 -395q111 80 250 80q166 0 276.5 -100t110.5 -265q0 -116 -61.5 -210.5t-161.5 -146.5t-215 -52q-151 0 -259.5 87.5t-144.5 215.5l39 22q35 -108 120.5 -173.5t192.5 -65.5
q136 0 217.5 90t81.5 229q0 135 -75.5 213t-198.5 78q-60 0 -110.5 -21t-112.5 -63l-13 4l99 635h276z" />
    <glyph glyph-name="six" unicode="6" horiz-adv-x="999" 
d="M926 373q0 -162 -121.5 -277.5t-290.5 -115.5q-84 0 -165 38.5t-144.5 106t-102.5 168.5t-39 217q0 147 59 282.5t161 236t248.5 160.5t312.5 60q41 0 61 -2l-4 -43q-5 0 -17 1t-18 1q-267 0 -429 -190t-177 -508q51 90 141 143.5t181 53.5q150 0 247 -91.5t97 -240.5z
M524 33q99 0 163.5 73.5t64.5 210.5q0 133 -71 211t-189 78q-68 0 -136.5 -45.5t-97.5 -120.5q1 -185 77.5 -296t188.5 -111z" />
    <glyph glyph-name="seven" unicode="7" horiz-adv-x="886" 
d="M745 1075h-497q-77 0 -119.5 -36.5t-69.5 -135.5h-39l68 338h778v-8l-493 -1233h-189v8q128 142 259.5 395t301.5 672z" />
    <glyph glyph-name="eight" unicode="8" horiz-adv-x="942" 
d="M471 -20q-179 0 -296.5 94.5t-117.5 224.5q0 103 78 179t201 126l-12 8q-104 66 -164 139t-60 177q0 135 108 234.5t265 99.5q164 0 266.5 -87.5t102.5 -211.5q0 -97 -79.5 -176t-193.5 -121l84 -52q118 -71 172 -134t54 -154q0 -145 -115.5 -245.5t-292.5 -100.5z
M434 750l103 -64q74 37 122 109t48 184q0 95 -61.5 162t-170.5 67q-97 0 -157 -60t-60 -149q0 -83 44.5 -139t131.5 -110zM471 33q112 0 182 57.5t70 149.5q0 75 -43 124.5t-158 122.5l-153 97q-162 -89 -162 -279q0 -123 74.5 -197.5t189.5 -74.5z" />
    <glyph glyph-name="nine" unicode="9" horiz-adv-x="999" 
d="M508 635q68 0 135.5 45.5t97.5 120.5q-1 185 -77.5 296t-188.5 111q-99 0 -163 -73.5t-64 -210.5q0 -133 71 -211t189 -78zM156 -8q-42 0 -62 2l4 43q5 0 17 -1t18 -1q267 0 429 190t177 508q-51 -90 -140 -143t-181 -53q-150 0 -247 91t-97 240q0 163 121 278.5
t290 115.5q84 0 165 -38.5t144.5 -106.5t102.5 -169t39 -217q0 -147 -59 -282.5t-160.5 -236t-248 -160.5t-312.5 -60z" />
    <glyph glyph-name="colon" unicode=":" horiz-adv-x="374" 
d="M72 682q0 48 33.5 81.5t82.5 33.5q47 0 81 -34t34 -81q0 -49 -33.5 -83t-81.5 -34q-49 0 -82.5 33.5t-33.5 83.5zM72 96q0 48 33.5 81.5t82.5 33.5q47 0 81 -34t34 -81q0 -49 -33.5 -82.5t-81.5 -33.5q-50 0 -83 33t-33 83z" />
    <glyph glyph-name="semicolon" unicode=";" horiz-adv-x="374" 
d="M72 682q0 48 33.5 81.5t82.5 33.5q47 0 81 -34t34 -81q0 -49 -33.5 -83t-81.5 -34q-49 0 -82.5 33.5t-33.5 83.5zM209 -8q-8 -2 -25 -2q-46 0 -78 30t-32 82q0 44 32 76.5t74 32.5q56 0 89.5 -37.5t33.5 -107.5q0 -98 -70 -178t-178 -95l-8 35q83 21 122.5 69t39.5 95z
" />
    <glyph glyph-name="less" unicode="&#x3c;" horiz-adv-x="704" 
d="M55 584v20l572 330v-66l-484 -274l484 -275v-67z" />
    <glyph glyph-name="equal" unicode="=" horiz-adv-x="970" 
d="M92 700v56h787v-56h-787zM92 444v58h787v-58h-787z" />
    <glyph glyph-name="greater" unicode="&#x3e;" horiz-adv-x="704" 
d="M649 584l-571 -332v67l481 275l-481 274v66l571 -330v-20z" />
    <glyph glyph-name="question" unicode="?" horiz-adv-x="772" 
d="M334 1126q-104 0 -168.5 -69t-87.5 -189l-39 9q10 103 56.5 189t131 141t191.5 55q140 0 227.5 -85t87.5 -219q0 -52 -18.5 -102t-48.5 -90.5t-66 -79.5t-73.5 -77t-68.5 -76t-53 -82.5t-26 -90.5h-37q7 75 31.5 141.5t53.5 113t57 90.5t46.5 94.5t18.5 105.5
q0 94 -58.5 157.5t-156.5 63.5zM250 96q0 48 34 81.5t83 33.5q47 0 80.5 -34t33.5 -81q0 -49 -33 -82.5t-81 -33.5q-50 0 -83.5 33.5t-33.5 82.5z" />
    <glyph glyph-name="at" unicode="@" horiz-adv-x="1501" 
d="M770 -344q-154 0 -283.5 41t-226 119t-151 200t-54.5 275q0 162 70 314t183 261t262 174.5t302 65.5q139 0 249 -40t180.5 -112t107.5 -169t37 -212q0 -111 -44 -217t-115.5 -183.5t-168 -125t-196.5 -47.5q-59 0 -88 32t-31 87v18q-101 -137 -242 -137q-80 0 -138 63.5
t-58 165.5q0 151 83 286.5t221.5 216.5t293.5 81q81 0 151 -20l-135 -629q-6 -24 -6 -47q0 -45 43 -45q95 0 172.5 71.5t118.5 185t41 242.5q0 226 -119 354t-359 128q-134 0 -262.5 -59.5t-226.5 -159.5t-157.5 -243t-59.5 -300q0 -187 81 -320t220.5 -197.5t322.5 -64.5
q136 0 267 43t235 123l19 -29q-79 -79 -232.5 -134.5t-306.5 -55.5zM653 88q88 0 160 96l123 582q-168 0 -283.5 -144t-115.5 -358q0 -87 32 -131.5t84 -44.5z" />
    <glyph glyph-name="A" unicode="A" horiz-adv-x="1318" 
d="M602 1036l-174 -469h358zM430 47v-47h-430v47q94 0 135 21.5t68 93.5l413 1091h89l440 -1101q29 -71 57.5 -88t116.5 -17v-47h-502v47q87 0 118.5 8.5t31.5 38.5q0 1 -17 58l-141 358h-401l-129 -346q-9 -27 -9 -45q0 -41 41 -56.5t119 -15.5z" />
    <glyph glyph-name="B" unicode="B" horiz-adv-x="1101" 
d="M33 0v47q93 0 126.5 18.5t33.5 86.5v938q0 68 -33 86t-127 18v47h452q139 0 247.5 -32t175.5 -102.5t67 -170.5q0 -110 -88 -184t-225 -99q169 -13 280 -93t111 -212q0 -86 -39 -153.5t-108 -109.5t-157.5 -63.5t-191.5 -21.5h-524zM381 1188v-520h88q67 0 122 13.5
t100.5 43t71 83.5t25.5 128q0 252 -329 252h-78zM489 51h48q323 0 323 291q0 144 -89.5 210t-242.5 66h-147v-471q0 -58 26 -77t82 -19z" />
    <glyph glyph-name="C" unicode="C" horiz-adv-x="1173" 
d="M264 684q0 -142 44 -261t116 -195t162 -118t186 -42q101 0 179 29.5t153 109.5l31 -35q-66 -86 -179.5 -139t-255.5 -53q-117 0 -229 43.5t-201.5 122t-144.5 201t-55 267.5q0 140 49.5 261.5t134.5 206t200 132.5t244 48q70 0 134.5 -17t106 -34t56.5 -17q19 0 30 11
t22 38h26l17 -366l-39 -5q-55 330 -361 330q-184 0 -305 -144.5t-121 -373.5z" />
    <glyph glyph-name="D" unicode="D" horiz-adv-x="1308" 
d="M510 0h-477v47q94 0 127 17.5t33 82.5v947q0 65 -33 82.5t-127 17.5v47h487q211 0 372.5 -69t254 -206t92.5 -325q0 -184 -95.5 -331t-262 -228.5t-371.5 -81.5zM483 55h21q250 0 391 143.5t141 430.5q0 278 -136.5 417.5t-397.5 139.5h-121v-1034q0 -58 23.5 -77.5
t78.5 -19.5z" />
    <glyph glyph-name="E" unicode="E" horiz-adv-x="1077" 
d="M817 815v-352h-37q-7 55 -12.5 78t-25.5 42t-51.5 23t-94.5 4h-215v-463q0 -57 25.5 -74.5t82.5 -17.5h121q53 0 84 1t68.5 5.5t59.5 12.5t47.5 23t41 36t33 52.5t31 72t26.5 94.5h39l-36 -352h-971v47q93 0 126.5 18.5t33.5 86.5v938q0 68 -33 86t-127 18v47h923l5 -307
h-35q-7 59 -17.5 99t-31 68.5t-42.5 44.5t-63 24.5t-82 11t-110 2.5h-199v-518h215q42 0 68 1.5t47 9.5t31 15.5t18.5 28t11.5 39t8 55.5h37z" />
    <glyph glyph-name="F" unicode="F" horiz-adv-x="997" 
d="M584 0h-551v47q94 0 127 18t33 87v938q0 69 -32.5 86.5t-127.5 17.5v47h915l4 -307h-34q-7 59 -18 99t-31 68.5t-42.5 44.5t-63.5 24.5t-82 11t-110 2.5h-190v-516h182q42 0 69 2t48.5 9t32 15.5t19 28t12 39t8.5 55.5h36v-352h-36q-5 36 -8.5 55.5t-12 39t-19 27.5
t-32 15t-48 8.5t-69.5 1.5h-182v-458q0 -46 14.5 -67.5t56.5 -30.5t132 -9v-47z" />
    <glyph glyph-name="G" unicode="G" horiz-adv-x="1282" 
d="M1118 29q-160 -49 -334 -49q-107 0 -210 26.5t-194.5 80.5t-160.5 129.5t-109 180.5t-40 226q0 142 53 263.5t142 202.5t205 127t241 46q75 0 140.5 -17t106.5 -34t56 -17q19 0 29 11t20 38h27l18 -366l-39 -5q-52 330 -356 330q-191 0 -315 -149.5t-124 -407.5
q0 -144 45.5 -262.5t120 -193t166 -114.5t187.5 -40q77 0 109 19t32 77v272q0 65 -39.5 83t-138.5 18v47h499v-47q-91 0 -118 -16.5t-27 -84.5v-258q0 -75 8 -116z" />
    <glyph glyph-name="H" unicode="H" horiz-adv-x="1374" 
d="M543 47v-47h-510v47q93 0 126.5 18.5t33.5 86.5v938q0 68 -33 86t-127 18v47h510v-47q-95 0 -128.5 -18t-33.5 -86v-408h612v408q0 68 -33.5 86t-128.5 18v47h512v-47q-95 0 -128 -18t-33 -86v-938q0 -68 33 -86.5t128 -18.5v-47h-512v47q95 0 128.5 18.5t33.5 86.5v469
h-612v-469q0 -68 33.5 -86.5t128.5 -18.5z" />
    <glyph glyph-name="I" unicode="I" horiz-adv-x="575" 
d="M543 47v-47h-510v47q93 0 126.5 18.5t33.5 86.5v938q0 68 -33 86t-127 18v47h510v-47q-95 0 -128.5 -18t-33.5 -86v-938q0 -68 33.5 -86.5t128.5 -18.5z" />
    <glyph glyph-name="J" unicode="J" horiz-adv-x="555" 
d="M182 -55v1145q0 68 -32.5 86t-126.5 18v47h509v-47q-95 0 -128 -18t-33 -86v-1076q0 -157 -98.5 -254.5t-256.5 -97.5q-56 0 -110 18.5t-80 38.5l16 37q63 -37 148 -37q90 0 141 56t51 170z" />
    <glyph glyph-name="K" unicode="K" horiz-adv-x="1228" 
d="M543 47v-47h-510v47q93 0 126.5 18.5t33.5 86.5v938q0 68 -33 86t-127 18v47h510v-47q-95 0 -128.5 -18t-33.5 -86v-938q0 -68 33.5 -86.5t128.5 -18.5zM948 0l-547 666q53 11 121 79l336 367q29 29 29 47q0 20 -32 27.5t-95 7.5v47h426v-47q-93 0 -144 -15.5t-96 -64.5
l-360 -389l450 -545q70 -82 107 -107.5t92 -25.5v-47h-287z" />
    <glyph glyph-name="L" unicode="L" horiz-adv-x="1048" 
d="M965 0h-932v47q93 0 126.5 18.5t33.5 86.5v938q0 68 -33 86t-127 18v47h510v-47q-96 0 -129 -17.5t-33 -86.5v-940q0 -53 22 -74t80 -21h142q82 0 130.5 11t89.5 47t67.5 99.5t54.5 174.5h39z" />
    <glyph glyph-name="M" unicode="M" horiz-adv-x="1650" 
d="M1161 1241h365v-47q-86 0 -117 -13t-31 -65v-22l90 -947q6 -65 40 -82.5t126 -17.5v-47h-504v47q85 0 118.5 14t33.5 64q0 14 -2 22l-92 986l-410 -1153h-14l-404 1153l-90 -981v-17q0 -25 8.5 -41.5t21 -25.5t37 -14t46 -6t59.5 -1v-47h-426v47q96 0 136 18.5t47 86.5
l90 942v20q0 53 -32 66.5t-118 13.5v47h375l317 -930z" />
    <glyph glyph-name="N" unicode="N" horiz-adv-x="1318" 
d="M1145 -20h-21l-850 1069v-891q0 -37 12 -59.5t38.5 -33.5t57 -14.5t79.5 -3.5v-47h-441v47q39 0 64.5 2t50 8.5t38 18.5t22 32t8.5 50v975q-39 39 -77.5 50t-115.5 11v47h352l711 -907v749q0 69 -43.5 90t-142.5 21v47h440v-47q-98 0 -140 -20.5t-42 -90.5v-1103z" />
    <glyph glyph-name="O" unicode="O" horiz-adv-x="1345" 
d="M70 621q0 130 50 249t132 204.5t192.5 136.5t227.5 51q118 0 229 -51t194 -136.5t133 -204.5t50 -249t-50 -249t-133 -204.5t-194 -136.5t-229 -51q-117 0 -227.5 51t-192.5 136.5t-132 204.5t-50 249zM1069 621q0 261 -112 421t-285 160q-171 0 -283.5 -160.5
t-112.5 -420.5t112.5 -421t283.5 -161q173 0 285 160.5t112 421.5z" />
    <glyph glyph-name="P" unicode="P" horiz-adv-x="1056" 
d="M516 600q131 0 218 75.5t87 225.5q0 283 -356 283h-84v-570q71 -14 135 -14zM584 47v-47h-551v47q93 0 126.5 18.5t33.5 86.5v938q0 68 -33 86t-127 18v47h469q84 0 158 -12t139.5 -38.5t112.5 -65.5t74.5 -96t27.5 -128q0 -84 -39.5 -152.5t-106 -112.5t-150.5 -67.5
t-175 -23.5q-80 0 -162 16v-407q0 -47 15 -68.5t56 -30t132 -8.5z" />
    <glyph glyph-name="Q" unicode="Q" horiz-adv-x="1345" 
d="M932 -332q-136 0 -233 84.5t-121 235.5q-213 39 -360.5 219t-147.5 414q0 130 50 249t132 204.5t192.5 136.5t227.5 51q118 0 229 -51t194 -136.5t133 -204.5t50 -249q0 -239 -152.5 -420t-369.5 -215q31 -107 100 -165.5t152 -58.5q121 0 200 93l21 -23
q-57 -77 -134 -120.5t-163 -43.5zM1069 621q0 261 -112 421t-285 160q-171 0 -283.5 -160.5t-112.5 -420.5t112.5 -421t283.5 -161q173 0 285 160.5t112 421.5z" />
    <glyph glyph-name="R" unicode="R" horiz-adv-x="1261" 
d="M487 1184h-106v-535h106q340 0 340 275q0 140 -89.5 200t-250.5 60zM543 0h-510v47q93 0 126.5 18.5t33.5 86.5v938q0 68 -33 86t-127 18v47h489q142 0 252 -33.5t178 -106.5t68 -177q0 -115 -85 -192.5t-218 -110.5q109 -45 203 -203l143 -223q30 -47 47 -69.5t42 -44.5
t54 -29.5t72 -8.5v-43h-317l-195 324q-79 144 -139.5 207.5t-139.5 66.5h-106v-446q0 -68 33.5 -86.5t128.5 -18.5v-47z" />
    <glyph glyph-name="S" unicode="S" horiz-adv-x="923" 
d="M451 39q112 0 185 57.5t73 171.5q0 81 -45.5 132t-151.5 108l-201 106q-116 63 -173.5 133t-57.5 179q0 143 107.5 239.5t265.5 96.5q62 0 118.5 -17t94 -34t51.5 -17q20 0 30.5 11t20.5 38h27l16 -362l-37 -2q-18 143 -104 233t-213 90q-98 0 -161 -59t-63 -144
q0 -37 11.5 -68t26.5 -52t45 -43.5t52 -35t64 -34.5l172 -92q61 -33 104 -62t81.5 -68.5t57.5 -89t19 -108.5q0 -158 -118.5 -262t-292.5 -104q-55 0 -106 12.5t-81.5 28t-59 28t-42.5 12.5q-35 0 -53 -65h-31l-27 412l43 2q27 -170 125.5 -270.5t227.5 -100.5z" />
    <glyph glyph-name="T" unicode="T" horiz-adv-x="1189" 
d="M688 1190v-1036q0 -69 39.5 -88t163.5 -19v-47h-592v47q124 0 163.5 19t39.5 88v1036h-80q-66 0 -108.5 -3.5t-82 -14.5t-62.5 -29.5t-42 -52t-29.5 -78.5t-17.5 -111h-39l6 350q55 -10 174 -10h748q119 0 174 10l6 -350h-39q-7 66 -17.5 111t-29.5 78.5t-42 52t-63 29.5
t-82.5 14.5t-109.5 3.5h-78z" />
    <glyph glyph-name="U" unicode="U" horiz-adv-x="1353" 
d="M971 0v240q-51 -122 -154 -191t-231 -69q-196 0 -303 131.5t-107 365.5v613q0 68 -33.5 86t-128.5 18v47h512v-47q-95 0 -128 -18t-33 -86v-611q0 -194 73.5 -297.5t216.5 -103.5q117 0 202.5 67t113.5 201v744q0 68 -33.5 86t-128.5 18v47h512v-47q-95 0 -128.5 -18
t-33.5 -86v-938q0 -68 33.5 -86.5t128.5 -18.5v-47h-350z" />
    <glyph glyph-name="V" unicode="V" horiz-adv-x="1318" 
d="M670 -20h-17l-479 1110q-31 71 -58.5 87.5t-115.5 16.5v47h502v-47q-86 0 -118 -8.5t-32 -38.5q0 -6 19 -57l346 -836l323 823q11 33 11 49q0 40 -41.5 54t-122.5 14v47h432v-47q-91 0 -132 -22t-71 -93z" />
    <glyph glyph-name="W" unicode="W" horiz-adv-x="1789" 
d="M1190 -20l-289 802l-283 -802h-16l-428 1112q-26 68 -56 85t-118 17v47h498v-47q-84 0 -114 -8t-30 -37q0 -19 15 -57l299 -805l200 587l-77 218q-25 70 -51 86t-113 16v47h493v-47q-86 0 -119.5 -9t-33.5 -40q0 -19 12 -53l274 -801l256 772q11 42 11 55q0 25 -11 40.5
t-34.5 23t-49 10t-65.5 2.5v47h430v-47q-89 0 -133 -27.5t-72 -101.5l-379 -1085h-16z" />
    <glyph glyph-name="X" unicode="X" horiz-adv-x="1323" 
d="M440 47v-47h-440v47q88 0 141 25t97 88l327 463l-321 467q-47 68 -83.5 86t-123.5 18v47h530v-47q-78 0 -112.5 -8t-34.5 -31q0 -14 33 -65l239 -349l236 344q22 39 22 56q0 30 -37 41.5t-108 11.5v47h436v-47q-90 0 -140 -22t-93 -85l-279 -399l371 -536q46 -67 89 -86
t134 -19v-47h-563v47q81 0 119.5 9.5t38.5 35.5q0 14 -27 60l-287 415l-282 -405q-23 -29 -23 -56q0 -59 141 -59z" />
    <glyph glyph-name="Y" unicode="Y" horiz-adv-x="1218" 
d="M907 0h-592v47q124 0 163.5 19t39.5 88v464l-336 472q-49 69 -78 86.5t-104 17.5v47h508v-47q-76 0 -108.5 -8t-32.5 -29q0 -27 26 -59l287 -408l246 393q18 35 18 54q0 33 -39.5 45t-113.5 12v47h428v-47q-89 0 -133.5 -21.5t-86.5 -87.5l-294 -469v-462q0 -69 39 -88
t163 -19v-47z" />
    <glyph glyph-name="Z" unicode="Z" horiz-adv-x="1073" 
d="M1004 0h-963v8l729 1178h-346q-85 0 -137 -11t-90 -42.5t-56 -85t-28 -142.5h-37l4 336h926v-8l-725 -1178h376q53 0 89.5 4t72.5 17t60.5 35.5t48 59.5t42 89.5t36.5 126.5h41z" />
    <glyph glyph-name="bracketleft" unicode="[" horiz-adv-x="620" 
d="M305 1270v-1460l248 -27v-35h-399v1583h399v-35z" />
    <glyph glyph-name="backslash" unicode="\" horiz-adv-x="813" 
d="M772 -250h-63l-668 1581h63z" />
    <glyph glyph-name="bracketright" unicode="]" horiz-adv-x="620" 
d="M315 -190v1460l-247 26v35h399v-1583h-399v35z" />
    <glyph glyph-name="asciicircum" unicode="^" horiz-adv-x="741" 
d="M358 1262h25l276 -471h-75l-213 358l-213 -358h-76z" />
    <glyph glyph-name="underscore" unicode="_" horiz-adv-x="739" 
d="M82 -172v82h575v-82h-575z" />
    <glyph glyph-name="grave" unicode="`" horiz-adv-x="1024" 
d="M666 993l-19 -8l-319 299v6q97 21 153 58h8z" />
    <glyph glyph-name="a" unicode="a" horiz-adv-x="845" 
d="M526 573q0 98 -47.5 160t-144.5 62q-71 0 -129.5 -47.5t-95.5 -133.5l-41 17q41 117 134.5 189.5t213.5 72.5q133 0 212 -81t79 -222v-432q0 -45 19.5 -70t47.5 -25q23 0 40 10.5t40 37.5l25 -27q-68 -104 -172 -104q-65 0 -113.5 37.5t-65.5 103.5
q-45 -60 -112.5 -100.5t-145.5 -40.5q-89 0 -152 53t-63 143q0 89 65 144.5t195 105.5l211 76v71zM526 449l-164 -62q-139 -52 -139 -170q0 -66 39.5 -105.5t104.5 -39.5q85 0 159 84v293z" />
    <glyph glyph-name="b" unicode="b" horiz-adv-x="983" 
d="M438 -20q-169 0 -303 47v1153q0 73 -25 90.5t-116 17.5v43h321v-588q39 62 110.5 106t156.5 44q155 0 257.5 -114t102.5 -300q0 -148 -71.5 -263.5t-185.5 -175.5t-247 -60zM446 33q132 0 222 101.5t90 293.5q0 165 -65 272t-189 107q-58 0 -107.5 -29t-81.5 -73v-533
q0 -76 33.5 -107.5t97.5 -31.5z" />
    <glyph glyph-name="c" unicode="c" horiz-adv-x="798" 
d="M485 836q-118 0 -198 -97.5t-80 -251.5q0 -175 92.5 -291t232.5 -116q66 0 114 24t99 84l27 -24q-58 -90 -145 -137t-181 -47q-82 0 -155.5 31.5t-129 87.5t-88 139t-32.5 180q0 100 37 189.5t98 151.5t140.5 98t162.5 36q48 0 89 -11.5t67 -23.5t37 -12q16 0 24 9t17 30
h24l17 -269l-35 -2q-22 109 -86 165.5t-148 56.5z" />
    <glyph glyph-name="d" unicode="d" horiz-adv-x="989" 
d="M496 66q49 0 95.5 21t76.5 58v633q-59 56 -160 56q-121 0 -202 -102t-81 -288q0 -164 73 -271t198 -107zM668 0v104q-41 -53 -109 -88.5t-147 -35.5q-155 0 -262 118t-107 303q0 111 37 205t97.5 156t137.5 96.5t158 34.5q112 0 195 -66v353q0 73 -25.5 90.5t-116.5 17.5
v43h322v-1179q0 -72 23 -90.5t98 -18.5v-43h-301z" />
    <glyph glyph-name="e" unicode="e" horiz-adv-x="825" 
d="M438 840q-86 0 -145 -65t-76 -185h395q-5 115 -48 182.5t-126 67.5zM795 162q-57 -89 -142 -135.5t-180 -46.5q-180 0 -306 126.5t-126 321.5q0 130 58 238t149 167.5t192 59.5q85 0 152 -30.5t107 -82t60.5 -112.5t20.5 -127h-569v-37q0 -182 96.5 -302t249.5 -120
q135 0 215 102z" />
    <glyph glyph-name="f" unicode="f" horiz-adv-x="552" 
d="M332 152q0 -73 26 -91t125 -18v-43h-452v43q75 0 98 18.5t23 90.5v657h-101v35l101 28v25q0 197 103 326t277 129q119 0 207 -49l-6 -197h-39q-7 192 -168 192q-93 0 -143.5 -80.5t-50.5 -244.5v-105q139 0 227 9l-12 -68h-215v-657z" />
    <glyph glyph-name="g" unicode="g" horiz-adv-x="851" 
d="M575 598q0 110 -48 180t-124 70q-78 0 -126 -69.5t-48 -180.5q0 -113 48 -182.5t126 -69.5q77 0 124.5 70t47.5 182zM852 -104q0 -93 -68 -165t-164.5 -106.5t-197.5 -34.5q-188 0 -311 64t-123 174q0 78 73 133t177 68q-33 15 -55.5 45.5t-22.5 72.5q0 114 149 162
q-111 27 -181.5 105.5t-70.5 183.5q0 127 101.5 211t244.5 84q67 0 129 -21q199 0 328 15l-31 -84l-180 4q99 -86 99 -209q0 -128 -101.5 -213.5t-243.5 -85.5q-22 0 -34 2q-86 -16 -86 -70q0 -40 57 -55l285 -65q227 -51 227 -215zM580 -59l-299 73q-72 -13 -112 -59.5
t-40 -114.5q0 -94 80 -146t213 -52q122 0 208.5 44t86.5 124q0 48 -31.5 80.5t-105.5 50.5z" />
    <glyph glyph-name="h" unicode="h" horiz-adv-x="1011" 
d="M453 43v-43h-422v43q75 0 98 18.5t23 90.5v1028q0 73 -25.5 90.5t-116.5 17.5v43h322v-629q35 72 111 131.5t169 59.5q132 0 199.5 -84t67.5 -215v-442q0 -72 22.5 -90.5t99.5 -18.5v-43h-421v43q75 0 96.5 18t21.5 91v407q0 112 -46 170.5t-134 58.5q-60 0 -110 -36
t-76 -90v-510q0 -72 23 -90.5t98 -18.5z" />
    <glyph glyph-name="i" unicode="i" horiz-adv-x="483" 
d="M135 1174q0 45 33 77.5t78 32.5q47 0 79.5 -32t32.5 -78t-32.5 -77.5t-79.5 -31.5q-45 0 -78 32t-33 77zM162 723q0 72 -22.5 89t-98.5 17v43h301v-720q0 -72 23.5 -90.5t99.5 -18.5v-43h-424v43q75 0 98 18.5t23 90.5v571z" />
    <glyph glyph-name="j" unicode="j" horiz-adv-x="442" 
d="M113 1174q0 46 32 78t78 32t78.5 -32t32.5 -78t-32.5 -77.5t-78.5 -31.5t-78 31.5t-32 77.5zM139 -139v862q0 71 -24 88.5t-101 17.5v43h305v-946q0 -162 -92.5 -249t-236.5 -87q-61 0 -113.5 17.5t-77.5 42.5l19 33q58 -39 133 -39q88 0 138 53.5t50 163.5z" />
    <glyph glyph-name="k" unicode="k" horiz-adv-x="987" 
d="M152 152v1028q0 73 -25.5 90.5t-116.5 17.5v43h322v-1179q0 -72 23 -90.5t98 -18.5v-43h-422v43q75 0 98 18.5t23 90.5zM506 553l295 -381q64 -78 100.5 -103t91.5 -26v-43h-274l-324 424q-12 15 -25 28.5t-20 19.5l-6 7l285 254q53 47 53 68q0 28 -86 28v43h352v-43
q-74 0 -131.5 -27.5t-122.5 -84.5z" />
    <glyph glyph-name="l" unicode="l" horiz-adv-x="475" 
d="M152 1180q0 73 -25.5 90.5t-116.5 17.5v43h322v-1179q0 -72 23 -90.5t98 -18.5v-43h-422v43q75 0 98 18.5t23 90.5v1028z" />
    <glyph glyph-name="m" unicode="m" horiz-adv-x="1544" 
d="M465 43v-43h-424v43q75 0 98 18.5t23 90.5v571q0 72 -22.5 89t-98.5 17v43h301v-170q22 45 57 85.5t94 73t125 32.5q103 0 165 -54t83 -147q16 33 41.5 65.5t61 64.5t84 51.5t100.5 19.5q130 0 194 -83.5t64 -215.5v-442q0 -72 23 -90.5t100 -18.5v-43h-422v43
q74 0 96.5 18.5t22.5 90.5v407q0 229 -174 229q-60 0 -109 -38.5t-76 -94.5q5 -50 5 -61v-442q0 -72 22.5 -90.5t99.5 -18.5v-43h-421v43q75 0 96.5 18t21.5 91v407q0 229 -174 229q-60 0 -107.5 -36t-72.5 -90v-510q0 -72 23.5 -90.5t99.5 -18.5z" />
    <glyph glyph-name="n" unicode="n" horiz-adv-x="1019" 
d="M465 43v-43h-424v43q75 0 98 18.5t23 90.5v571q0 72 -22.5 89t-98.5 17v43h301v-170q35 72 110.5 131.5t170.5 59.5q130 0 198 -84t68 -215v-442q0 -72 23 -90.5t98 -18.5v-43h-422v43q75 0 98 18.5t23 90.5v407q0 112 -47 170.5t-136 58.5q-60 0 -109.5 -36t-74.5 -90
v-510q0 -72 23.5 -90.5t99.5 -18.5z" />
    <glyph glyph-name="o" unicode="o" horiz-adv-x="929" 
d="M889 436q0 -98 -36 -184t-95 -145t-135.5 -93t-157.5 -34t-157.5 34t-135.5 93t-95 145t-36 184t36 184.5t95 145.5t135.5 93t157.5 34t157.5 -34t135.5 -93t95 -145.5t36 -184.5zM700 436q0 196 -64 301t-171 105t-171.5 -105t-64.5 -301q0 -194 64.5 -298.5
t171.5 -104.5t171 104t64 299z" />
    <glyph glyph-name="p" unicode="p" horiz-adv-x="997" 
d="M498 37q52 0 99.5 22.5t87.5 67t63.5 122.5t23.5 179q0 107 -26.5 190.5t-85.5 136t-144 52.5q-56 0 -104.5 -28.5t-81.5 -73.5v-607q61 -61 168 -61zM489 -346v-43h-460v43q76 0 98.5 18t22.5 90v955q0 73 -23 92.5t-98 19.5v43h301v-129q40 61 112.5 105.5t153.5 44.5
q156 0 258 -118t102 -306q0 -110 -37 -204t-97 -155.5t-135.5 -95.5t-154.5 -34q-123 0 -202 67v-285q0 -72 29.5 -90t129.5 -18z" />
    <glyph glyph-name="q" unicode="q" horiz-adv-x="972" 
d="M971 -389h-465v43q102 0 132 18t30 90v355q-41 -57 -109.5 -97t-148.5 -40q-156 0 -261.5 113t-105.5 298q0 110 42 205t112 159.5t161.5 101t190.5 36.5q168 0 299 -47v-1084q0 -72 23.5 -90t99.5 -18v-43zM489 68q113 0 179 86v546q0 75 -30.5 106.5t-96.5 31.5
q-134 0 -225 -103.5t-91 -304.5q0 -151 70.5 -256.5t193.5 -105.5z" />
    <glyph glyph-name="r" unicode="r" horiz-adv-x="733" 
d="M504 43v-43h-463v43q75 0 98 18.5t23 90.5v571q0 72 -22.5 89t-98.5 17v43h301v-182q73 105 123 154t104 49q43 0 87.5 -30.5t66.5 -67.5l-84 -152h-4q-28 50 -68.5 83.5t-81.5 33.5q-34 0 -66 -26t-77 -85v-497q0 -72 30.5 -90.5t131.5 -18.5z" />
    <glyph glyph-name="s" unicode="s" horiz-adv-x="718" 
d="M362 35q77 0 120.5 37t43.5 108q0 50 -30 80t-95 64l-151 77q-80 42 -126 97.5t-46 138.5q0 112 80.5 184t199.5 72q55 0 118.5 -23.5t72.5 -23.5q14 0 22 9.5t17 29.5h24l17 -264l-35 -3q-19 106 -84.5 165t-144.5 59q-68 0 -108 -38t-40 -99q0 -51 31 -82.5t96 -65.5
l137 -70q88 -45 136.5 -100.5t48.5 -142.5q0 -113 -86 -188.5t-213 -75.5q-44 0 -85.5 11t-65.5 23.5t-45 23.5t-30 11q-14 0 -26 -16.5t-17 -38.5h-28l-15 299l39 2q15 -111 89.5 -185.5t178.5 -74.5z" />
    <glyph glyph-name="t" unicode="t" horiz-adv-x="622" 
d="M29 836q167 113 274 266h16v-234q199 0 287 9l-12 -68h-275v-561q0 -79 35.5 -126.5t104.5 -47.5q85 0 149 88l29 -23q-98 -159 -266 -159q-98 0 -165 65t-67 166l6 598h-116v27z" />
    <glyph glyph-name="u" unicode="u" 
d="M662 0v154q-33 -69 -106 -121.5t-165 -52.5q-123 0 -191.5 82t-68.5 210v451q0 72 -22.5 89t-98.5 17v43h301v-571q0 -108 44 -166.5t130 -58.5q57 0 102.5 32.5t74.5 88.5v526q0 71 -23 88.5t-100 17.5v43h303v-720q0 -72 23 -90.5t98 -18.5v-43h-301z" />
    <glyph glyph-name="v" unicode="v" horiz-adv-x="956" 
d="M498 -20h-15l-333 743q-32 70 -54.5 88t-87.5 18v43h432v-43q-63 0 -90.5 -8.5t-27.5 -38.5q0 -18 16 -61l205 -492l192 492q17 38 17 61q0 29 -27 38t-94 9v43h319v-43q-70 0 -93 -17t-54 -89z" />
    <glyph glyph-name="w" unicode="w" horiz-adv-x="1337" 
d="M899 -20l-211 567l-225 -567h-14l-302 743q-28 71 -50.5 88.5t-88.5 17.5v43h418v-43q-30 0 -46 -1t-33.5 -5.5t-24.5 -14.5t-7 -26q0 -15 19 -61l182 -477l143 379l-36 100q-28 71 -50.5 88.5t-89.5 17.5v43h406v-43q-59 0 -84 -9.5t-25 -39.5q0 -15 13 -59l165 -477
l162 479q13 43 13 53q0 32 -29 42.5t-92 10.5v43h317v-43q-71 0 -92 -16.5t-49 -89.5l-275 -743h-14z" />
    <glyph glyph-name="x" unicode="x" horiz-adv-x="964" 
d="M340 43v-43h-332v43q68 0 109.5 23.5t87.5 85.5l201 284l-199 305q-39 61 -63 74.5t-89 13.5v43h410v-43q-50 0 -70 -5.5t-20 -24.5q0 -17 24 -58l129 -200l117 180q35 53 35 76q0 18 -20.5 25t-67.5 7v43h317v-43q-69 0 -112 -23.5t-84 -84.5l-154 -227l221 -342
q40 -64 75.5 -86.5t100.5 -22.5v-43h-417v43q86 0 86 33q0 23 -35 76l-154 235l-157 -235q-37 -53 -37 -72q0 -21 23 -29t75 -8z" />
    <glyph glyph-name="y" unicode="y" horiz-adv-x="956" 
d="M266 -410l-221 29v25q222 21 408 389l-306 690q-31 71 -52.5 88.5t-86.5 17.5v43h434v-43q-63 0 -90.5 -9t-27.5 -40q0 -21 14 -59l203 -492l194 494q15 35 15 53q0 32 -29 42.5t-90 10.5v43h319v-43q-71 0 -93.5 -16.5t-53.5 -89.5l-273 -647q-77 -182 -149 -313.5
t-115 -172.5z" />
    <glyph glyph-name="z" unicode="z" horiz-adv-x="849" 
d="M791 0h-732v8l508 813h-207q-124 0 -172.5 -52.5t-66.5 -188.5h-41l20 301q79 -9 211 -9h475v-8l-507 -813h225q78 0 121.5 10t71.5 41.5t38 79.5t13 135h43v-317z" />
    <glyph glyph-name="braceleft" unicode="{" horiz-adv-x="710" 
d="M78 530v19q118 19 170.5 75.5t52.5 178.5q0 44 -25.5 137.5t-25.5 157.5q0 111 83 172t245 61h65v-33l-63 -8q-85 -9 -128.5 -55.5t-43.5 -138.5q0 -45 19 -137t19 -132q0 -228 -258 -288q117 -25 187.5 -95.5t70.5 -191.5q0 -42 -19 -132.5t-19 -135.5q0 -92 43.5 -139
t128.5 -56l63 -8v-33h-65q-161 0 -244.5 61.5t-83.5 172.5q0 64 25.5 156.5t25.5 137.5q0 122 -52 177.5t-171 76.5z" />
    <glyph glyph-name="bar" unicode="|" horiz-adv-x="546" 
d="M246 -250v1581h55v-1581h-55z" />
    <glyph glyph-name="braceright" unicode="}" horiz-adv-x="710" 
d="M633 549v-19q-119 -21 -171 -76.5t-52 -177.5q0 -45 25.5 -137.5t25.5 -156.5q0 -111 -83.5 -172.5t-244.5 -61.5h-65v33l63 8q85 9 128.5 56t43.5 139q0 44 -19.5 135t-19.5 133q0 121 70.5 191.5t187.5 95.5q-258 60 -258 288q0 40 19.5 132t19.5 137q0 92 -43.5 138.5
t-128.5 55.5l-63 8v33h65q162 0 245 -61t83 -172q0 -64 -25.5 -157.5t-25.5 -137.5q0 -122 52.5 -178.5t170.5 -75.5z" />
    <glyph glyph-name="asciitilde" unicode="~" horiz-adv-x="784" 
d="M500 428q-39 0 -89.5 28t-96 55.5t-70.5 27.5q-58 0 -123 -119l-39 22q59 123 103 173.5t98 50.5q39 0 90 -28t96 -55.5t70 -27.5q61 0 123 117l40 -21q-59 -123 -102.5 -173t-99.5 -50z" />
    <glyph glyph-name="uni00A0" unicode="&#xa0;" horiz-adv-x="348" 
 />
    <glyph glyph-name="exclamdown" unicode="&#xa1;" horiz-adv-x="393" 
d="M197 793q-47 0 -81 33.5t-34 80.5q0 49 33.5 83t81.5 34q49 0 82.5 -33.5t33.5 -83.5q0 -48 -33.5 -81t-82.5 -33zM182 643h29q6 -111 52.5 -435t47.5 -335q0 -50 -32 -90.5t-82 -40.5t-82.5 40.5t-32.5 90.5q5 36 31 211t45.5 325.5t23.5 233.5z" />
    <glyph glyph-name="cent" unicode="&#xa2;" horiz-adv-x="800" 
d="M205 487q0 -137 60 -241t159 -144l59 734q-120 -3 -199 -96t-79 -253zM442 -180l-43 -21l15 183q-160 14 -266.5 133.5t-106.5 302.5q0 100 38 189.5t100.5 151.5t143 98t164.5 36l15 170l43 20l-17 -190q140 -10 222 -74l-7 -209h-41q-13 204 -178 224l-59 -746
q46 -8 74 -8q69 0 120 24.5t101 83.5l24 -24q-58 -90 -146 -137t-183 -47z" />
    <glyph glyph-name="sterling" unicode="&#xa3;" horiz-adv-x="1050" 
d="M745 -20q-55 0 -108.5 18.5t-86 39.5t-85 58.5t-78.5 53.5q-50 -74 -113 -112t-122 -38q-55 0 -90 31.5t-35 79.5q0 73 63.5 116t151.5 43q49 0 110 -14q15 52 15 117q0 54 -19 143h-231l18 66h197q-6 18 -26 78.5t-27.5 87t-16 70.5t-8.5 79q0 164 103.5 264.5
t260.5 100.5q133 0 217.5 -86t90.5 -209l-35 -11q-14 80 -74.5 134.5t-152.5 54.5q-91 0 -152 -71.5t-61 -188.5q0 -46 17.5 -152.5t20.5 -150.5h72q117 0 164.5 4t95.5 22h8l-41 -92h-296q-6 -163 -60 -285q9 -3 42.5 -15t46.5 -16.5t43.5 -14t51 -13.5t49.5 -10t57 -8
t58 -2q97 0 148.5 42.5t70.5 135.5l33 -4q-6 -68 -25 -127.5t-52 -109.5t-87.5 -79.5t-122.5 -29.5zM154 49q51 0 97 35t75 96q-59 27 -119 27q-54 0 -90.5 -26t-36.5 -68q0 -64 74 -64z" />
    <glyph glyph-name="yen" unicode="&#xa5;" horiz-adv-x="1136" 
d="M276 0v47q124 0 163.5 19t39.5 88v260h-280v55h280v135h-280v58h258l-273 428q-44 69 -75 86.5t-109 17.5v47h508v-47q-78 0 -109.5 -7.5t-31.5 -29.5q0 -19 24 -59l248 -402l207 385q16 27 16 52q0 19 -11 31t-32.5 18.5t-47 9t-62.5 2.5v47h428v-47q-89 0 -132.5 -21.5
t-82.5 -89.5l-238 -421h39q117 0 164.5 4t95.5 22h8l-39 -84h-290v-135q108 0 155 4.5t94 22.5h9l-39 -82h-219v-260q0 -69 39 -88t163 -19v-47h-588z" />
    <glyph glyph-name="section" unicode="&#xa7;" horiz-adv-x="903" 
d="M492 551q-131 172 -196 305.5t-52 241.5q-40 -35 -66 -107t-26 -168q0 -64 19.5 -128.5t62 -136.5t78.5 -123t100 -134q131 -171 195.5 -304.5t51.5 -242.5q40 35 66.5 107t26.5 168q0 64 -19.5 128.5t-62 136.5t-78.5 123t-100 134zM354 262q-15 21 -54 74t-56.5 78.5
t-49 73.5t-46.5 81t-33 77t-25.5 86.5t-7.5 86.5q0 195 120.5 319t293.5 124q156 0 266 -84l-17 -258h-38q4 82 -13.5 145t-68 105t-129.5 42q-83 0 -134 -47.5t-51 -124.5q0 -24 6 -51t13 -49.5t24.5 -55t28.5 -52.5t37 -58.5t39 -57t45 -63.5t45 -63q15 -21 54 -74
t56.5 -78.5t49 -73.5t46.5 -81t33 -77t25.5 -86.5t7.5 -86.5q0 -129 -62.5 -232t-161.5 -157t-212 -54q-75 0 -159.5 28.5t-139.5 70.5l16 258h39q-6 -143 57.5 -225t186.5 -82q87 0 147 46t60 126q0 24 -6 51t-13 49.5t-24.5 55t-28.5 52.5t-37 58.5t-39 57t-45 63.5
t-45 63z" />
    <glyph glyph-name="dieresis" unicode="&#xa8;" horiz-adv-x="983" 
d="M250 1157q0 42 29 71t71 29q43 0 72 -28.5t29 -71.5q0 -44 -29 -73t-72 -29q-42 0 -71 29t-29 73zM528 1157q0 42 31 71t74 29t71.5 -28.5t28.5 -71.5q0 -44 -28.5 -73t-71.5 -29t-74 29t-31 73z" />
    <glyph glyph-name="copyright" unicode="&#xa9;" horiz-adv-x="1435" 
d="M719 -20q-137 0 -256.5 50.5t-202.5 137t-130.5 204.5t-47.5 249t47.5 248.5t130.5 204t202.5 137.5t256.5 51q181 0 327.5 -86.5t227 -233t80.5 -321.5q0 -131 -47.5 -249t-130.5 -204.5t-202 -137t-255 -50.5zM719 1231q-174 0 -313.5 -82.5t-216 -221.5t-76.5 -306
t76.5 -306.5t216 -222t313.5 -82.5q129 0 242.5 48.5t192 131t124 194.5t45.5 237t-45.5 237t-124 194t-192 130.5t-242.5 48.5zM522 676q0 -165 87 -265t200 -100q59 0 101 15.5t89 62.5l17 -22q-43 -52 -112.5 -85.5t-160.5 -33.5q-96 0 -181 44t-141 131.5t-56 199.5
q0 166 113 276.5t274 110.5q59 0 117.5 -21.5t64.5 -21.5q11 0 17.5 7.5t15.5 24.5h14l12 -221l-26 -2q-14 93 -67.5 145t-143.5 52q-100 0 -167 -82t-67 -215z" />
    <glyph glyph-name="ordfeminine" unicode="&#xaa;" horiz-adv-x="694" 
d="M371 1059q0 57 -27.5 92t-83.5 35q-90 0 -137 -105l-31 13q26 75 85 121.5t140 46.5q89 0 141 -52t52 -143v-256q0 -25 10.5 -39t26.5 -14q22 0 45 26l20 -22q-45 -68 -120 -68q-41 0 -73 23t-44 65q-65 -88 -160 -88q-55 0 -94 33t-39 88q0 59 41 93.5t127 68.5l121 47
v35zM371 985l-80 -33q-41 -15 -61.5 -37t-20.5 -65q0 -39 22 -60.5t58 -21.5q44 0 82 41v176zM553 571h-442l10 45h442z" />
    <glyph glyph-name="guillemotleft" unicode="&#xab;" horiz-adv-x="724" 
d="M57 438l322 332h31l-179 -332l179 -332h-31zM317 438l322 332h31l-178 -332l178 -332h-31z" />
    <glyph glyph-name="registered" unicode="&#xae;" horiz-adv-x="798" 
d="M401 621q-136 0 -227.5 94t-91.5 225q0 134 91.5 228t227.5 94q134 0 225 -94.5t91 -227.5q0 -131 -91.5 -225t-224.5 -94zM401 1233q-124 0 -207 -85.5t-83 -207.5q0 -119 83 -205t207 -86q121 0 204 86t83 205q0 121 -82.5 207t-204.5 86zM365 1104h-23v-143h23
q92 0 92 71q0 72 -92 72zM385 772h-158v19q19 0 27 1.5t13 8t5 20.5v256q0 19 -9.5 25t-35.5 6v16h160q61 0 100 -22.5t39 -69.5q0 -32 -27 -54t-67 -30q34 -14 57 -55l29 -49q21 -32 36.5 -42.5t43.5 -10.5v-19h-115l-55 107q-33 65 -70 65h-16v-123q0 -21 7.5 -25.5
t35.5 -4.5v-19z" />
    <glyph glyph-name="macron" unicode="&#xaf;" horiz-adv-x="1024" 
d="M739 1055h-487l33 67h487z" />
    <glyph glyph-name="degree" unicode="&#xb0;" horiz-adv-x="587" 
d="M506 1053q0 -89 -62 -152t-147 -63q-90 0 -152.5 62.5t-62.5 152.5q0 87 62.5 148t152.5 61q85 0 147 -61.5t62 -147.5zM123 1053q0 -72 50.5 -123t123.5 -51q69 0 118.5 51t49.5 123q0 69 -50 118.5t-118 49.5q-72 0 -123 -49.5t-51 -118.5z" />
    <glyph glyph-name="plusminus" unicode="&#xb1;" horiz-adv-x="960" 
d="M872 676h-364v-277h-57v277h-363v57h363v275h57v-275h364v-57zM88 221v53h784v-53h-784z" />
    <glyph glyph-name="twosuperior" unicode="&#xb2;" horiz-adv-x="600" 
d="M475 635h-405v8q127 125 187 195t78.5 110.5t18.5 87.5q0 52 -29.5 84.5t-82.5 32.5q-93 0 -127 -104l-23 6q13 80 69.5 139t139.5 59q77 0 126.5 -47.5t49.5 -122.5q0 -34 -13.5 -68t-32 -61.5t-55 -64t-65 -61.5t-79.5 -68q-17 -14 -25 -21h155q60 0 83.5 14.5
t37.5 55.5h29z" />
    <glyph glyph-name="threesuperior" unicode="&#xb3;" horiz-adv-x="618" 
d="M236 1126q-37 0 -53.5 -15t-28.5 -58h-25l29 188h356v-8l-215 -252q85 14 149 -29.5t64 -132.5q0 -86 -65.5 -141t-147.5 -55q-79 0 -132 43t-75 110l27 12q40 -108 141 -108q57 0 91 36.5t34 98.5q0 67 -48 101.5t-110 19.5l-4 4l152 186h-139z" />
    <glyph glyph-name="acute" unicode="&#xb4;" horiz-adv-x="1024" 
d="M377 985l-19 8l177 355h8q56 -37 153 -58v-6z" />
    <glyph glyph-name="paragraph" unicode="&#xb6;" horiz-adv-x="1091" 
d="M512 -389v805q-179 0 -304.5 122.5t-125.5 297.5q0 176 124.5 290.5t305.5 114.5h498v-51h-209v-1579h-66v1579h-157v-1579h-66z" />
    <glyph glyph-name="periodcentered" unicode="&#xb7;" horiz-adv-x="395" 
d="M82 475q0 48 34 81.5t83 33.5q47 0 80.5 -34t33.5 -81q0 -49 -33.5 -83t-80.5 -34q-49 0 -83 34t-34 83z" />
    <glyph glyph-name="cedilla" unicode="&#xb8;" horiz-adv-x="1024" 
d="M330 -410v33q94 0 151.5 33.5t57.5 83.5q0 83 -154 86l82 201h37l-39 -113q46 -2 87.5 -14.5t74 -43t32.5 -73.5q0 -61 -45 -105.5t-118.5 -66t-165.5 -21.5z" />
    <glyph glyph-name="onesuperior" unicode="&#xb9;" horiz-adv-x="491" 
d="M322 1092v-365q0 -39 17 -48t81 -9v-33h-330v33q63 0 80.5 9.5t17.5 47.5v406q0 24 -4.5 32.5t-21.5 8.5q-3 0 -78 -11v33l242 59q-4 -35 -4 -163z" />
    <glyph glyph-name="ordmasculine" unicode="&#xba;" horiz-adv-x="706" 
d="M625 979q0 -122 -82.5 -203.5t-190.5 -81.5q-107 0 -188.5 81.5t-81.5 203.5t81.5 202.5t188.5 80.5q108 0 190.5 -80.5t82.5 -202.5zM481 979q0 119 -34.5 181.5t-94.5 62.5q-59 0 -94 -63t-35 -181t35 -182t94 -64q60 0 94.5 63.5t34.5 182.5zM588 571h-473l10 45h473z
" />
    <glyph glyph-name="guillemotright" unicode="&#xbb;" horiz-adv-x="724" 
d="M86 770l322 -332l-322 -332h-31l178 332l-178 332h31zM346 770l322 -332l-322 -332h-31l179 332l-179 332h31z" />
    <glyph glyph-name="onequarter" unicode="&#xbc;" horiz-adv-x="1189" 
d="M322 1092v-365q0 -39 17 -48t81 -9v-33h-330v33q63 0 80.5 9.5t17.5 47.5v406q0 24 -4.5 32.5t-21.5 8.5q-3 0 -78 -11v33l242 59q-4 -35 -4 -163zM848 1001l-666 -1001h-90q86 78 193 240l665 1001h90q-83 -76 -192 -240zM627 256h176v213zM1014 29v-29h-291v29
q48 0 64 9t16 42v131h-254v10l325 391h60v-356h39q37 0 53 0.5t34.5 4t33.5 11.5h4l-25 -61h-139v-131q0 -33 16 -42t64 -9z" />
    <glyph glyph-name="onehalf" unicode="&#xbd;" horiz-adv-x="1155" 
d="M322 1092v-365q0 -39 17 -48t81 -9v-33h-330v33q63 0 80.5 9.5t17.5 47.5v406q0 24 -4.5 32.5t-21.5 8.5q-3 0 -78 -11v33l242 59q-4 -35 -4 -163zM848 1001l-666 -1001h-90q86 78 193 240l665 1001h90q-83 -76 -192 -240zM1030 0h-407v8q128 125 188.5 195t79 110
t18.5 88q0 52 -30 84.5t-84 32.5q-93 0 -127 -104l-23 6q15 80 70.5 139t138.5 59q78 0 128 -47t50 -122q0 -54 -38 -113t-77.5 -96t-129.5 -113q-18 -15 -27 -23h158q60 0 83 14.5t37 55.5h27z" />
    <glyph glyph-name="threequarters" unicode="&#xbe;" horiz-adv-x="1222" 
d="M879 1001l-666 -1001h-90q83 76 192 240l666 1001h90q-83 -76 -192 -240zM236 1126q-37 0 -53.5 -15t-28.5 -58h-25l29 188h356v-8l-215 -252q85 14 149 -29.5t64 -132.5q0 -86 -65.5 -141t-147.5 -55q-79 0 -132 43t-75 110l27 12q40 -108 141 -108q57 0 91 36.5
t34 98.5q0 67 -48 101.5t-110 19.5l-4 4l152 186h-139zM659 256h175v213zM1044 29v-29h-288v29q48 0 63 9t15 42v131h-252v10l325 391h60v-356h37q53 0 76 2.5t46 13.5h4l-24 -61h-139v-131q0 -33 15 -42t62 -9z" />
    <glyph glyph-name="questiondown" unicode="&#xbf;" horiz-adv-x="772" 
d="M522 909q0 -48 -33.5 -81t-82.5 -33q-47 0 -81 33.5t-34 80.5q0 49 33.5 83t81.5 34q49 0 82.5 -33.5t33.5 -83.5zM438 -121q104 0 168.5 69t87.5 189l39 -8q-10 -103 -56.5 -189t-131 -141t-191.5 -55q-140 0 -227.5 84.5t-87.5 218.5q0 52 18.5 102t48.5 90.5t66 79.5
t73.5 77t68.5 76t53 82.5t26 90.5h37q-7 -75 -31.5 -141.5t-53.5 -113t-57 -90.5t-46.5 -94.5t-18.5 -105.5q0 -94 58.5 -157.5t156.5 -63.5z" />
    <glyph glyph-name="Agrave" unicode="&#xc0;" horiz-adv-x="1318" 
d="M768 1315l-14 -10l-412 184v6q79 49 137 111h8zM602 1036l-174 -469h358zM430 47v-47h-430v47q94 0 135 21.5t68 93.5l413 1091h89l440 -1101q29 -71 57.5 -88t116.5 -17v-47h-502v47q87 0 118.5 8.5t31.5 38.5q0 1 -17 58l-141 358h-401l-129 -346q-9 -27 -9 -45
q0 -41 41 -56.5t119 -15.5z" />
    <glyph glyph-name="Aacute" unicode="&#xc1;" horiz-adv-x="1318" 
d="M545 1305l-15 10l281 291h8q58 -62 137 -111v-6zM602 1036l-174 -469h358zM430 47v-47h-430v47q94 0 135 21.5t68 93.5l413 1091h89l440 -1101q29 -71 57.5 -88t116.5 -17v-47h-502v47q87 0 118.5 8.5t31.5 38.5q0 1 -17 58l-141 358h-401l-129 -346q-9 -27 -9 -45
q0 -41 41 -56.5t119 -15.5z" />
    <glyph glyph-name="Acircumflex" unicode="&#xc2;" horiz-adv-x="1318" 
d="M729 1583q25 -49 87 -135.5t114 -147.5l-29 -6l-242 172l-241 -172l-29 6q51 57 113 144.5t88 138.5q38 -6 69 -6q33 0 70 6zM602 1036l-174 -469h358zM430 47v-47h-430v47q94 0 135 21.5t68 93.5l413 1091h89l440 -1101q29 -71 57.5 -88t116.5 -17v-47h-502v47
q87 0 118.5 8.5t31.5 38.5q0 1 -17 58l-141 358h-401l-129 -346q-9 -27 -9 -45q0 -41 41 -56.5t119 -15.5z" />
    <glyph glyph-name="Atilde" unicode="&#xc3;" horiz-adv-x="1318" 
d="M801 1315q-30 0 -147.5 54t-149.5 54q-29 0 -63 -32.5t-60 -85.5l-31 18q64 123 107 175t86 52q30 0 147.5 -55t149.5 -55q29 0 62.5 34t60.5 87l30 -19q-64 -123 -106.5 -175t-85.5 -52zM602 1036l-174 -469h358zM430 47v-47h-430v47q94 0 135 21.5t68 93.5l413 1091h89
l440 -1101q29 -71 57.5 -88t116.5 -17v-47h-502v47q87 0 118.5 8.5t31.5 38.5q0 1 -17 58l-141 358h-401l-129 -346q-9 -27 -9 -45q0 -41 41 -56.5t119 -15.5z" />
    <glyph glyph-name="Adieresis" unicode="&#xc4;" horiz-adv-x="1318" 
d="M723 1423q0 41 30.5 71t71.5 30q43 0 73 -30t30 -71q0 -44 -30 -73t-73 -29q-42 0 -72 29t-30 73zM391 1423q0 41 30.5 71t70.5 30q44 0 73 -29.5t29 -71.5q0 -44 -29 -73t-73 -29q-41 0 -71 29.5t-30 72.5zM602 1036l-174 -469h358zM430 47v-47h-430v47q94 0 135 21.5
t68 93.5l413 1091h89l440 -1101q29 -71 57.5 -88t116.5 -17v-47h-502v47q87 0 118.5 8.5t31.5 38.5q0 1 -17 58l-141 358h-401l-129 -346q-9 -27 -9 -45q0 -41 41 -56.5t119 -15.5z" />
    <glyph glyph-name="Aring" unicode="&#xc5;" horiz-adv-x="1318" 
d="M659 1257q47 0 80 34t33 81q0 46 -33 79.5t-80 33.5q-46 0 -80 -33.5t-34 -79.5q0 -47 34 -81t80 -34zM602 1036l-174 -469h358zM430 47v-47h-430v47q94 0 135 21.5t68 93.5l401 1057q-48 17 -78 59t-30 94q0 66 48.5 113t114.5 47q67 0 113.5 -47t46.5 -113
q0 -52 -27.5 -93t-72.5 -60l426 -1067q29 -71 57.5 -88t116.5 -17v-47h-502v47q87 0 118.5 8.5t31.5 38.5q0 1 -17 58l-141 358h-401l-129 -346q-9 -27 -9 -45q0 -41 41 -56.5t119 -15.5z" />
    <glyph glyph-name="AE" unicode="&#xc6;" horiz-adv-x="1763" 
d="M881 666v491l-297 -491h297zM432 47v-47h-432v47q86 0 126 23.5t81 91.5l618 1022q-45 10 -184 10v47h1001l5 -307h-35q-7 59 -17.5 99t-31 68.5t-42.5 44.5t-63 24.5t-82 11t-110 2.5h-199v-518h215q42 0 68 1.5t47 9.5t31 15.5t18.5 28t11.5 39t8 55.5h37v-352h-37
q-7 55 -12.5 78t-25.5 42t-51.5 23t-94.5 4h-215v-463q0 -57 25.5 -74.5t83.5 -17.5h120q42 0 68.5 0.5t58.5 3t51.5 7t43.5 12t39 19t32.5 28t29 37.5t24.5 49.5t23.5 63t21.5 77.5h38l-36 -352h-971v47q94 0 128 18.5t34 86.5v458h-330l-268 -446q-17 -26 -17 -49
q0 -68 166 -68z" />
    <glyph glyph-name="Ccedilla" unicode="&#xc7;" horiz-adv-x="1173" 
d="M840 -217q0 -61 -45.5 -105.5t-119 -66t-165.5 -21.5v33q94 0 151.5 33.5t57.5 83.5q0 83 -154 86l64 158q-109 13 -208 61t-178 126t-126 193.5t-47 249.5q0 140 49.5 261.5t134.5 206t200 132.5t244 48q70 0 134.5 -17t106 -34t56.5 -17q19 0 30 11t22 38h26l17 -366
l-39 -5q-55 330 -361 330q-184 0 -305 -144.5t-121 -373.5q0 -142 44 -261t116 -195t162 -118t186 -42q101 0 179 29.5t153 109.5l31 -35q-66 -86 -179.5 -139t-255.5 -53h-32l-23 -66q46 -2 87.5 -14.5t74.5 -43t33 -73.5z" />
    <glyph glyph-name="Egrave" unicode="&#xc8;" horiz-adv-x="1077" 
d="M676 1315l-14 -10l-412 184v6q79 49 137 111h8zM817 815v-352h-37q-7 55 -12.5 78t-25.5 42t-51.5 23t-94.5 4h-215v-463q0 -57 25.5 -74.5t82.5 -17.5h121q53 0 84 1t68.5 5.5t59.5 12.5t47.5 23t41 36t33 52.5t31 72t26.5 94.5h39l-36 -352h-971v47q93 0 126.5 18.5
t33.5 86.5v938q0 68 -33 86t-127 18v47h923l5 -307h-35q-7 59 -17.5 99t-31 68.5t-42.5 44.5t-63 24.5t-82 11t-110 2.5h-199v-518h215q42 0 68 1.5t47 9.5t31 15.5t18.5 28t11.5 39t8 55.5h37z" />
    <glyph glyph-name="Eacute" unicode="&#xc9;" horiz-adv-x="1077" 
d="M453 1305l-15 10l281 291h8q58 -62 137 -111v-6zM817 815v-352h-37q-7 55 -12.5 78t-25.5 42t-51.5 23t-94.5 4h-215v-463q0 -57 25.5 -74.5t82.5 -17.5h121q53 0 84 1t68.5 5.5t59.5 12.5t47.5 23t41 36t33 52.5t31 72t26.5 94.5h39l-36 -352h-971v47q93 0 126.5 18.5
t33.5 86.5v938q0 68 -33 86t-127 18v47h923l5 -307h-35q-7 59 -17.5 99t-31 68.5t-42.5 44.5t-63 24.5t-82 11t-110 2.5h-199v-518h215q42 0 68 1.5t47 9.5t31 15.5t18.5 28t11.5 39t8 55.5h37z" />
    <glyph glyph-name="Ecircumflex" unicode="&#xca;" horiz-adv-x="1077" 
d="M635 1583q25 -49 87 -135.5t114 -147.5l-29 -6l-242 172l-241 -172l-29 6q51 57 113 144.5t88 138.5q37 -6 69 -6q33 0 70 6zM817 815v-352h-37q-7 55 -12.5 78t-25.5 42t-51.5 23t-94.5 4h-215v-463q0 -57 25.5 -74.5t82.5 -17.5h121q53 0 84 1t68.5 5.5t59.5 12.5
t47.5 23t41 36t33 52.5t31 72t26.5 94.5h39l-36 -352h-971v47q93 0 126.5 18.5t33.5 86.5v938q0 68 -33 86t-127 18v47h923l5 -307h-35q-7 59 -17.5 99t-31 68.5t-42.5 44.5t-63 24.5t-82 11t-110 2.5h-199v-518h215q42 0 68 1.5t47 9.5t31 15.5t18.5 28t11.5 39t8 55.5h37z
" />
    <glyph glyph-name="Edieresis" unicode="&#xcb;" horiz-adv-x="1077" 
d="M629 1423q0 41 30.5 71t71.5 30q43 0 73 -30t30 -71q0 -44 -30 -73t-73 -29q-42 0 -72 29t-30 73zM297 1423q0 41 30 71t70 30q44 0 73.5 -29.5t29.5 -71.5q0 -44 -29.5 -73t-73.5 -29q-41 0 -70.5 29.5t-29.5 72.5zM817 815v-352h-37q-7 55 -12.5 78t-25.5 42t-51.5 23
t-94.5 4h-215v-463q0 -57 25.5 -74.5t82.5 -17.5h121q53 0 84 1t68.5 5.5t59.5 12.5t47.5 23t41 36t33 52.5t31 72t26.5 94.5h39l-36 -352h-971v47q93 0 126.5 18.5t33.5 86.5v938q0 68 -33 86t-127 18v47h923l5 -307h-35q-7 59 -17.5 99t-31 68.5t-42.5 44.5t-63 24.5
t-82 11t-110 2.5h-199v-518h215q42 0 68 1.5t47 9.5t31 15.5t18.5 28t11.5 39t8 55.5h37z" />
    <glyph glyph-name="Igrave" unicode="&#xcc;" horiz-adv-x="575" 
d="M397 1315l-14 -10l-412 184v6q82 51 138 111h8zM543 47v-47h-510v47q93 0 126.5 18.5t33.5 86.5v938q0 68 -33 86t-127 18v47h510v-47q-95 0 -128.5 -18t-33.5 -86v-938q0 -68 33.5 -86.5t128.5 -18.5z" />
    <glyph glyph-name="Iacute" unicode="&#xcd;" horiz-adv-x="575" 
d="M174 1305l-14 10l280 291h9q58 -62 137 -111v-6zM543 47v-47h-510v47q93 0 126.5 18.5t33.5 86.5v938q0 68 -33 86t-127 18v47h510v-47q-95 0 -128.5 -18t-33.5 -86v-938q0 -68 33.5 -86.5t128.5 -18.5z" />
    <glyph glyph-name="Icircumflex" unicode="&#xce;" horiz-adv-x="575" 
d="M356 1583q25 -49 87 -135.5t114 -147.5l-29 -6l-241 172l-242 -172l-29 6q51 57 113 144.5t88 138.5q38 -6 70 -6q31 0 69 6zM543 47v-47h-510v47q93 0 126.5 18.5t33.5 86.5v938q0 68 -33 86t-127 18v47h510v-47q-95 0 -128.5 -18t-33.5 -86v-938q0 -68 33.5 -86.5
t128.5 -18.5z" />
    <glyph glyph-name="Idieresis" unicode="&#xcf;" horiz-adv-x="575" 
d="M350 1423q0 41 31 71t72 30q43 0 72.5 -30t29.5 -71q0 -44 -29.5 -73t-72.5 -29q-42 0 -72.5 29.5t-30.5 72.5zM18 1423q0 41 30.5 71t70.5 30q44 0 73 -29.5t29 -71.5q0 -44 -29 -73t-73 -29q-41 0 -71 29.5t-30 72.5zM543 47v-47h-510v47q93 0 126.5 18.5t33.5 86.5
v938q0 68 -33 86t-127 18v47h510v-47q-95 0 -128.5 -18t-33.5 -86v-938q0 -68 33.5 -86.5t128.5 -18.5z" />
    <glyph glyph-name="Eth" unicode="&#xd0;" horiz-adv-x="1325" 
d="M526 0h-477v47q94 0 127 17.5t33 82.5v480h-139l18 53h121v414q0 65 -33 82.5t-127 17.5v47h488q211 0 372 -69t253.5 -206t92.5 -325q0 -184 -95.5 -331t-262 -228.5t-371.5 -81.5zM500 55h20q250 0 391.5 144t141.5 430q0 278 -137 417.5t-398 139.5h-121v-506h269
l-21 -53h-248v-475q0 -58 24 -77.5t79 -19.5z" />
    <glyph glyph-name="Ntilde" unicode="&#xd1;" horiz-adv-x="1318" 
d="M813 1315q-30 0 -147.5 54t-149.5 54q-29 0 -63 -32.5t-60 -85.5l-31 18q64 123 107 175t86 52q30 0 147.5 -55t149.5 -55q29 0 62.5 34t60.5 87l31 -19q-64 -123 -107 -175t-86 -52zM1145 -20h-21l-850 1069v-891q0 -37 12 -59.5t38.5 -33.5t57 -14.5t79.5 -3.5v-47
h-441v47q39 0 64.5 2t50 8.5t38 18.5t22 32t8.5 50v975q-39 39 -77.5 50t-115.5 11v47h352l711 -907v749q0 69 -43.5 90t-142.5 21v47h440v-47q-98 0 -140 -20.5t-42 -90.5v-1103z" />
    <glyph glyph-name="Ograve" unicode="&#xd2;" horiz-adv-x="1345" 
d="M782 1315l-14 -10l-412 184v6q82 51 138 111h8zM70 621q0 130 50 249t132 204.5t192.5 136.5t227.5 51q118 0 229 -51t194 -136.5t133 -204.5t50 -249t-50 -249t-133 -204.5t-194 -136.5t-229 -51q-117 0 -227.5 51t-192.5 136.5t-132 204.5t-50 249zM1069 621
q0 261 -112 421t-285 160q-171 0 -283.5 -160.5t-112.5 -420.5t112.5 -421t283.5 -161q173 0 285 160.5t112 421.5z" />
    <glyph glyph-name="Oacute" unicode="&#xd3;" horiz-adv-x="1345" 
d="M559 1305l-14 10l280 291h9q58 -62 137 -111v-6zM70 621q0 130 50 249t132 204.5t192.5 136.5t227.5 51q118 0 229 -51t194 -136.5t133 -204.5t50 -249t-50 -249t-133 -204.5t-194 -136.5t-229 -51q-117 0 -227.5 51t-192.5 136.5t-132 204.5t-50 249zM1069 621
q0 261 -112 421t-285 160q-171 0 -283.5 -160.5t-112.5 -420.5t112.5 -421t283.5 -161q173 0 285 160.5t112 421.5z" />
    <glyph glyph-name="Ocircumflex" unicode="&#xd4;" horiz-adv-x="1345" 
d="M741 1583q25 -49 87 -135.5t114 -147.5l-29 -6l-241 172l-242 -172l-29 6q51 57 113 144.5t88 138.5q37 -6 70 -6q32 0 69 6zM70 621q0 130 50 249t132 204.5t192.5 136.5t227.5 51q118 0 229 -51t194 -136.5t133 -204.5t50 -249t-50 -249t-133 -204.5t-194 -136.5
t-229 -51q-117 0 -227.5 51t-192.5 136.5t-132 204.5t-50 249zM1069 621q0 261 -112 421t-285 160q-171 0 -283.5 -160.5t-112.5 -420.5t112.5 -421t283.5 -161q173 0 285 160.5t112 421.5z" />
    <glyph glyph-name="Otilde" unicode="&#xd5;" horiz-adv-x="1345" 
d="M825 1315q-30 0 -147.5 54t-149.5 54q-29 0 -62 -32.5t-60 -85.5l-31 18q64 123 106.5 175t85.5 52q30 0 147.5 -55t149.5 -55q29 0 62.5 34t60.5 87l31 -19q-64 -123 -107 -175t-86 -52zM70 621q0 130 50 249t132 204.5t192.5 136.5t227.5 51q118 0 229 -51t194 -136.5
t133 -204.5t50 -249t-50 -249t-133 -204.5t-194 -136.5t-229 -51q-117 0 -227.5 51t-192.5 136.5t-132 204.5t-50 249zM1069 621q0 261 -112 421t-285 160q-171 0 -283.5 -160.5t-112.5 -420.5t112.5 -421t283.5 -161q173 0 285 160.5t112 421.5z" />
    <glyph glyph-name="Odieresis" unicode="&#xd6;" horiz-adv-x="1345" 
d="M735 1423q0 41 31 71t72 30q42 0 72 -30t30 -71q0 -44 -29.5 -73t-72.5 -29q-42 0 -72.5 29.5t-30.5 72.5zM403 1423q0 41 30.5 71t70.5 30q44 0 73 -29.5t29 -71.5q0 -44 -29 -73t-73 -29q-41 0 -71 29.5t-30 72.5zM70 621q0 130 50 249t132 204.5t192.5 136.5t227.5 51
q118 0 229 -51t194 -136.5t133 -204.5t50 -249t-50 -249t-133 -204.5t-194 -136.5t-229 -51q-117 0 -227.5 51t-192.5 136.5t-132 204.5t-50 249zM1069 621q0 261 -112 421t-285 160q-171 0 -283.5 -160.5t-112.5 -420.5t112.5 -421t283.5 -161q173 0 285 160.5t112 421.5z
" />
    <glyph glyph-name="multiply" unicode="&#xd7;" horiz-adv-x="798" 
d="M705 868l-267 -268l264 -268l-38 -39l-265 268l-264 -268l-41 39l266 268l-266 268l41 41l264 -270l265 270z" />
    <glyph glyph-name="Oslash" unicode="&#xd8;" horiz-adv-x="1345" 
d="M276 621q0 -252 107 -414l555 860q-110 135 -266 135q-171 0 -283.5 -160.5t-112.5 -420.5zM672 39q173 0 285 160.5t112 421.5q0 240 -98 401l-553 -860q107 -123 254 -123zM672 -20q-167 0 -312 96l-90 -142l-53 13l102 159q-115 90 -182 225t-67 290q0 130 50 249
t132 204.5t192.5 136.5t227.5 51q173 0 323 -105l80 123l53 -12l-90 -142q110 -90 175 -222.5t65 -282.5q0 -130 -50 -249t-133 -204.5t-194 -136.5t-229 -51z" />
    <glyph glyph-name="Ugrave" unicode="&#xd9;" horiz-adv-x="1353" 
d="M780 1315l-14 -10l-412 184v6q82 51 138 111h8zM971 0v240q-51 -122 -154 -191t-231 -69q-196 0 -303 131.5t-107 365.5v613q0 68 -33.5 86t-128.5 18v47h512v-47q-95 0 -128 -18t-33 -86v-611q0 -194 73.5 -297.5t216.5 -103.5q117 0 202.5 67t113.5 201v744
q0 68 -33.5 86t-128.5 18v47h512v-47q-95 0 -128.5 -18t-33.5 -86v-938q0 -68 33.5 -86.5t128.5 -18.5v-47h-350z" />
    <glyph glyph-name="Uacute" unicode="&#xda;" horiz-adv-x="1353" 
d="M557 1305l-14 10l280 291h8q56 -60 138 -111v-6zM971 0v240q-51 -122 -154 -191t-231 -69q-196 0 -303 131.5t-107 365.5v613q0 68 -33.5 86t-128.5 18v47h512v-47q-95 0 -128 -18t-33 -86v-611q0 -194 73.5 -297.5t216.5 -103.5q117 0 202.5 67t113.5 201v744
q0 68 -33.5 86t-128.5 18v47h512v-47q-95 0 -128.5 -18t-33.5 -86v-938q0 -68 33.5 -86.5t128.5 -18.5v-47h-350z" />
    <glyph glyph-name="Ucircumflex" unicode="&#xdb;" horiz-adv-x="1353" 
d="M739 1583q25 -49 87 -135.5t114 -147.5l-29 -6l-241 172l-242 -172l-29 6q51 57 113 144.5t88 138.5q38 -6 70 -6t69 6zM971 0v240q-51 -122 -154 -191t-231 -69q-196 0 -303 131.5t-107 365.5v613q0 68 -33.5 86t-128.5 18v47h512v-47q-95 0 -128 -18t-33 -86v-611
q0 -194 73.5 -297.5t216.5 -103.5q117 0 202.5 67t113.5 201v744q0 68 -33.5 86t-128.5 18v47h512v-47q-95 0 -128.5 -18t-33.5 -86v-938q0 -68 33.5 -86.5t128.5 -18.5v-47h-350z" />
    <glyph glyph-name="Udieresis" unicode="&#xdc;" horiz-adv-x="1353" 
d="M733 1423q0 41 31 71t72 30q42 0 72 -30t30 -71q0 -44 -29.5 -73t-72.5 -29q-42 0 -72.5 29.5t-30.5 72.5zM401 1423q0 41 30.5 71t70.5 30q44 0 73 -29.5t29 -71.5q0 -44 -29 -73t-73 -29q-41 0 -71 29.5t-30 72.5zM971 0v240q-51 -122 -154 -191t-231 -69
q-196 0 -303 131.5t-107 365.5v613q0 68 -33.5 86t-128.5 18v47h512v-47q-95 0 -128 -18t-33 -86v-611q0 -194 73.5 -297.5t216.5 -103.5q117 0 202.5 67t113.5 201v744q0 68 -33.5 86t-128.5 18v47h512v-47q-95 0 -128.5 -18t-33.5 -86v-938q0 -68 33.5 -86.5t128.5 -18.5
v-47h-350z" />
    <glyph glyph-name="Yacute" unicode="&#xdd;" horiz-adv-x="1218" 
d="M522 1305l-14 10l280 291h9q58 -62 137 -111v-6zM907 0h-592v47q124 0 163.5 19t39.5 88v464l-336 472q-49 69 -78 86.5t-104 17.5v47h508v-47q-76 0 -108.5 -8t-32.5 -29q0 -27 26 -59l287 -408l246 393q18 35 18 54q0 33 -39.5 45t-113.5 12v47h428v-47
q-89 0 -133.5 -21.5t-86.5 -87.5l-294 -469v-462q0 -69 39 -88t163 -19v-47z" />
    <glyph glyph-name="Thorn" unicode="&#xde;" horiz-adv-x="1056" 
d="M516 365q134 0 219.5 77t85.5 228q0 64 -18 112.5t-49 80t-77 51.5t-97.5 28t-114.5 8h-84v-571q71 -14 135 -14zM584 47v-47h-551v47q93 0 126.5 18.5t33.5 86.5v938q0 68 -33 86t-127 18v47h510v-47q-95 0 -128.5 -18t-33.5 -86v-86h121q106 0 195.5 -18.5t162 -57
t113.5 -104.5t41 -154q0 -111 -67.5 -195t-173 -125t-230.5 -41q-81 0 -162 19v-176q0 -69 39 -87t164 -18z" />
    <glyph glyph-name="germandbls" unicode="&#xdf;" horiz-adv-x="1064" 
d="M614 729q0 -41 38 -77t134 -99q138 -87 190 -144t52 -147q0 -81 -45.5 -147.5t-112 -100.5t-135.5 -34q-43 0 -83 11t-62.5 23.5t-42.5 23.5t-29 11q-14 0 -26 -16.5t-17 -38.5h-26l-15 299l39 2q15 -112 86.5 -186t171.5 -74q67 0 111.5 41.5t44.5 107.5q0 56 -36.5 95
t-141.5 108q-130 83 -176 132.5t-46 123.5q0 50 27.5 98.5t66.5 89t78.5 81.5t67 94t27.5 110q0 84 -48.5 136.5t-136.5 52.5q-118 0 -177.5 -94.5t-59.5 -254.5v-956h-301v43q75 0 98 18.5t23 90.5v657h-101v35l101 28v48q0 116 47.5 213.5t140.5 158t213 60.5
q127 0 210 -70.5t83 -173.5q0 -56 -24 -105t-58 -83t-68 -64t-58 -62.5t-24 -64.5z" />
    <glyph glyph-name="agrave" unicode="&#xe0;" horiz-adv-x="845" 
d="M516 993l-18 -8l-320 299v6q98 21 154 58h8zM526 573q0 98 -47.5 160t-144.5 62q-71 0 -129.5 -47.5t-95.5 -133.5l-41 17q41 117 134.5 189.5t213.5 72.5q133 0 212 -81t79 -222v-432q0 -45 19.5 -70t47.5 -25q23 0 40 10.5t40 37.5l25 -27q-68 -104 -172 -104
q-65 0 -113.5 37.5t-65.5 103.5q-45 -60 -112.5 -100.5t-145.5 -40.5q-89 0 -152 53t-63 143q0 89 65 144.5t195 105.5l211 76v71zM526 449l-164 -62q-139 -52 -139 -170q0 -66 39.5 -105.5t104.5 -39.5q85 0 159 84v293z" />
    <glyph glyph-name="aacute" unicode="&#xe1;" horiz-adv-x="845" 
d="M334 985l-19 8l177 355h8q56 -37 153 -58v-6zM526 573q0 98 -47.5 160t-144.5 62q-71 0 -129.5 -47.5t-95.5 -133.5l-41 17q41 117 134.5 189.5t213.5 72.5q133 0 212 -81t79 -222v-432q0 -45 19.5 -70t47.5 -25q23 0 40 10.5t40 37.5l25 -27q-68 -104 -172 -104
q-65 0 -113.5 37.5t-65.5 103.5q-45 -60 -112.5 -100.5t-145.5 -40.5q-89 0 -152 53t-63 143q0 89 65 144.5t195 105.5l211 76v71zM526 449l-164 -62q-139 -52 -139 -170q0 -66 39.5 -105.5t104.5 -39.5q85 0 159 84v293z" />
    <glyph glyph-name="acircumflex" unicode="&#xe2;" horiz-adv-x="845" 
d="M469 1331q25 -61 83 -170.5t101 -179.5l-24 -6l-217 225l-217 -225l-25 6q43 70 101 179.5t83 170.5q34 -6 58 -6q22 0 57 6zM526 573q0 98 -47.5 160t-144.5 62q-71 0 -129.5 -47.5t-95.5 -133.5l-41 17q41 117 134.5 189.5t213.5 72.5q133 0 212 -81t79 -222v-432
q0 -45 19.5 -70t47.5 -25q23 0 40 10.5t40 37.5l25 -27q-68 -104 -172 -104q-65 0 -113.5 37.5t-65.5 103.5q-45 -60 -112.5 -100.5t-145.5 -40.5q-89 0 -152 53t-63 143q0 89 65 144.5t195 105.5l211 76v71zM526 449l-164 -62q-139 -52 -139 -170q0 -66 39.5 -105.5
t104.5 -39.5q85 0 159 84v293z" />
    <glyph glyph-name="atilde" unicode="&#xe3;" horiz-adv-x="845" 
d="M532 1014q-32 0 -125.5 55t-115.5 55q-29 0 -62.5 -33.5t-60.5 -86.5l-29 18q62 122 105.5 174.5t87.5 52.5q31 0 124 -54t115 -54q29 0 62.5 33t60.5 86l31 -19q-64 -123 -107 -175t-86 -52zM526 573q0 98 -47.5 160t-144.5 62q-71 0 -129.5 -47.5t-95.5 -133.5l-41 17
q41 117 134.5 189.5t213.5 72.5q133 0 212 -81t79 -222v-432q0 -45 19.5 -70t47.5 -25q23 0 40 10.5t40 37.5l25 -27q-68 -104 -172 -104q-65 0 -113.5 37.5t-65.5 103.5q-45 -60 -112.5 -100.5t-145.5 -40.5q-89 0 -152 53t-63 143q0 89 65 144.5t195 105.5l211 76v71z
M526 449l-164 -62q-139 -52 -139 -170q0 -66 39.5 -105.5t104.5 -39.5q85 0 159 84v293z" />
    <glyph glyph-name="adieresis" unicode="&#xe4;" horiz-adv-x="845" 
d="M174 1157q0 42 29 71t71 29q43 0 72 -28.5t29 -71.5q0 -44 -29 -73t-72 -29q-42 0 -71 29t-29 73zM453 1157q0 42 30.5 71t73.5 29t71.5 -28.5t28.5 -71.5q0 -44 -28.5 -73t-71.5 -29t-73.5 29t-30.5 73zM526 573q0 98 -47.5 160t-144.5 62q-71 0 -129.5 -47.5
t-95.5 -133.5l-41 17q41 117 134.5 189.5t213.5 72.5q133 0 212 -81t79 -222v-432q0 -45 19.5 -70t47.5 -25q23 0 40 10.5t40 37.5l25 -27q-68 -104 -172 -104q-65 0 -113.5 37.5t-65.5 103.5q-45 -60 -112.5 -100.5t-145.5 -40.5q-89 0 -152 53t-63 143q0 89 65 144.5
t195 105.5l211 76v71zM526 449l-164 -62q-139 -52 -139 -170q0 -66 39.5 -105.5t104.5 -39.5q85 0 159 84v293z" />
    <glyph glyph-name="aring" unicode="&#xe5;" horiz-adv-x="845" 
d="M418 1001q-65 0 -112.5 47t-47.5 113q0 64 47.5 111t112.5 47q66 0 111.5 -46.5t45.5 -111.5q0 -66 -45.5 -113t-111.5 -47zM418 1049q46 0 78 33t32 79q0 45 -32.5 78t-77.5 33q-44 0 -78.5 -33.5t-34.5 -77.5q0 -45 34 -78.5t79 -33.5zM526 573q0 98 -47.5 160
t-144.5 62q-71 0 -129.5 -47.5t-95.5 -133.5l-41 17q41 117 134.5 189.5t213.5 72.5q133 0 212 -81t79 -222v-432q0 -45 19.5 -70t47.5 -25q23 0 40 10.5t40 37.5l25 -27q-68 -104 -172 -104q-65 0 -113.5 37.5t-65.5 103.5q-45 -60 -112.5 -100.5t-145.5 -40.5
q-89 0 -152 53t-63 143q0 89 65 144.5t195 105.5l211 76v71zM526 449l-164 -62q-139 -52 -139 -170q0 -66 39.5 -105.5t104.5 -39.5q85 0 159 84v293z" />
    <glyph glyph-name="ae" unicode="&#xe6;" horiz-adv-x="1294" 
d="M905 840q-86 0 -145 -65t-76 -185h397q-6 116 -49 183t-127 67zM1264 162q-57 -89 -143.5 -135.5t-182.5 -46.5q-118 0 -220 61t-159 166q-24 -86 -101 -156.5t-188 -70.5q-89 0 -152 55t-63 147q0 87 65.5 144t194.5 106l211 78v63q0 98 -47.5 160t-144.5 62
q-71 0 -129.5 -47.5t-95.5 -133.5l-41 17q41 117 134.5 189.5t213.5 72.5q86 0 144 -36.5t87 -88.5q55 58 123.5 91.5t138.5 33.5q84 0 150.5 -31t106.5 -82t60.5 -112t20.5 -127h-569v-37q0 -182 96.5 -302t251.5 -120q133 0 213 102zM526 459l-164 -62q-139 -52 -139 -176
q0 -66 35 -101.5t98 -35.5q64 0 117 58.5t53 142.5v174z" />
    <glyph glyph-name="ccedilla" unicode="&#xe7;" horiz-adv-x="798" 
d="M594 -217q0 -61 -45.5 -105.5t-119 -66t-165.5 -21.5v33q94 0 151.5 33.5t57.5 83.5q0 83 -154 86l66 158q-149 24 -246.5 141.5t-97.5 292.5q0 100 37 189.5t98 151.5t140.5 98t162.5 36q48 0 89 -11.5t67 -23.5t37 -12q16 0 24 9t17 30h24l17 -269l-35 -2
q-22 109 -86 165.5t-148 56.5q-118 0 -198 -97.5t-80 -251.5q0 -175 92.5 -291t232.5 -116q66 0 114 24t99 84l27 -24q-58 -90 -145 -137t-181 -47h-24l-23 -66q46 -2 87.5 -14.5t74.5 -43t33 -73.5z" />
    <glyph glyph-name="egrave" unicode="&#xe8;" horiz-adv-x="825" 
d="M508 993l-19 -8l-319 299v6q98 21 154 58h8zM438 840q-86 0 -145 -65t-76 -185h395q-5 115 -48 182.5t-126 67.5zM795 162q-57 -89 -142 -135.5t-180 -46.5q-180 0 -306 126.5t-126 321.5q0 130 58 238t149 167.5t192 59.5q85 0 152 -30.5t107 -82t60.5 -112.5t20.5 -127
h-569v-37q0 -182 96.5 -302t249.5 -120q135 0 215 102z" />
    <glyph glyph-name="eacute" unicode="&#xe9;" horiz-adv-x="825" 
d="M389 985l-18 8l176 355h8q56 -37 154 -58v-6zM438 840q-86 0 -145 -65t-76 -185h395q-5 115 -48 182.5t-126 67.5zM795 162q-57 -89 -142 -135.5t-180 -46.5q-180 0 -306 126.5t-126 321.5q0 130 58 238t149 167.5t192 59.5q85 0 152 -30.5t107 -82t60.5 -112.5
t20.5 -127h-569v-37q0 -182 96.5 -302t249.5 -120q135 0 215 102z" />
    <glyph glyph-name="ecircumflex" unicode="&#xea;" horiz-adv-x="825" 
d="M500 1331q25 -61 83 -170.5t101 -179.5l-25 -6l-217 225l-217 -225l-24 6q43 70 101 179.5t83 170.5q35 -6 57 -6q24 0 58 6zM438 840q-86 0 -145 -65t-76 -185h395q-5 115 -48 182.5t-126 67.5zM795 162q-57 -89 -142 -135.5t-180 -46.5q-180 0 -306 126.5t-126 321.5
q0 130 58 238t149 167.5t192 59.5q85 0 152 -30.5t107 -82t60.5 -112.5t20.5 -127h-569v-37q0 -182 96.5 -302t249.5 -120q135 0 215 102z" />
    <glyph glyph-name="edieresis" unicode="&#xeb;" horiz-adv-x="825" 
d="M201 1157q0 42 29 71t71 29q43 0 71.5 -28.5t28.5 -71.5q0 -44 -28.5 -73t-71.5 -29q-42 0 -71 29t-29 73zM479 1157q0 42 31 71t74 29t71.5 -28.5t28.5 -71.5q0 -44 -28.5 -73t-71.5 -29t-74 29t-31 73zM438 840q-86 0 -145 -65t-76 -185h395q-5 115 -48 182.5
t-126 67.5zM795 162q-57 -89 -142 -135.5t-180 -46.5q-180 0 -306 126.5t-126 321.5q0 130 58 238t149 167.5t192 59.5q85 0 152 -30.5t107 -82t60.5 -112.5t20.5 -127h-569v-37q0 -182 96.5 -302t249.5 -120q135 0 215 102z" />
    <glyph glyph-name="igrave" unicode="&#xec;" horiz-adv-x="483" 
d="M352 993l-18 -8l-320 299v6q98 21 154 58h8zM162 723q0 72 -22.5 89t-98.5 17v43h301v-720q0 -72 23.5 -90.5t99.5 -18.5v-43h-424v43q75 0 98 18.5t23 90.5v571z" />
    <glyph glyph-name="iacute" unicode="&#xed;" horiz-adv-x="483" 
d="M131 985l-18 8l176 355h8q56 -37 154 -58v-6zM162 723q0 72 -22.5 89t-98.5 17v43h301v-720q0 -72 23.5 -90.5t99.5 -18.5v-43h-424v43q75 0 98 18.5t23 90.5v571z" />
    <glyph glyph-name="icircumflex" unicode="&#xee;" horiz-adv-x="483" 
d="M309 1331q25 -60 83 -169t102 -181l-25 -6l-217 225l-217 -225l-25 6q44 72 102 181t83 169q34 -6 57 -6q22 0 57 6zM162 723q0 72 -22.5 89t-98.5 17v43h301v-720q0 -72 23.5 -90.5t99.5 -18.5v-43h-424v43q75 0 98 18.5t23 90.5v571z" />
    <glyph glyph-name="idieresis" unicode="&#xef;" horiz-adv-x="483" 
d="M10 1157q0 42 29.5 71t71.5 29q43 0 71.5 -28.5t28.5 -71.5q0 -44 -28.5 -73t-71.5 -29q-42 0 -71.5 29t-29.5 73zM289 1157q0 42 30.5 71t73.5 29t72 -28.5t29 -71.5q0 -44 -29 -73t-72 -29t-73.5 29t-30.5 73zM162 723q0 72 -22.5 89t-98.5 17v43h301v-720
q0 -72 23.5 -90.5t99.5 -18.5v-43h-424v43q75 0 98 18.5t23 90.5v571z" />
    <glyph glyph-name="eth" unicode="&#xf0;" horiz-adv-x="923" 
d="M465 -20q-81 0 -157.5 34t-135.5 93t-95 145t-36 184t36 184.5t95 145.5t135.5 93t157.5 34q54 0 105 -18.5t85 -43.5q-67 183 -180 293l-289 -133v53l250 117q-117 95 -268 158l37 33q169 -63 301 -160l192 90v-53l-149 -70q162 -131 248 -300.5t86 -352.5
q0 -123 -34.5 -224t-93 -166t-133.5 -100.5t-157 -35.5zM700 436q0 196 -64 301t-171 105t-171.5 -105t-64.5 -301q0 -194 64.5 -298.5t171.5 -104.5t171 104t64 299z" />
    <glyph glyph-name="ntilde" unicode="&#xf1;" horiz-adv-x="1019" 
d="M645 1014q-32 0 -126 55t-116 55q-29 0 -62 -33t-60 -87l-29 18q62 123 105 175t87 52q31 0 124.5 -54t115.5 -54q29 0 62.5 33t60.5 86l31 -19q-64 -123 -107 -175t-86 -52zM465 43v-43h-424v43q75 0 98 18.5t23 90.5v571q0 72 -22.5 89t-98.5 17v43h301v-170
q35 72 110.5 131.5t170.5 59.5q130 0 198 -84t68 -215v-442q0 -72 23 -90.5t98 -18.5v-43h-422v43q75 0 98 18.5t23 90.5v407q0 112 -47 170.5t-136 58.5q-60 0 -109.5 -36t-74.5 -90v-510q0 -72 23.5 -90.5t99.5 -18.5z" />
    <glyph glyph-name="ograve" unicode="&#xf2;" horiz-adv-x="929" 
d="M530 993l-18 -8l-319 299v6q97 21 153 58h8zM889 436q0 -98 -36 -184t-95 -145t-135.5 -93t-157.5 -34t-157.5 34t-135.5 93t-95 145t-36 184t36 184.5t95 145.5t135.5 93t157.5 34t157.5 -34t135.5 -93t95 -145.5t36 -184.5zM700 436q0 196 -64 301t-171 105
t-171.5 -105t-64.5 -301q0 -194 64.5 -298.5t171.5 -104.5t171 104t64 299z" />
    <glyph glyph-name="oacute" unicode="&#xf3;" horiz-adv-x="929" 
d="M410 985l-19 8l176 355h8q56 -37 154 -58v-6zM889 436q0 -98 -36 -184t-95 -145t-135.5 -93t-157.5 -34t-157.5 34t-135.5 93t-95 145t-36 184t36 184.5t95 145.5t135.5 93t157.5 34t157.5 -34t135.5 -93t95 -145.5t36 -184.5zM700 436q0 196 -64 301t-171 105
t-171.5 -105t-64.5 -301q0 -194 64.5 -298.5t171.5 -104.5t171 104t64 299z" />
    <glyph glyph-name="ocircumflex" unicode="&#xf4;" horiz-adv-x="929" 
d="M522 1331q25 -60 83 -169t102 -181l-25 -6l-217 225l-217 -225l-25 6q44 72 102 181t83 169q35 -6 57 -6q23 0 57 6zM889 436q0 -98 -36 -184t-95 -145t-135.5 -93t-157.5 -34t-157.5 34t-135.5 93t-95 145t-36 184t36 184.5t95 145.5t135.5 93t157.5 34t157.5 -34
t135.5 -93t95 -145.5t36 -184.5zM700 436q0 196 -64 301t-171 105t-171.5 -105t-64.5 -301q0 -194 64.5 -298.5t171.5 -104.5t171 104t64 299z" />
    <glyph glyph-name="otilde" unicode="&#xf5;" horiz-adv-x="929" 
d="M567 1014q-32 0 -125.5 55t-115.5 55q-29 0 -62.5 -33.5t-60.5 -86.5l-29 18q62 122 105.5 174.5t87.5 52.5q31 0 124 -54t115 -54q29 0 62.5 33t60.5 86l31 -19q-64 -123 -107 -175t-86 -52zM889 436q0 -98 -36 -184t-95 -145t-135.5 -93t-157.5 -34t-157.5 34
t-135.5 93t-95 145t-36 184t36 184.5t95 145.5t135.5 93t157.5 34t157.5 -34t135.5 -93t95 -145.5t36 -184.5zM700 436q0 196 -64 301t-171 105t-171.5 -105t-64.5 -301q0 -194 64.5 -298.5t171.5 -104.5t171 104t64 299z" />
    <glyph glyph-name="odieresis" unicode="&#xf6;" horiz-adv-x="929" 
d="M223 1157q0 42 29.5 71t71.5 29q43 0 71.5 -28.5t28.5 -71.5q0 -44 -28.5 -73t-71.5 -29q-42 0 -71.5 29t-29.5 73zM502 1157q0 42 30.5 71t73.5 29t72 -28.5t29 -71.5q0 -44 -29 -73t-72 -29t-73.5 29t-30.5 73zM889 436q0 -98 -36 -184t-95 -145t-135.5 -93t-157.5 -34
t-157.5 34t-135.5 93t-95 145t-36 184t36 184.5t95 145.5t135.5 93t157.5 34t157.5 -34t135.5 -93t95 -145.5t36 -184.5zM700 436q0 196 -64 301t-171 105t-171.5 -105t-64.5 -301q0 -194 64.5 -298.5t171.5 -104.5t171 104t64 299z" />
    <glyph glyph-name="divide" unicode="&#xf7;" horiz-adv-x="960" 
d="M414 930q0 26 19.5 45.5t45.5 19.5q28 0 49 -19.5t21 -45.5q0 -28 -21 -49t-49 -21q-26 0 -45.5 21t-19.5 49zM88 569v58h784v-58h-784zM414 266q0 29 19 48.5t46 19.5q28 0 49 -19.5t21 -48.5q0 -26 -21 -45.5t-49 -19.5q-26 0 -45.5 19.5t-19.5 45.5z" />
    <glyph glyph-name="oslash" unicode="&#xf8;" horiz-adv-x="929" 
d="M229 436q0 -168 47 -268l355 577q-63 97 -166 97q-107 0 -171.5 -105t-64.5 -301zM465 33q107 0 171 104t64 299q0 160 -43 258l-352 -573q58 -88 160 -88zM465 -20q-108 0 -211 61l-70 -115l-49 13l80 129q-80 64 -127 159t-47 209q0 98 36 184.5t95 145.5t135.5 93
t157.5 34q116 0 217 -66l68 109l49 -14l-76 -123q76 -62 121 -156.5t45 -206.5q0 -98 -36 -184t-95 -145t-135.5 -93t-157.5 -34z" />
    <glyph glyph-name="ugrave" unicode="&#xf9;" 
d="M551 993l-19 -8l-319 299v6q98 21 154 58h8zM662 0v154q-33 -69 -106 -121.5t-165 -52.5q-123 0 -191.5 82t-68.5 210v451q0 72 -22.5 89t-98.5 17v43h301v-571q0 -108 44 -166.5t130 -58.5q57 0 102.5 32.5t74.5 88.5v526q0 71 -23 88.5t-100 17.5v43h303v-720
q0 -72 23 -90.5t98 -18.5v-43h-301z" />
    <glyph glyph-name="uacute" unicode="&#xfa;" 
d="M430 985l-18 8l176 355h8q56 -37 154 -58v-6zM662 0v154q-33 -69 -106 -121.5t-165 -52.5q-123 0 -191.5 82t-68.5 210v451q0 72 -22.5 89t-98.5 17v43h301v-571q0 -108 44 -166.5t130 -58.5q57 0 102.5 32.5t74.5 88.5v526q0 71 -23 88.5t-100 17.5v43h303v-720
q0 -72 23 -90.5t98 -18.5v-43h-301z" />
    <glyph glyph-name="ucircumflex" unicode="&#xfb;" 
d="M543 1331q25 -61 83 -170.5t101 -179.5l-25 -6l-217 225l-217 -225l-24 6q43 70 101 179.5t83 170.5q35 -6 57 -6q24 0 58 6zM662 0v154q-33 -69 -106 -121.5t-165 -52.5q-123 0 -191.5 82t-68.5 210v451q0 72 -22.5 89t-98.5 17v43h301v-571q0 -108 44 -166.5t130 -58.5
q57 0 102.5 32.5t74.5 88.5v526q0 71 -23 88.5t-100 17.5v43h303v-720q0 -72 23 -90.5t98 -18.5v-43h-301z" />
    <glyph glyph-name="udieresis" unicode="&#xfc;" 
d="M244 1157q0 42 29 71t71 29q43 0 71.5 -28.5t28.5 -71.5q0 -44 -28.5 -73t-71.5 -29q-42 0 -71 29t-29 73zM522 1157q0 42 31 71t74 29t71.5 -28.5t28.5 -71.5q0 -44 -28.5 -73t-71.5 -29t-74 29t-31 73zM662 0v154q-33 -69 -106 -121.5t-165 -52.5q-123 0 -191.5 82
t-68.5 210v451q0 72 -22.5 89t-98.5 17v43h301v-571q0 -108 44 -166.5t130 -58.5q57 0 102.5 32.5t74.5 88.5v526q0 71 -23 88.5t-100 17.5v43h303v-720q0 -72 23 -90.5t98 -18.5v-43h-301z" />
    <glyph glyph-name="yacute" unicode="&#xfd;" horiz-adv-x="956" 
d="M455 985l-19 8l176 355h9q56 -37 153 -58v-6zM266 -410l-221 29v25q222 21 408 389l-306 690q-31 71 -52.5 88.5t-86.5 17.5v43h434v-43q-63 0 -90.5 -9t-27.5 -40q0 -21 14 -59l203 -492l194 494q15 35 15 53q0 32 -29 42.5t-90 10.5v43h319v-43q-71 0 -93.5 -16.5
t-53.5 -89.5l-273 -647q-77 -182 -149 -313.5t-115 -172.5z" />
    <glyph glyph-name="thorn" unicode="&#xfe;" horiz-adv-x="997" 
d="M498 37q52 0 99.5 22.5t87.5 67t63.5 122.5t23.5 179q0 107 -26.5 190.5t-85.5 136t-144 52.5q-56 0 -104.5 -28.5t-81.5 -73.5v-607q61 -61 168 -61zM489 -346v-43h-460v43q76 0 98.5 18t22.5 90v1414q0 74 -24.5 93t-117.5 19v43h322v-588q40 61 112.5 105.5
t153.5 44.5q156 0 258 -118t102 -306q0 -110 -37 -204t-97 -155.5t-135.5 -95.5t-154.5 -34q-123 0 -202 67v-285q0 -72 29.5 -90t129.5 -18z" />
    <glyph glyph-name="ydieresis" unicode="&#xff;" horiz-adv-x="956" 
d="M276 1157q0 42 29.5 71t71.5 29q43 0 71.5 -28.5t28.5 -71.5q0 -44 -28.5 -73t-71.5 -29q-42 0 -71.5 29t-29.5 73zM555 1157q0 42 30.5 71t73.5 29t72 -28.5t29 -71.5q0 -44 -29 -73t-72 -29t-73.5 29t-30.5 73zM266 -410l-221 29v25q222 21 408 389l-306 690
q-31 71 -52.5 88.5t-86.5 17.5v43h434v-43q-63 0 -90.5 -9t-27.5 -40q0 -21 14 -59l203 -492l194 494q15 35 15 53q0 32 -29 42.5t-90 10.5v43h319v-43q-71 0 -93.5 -16.5t-53.5 -89.5l-273 -647q-77 -182 -149 -313.5t-115 -172.5z" />
    <glyph glyph-name="Amacron" unicode="&#x100;" horiz-adv-x="1318" 
d="M928 1358h-570l33 67h570zM602 1036l-174 -469h358zM430 47v-47h-430v47q94 0 135 21.5t68 93.5l413 1091h89l440 -1101q29 -71 57.5 -88t116.5 -17v-47h-502v47q87 0 118.5 8.5t31.5 38.5q0 1 -17 58l-141 358h-401l-129 -346q-9 -27 -9 -45q0 -41 41 -56.5t119 -15.5z
" />
    <glyph glyph-name="amacron" unicode="&#x101;" horiz-adv-x="845" 
d="M643 1055h-487l32 67h488zM526 573q0 98 -47.5 160t-144.5 62q-71 0 -129.5 -47.5t-95.5 -133.5l-41 17q41 117 134.5 189.5t213.5 72.5q133 0 212 -81t79 -222v-432q0 -45 19.5 -70t47.5 -25q23 0 40 10.5t40 37.5l25 -27q-68 -104 -172 -104q-65 0 -113.5 37.5
t-65.5 103.5q-45 -60 -112.5 -100.5t-145.5 -40.5q-89 0 -152 53t-63 143q0 89 65 144.5t195 105.5l211 76v71zM526 449l-164 -62q-139 -52 -139 -170q0 -66 39.5 -105.5t104.5 -39.5q85 0 159 84v293z" />
    <glyph glyph-name="Abreve" unicode="&#x102;" horiz-adv-x="1318" 
d="M659 1309q-112 0 -186 82.5t-74 205.5h33q3 -48 23.5 -82.5t54.5 -52t70 -25t79 -7.5q59 0 104.5 12.5t82 51.5t41.5 103h33q0 -123 -74.5 -205.5t-186.5 -82.5zM602 1036l-174 -469h358zM430 47v-47h-430v47q94 0 135 21.5t68 93.5l413 1091h89l440 -1101
q29 -71 57.5 -88t116.5 -17v-47h-502v47q87 0 118.5 8.5t31.5 38.5q0 1 -17 58l-141 358h-401l-129 -346q-9 -27 -9 -45q0 -41 41 -56.5t119 -15.5z" />
    <glyph glyph-name="abreve" unicode="&#x103;" horiz-adv-x="845" 
d="M408 997q-100 0 -163 93t-63 245h33q6 -111 61 -165t132 -54t131.5 54t60.5 165h33q0 -152 -62.5 -245t-162.5 -93zM526 573q0 98 -47.5 160t-144.5 62q-71 0 -129.5 -47.5t-95.5 -133.5l-41 17q41 117 134.5 189.5t213.5 72.5q133 0 212 -81t79 -222v-432
q0 -45 19.5 -70t47.5 -25q23 0 40 10.5t40 37.5l25 -27q-68 -104 -172 -104q-65 0 -113.5 37.5t-65.5 103.5q-45 -60 -112.5 -100.5t-145.5 -40.5q-89 0 -152 53t-63 143q0 89 65 144.5t195 105.5l211 76v71zM526 449l-164 -62q-139 -52 -139 -170q0 -66 39.5 -105.5
t104.5 -39.5q85 0 159 84v293z" />
    <glyph glyph-name="Aogonek" unicode="&#x104;" horiz-adv-x="1318" 
d="M602 1036l-174 -469h358zM963 -272q-99 -138 -207 -138q-57 0 -96 36.5t-39 101.5q0 118 196 276v43q87 0 118.5 8.5t31.5 38.5q0 1 -17 58l-141 358h-401l-129 -346q-9 -27 -9 -45q0 -41 41 -56.5t119 -15.5v-47h-430v47q94 0 135 21.5t68 93.5l413 1091h89l440 -1101
q29 -71 57.5 -88t116.5 -17v-47h-449q-67 -65 -101 -120.5t-34 -117.5q0 -43 22 -67.5t56 -24.5q35 0 64 18t63 58z" />
    <glyph glyph-name="aogonek" unicode="&#x105;" horiz-adv-x="845" 
d="M707 158q0 -45 19.5 -70t47.5 -25q23 0 40 10.5t40 37.5l25 -27q-25 -30 -72 -78t-73.5 -77.5t-49 -75t-22.5 -91.5q0 -43 22 -67.5t55 -24.5q35 0 64 18t63 58l23 -18q-99 -138 -207 -138q-57 0 -97 36.5t-40 101.5q0 105 172 252q-69 0 -120.5 37t-68.5 104
q-45 -60 -112.5 -100.5t-145.5 -40.5q-89 0 -152 53t-63 143q0 89 65 144.5t195 105.5l211 76v71q0 98 -47.5 160t-144.5 62q-71 0 -129.5 -47.5t-95.5 -133.5l-41 17q41 117 134.5 189.5t213.5 72.5q133 0 212 -81t79 -222v-432zM526 449l-164 -62q-139 -52 -139 -170
q0 -66 39.5 -105.5t104.5 -39.5q85 0 159 84v293z" />
    <glyph glyph-name="Cacute" unicode="&#x106;" horiz-adv-x="1173" 
d="M580 1305l-15 10l281 291h8q58 -62 137 -111v-6zM264 684q0 -142 44 -261t116 -195t162 -118t186 -42q101 0 179 29.5t153 109.5l31 -35q-66 -86 -179.5 -139t-255.5 -53q-117 0 -229 43.5t-201.5 122t-144.5 201t-55 267.5q0 140 49.5 261.5t134.5 206t200 132.5t244 48
q70 0 134.5 -17t106 -34t56.5 -17q19 0 30 11t22 38h26l17 -366l-39 -5q-55 330 -361 330q-184 0 -305 -144.5t-121 -373.5z" />
    <glyph glyph-name="cacute" unicode="&#x107;" horiz-adv-x="798" 
d="M430 985l-18 8l176 355h8q56 -37 154 -58v-6zM485 836q-118 0 -198 -97.5t-80 -251.5q0 -175 92.5 -291t232.5 -116q66 0 114 24t99 84l27 -24q-58 -90 -145 -137t-181 -47q-82 0 -155.5 31.5t-129 87.5t-88 139t-32.5 180q0 100 37 189.5t98 151.5t140.5 98t162.5 36
q48 0 89 -11.5t67 -23.5t37 -12q16 0 24 9t17 30h24l17 -269l-35 -2q-22 109 -86 165.5t-148 56.5z" />
    <glyph glyph-name="Ccircumflex" unicode="&#x108;" horiz-adv-x="1173" 
d="M764 1583q25 -49 87 -135.5t114 -147.5l-29 -6l-242 172l-241 -172l-29 6q51 57 113 144.5t88 138.5q37 -6 69 -6t70 6zM264 684q0 -142 44 -261t116 -195t162 -118t186 -42q101 0 179 29.5t153 109.5l31 -35q-66 -86 -179.5 -139t-255.5 -53q-117 0 -229 43.5
t-201.5 122t-144.5 201t-55 267.5q0 140 49.5 261.5t134.5 206t200 132.5t244 48q70 0 134.5 -17t106 -34t56.5 -17q19 0 30 11t22 38h26l17 -366l-39 -5q-55 330 -361 330q-184 0 -305 -144.5t-121 -373.5z" />
    <glyph glyph-name="ccircumflex" unicode="&#x109;" horiz-adv-x="798" 
d="M541 1331q25 -61 83 -170.5t101 -179.5l-25 -6l-217 225l-217 -225l-24 6q43 70 101 179.5t83 170.5q34 -6 57 -6t58 6zM485 836q-118 0 -198 -97.5t-80 -251.5q0 -175 92.5 -291t232.5 -116q66 0 114 24t99 84l27 -24q-58 -90 -145 -137t-181 -47q-82 0 -155.5 31.5
t-129 87.5t-88 139t-32.5 180q0 100 37 189.5t98 151.5t140.5 98t162.5 36q48 0 89 -11.5t67 -23.5t37 -12q16 0 24 9t17 30h24l17 -269l-35 -2q-22 109 -86 165.5t-148 56.5z" />
    <glyph glyph-name="Cdotaccent" unicode="&#x10a;" horiz-adv-x="1173" 
d="M584 1444q0 44 33 76t77 32q46 0 78.5 -32t32.5 -76q0 -46 -32.5 -77.5t-78.5 -31.5q-45 0 -77.5 32t-32.5 77zM264 684q0 -142 44 -261t116 -195t162 -118t186 -42q101 0 179 29.5t153 109.5l31 -35q-66 -86 -179.5 -139t-255.5 -53q-117 0 -229 43.5t-201.5 122
t-144.5 201t-55 267.5q0 140 49.5 261.5t134.5 206t200 132.5t244 48q70 0 134.5 -17t106 -34t56.5 -17q19 0 30 11t22 38h26l17 -366l-39 -5q-55 330 -361 330q-184 0 -305 -144.5t-121 -373.5z" />
    <glyph glyph-name="cdotaccent" unicode="&#x10b;" horiz-adv-x="798" 
d="M373 1176q0 44 33 76t77 32q46 0 78.5 -32t32.5 -76q0 -46 -32.5 -77.5t-78.5 -31.5q-45 0 -77.5 32t-32.5 77zM485 836q-118 0 -198 -97.5t-80 -251.5q0 -175 92.5 -291t232.5 -116q66 0 114 24t99 84l27 -24q-58 -90 -145 -137t-181 -47q-82 0 -155.5 31.5t-129 87.5
t-88 139t-32.5 180q0 100 37 189.5t98 151.5t140.5 98t162.5 36q48 0 89 -11.5t67 -23.5t37 -12q16 0 24 9t17 30h24l17 -269l-35 -2q-22 109 -86 165.5t-148 56.5z" />
    <glyph glyph-name="Ccaron" unicode="&#x10c;" horiz-adv-x="1173" 
d="M965 1595q-52 -62 -114 -147.5t-87 -134.5q-38 6 -70 6t-69 -6q-26 51 -88 138t-113 144l29 7l241 -172l242 172zM264 684q0 -142 44 -261t116 -195t162 -118t186 -42q101 0 179 29.5t153 109.5l31 -35q-66 -86 -179.5 -139t-255.5 -53q-117 0 -229 43.5t-201.5 122
t-144.5 201t-55 267.5q0 140 49.5 261.5t134.5 206t200 132.5t244 48q70 0 134.5 -17t106 -34t56.5 -17q19 0 30 11t22 38h26l17 -366l-39 -5q-55 330 -361 330q-184 0 -305 -144.5t-121 -373.5z" />
    <glyph glyph-name="ccaron" unicode="&#x10d;" horiz-adv-x="798" 
d="M725 1331q-43 -70 -101 -179.5t-83 -170.5q-35 6 -58 6t-57 -6q-25 61 -83 170.5t-101 179.5l24 6l217 -225l217 225zM485 836q-118 0 -198 -97.5t-80 -251.5q0 -175 92.5 -291t232.5 -116q66 0 114 24t99 84l27 -24q-58 -90 -145 -137t-181 -47q-82 0 -155.5 31.5
t-129 87.5t-88 139t-32.5 180q0 100 37 189.5t98 151.5t140.5 98t162.5 36q48 0 89 -11.5t67 -23.5t37 -12q16 0 24 9t17 30h24l17 -269l-35 -2q-22 109 -86 165.5t-148 56.5z" />
    <glyph glyph-name="Dcaron" unicode="&#x10e;" horiz-adv-x="1308" 
d="M836 1595q-52 -62 -114 -147.5t-87 -134.5q-38 6 -70 6q-31 0 -69 -6q-26 51 -88 138t-113 144l29 7l241 -172l242 172zM510 0h-477v47q94 0 127 17.5t33 82.5v947q0 65 -33 82.5t-127 17.5v47h487q211 0 372.5 -69t254 -206t92.5 -325q0 -184 -95.5 -331t-262 -228.5
t-371.5 -81.5zM483 55h21q250 0 391 143.5t141 430.5q0 278 -136.5 417.5t-397.5 139.5h-121v-1034q0 -58 23.5 -77.5t78.5 -19.5z" />
    <glyph glyph-name="dcaron" unicode="&#x10f;" horiz-adv-x="1183" 
d="M969 940l20 401l4 5q100 -21 148 -25l2 -6l-156 -377zM496 66q49 0 95.5 21t76.5 58v633q-59 56 -160 56q-121 0 -202 -102t-81 -288q0 -164 73 -271t198 -107zM668 0v104q-41 -53 -109 -88.5t-147 -35.5q-155 0 -262 118t-107 303q0 111 37 205t97.5 156t137.5 96.5
t158 34.5q112 0 195 -66v353q0 73 -25.5 90.5t-116.5 17.5v43h322v-1179q0 -72 23 -90.5t98 -18.5v-43h-301z" />
    <glyph glyph-name="Dcroat" unicode="&#x110;" horiz-adv-x="1325" 
d="M526 0h-477v47q94 0 127 17.5t33 82.5v480h-139l18 53h121v414q0 65 -33 82.5t-127 17.5v47h488q211 0 372 -69t253.5 -206t92.5 -325q0 -184 -95.5 -331t-262 -228.5t-371.5 -81.5zM500 55h20q250 0 391.5 144t141.5 430q0 278 -137 417.5t-398 139.5h-121v-506h269
l-21 -53h-248v-475q0 -58 24 -77.5t79 -19.5z" />
    <glyph glyph-name="dcroat" unicode="&#x111;" horiz-adv-x="989" 
d="M496 66q49 0 95.5 21t76.5 58v633q-59 56 -160 56q-121 0 -202 -102t-81 -288q0 -164 73 -271t198 -107zM668 0v104q-41 -53 -109 -88.5t-147 -35.5q-155 0 -262 118t-107 303q0 111 37 205t97.5 156t137.5 96.5t158 34.5q112 0 195 -66v215h-222l19 48h203v90
q0 73 -25.5 90.5t-116.5 17.5v43h322v-241h133l-20 -48h-113v-890q0 -72 23 -90.5t98 -18.5v-43h-301z" />
    <glyph glyph-name="Emacron" unicode="&#x112;" horiz-adv-x="1077" 
d="M834 1358h-570l33 67h569zM817 815v-352h-37q-7 55 -12.5 78t-25.5 42t-51.5 23t-94.5 4h-215v-463q0 -57 25.5 -74.5t82.5 -17.5h121q53 0 84 1t68.5 5.5t59.5 12.5t47.5 23t41 36t33 52.5t31 72t26.5 94.5h39l-36 -352h-971v47q93 0 126.5 18.5t33.5 86.5v938
q0 68 -33 86t-127 18v47h923l5 -307h-35q-7 59 -17.5 99t-31 68.5t-42.5 44.5t-63 24.5t-82 11t-110 2.5h-199v-518h215q42 0 68 1.5t47 9.5t31 15.5t18.5 28t11.5 39t8 55.5h37z" />
    <glyph glyph-name="emacron" unicode="&#x113;" horiz-adv-x="825" 
d="M670 1055h-488l33 67h487zM438 840q-86 0 -145 -65t-76 -185h395q-5 115 -48 182.5t-126 67.5zM795 162q-57 -89 -142 -135.5t-180 -46.5q-180 0 -306 126.5t-126 321.5q0 130 58 238t149 167.5t192 59.5q85 0 152 -30.5t107 -82t60.5 -112.5t20.5 -127h-569v-37
q0 -182 96.5 -302t249.5 -120q135 0 215 102z" />
    <glyph glyph-name="Ebreve" unicode="&#x114;" horiz-adv-x="1077" 
d="M565 1309q-112 0 -186 82.5t-74 205.5h33q3 -48 23.5 -82.5t54.5 -52t70 -25t79 -7.5q59 0 104.5 12.5t82 51.5t41.5 103h32q0 -123 -74 -205.5t-186 -82.5zM817 815v-352h-37q-7 55 -12.5 78t-25.5 42t-51.5 23t-94.5 4h-215v-463q0 -57 25.5 -74.5t82.5 -17.5h121
q53 0 84 1t68.5 5.5t59.5 12.5t47.5 23t41 36t33 52.5t31 72t26.5 94.5h39l-36 -352h-971v47q93 0 126.5 18.5t33.5 86.5v938q0 68 -33 86t-127 18v47h923l5 -307h-35q-7 59 -17.5 99t-31 68.5t-42.5 44.5t-63 24.5t-82 11t-110 2.5h-199v-518h215q42 0 68 1.5t47 9.5
t31 15.5t18.5 28t11.5 39t8 55.5h37z" />
    <glyph glyph-name="ebreve" unicode="&#x115;" horiz-adv-x="825" 
d="M442 997q-100 0 -162.5 93t-62.5 245h33q6 -111 60.5 -165t131.5 -54t132 54t61 165h33q0 -152 -63 -245t-163 -93zM438 840q-86 0 -145 -65t-76 -185h395q-5 115 -48 182.5t-126 67.5zM795 162q-57 -89 -142 -135.5t-180 -46.5q-180 0 -306 126.5t-126 321.5
q0 130 58 238t149 167.5t192 59.5q85 0 152 -30.5t107 -82t60.5 -112.5t20.5 -127h-569v-37q0 -182 96.5 -302t249.5 -120q135 0 215 102z" />
    <glyph glyph-name="Edotaccent" unicode="&#x116;" horiz-adv-x="1077" 
d="M455 1444q0 44 33 76t77 32q46 0 78.5 -32t32.5 -76q0 -46 -32.5 -77.5t-78.5 -31.5q-45 0 -77.5 32t-32.5 77zM817 815v-352h-37q-7 55 -12.5 78t-25.5 42t-51.5 23t-94.5 4h-215v-463q0 -57 25.5 -74.5t82.5 -17.5h121q53 0 84 1t68.5 5.5t59.5 12.5t47.5 23t41 36
t33 52.5t31 72t26.5 94.5h39l-36 -352h-971v47q93 0 126.5 18.5t33.5 86.5v938q0 68 -33 86t-127 18v47h923l5 -307h-35q-7 59 -17.5 99t-31 68.5t-42.5 44.5t-63 24.5t-82 11t-110 2.5h-199v-518h215q42 0 68 1.5t47 9.5t31 15.5t18.5 28t11.5 39t8 55.5h37z" />
    <glyph glyph-name="edotaccent" unicode="&#x117;" horiz-adv-x="825" 
d="M332 1176q0 44 33 76t77 32q46 0 78.5 -32t32.5 -76q0 -46 -32.5 -77.5t-78.5 -31.5q-45 0 -77.5 32t-32.5 77zM438 840q-86 0 -145 -65t-76 -185h395q-5 115 -48 182.5t-126 67.5zM795 162q-57 -89 -142 -135.5t-180 -46.5q-180 0 -306 126.5t-126 321.5q0 130 58 238
t149 167.5t192 59.5q85 0 152 -30.5t107 -82t60.5 -112.5t20.5 -127h-569v-37q0 -182 96.5 -302t249.5 -120q135 0 215 102z" />
    <glyph glyph-name="Eogonek" unicode="&#x118;" horiz-adv-x="1077" 
d="M967 -272q-99 -138 -207 -138q-57 0 -96 36.5t-39 101.5q0 113 192 272h-784v47q93 0 126.5 18.5t33.5 86.5v938q0 68 -33 86t-127 18v47h923l5 -307h-35q-7 59 -17.5 99t-31 68.5t-42.5 44.5t-63 24.5t-82 11t-110 2.5h-199v-518h215q42 0 68 1.5t47 9.5t31 15.5
t18.5 28t11.5 39t8 55.5h37v-352h-37q-7 55 -12.5 78t-25.5 42t-51.5 23t-94.5 4h-215v-463q0 -57 25.5 -74.5t82.5 -17.5h121q53 0 84 1t68.5 5.5t59.5 12.5t47.5 23t41 36t33 52.5t31 72t26.5 94.5h39l-36 -352h-130q-67 -65 -101 -120.5t-34 -117.5q0 -43 22 -67.5
t56 -24.5q35 0 64 18t63 58z" />
    <glyph glyph-name="eogonek" unicode="&#x119;" horiz-adv-x="825" 
d="M438 840q-86 0 -145 -65t-76 -185h395q-5 115 -48 182.5t-126 67.5zM721 -272q-99 -138 -207 -138q-56 0 -95.5 37t-39.5 101q0 108 174 260q-36 -8 -80 -8q-180 0 -306 126.5t-126 321.5q0 130 58 238t149 167.5t192 59.5q85 0 152 -30.5t107 -82t60.5 -112.5t20.5 -127
h-569v-37q0 -182 96.5 -302t249.5 -120q135 0 215 102l23 -22q-8 -12 -16.5 -23.5t-20.5 -24t-18.5 -19t-22.5 -20.5t-20 -17t-23.5 -19t-20.5 -16q-157 -131 -157 -261q0 -43 21 -67.5t56 -24.5q34 0 63 18t64 58z" />
    <glyph glyph-name="Ecaron" unicode="&#x11a;" horiz-adv-x="1077" 
d="M836 1595q-52 -62 -114 -147.5t-87 -134.5q-38 6 -70 6q-31 0 -69 -6q-26 51 -88 138t-113 144l29 7l241 -172l242 172zM817 815v-352h-37q-7 55 -12.5 78t-25.5 42t-51.5 23t-94.5 4h-215v-463q0 -57 25.5 -74.5t82.5 -17.5h121q53 0 84 1t68.5 5.5t59.5 12.5t47.5 23
t41 36t33 52.5t31 72t26.5 94.5h39l-36 -352h-971v47q93 0 126.5 18.5t33.5 86.5v938q0 68 -33 86t-127 18v47h923l5 -307h-35q-7 59 -17.5 99t-31 68.5t-42.5 44.5t-63 24.5t-82 11t-110 2.5h-199v-518h215q42 0 68 1.5t47 9.5t31 15.5t18.5 28t11.5 39t8 55.5h37z" />
    <glyph glyph-name="ecaron" unicode="&#x11b;" horiz-adv-x="825" 
d="M684 1331q-43 -70 -101 -179.5t-83 -170.5q-34 6 -58 6q-22 0 -57 -6q-25 61 -83 170.5t-101 179.5l24 6l217 -225l217 225zM438 840q-86 0 -145 -65t-76 -185h395q-5 115 -48 182.5t-126 67.5zM795 162q-57 -89 -142 -135.5t-180 -46.5q-180 0 -306 126.5t-126 321.5
q0 130 58 238t149 167.5t192 59.5q85 0 152 -30.5t107 -82t60.5 -112.5t20.5 -127h-569v-37q0 -182 96.5 -302t249.5 -120q135 0 215 102z" />
    <glyph glyph-name="Gcircumflex" unicode="&#x11c;" horiz-adv-x="1282" 
d="M782 1583q25 -49 87 -135.5t114 -147.5l-29 -6l-241 172l-242 -172l-29 6q51 57 113 144.5t88 138.5q38 -6 70 -6q31 0 69 6zM1118 29q-160 -49 -334 -49q-107 0 -210 26.5t-194.5 80.5t-160.5 129.5t-109 180.5t-40 226q0 142 53 263.5t142 202.5t205 127t241 46
q75 0 140.5 -17t106.5 -34t56 -17q19 0 29 11t20 38h27l18 -366l-39 -5q-52 330 -356 330q-191 0 -315 -149.5t-124 -407.5q0 -144 45.5 -262.5t120 -193t166 -114.5t187.5 -40q77 0 109 19t32 77v272q0 65 -39.5 83t-138.5 18v47h499v-47q-91 0 -118 -16.5t-27 -84.5v-258
q0 -75 8 -116z" />
    <glyph glyph-name="gcircumflex" unicode="&#x11d;" horiz-adv-x="851" 
d="M481 1331q25 -60 83 -169t102 -181l-25 -6l-217 225l-217 -225l-25 6q44 72 102 181t83 169q35 -6 57 -6t57 6zM575 598q0 110 -48 180t-124 70q-78 0 -126 -69.5t-48 -180.5q0 -113 48 -182.5t126 -69.5q77 0 124.5 70t47.5 182zM852 -104q0 -93 -68 -165t-164.5 -106.5
t-197.5 -34.5q-188 0 -311 64t-123 174q0 78 73 133t177 68q-33 15 -55.5 45.5t-22.5 72.5q0 114 149 162q-111 27 -181.5 105.5t-70.5 183.5q0 127 101.5 211t244.5 84q67 0 129 -21q199 0 328 15l-31 -84l-180 4q99 -86 99 -209q0 -128 -101.5 -213.5t-243.5 -85.5
q-22 0 -34 2q-86 -16 -86 -70q0 -40 57 -55l285 -65q227 -51 227 -215zM580 -59l-299 73q-72 -13 -112 -59.5t-40 -114.5q0 -94 80 -146t213 -52q122 0 208.5 44t86.5 124q0 48 -31.5 80.5t-105.5 50.5z" />
    <glyph glyph-name="Gbreve" unicode="&#x11e;" horiz-adv-x="1282" 
d="M713 1309q-112 0 -186 82.5t-74 205.5h32q3 -48 24 -82.5t55 -52t70 -25t79 -7.5t79 7.5t69.5 25t54 52t24.5 82.5h33q0 -123 -74 -205.5t-186 -82.5zM1118 29q-160 -49 -334 -49q-107 0 -210 26.5t-194.5 80.5t-160.5 129.5t-109 180.5t-40 226q0 142 53 263.5
t142 202.5t205 127t241 46q75 0 140.5 -17t106.5 -34t56 -17q19 0 29 11t20 38h27l18 -366l-39 -5q-52 330 -356 330q-191 0 -315 -149.5t-124 -407.5q0 -144 45.5 -262.5t120 -193t166 -114.5t187.5 -40q77 0 109 19t32 77v272q0 65 -39.5 83t-138.5 18v47h499v-47
q-91 0 -118 -16.5t-27 -84.5v-258q0 -75 8 -116z" />
    <glyph glyph-name="gbreve" unicode="&#x11f;" horiz-adv-x="851" 
d="M424 997q-100 0 -162.5 93t-62.5 245h32q6 -111 61 -165t132 -54t131.5 54t60.5 165h33q0 -152 -62.5 -245t-162.5 -93zM575 598q0 110 -48 180t-124 70q-78 0 -126 -69.5t-48 -180.5q0 -113 48 -182.5t126 -69.5q77 0 124.5 70t47.5 182zM852 -104q0 -93 -68 -165
t-164.5 -106.5t-197.5 -34.5q-188 0 -311 64t-123 174q0 78 73 133t177 68q-33 15 -55.5 45.5t-22.5 72.5q0 114 149 162q-111 27 -181.5 105.5t-70.5 183.5q0 127 101.5 211t244.5 84q67 0 129 -21q199 0 328 15l-31 -84l-180 4q99 -86 99 -209q0 -128 -101.5 -213.5
t-243.5 -85.5q-22 0 -34 2q-86 -16 -86 -70q0 -40 57 -55l285 -65q227 -51 227 -215zM580 -59l-299 73q-72 -13 -112 -59.5t-40 -114.5q0 -94 80 -146t213 -52q122 0 208.5 44t86.5 124q0 48 -31.5 80.5t-105.5 50.5z" />
    <glyph glyph-name="Gdotaccent" unicode="&#x120;" horiz-adv-x="1282" 
d="M602 1444q0 44 33 76t78 32q46 0 78 -32t32 -76q0 -46 -32 -77.5t-78 -31.5q-45 0 -78 32t-33 77zM1118 29q-160 -49 -334 -49q-107 0 -210 26.5t-194.5 80.5t-160.5 129.5t-109 180.5t-40 226q0 142 53 263.5t142 202.5t205 127t241 46q75 0 140.5 -17t106.5 -34t56 -17
q19 0 29 11t20 38h27l18 -366l-39 -5q-52 330 -356 330q-191 0 -315 -149.5t-124 -407.5q0 -144 45.5 -262.5t120 -193t166 -114.5t187.5 -40q77 0 109 19t32 77v272q0 65 -39.5 83t-138.5 18v47h499v-47q-91 0 -118 -16.5t-27 -84.5v-258q0 -75 8 -116z" />
    <glyph glyph-name="gdotaccent" unicode="&#x121;" horiz-adv-x="851" 
d="M313 1176q0 44 33 76t78 32q46 0 78.5 -32t32.5 -76q0 -46 -32.5 -77.5t-78.5 -31.5q-45 0 -78 32t-33 77zM575 598q0 110 -48 180t-124 70q-78 0 -126 -69.5t-48 -180.5q0 -113 48 -182.5t126 -69.5q77 0 124.5 70t47.5 182zM852 -104q0 -93 -68 -165t-164.5 -106.5
t-197.5 -34.5q-188 0 -311 64t-123 174q0 78 73 133t177 68q-33 15 -55.5 45.5t-22.5 72.5q0 114 149 162q-111 27 -181.5 105.5t-70.5 183.5q0 127 101.5 211t244.5 84q67 0 129 -21q199 0 328 15l-31 -84l-180 4q99 -86 99 -209q0 -128 -101.5 -213.5t-243.5 -85.5
q-22 0 -34 2q-86 -16 -86 -70q0 -40 57 -55l285 -65q227 -51 227 -215zM580 -59l-299 73q-72 -13 -112 -59.5t-40 -114.5q0 -94 80 -146t213 -52q122 0 208.5 44t86.5 124q0 48 -31.5 80.5t-105.5 50.5z" />
    <glyph glyph-name="uni0122" unicode="&#x122;" horiz-adv-x="1282" 
d="M1118 29q-160 -49 -334 -49q-107 0 -210 26.5t-194.5 80.5t-160.5 129.5t-109 180.5t-40 226q0 142 53 263.5t142 202.5t205 127t241 46q75 0 140.5 -17t106.5 -34t56 -17q19 0 29 11t20 38h27l18 -366l-39 -5q-52 330 -356 330q-191 0 -315 -149.5t-124 -407.5
q0 -144 45.5 -262.5t120 -193t166 -114.5t187.5 -40q77 0 109 19t32 77v272q0 65 -39.5 83t-138.5 18v47h499v-47q-91 0 -118 -16.5t-27 -84.5v-258q0 -75 8 -116zM745 -276q-49 -10 -88 17t-39 81q0 41 31 68.5t72 27.5q46 0 80.5 -34t34.5 -95q0 -78 -65.5 -143.5
t-160.5 -77.5l-8 33q68 16 105.5 51.5t37.5 71.5z" />
    <glyph glyph-name="uni0123" unicode="&#x123;" horiz-adv-x="851" 
d="M391 1210q49 10 88 -17t39 -81q0 -42 -30.5 -69t-71.5 -27q-46 0 -80.5 34t-34.5 95q0 78 65 143.5t160 77.5l9 -33q-68 -16 -106 -51.5t-38 -71.5zM575 598q0 110 -48 180t-124 70q-78 0 -126 -69.5t-48 -180.5q0 -113 48 -182.5t126 -69.5q77 0 124.5 70t47.5 182z
M852 -104q0 -93 -68 -165t-164.5 -106.5t-197.5 -34.5q-188 0 -311 64t-123 174q0 78 73 133t177 68q-33 15 -55.5 45.5t-22.5 72.5q0 114 149 162q-111 27 -181.5 105.5t-70.5 183.5q0 127 101.5 211t244.5 84q67 0 129 -21q199 0 328 15l-31 -84l-180 4q99 -86 99 -209
q0 -128 -101.5 -213.5t-243.5 -85.5q-22 0 -34 2q-86 -16 -86 -70q0 -40 57 -55l285 -65q227 -51 227 -215zM580 -59l-299 73q-72 -13 -112 -59.5t-40 -114.5q0 -94 80 -146t213 -52q122 0 208.5 44t86.5 124q0 48 -31.5 80.5t-105.5 50.5z" />
    <glyph glyph-name="Hcircumflex" unicode="&#x124;" horiz-adv-x="1374" 
d="M756 1583q25 -50 87 -136.5t113 -146.5l-28 -6l-242 172l-242 -172l-28 6q50 56 112 143.5t88 139.5q37 -6 70 -6q32 0 70 6zM543 47v-47h-510v47q93 0 126.5 18.5t33.5 86.5v938q0 68 -33 86t-127 18v47h510v-47q-95 0 -128.5 -18t-33.5 -86v-408h612v408q0 68 -33.5 86
t-128.5 18v47h512v-47q-95 0 -128 -18t-33 -86v-938q0 -68 33 -86.5t128 -18.5v-47h-512v47q95 0 128.5 18.5t33.5 86.5v469h-612v-469q0 -68 33.5 -86.5t128.5 -18.5z" />
    <glyph glyph-name="hcircumflex" unicode="&#x125;" horiz-adv-x="1011" 
d="M573 1669q25 -49 87 -135.5t114 -147.5l-29 -6l-241 172l-242 -172l-29 6q51 57 113 144.5t88 138.5q38 -6 70 -6t69 6zM453 43v-43h-422v43q75 0 98 18.5t23 90.5v1028q0 73 -25.5 90.5t-116.5 17.5v43h322v-629q35 72 111 131.5t169 59.5q132 0 199.5 -84t67.5 -215
v-442q0 -72 22.5 -90.5t99.5 -18.5v-43h-421v43q75 0 96.5 18t21.5 91v407q0 112 -46 170.5t-134 58.5q-60 0 -110 -36t-76 -90v-510q0 -72 23 -90.5t98 -18.5z" />
    <glyph glyph-name="Hbar" unicode="&#x126;" horiz-adv-x="1404" 
d="M1008 653v172h-611v-172h611zM559 47v-47h-512v47q95 0 128.5 18.5t33.5 86.5v673h-139l18 54h121v211q0 68 -33.5 86t-128.5 18v47h512v-47q-95 0 -128.5 -18t-33.5 -86v-211h611v211q0 68 -33.5 86t-128.5 18v47h512v-47q-95 0 -128.5 -18t-33.5 -86v-211h145l-20 -54
h-125v-673q0 -68 33.5 -86.5t128.5 -18.5v-47h-512v47q95 0 128.5 18.5t33.5 86.5v440h-611v-440q0 -68 33.5 -86.5t128.5 -18.5z" />
    <glyph glyph-name="hbar" unicode="&#x127;" horiz-adv-x="1011" 
d="M453 43v-43h-422v43q75 0 98 18.5t23 90.5v890h-134l19 48h115v90q0 73 -25.5 90.5t-116.5 17.5v43h322v-241h221l-21 -48h-200v-340q35 72 111 131.5t169 59.5q132 0 199.5 -84t67.5 -215v-442q0 -72 22.5 -90.5t99.5 -18.5v-43h-421v43q75 0 96.5 18t21.5 91v407
q0 112 -46 170.5t-134 58.5q-60 0 -110 -36t-76 -90v-510q0 -72 23 -90.5t98 -18.5z" />
    <glyph glyph-name="Itilde" unicode="&#x128;" horiz-adv-x="575" 
d="M424 1315q-30 0 -147.5 54t-149.5 54q-29 0 -63 -32.5t-60 -85.5l-31 18q64 123 107 175t86 52q30 0 147.5 -55t149.5 -55q29 0 62.5 34t60.5 87l30 -19q-64 -123 -106.5 -175t-85.5 -52zM543 47v-47h-510v47q93 0 126.5 18.5t33.5 86.5v938q0 68 -33 86t-127 18v47h510
v-47q-95 0 -128.5 -18t-33.5 -86v-938q0 -68 33.5 -86.5t128.5 -18.5z" />
    <glyph glyph-name="itilde" unicode="&#x129;" horiz-adv-x="483" 
d="M354 1014q-32 0 -125.5 55t-115.5 55q-29 0 -62.5 -33.5t-60.5 -86.5l-29 18q62 122 105.5 174.5t87.5 52.5q31 0 124 -54t115 -54q29 0 62.5 33t60.5 86l31 -19q-64 -123 -107 -175t-86 -52zM162 723q0 72 -22.5 89t-98.5 17v43h301v-720q0 -72 23.5 -90.5t99.5 -18.5
v-43h-424v43q75 0 98 18.5t23 90.5v571z" />
    <glyph glyph-name="Imacron" unicode="&#x12a;" horiz-adv-x="575" 
d="M555 1358h-569l32 67h570zM543 47v-47h-510v47q93 0 126.5 18.5t33.5 86.5v938q0 68 -33 86t-127 18v47h510v-47q-95 0 -128.5 -18t-33.5 -86v-938q0 -68 33.5 -86.5t128.5 -18.5z" />
    <glyph glyph-name="imacron" unicode="&#x12b;" horiz-adv-x="483" 
d="M449 1055h-459l33 67h458zM162 723q0 72 -22.5 89t-98.5 17v43h301v-720q0 -72 23.5 -90.5t99.5 -18.5v-43h-424v43q75 0 98 18.5t23 90.5v571z" />
    <glyph glyph-name="Ibreve" unicode="&#x12c;" horiz-adv-x="575" 
d="M287 1309q-112 0 -186 82.5t-74 205.5h32q3 -48 24 -82.5t55 -52t70 -25t79 -7.5t79 7.5t69.5 25t54 52t24.5 82.5h33q0 -123 -74 -205.5t-186 -82.5zM543 47v-47h-510v47q93 0 126.5 18.5t33.5 86.5v938q0 68 -33 86t-127 18v47h510v-47q-95 0 -128.5 -18t-33.5 -86
v-938q0 -68 33.5 -86.5t128.5 -18.5z" />
    <glyph glyph-name="ibreve" unicode="&#x12d;" horiz-adv-x="483" 
d="M252 997q-100 0 -162.5 93t-62.5 245h32q6 -111 61 -165t132 -54t131.5 54t60.5 165h33q0 -152 -62.5 -245t-162.5 -93zM162 723q0 72 -22.5 89t-98.5 17v43h301v-720q0 -72 23.5 -90.5t99.5 -18.5v-43h-424v43q75 0 98 18.5t23 90.5v571z" />
    <glyph glyph-name="Iogonek" unicode="&#x12e;" horiz-adv-x="575" 
d="M446 -272q-46 -65 -95 -101.5t-111 -36.5q-57 0 -96.5 36.5t-39.5 101.5q0 112 193 272h-264v47q93 0 126.5 18.5t33.5 86.5v938q0 68 -33 86t-127 18v47h510v-47q-95 0 -128.5 -18t-33.5 -86v-938q0 -68 33.5 -86.5t128.5 -18.5v-47h-189q-67 -65 -101 -120.5
t-34 -117.5q0 -43 22 -67.5t56 -24.5q35 0 64 18t63 58z" />
    <glyph glyph-name="iogonek" unicode="&#x12f;" horiz-adv-x="483" 
d="M135 1174q0 45 33 77.5t78 32.5q47 0 79.5 -32t32.5 -78t-32.5 -77.5t-79.5 -31.5q-45 0 -78 32t-33 77zM412 -272q-99 -138 -207 -138q-57 0 -96 36.5t-39 101.5q0 113 192 272h-221v43q75 0 98 18.5t23 90.5v571q0 72 -22.5 89t-98.5 17v43h301v-720q0 -72 23.5 -90.5
t99.5 -18.5v-43h-146q-67 -65 -101 -120.5t-34 -117.5q0 -43 22 -67.5t56 -24.5q35 0 64 18t63 58z" />
    <glyph glyph-name="Idotaccent" unicode="&#x130;" horiz-adv-x="575" 
d="M176 1444q0 44 33 76t78 32q46 0 78 -32t32 -76q0 -46 -32 -77.5t-78 -31.5q-45 0 -78 32t-33 77zM543 47v-47h-510v47q93 0 126.5 18.5t33.5 86.5v938q0 68 -33 86t-127 18v47h510v-47q-95 0 -128.5 -18t-33.5 -86v-938q0 -68 33.5 -86.5t128.5 -18.5z" />
    <glyph glyph-name="dotlessi" unicode="&#x131;" horiz-adv-x="483" 
d="M162 723q0 72 -22.5 89t-98.5 17v43h301v-720q0 -72 23.5 -90.5t99.5 -18.5v-43h-424v43q75 0 98 18.5t23 90.5v571z" />
    <glyph glyph-name="Jcircumflex" unicode="&#x134;" horiz-adv-x="555" 
d="M350 1583q25 -49 87 -135.5t114 -147.5l-29 -6l-241 172l-242 -172l-29 6q51 57 113 144.5t88 138.5q37 -6 70 -6q31 0 69 6zM182 -55v1145q0 68 -32.5 86t-126.5 18v47h509v-47q-95 0 -128 -18t-33 -86v-1076q0 -157 -98.5 -254.5t-256.5 -97.5q-56 0 -110 18.5
t-80 38.5l16 37q63 -37 148 -37q90 0 141 56t51 170z" />
    <glyph glyph-name="jcircumflex" unicode="&#x135;" horiz-adv-x="442" 
d="M285 1331q25 -61 83 -170.5t101 -179.5l-25 -6l-217 225l-217 -225l-24 6q43 70 101 179.5t83 170.5q34 -6 57 -6t58 6zM139 -139v862q0 71 -24 88.5t-101 17.5v43h305v-946q0 -162 -92.5 -249t-236.5 -87q-61 0 -113.5 17.5t-77.5 42.5l19 33q58 -39 133 -39
q88 0 138 53.5t50 163.5z" />
    <glyph glyph-name="uni0136" unicode="&#x136;" horiz-adv-x="1228" 
d="M543 47v-47h-510v47q93 0 126.5 18.5t33.5 86.5v938q0 68 -33 86t-127 18v47h510v-47q-95 0 -128.5 -18t-33.5 -86v-938q0 -68 33.5 -86.5t128.5 -18.5zM948 0l-547 666q53 11 121 79l336 367q29 29 29 47q0 20 -32 27.5t-95 7.5v47h426v-47q-93 0 -144 -15.5t-96 -64.5
l-360 -389l450 -545q70 -82 107 -107.5t92 -25.5v-47h-287zM666 -276q-49 -10 -88 17t-39 81q0 42 30.5 69t71.5 27q46 0 80.5 -34t34.5 -95q0 -78 -65.5 -143.5t-160.5 -77.5l-8 33q68 16 106 51.5t38 71.5z" />
    <glyph glyph-name="uni0137" unicode="&#x137;" horiz-adv-x="987" 
d="M152 152v1028q0 73 -25.5 90.5t-116.5 17.5v43h322v-1179q0 -72 23 -90.5t98 -18.5v-43h-422v43q75 0 98 18.5t23 90.5zM506 553l295 -381q64 -78 100.5 -103t91.5 -26v-43h-274l-324 424q-12 15 -25 28.5t-20 19.5l-6 7l285 254q53 47 53 68q0 28 -86 28v43h352v-43
q-74 0 -131.5 -27.5t-122.5 -84.5zM541 -276q-49 -10 -88 17t-39 81q0 42 30.5 69t71.5 27q46 0 80.5 -34t34.5 -95q0 -78 -65 -143.5t-160 -77.5l-9 33q68 16 106 51.5t38 71.5z" />
    <glyph glyph-name="kgreenlandic" unicode="&#x138;" horiz-adv-x="1001" 
d="M162 152v571q0 72 -22.5 89t-98.5 17v43h301v-720q0 -72 23.5 -90.5t99.5 -18.5v-43h-424v43q75 0 98 18.5t23 90.5zM520 553l295 -381q64 -77 100.5 -102.5t90.5 -26.5v-43h-273l-323 424q-12 15 -25.5 28.5t-20.5 19.5l-8 7l287 254q51 45 51 68q0 28 -84 28v43h353
v-43q-74 0 -131.5 -27.5t-122.5 -84.5z" />
    <glyph glyph-name="Lacute" unicode="&#x139;" horiz-adv-x="1048" 
d="M250 1305l-14 10l280 291h8q56 -60 138 -111v-6zM965 0h-932v47q93 0 126.5 18.5t33.5 86.5v938q0 68 -33 86t-127 18v47h510v-47q-96 0 -129 -17.5t-33 -86.5v-940q0 -53 22 -74t80 -21h142q82 0 130.5 11t89.5 47t67.5 99.5t54.5 174.5h39z" />
    <glyph glyph-name="lacute" unicode="&#x13a;" horiz-adv-x="475" 
d="M131 1386l-14 11l280 291h9q58 -62 137 -111v-6zM152 1180q0 73 -25.5 90.5t-116.5 17.5v43h322v-1179q0 -72 23 -90.5t98 -18.5v-43h-422v43q75 0 98 18.5t23 90.5v1028z" />
    <glyph glyph-name="uni013B" unicode="&#x13b;" horiz-adv-x="1048" 
d="M965 0h-932v47q93 0 126.5 18.5t33.5 86.5v938q0 68 -33 86t-127 18v47h510v-47q-96 0 -129 -17.5t-33 -86.5v-940q0 -53 22 -74t80 -21h142q82 0 130.5 11t89.5 47t67.5 99.5t54.5 174.5h39zM551 -276q-49 -10 -88 17t-39 81q0 42 30.5 69t71.5 27q46 0 80.5 -34
t34.5 -95q0 -78 -65 -143.5t-160 -77.5l-8 33q68 16 105.5 51.5t37.5 71.5z" />
    <glyph glyph-name="uni013C" unicode="&#x13c;" horiz-adv-x="475" 
d="M152 1180q0 73 -25.5 90.5t-116.5 17.5v43h322v-1179q0 -72 23 -90.5t98 -18.5v-43h-422v43q75 0 98 18.5t23 90.5v1028zM262 -276q-49 -10 -88 17t-39 81q0 41 31 68.5t72 27.5q46 0 80 -34t34 -95q0 -78 -65 -143.5t-160 -77.5l-8 33q68 16 105.5 51.5t37.5 71.5z" />
    <glyph glyph-name="Lcaron" unicode="&#x13d;" horiz-adv-x="1056" 
d="M754 850l20 401l4 4q92 -20 148 -24l2 -6l-156 -377zM965 0h-932v47q93 0 126.5 18.5t33.5 86.5v938q0 68 -33 86t-127 18v47h510v-47q-96 0 -129 -17.5t-33 -86.5v-940q0 -53 22 -74t80 -21h142q82 0 130.5 11t89.5 47t67.5 99.5t54.5 174.5h39z" />
    <glyph glyph-name="lcaron" unicode="&#x13e;" horiz-adv-x="669" 
d="M457 940l20 401l4 5q100 -21 148 -25l2 -6l-156 -377zM152 1180q0 73 -25.5 90.5t-116.5 17.5v43h322v-1179q0 -72 23 -90.5t98 -18.5v-43h-422v43q75 0 98 18.5t23 90.5v1028z" />
    <glyph glyph-name="Ldot" unicode="&#x13f;" horiz-adv-x="1056" 
d="M965 0h-932v47q93 0 126.5 18.5t33.5 86.5v938q0 68 -33 86t-127 18v47h510v-47q-96 0 -129 -17.5t-33 -86.5v-940q0 -53 22 -74t80 -21h142q82 0 130.5 11t89.5 47t67.5 99.5t54.5 174.5h39zM727 727q0 44 33.5 76.5t77.5 32.5q46 0 78 -32t32 -77q0 -46 -32 -77.5
t-78 -31.5q-45 0 -78 32t-33 77z" />
    <glyph glyph-name="ldot" unicode="&#x140;" horiz-adv-x="649" 
d="M152 1180q0 73 -25.5 90.5t-116.5 17.5v43h322v-1179q0 -72 23 -90.5t98 -18.5v-43h-422v43q75 0 98 18.5t23 90.5v1028zM453 666q0 44 33 76t77 32q46 0 78.5 -32t32.5 -76q0 -46 -32.5 -77.5t-78.5 -31.5q-45 0 -77.5 32t-32.5 77z" />
    <glyph glyph-name="Lslash" unicode="&#x141;" horiz-adv-x="1064" 
d="M981 0h-932v47q93 0 126.5 18.5t33.5 86.5v368l-143 -59v55l143 59v515q0 68 -33 86t-127 18v47h510v-47q-96 0 -129 -17.5t-33 -86.5v-443l287 123v-57l-287 -123v-440q0 -53 22.5 -74t80.5 -21h141q82 0 130.5 11t89.5 47t67.5 99.5t54.5 174.5h39z" />
    <glyph glyph-name="lslash" unicode="&#x142;" horiz-adv-x="528" 
d="M475 0h-422v43q75 0 98 18.5t23 90.5v471l-139 -99v66l139 98v492q0 73 -25 90.5t-116 17.5v43h321v-534l140 96v-64l-140 -98v-579q0 -72 23 -90.5t98 -18.5v-43z" />
    <glyph glyph-name="Nacute" unicode="&#x143;" horiz-adv-x="1318" 
d="M569 1305l-14 10l281 291h8q58 -62 137 -111v-6zM1145 -20h-21l-850 1069v-891q0 -37 12 -59.5t38.5 -33.5t57 -14.5t79.5 -3.5v-47h-441v47q39 0 64.5 2t50 8.5t38 18.5t22 32t8.5 50v975q-39 39 -77.5 50t-115.5 11v47h352l711 -907v749q0 69 -43.5 90t-142.5 21v47
h440v-47q-98 0 -140 -20.5t-42 -90.5v-1103z" />
    <glyph glyph-name="nacute" unicode="&#x144;" horiz-adv-x="1019" 
d="M487 985l-18 8l176 355h8q56 -37 154 -58v-6zM465 43v-43h-424v43q75 0 98 18.5t23 90.5v571q0 72 -22.5 89t-98.5 17v43h301v-170q35 72 110.5 131.5t170.5 59.5q130 0 198 -84t68 -215v-442q0 -72 23 -90.5t98 -18.5v-43h-422v43q75 0 98 18.5t23 90.5v407
q0 112 -47 170.5t-136 58.5q-60 0 -109.5 -36t-74.5 -90v-510q0 -72 23.5 -90.5t99.5 -18.5z" />
    <glyph glyph-name="uni0145" unicode="&#x145;" horiz-adv-x="1318" 
d="M1145 -20h-21l-850 1069v-891q0 -37 12 -59.5t38.5 -33.5t57 -14.5t79.5 -3.5v-47h-441v47q39 0 64.5 2t50 8.5t38 18.5t22 32t8.5 50v975q-39 39 -77.5 50t-115.5 11v47h352l711 -907v749q0 69 -43.5 90t-142.5 21v47h440v-47q-98 0 -140 -20.5t-42 -90.5v-1103z
M715 -276q-49 -10 -88 17t-39 81q0 42 30.5 69t71.5 27q46 0 80.5 -34t34.5 -95q0 -78 -65 -143.5t-160 -77.5l-9 33q68 16 106 51.5t38 71.5z" />
    <glyph glyph-name="uni0146" unicode="&#x146;" horiz-adv-x="1019" 
d="M465 43v-43h-424v43q75 0 98 18.5t23 90.5v571q0 72 -22.5 89t-98.5 17v43h301v-170q35 72 110.5 131.5t170.5 59.5q130 0 198 -84t68 -215v-442q0 -72 23 -90.5t98 -18.5v-43h-422v43q75 0 98 18.5t23 90.5v407q0 112 -47 170.5t-136 58.5q-60 0 -109.5 -36t-74.5 -90
v-510q0 -72 23.5 -90.5t99.5 -18.5zM535 -276q-49 -10 -88 17t-39 81q0 42 30.5 69t71.5 27q46 0 80.5 -34t34.5 -95q0 -78 -65.5 -143.5t-160.5 -77.5l-8 33q68 16 106 51.5t38 71.5z" />
    <glyph glyph-name="Ncaron" unicode="&#x147;" horiz-adv-x="1318" 
d="M952 1595q-52 -61 -113.5 -147t-86.5 -135q-38 6 -70 6t-70 -6q-26 52 -88 138.5t-112 143.5l28 7l242 -172l242 172zM1145 -20h-21l-850 1069v-891q0 -37 12 -59.5t38.5 -33.5t57 -14.5t79.5 -3.5v-47h-441v47q39 0 64.5 2t50 8.5t38 18.5t22 32t8.5 50v975
q-39 39 -77.5 50t-115.5 11v47h352l711 -907v749q0 69 -43.5 90t-142.5 21v47h440v-47q-98 0 -140 -20.5t-42 -90.5v-1103z" />
    <glyph glyph-name="ncaron" unicode="&#x148;" horiz-adv-x="1019" 
d="M784 1331q-43 -70 -101 -179.5t-83 -170.5q-35 6 -57 6q-23 0 -58 -6q-25 61 -83 170.5t-101 179.5l25 6l217 -225l217 225zM465 43v-43h-424v43q75 0 98 18.5t23 90.5v571q0 72 -22.5 89t-98.5 17v43h301v-170q35 72 110.5 131.5t170.5 59.5q130 0 198 -84t68 -215v-442
q0 -72 23 -90.5t98 -18.5v-43h-422v43q75 0 98 18.5t23 90.5v407q0 112 -47 170.5t-136 58.5q-60 0 -109.5 -36t-74.5 -90v-510q0 -72 23.5 -90.5t99.5 -18.5z" />
    <glyph glyph-name="Eng" unicode="&#x14a;" horiz-adv-x="1318" 
d="M842 -410q-55 0 -105 18t-71 42l18 33q59 -43 141 -43q111 0 179.5 79.5t68.5 221.5v102l-799 1008v-893q0 -37 12 -59.5t38.5 -33.5t57 -14.5t79.5 -3.5v-47h-441v47q39 0 64.5 2t50 8.5t38 18.5t22 32t8.5 50v975q-41 39 -78.5 50t-114.5 11v47h352l711 -907v749
q0 69 -43.5 90t-142.5 21v47h440v-47q-98 0 -140 -20.5t-42 -90.5v-1153q0 -154 -86.5 -247t-216.5 -93z" />
    <glyph glyph-name="eng" unicode="&#x14b;" horiz-adv-x="1011" 
d="M559 -410q-61 0 -113 17.5t-77 42.5l18 33q58 -39 133 -39q88 0 138.5 53.5t50.5 163.5v698q0 112 -47 170.5t-136 58.5q-58 0 -106.5 -35t-77.5 -87v-514q0 -72 23.5 -90.5t99.5 -18.5v-43h-424v43q75 0 98 18.5t23 90.5v571q0 72 -22.5 89t-98.5 17v43h301v-165
q37 71 112.5 128.5t168.5 57.5q130 0 198 -84t68 -215v-668q0 -162 -93 -249t-237 -87z" />
    <glyph glyph-name="Omacron" unicode="&#x14c;" horiz-adv-x="1345" 
d="M940 1358h-569l32 67h570zM70 621q0 130 50 249t132 204.5t192.5 136.5t227.5 51q118 0 229 -51t194 -136.5t133 -204.5t50 -249t-50 -249t-133 -204.5t-194 -136.5t-229 -51q-117 0 -227.5 51t-192.5 136.5t-132 204.5t-50 249zM1069 621q0 261 -112 421t-285 160
q-171 0 -283.5 -160.5t-112.5 -420.5t112.5 -421t283.5 -161q173 0 285 160.5t112 421.5z" />
    <glyph glyph-name="omacron" unicode="&#x14d;" horiz-adv-x="929" 
d="M692 1055h-487l33 67h487zM889 436q0 -98 -36 -184t-95 -145t-135.5 -93t-157.5 -34t-157.5 34t-135.5 93t-95 145t-36 184t36 184.5t95 145.5t135.5 93t157.5 34t157.5 -34t135.5 -93t95 -145.5t36 -184.5zM700 436q0 196 -64 301t-171 105t-171.5 -105t-64.5 -301
q0 -194 64.5 -298.5t171.5 -104.5t171 104t64 299z" />
    <glyph glyph-name="Obreve" unicode="&#x14e;" horiz-adv-x="1345" 
d="M672 1309q-112 0 -186 82.5t-74 205.5h32q3 -48 24 -82.5t55 -52t70 -25t79 -7.5t79 7.5t69.5 25t54 52t24.5 82.5h33q0 -123 -74 -205.5t-186 -82.5zM70 621q0 130 50 249t132 204.5t192.5 136.5t227.5 51q118 0 229 -51t194 -136.5t133 -204.5t50 -249t-50 -249
t-133 -204.5t-194 -136.5t-229 -51q-117 0 -227.5 51t-192.5 136.5t-132 204.5t-50 249zM1069 621q0 261 -112 421t-285 160q-171 0 -283.5 -160.5t-112.5 -420.5t112.5 -421t283.5 -161q173 0 285 160.5t112 421.5z" />
    <glyph glyph-name="obreve" unicode="&#x14f;" horiz-adv-x="929" 
d="M465 997q-100 0 -162.5 93t-62.5 245h32q6 -111 61 -165t132 -54t131.5 54t60.5 165h33q0 -152 -62.5 -245t-162.5 -93zM889 436q0 -98 -36 -184t-95 -145t-135.5 -93t-157.5 -34t-157.5 34t-135.5 93t-95 145t-36 184t36 184.5t95 145.5t135.5 93t157.5 34t157.5 -34
t135.5 -93t95 -145.5t36 -184.5zM700 436q0 196 -64 301t-171 105t-171.5 -105t-64.5 -301q0 -194 64.5 -298.5t171.5 -104.5t171 104t64 299z" />
    <glyph glyph-name="Ohungarumlaut" unicode="&#x150;" horiz-adv-x="1345" 
d="M467 1311l229 291h4q60 -69 117 -105v-8l-336 -191zM754 1311l227 291h4q55 -63 121 -105v-8l-340 -191zM70 621q0 130 50 249t132 204.5t192.5 136.5t227.5 51q118 0 229 -51t194 -136.5t133 -204.5t50 -249t-50 -249t-133 -204.5t-194 -136.5t-229 -51
q-117 0 -227.5 51t-192.5 136.5t-132 204.5t-50 249zM1069 621q0 261 -112 421t-285 160q-171 0 -283.5 -160.5t-112.5 -420.5t112.5 -421t283.5 -161q173 0 285 160.5t112 421.5z" />
    <glyph glyph-name="ohungarumlaut" unicode="&#x151;" horiz-adv-x="929" 
d="M530 993l158 355h6q61 -40 137 -54v-8l-282 -301zM293 993l158 355h6q58 -40 133 -54v-8l-281 -301zM889 436q0 -98 -36 -184t-95 -145t-135.5 -93t-157.5 -34t-157.5 34t-135.5 93t-95 145t-36 184t36 184.5t95 145.5t135.5 93t157.5 34t157.5 -34t135.5 -93t95 -145.5
t36 -184.5zM700 436q0 196 -64 301t-171 105t-171.5 -105t-64.5 -301q0 -194 64.5 -298.5t171.5 -104.5t171 104t64 299z" />
    <glyph glyph-name="OE" unicode="&#x152;" horiz-adv-x="1787" 
d="M819 1186h-20q-248 0 -390.5 -144t-142.5 -430q0 -278 137 -417.5t398 -139.5h121v1035q0 58 -24 77t-79 19zM782 0q-211 0 -372.5 69t-254 206t-92.5 325q0 184 96 331t262.5 228.5t371.5 81.5h890l5 -307h-35q-7 59 -17.5 99t-31 68.5t-42.5 44.5t-63 24.5t-82 11
t-110 2.5h-199v-518h215q42 0 68 1.5t47 9.5t31 15.5t18.5 28t11.5 39t8 55.5h37v-352h-37q-7 55 -12.5 78t-25.5 42t-51.5 23t-94.5 4h-215v-463q0 -57 25.5 -74.5t83.5 -17.5h120q42 0 68.5 0.5t58.5 3t51.5 7t43.5 12t39 19t32.5 28t29 37.5t24.5 49.5t23.5 63t21.5 77.5
h38l-36 -352h-949z" />
    <glyph glyph-name="oe" unicode="&#x153;" horiz-adv-x="1474" 
d="M700 436q0 196 -64 301t-171 105t-171.5 -105t-64.5 -301q0 -194 64.5 -298.5t171.5 -104.5t171 104t64 299zM1085 840q-85 0 -144.5 -65.5t-76.5 -184.5h398q-5 115 -49 182.5t-128 67.5zM1444 162q-57 -88 -143 -135t-181 -47q-100 0 -187.5 44t-144.5 123
q-61 -77 -146.5 -122t-176.5 -45q-81 0 -157.5 34t-135.5 93t-95 145t-36 184t36 184.5t95 145.5t135.5 93t157.5 34q91 0 177.5 -44.5t148.5 -121.5q56 77 135.5 121.5t163.5 44.5t150.5 -30.5t106.5 -82t61 -112.5t22 -127h-570q-2 -12 -2 -37q0 -182 97 -302t251 -120
q133 0 213 102z" />
    <glyph glyph-name="Racute" unicode="&#x154;" horiz-adv-x="1261" 
d="M432 1305l-14 10l280 291h9q58 -62 137 -111v-6zM487 1184h-106v-535h106q340 0 340 275q0 140 -89.5 200t-250.5 60zM543 0h-510v47q93 0 126.5 18.5t33.5 86.5v938q0 68 -33 86t-127 18v47h489q142 0 252 -33.5t178 -106.5t68 -177q0 -115 -85 -192.5t-218 -110.5
q109 -45 203 -203l143 -223q30 -47 47 -69.5t42 -44.5t54 -29.5t72 -8.5v-43h-317l-195 324q-79 144 -139.5 207.5t-139.5 66.5h-106v-446q0 -68 33.5 -86.5t128.5 -18.5v-47z" />
    <glyph glyph-name="racute" unicode="&#x155;" horiz-adv-x="733" 
d="M338 985l-19 8l177 355h8q56 -37 153 -58v-6zM504 43v-43h-463v43q75 0 98 18.5t23 90.5v571q0 72 -22.5 89t-98.5 17v43h301v-182q73 105 123 154t104 49q43 0 87.5 -30.5t66.5 -67.5l-84 -152h-4q-28 50 -68.5 83.5t-81.5 33.5q-34 0 -66 -26t-77 -85v-497
q0 -72 30.5 -90.5t131.5 -18.5z" />
    <glyph glyph-name="uni0156" unicode="&#x156;" horiz-adv-x="1261" 
d="M487 1184h-106v-535h106q340 0 340 275q0 140 -89.5 200t-250.5 60zM543 0h-510v47q93 0 126.5 18.5t33.5 86.5v938q0 68 -33 86t-127 18v47h489q142 0 252 -33.5t178 -106.5t68 -177q0 -115 -85 -192.5t-218 -110.5q109 -45 203 -203l143 -223q30 -47 47 -69.5t42 -44.5
t54 -29.5t72 -8.5v-43h-317l-195 324q-79 144 -139.5 207.5t-139.5 66.5h-106v-446q0 -68 33.5 -86.5t128.5 -18.5v-47zM676 -276q-49 -10 -88 17t-39 81q0 42 30.5 69t71.5 27q46 0 80.5 -34t34.5 -95q0 -78 -65 -143.5t-160 -77.5l-9 33q68 16 106 51.5t38 71.5z" />
    <glyph glyph-name="uni0157" unicode="&#x157;" horiz-adv-x="733" 
d="M504 43v-43h-463v43q75 0 98 18.5t23 90.5v571q0 72 -22.5 89t-98.5 17v43h301v-182q73 105 123 154t104 49q43 0 87.5 -30.5t66.5 -67.5l-84 -152h-4q-28 50 -68.5 83.5t-81.5 33.5q-34 0 -66 -26t-77 -85v-497q0 -72 30.5 -90.5t131.5 -18.5zM289 -276q-49 -10 -88 17
t-39 81q0 42 30.5 69t71.5 27q46 0 80.5 -34t34.5 -95q0 -78 -65 -143.5t-160 -77.5l-9 33q68 16 106 51.5t38 71.5z" />
    <glyph glyph-name="Rcaron" unicode="&#x158;" horiz-adv-x="1261" 
d="M815 1595q-52 -62 -114 -147.5t-87 -134.5q-38 6 -69 6q-33 0 -70 -6q-26 51 -88 138t-113 144l29 7l242 -172l241 172zM487 1184h-106v-535h106q340 0 340 275q0 140 -89.5 200t-250.5 60zM543 0h-510v47q93 0 126.5 18.5t33.5 86.5v938q0 68 -33 86t-127 18v47h489
q142 0 252 -33.5t178 -106.5t68 -177q0 -115 -85 -192.5t-218 -110.5q109 -45 203 -203l143 -223q30 -47 47 -69.5t42 -44.5t54 -29.5t72 -8.5v-43h-317l-195 324q-79 144 -139.5 207.5t-139.5 66.5h-106v-446q0 -68 33.5 -86.5t128.5 -18.5v-47z" />
    <glyph glyph-name="rcaron" unicode="&#x159;" horiz-adv-x="733" 
d="M635 1331q-43 -70 -101 -179.5t-83 -170.5q-34 6 -58 6q-22 0 -57 -6q-25 61 -83 170.5t-101 179.5l24 6l217 -225l217 225zM504 43v-43h-463v43q75 0 98 18.5t23 90.5v571q0 72 -22.5 89t-98.5 17v43h301v-182q73 105 123 154t104 49q43 0 87.5 -30.5t66.5 -67.5
l-84 -152h-4q-28 50 -68.5 83.5t-81.5 33.5q-34 0 -66 -26t-77 -85v-497q0 -72 30.5 -90.5t131.5 -18.5z" />
    <glyph glyph-name="Sacute" unicode="&#x15a;" horiz-adv-x="923" 
d="M350 1305l-14 10l280 291h9q58 -62 137 -111v-6zM451 39q112 0 185 57.5t73 171.5q0 81 -45.5 132t-151.5 108l-201 106q-116 63 -173.5 133t-57.5 179q0 143 107.5 239.5t265.5 96.5q62 0 118.5 -17t94 -34t51.5 -17q20 0 30.5 11t20.5 38h27l16 -362l-37 -2
q-18 143 -104 233t-213 90q-98 0 -161 -59t-63 -144q0 -37 11.5 -68t26.5 -52t45 -43.5t52 -35t64 -34.5l172 -92q61 -33 104 -62t81.5 -68.5t57.5 -89t19 -108.5q0 -158 -118.5 -262t-292.5 -104q-55 0 -106 12.5t-81.5 28t-59 28t-42.5 12.5q-35 0 -53 -65h-31l-27 412
l43 2q27 -170 125.5 -270.5t227.5 -100.5z" />
    <glyph glyph-name="sacute" unicode="&#x15b;" horiz-adv-x="718" 
d="M309 985l-18 8l176 355h8q56 -37 154 -58v-6zM362 35q77 0 120.5 37t43.5 108q0 50 -30 80t-95 64l-151 77q-80 42 -126 97.5t-46 138.5q0 112 80.5 184t199.5 72q55 0 118.5 -23.5t72.5 -23.5q14 0 22 9.5t17 29.5h24l17 -264l-35 -3q-19 106 -84.5 165t-144.5 59
q-68 0 -108 -38t-40 -99q0 -51 31 -82.5t96 -65.5l137 -70q88 -45 136.5 -100.5t48.5 -142.5q0 -113 -86 -188.5t-213 -75.5q-44 0 -85.5 11t-65.5 23.5t-45 23.5t-30 11q-14 0 -26 -16.5t-17 -38.5h-28l-15 299l39 2q15 -111 89.5 -185.5t178.5 -74.5z" />
    <glyph glyph-name="Scircumflex" unicode="&#x15c;" horiz-adv-x="923" 
d="M532 1583q25 -49 87 -135.5t114 -147.5l-28 -6l-242 172l-242 -172l-28 6q50 56 112 143.5t88 139.5q38 -6 70 -6q31 0 69 6zM451 39q112 0 185 57.5t73 171.5q0 81 -45.5 132t-151.5 108l-201 106q-116 63 -173.5 133t-57.5 179q0 143 107.5 239.5t265.5 96.5
q62 0 118.5 -17t94 -34t51.5 -17q20 0 30.5 11t20.5 38h27l16 -362l-37 -2q-18 143 -104 233t-213 90q-98 0 -161 -59t-63 -144q0 -37 11.5 -68t26.5 -52t45 -43.5t52 -35t64 -34.5l172 -92q61 -33 104 -62t81.5 -68.5t57.5 -89t19 -108.5q0 -158 -118.5 -262t-292.5 -104
q-55 0 -106 12.5t-81.5 28t-59 28t-42.5 12.5q-35 0 -53 -65h-31l-27 412l43 2q27 -170 125.5 -270.5t227.5 -100.5z" />
    <glyph glyph-name="scircumflex" unicode="&#x15d;" horiz-adv-x="718" 
d="M430 1331q25 -61 83 -170.5t101 -179.5l-24 -6l-217 225l-217 -225l-25 6q43 70 101 179.5t83 170.5q35 -6 58 -6t57 6zM362 35q77 0 120.5 37t43.5 108q0 50 -30 80t-95 64l-151 77q-80 42 -126 97.5t-46 138.5q0 112 80.5 184t199.5 72q55 0 118.5 -23.5t72.5 -23.5
q14 0 22 9.5t17 29.5h24l17 -264l-35 -3q-19 106 -84.5 165t-144.5 59q-68 0 -108 -38t-40 -99q0 -51 31 -82.5t96 -65.5l137 -70q88 -45 136.5 -100.5t48.5 -142.5q0 -113 -86 -188.5t-213 -75.5q-44 0 -85.5 11t-65.5 23.5t-45 23.5t-30 11q-14 0 -26 -16.5t-17 -38.5h-28
l-15 299l39 2q15 -111 89.5 -185.5t178.5 -74.5z" />
    <glyph glyph-name="uni015E" unicode="&#x15e;" horiz-adv-x="923" 
d="M614 -217q0 -61 -45 -105.5t-118.5 -66t-165.5 -21.5v33q94 0 151.5 33.5t57.5 83.5q0 83 -154 86l63 156q-55 6 -105.5 26t-83.5 36.5t-48 16.5q-35 0 -53 -65h-31l-27 412l43 2q27 -170 125.5 -270.5t227.5 -100.5q112 0 185 57.5t73 171.5q0 81 -45.5 132t-151.5 108
l-201 106q-116 63 -173.5 133t-57.5 179q0 143 107.5 239.5t265.5 96.5q62 0 118.5 -17t94 -34t51.5 -17q20 0 30.5 11t20.5 38h27l16 -362l-37 -2q-18 143 -104 233t-213 90q-98 0 -161 -59t-63 -144q0 -37 11.5 -68t26.5 -52t45 -43.5t52 -35t64 -34.5l172 -92
q61 -33 104 -62t81.5 -68.5t57.5 -89t19 -108.5q0 -158 -118.5 -262t-292.5 -104h-13l-22 -66q46 -2 87.5 -14.5t74 -43t32.5 -73.5z" />
    <glyph glyph-name="uni015F" unicode="&#x15f;" horiz-adv-x="718" 
d="M504 -217q0 -61 -45.5 -105.5t-119 -66t-165.5 -21.5v33q94 0 151.5 33.5t57.5 83.5q0 83 -154 86l66 162q-48 9 -97 35t-57 26q-14 0 -26 -16.5t-17 -38.5h-28l-15 299l39 2q15 -111 89.5 -185.5t178.5 -74.5q77 0 120.5 37t43.5 108q0 50 -30 80t-95 64l-151 77
q-80 42 -126 97.5t-46 138.5q0 112 80.5 184t199.5 72q55 0 118.5 -23.5t72.5 -23.5q14 0 22 9.5t17 29.5h24l17 -264l-35 -3q-19 106 -84.5 165t-144.5 59q-68 0 -108 -38t-40 -99q0 -51 31 -82.5t96 -65.5l137 -70q88 -45 136.5 -100.5t48.5 -142.5q0 -113 -86 -188.5
t-213 -75.5q-23 0 -35 2l-23 -68q46 -2 87.5 -14.5t74.5 -43t33 -73.5z" />
    <glyph glyph-name="Scaron" unicode="&#x160;" horiz-adv-x="923" 
d="M733 1595q-52 -62 -114 -147.5t-87 -134.5q-38 6 -69 6q-33 0 -70 -6q-26 52 -88 138.5t-112 143.5l28 7l242 -172l242 172zM451 39q112 0 185 57.5t73 171.5q0 81 -45.5 132t-151.5 108l-201 106q-116 63 -173.5 133t-57.5 179q0 143 107.5 239.5t265.5 96.5
q62 0 118.5 -17t94 -34t51.5 -17q20 0 30.5 11t20.5 38h27l16 -362l-37 -2q-18 143 -104 233t-213 90q-98 0 -161 -59t-63 -144q0 -37 11.5 -68t26.5 -52t45 -43.5t52 -35t64 -34.5l172 -92q61 -33 104 -62t81.5 -68.5t57.5 -89t19 -108.5q0 -158 -118.5 -262t-292.5 -104
q-55 0 -106 12.5t-81.5 28t-59 28t-42.5 12.5q-35 0 -53 -65h-31l-27 412l43 2q27 -170 125.5 -270.5t227.5 -100.5z" />
    <glyph glyph-name="scaron" unicode="&#x161;" horiz-adv-x="718" 
d="M614 1331q-43 -70 -101 -179.5t-83 -170.5q-34 6 -57 6t-58 -6q-25 61 -83 170.5t-101 179.5l25 6l217 -225l217 225zM362 35q77 0 120.5 37t43.5 108q0 50 -30 80t-95 64l-151 77q-80 42 -126 97.5t-46 138.5q0 112 80.5 184t199.5 72q55 0 118.5 -23.5t72.5 -23.5
q14 0 22 9.5t17 29.5h24l17 -264l-35 -3q-19 106 -84.5 165t-144.5 59q-68 0 -108 -38t-40 -99q0 -51 31 -82.5t96 -65.5l137 -70q88 -45 136.5 -100.5t48.5 -142.5q0 -113 -86 -188.5t-213 -75.5q-44 0 -85.5 11t-65.5 23.5t-45 23.5t-30 11q-14 0 -26 -16.5t-17 -38.5h-28
l-15 299l39 2q15 -111 89.5 -185.5t178.5 -74.5z" />
    <glyph glyph-name="Tcommaaccent" unicode="&#x162;" horiz-adv-x="1189" 
d="M772 -217q0 -61 -45.5 -105.5t-119 -66t-165.5 -21.5v33q94 0 151.5 33.5t57.5 83.5q0 83 -153 86l71 174h-270v47q124 0 163.5 19t39.5 88v1036h-80q-66 0 -108.5 -3.5t-82 -14.5t-62.5 -29.5t-42 -52t-29.5 -78.5t-17.5 -111h-39l6 350q55 -10 174 -10h748
q119 0 174 10l6 -350h-39q-7 66 -17.5 111t-29.5 78.5t-42 52t-63 29.5t-82.5 14.5t-109.5 3.5h-78v-1036q0 -69 39.5 -88t163.5 -19v-47h-283l-30 -86q46 -2 87.5 -14.5t74 -43t32.5 -73.5z" />
    <glyph glyph-name="tcommaaccent" unicode="&#x163;" horiz-adv-x="622" 
d="M487 -217q0 -61 -45 -105.5t-118.5 -66t-165.5 -21.5v33q94 0 151.5 33.5t57.5 83.5q0 83 -154 86l70 170q-65 26 -104.5 82.5t-39.5 132.5l6 598h-116v27q167 113 274 266h16v-234q199 0 287 9l-12 -68h-275v-561q0 -79 35.5 -126.5t104.5 -47.5q85 0 149 88l29 -23
q-98 -159 -266 -159q-30 0 -54 6l-24 -72q46 -2 87.5 -14.5t74 -43t32.5 -73.5z" />
    <glyph glyph-name="Tcaron" unicode="&#x164;" horiz-adv-x="1189" 
d="M864 1595q-52 -61 -113.5 -147t-86.5 -135q-38 6 -70 6t-70 -6q-26 52 -88 138.5t-112 143.5l28 7l242 -172l242 172zM688 1190v-1036q0 -69 39.5 -88t163.5 -19v-47h-592v47q124 0 163.5 19t39.5 88v1036h-80q-66 0 -108.5 -3.5t-82 -14.5t-62.5 -29.5t-42 -52
t-29.5 -78.5t-17.5 -111h-39l6 350q55 -10 174 -10h748q119 0 174 10l6 -350h-39q-7 66 -17.5 111t-29.5 78.5t-42 52t-63 29.5t-82.5 14.5t-109.5 3.5h-78z" />
    <glyph glyph-name="tcaron" unicode="&#x165;" horiz-adv-x="622" 
d="M430 961l21 401l4 4q100 -21 147 -25l2 -6l-155 -377zM29 836q167 113 274 266h16v-234q199 0 287 9l-12 -68h-275v-561q0 -79 35.5 -126.5t104.5 -47.5q85 0 149 88l29 -23q-98 -159 -266 -159q-98 0 -165 65t-67 166l6 598h-116v27z" />
    <glyph glyph-name="Tbar" unicode="&#x166;" horiz-adv-x="1189" 
d="M891 47v-47h-592v47q124 0 163.5 19t39.5 88v473h-226l19 53h207v510h-80q-66 0 -108.5 -3.5t-82 -14.5t-62.5 -29.5t-42 -52t-29.5 -78.5t-17.5 -111h-39l6 350q55 -10 174 -10h748q119 0 174 10l6 -350h-39q-7 66 -17.5 111t-29.5 78.5t-42 52t-63 29.5t-82.5 14.5
t-109.5 3.5h-78v-510h238l-21 -53h-217v-473q0 -69 39.5 -88t163.5 -19z" />
    <glyph glyph-name="tbar" unicode="&#x167;" horiz-adv-x="675" 
d="M653 139q-98 -159 -266 -159q-98 0 -164.5 65t-66.5 166l4 342h-113l19 53h94l2 203h-117v27q167 113 274 266h17v-234q198 0 287 9l-13 -68h-274v-203h264l-20 -53h-244v-305q0 -79 35 -126.5t104 -47.5q86 0 150 88z" />
    <glyph glyph-name="Utilde" unicode="&#x168;" horiz-adv-x="1353" 
d="M801 1315q-30 0 -147.5 54t-149.5 54q-29 0 -63 -32.5t-60 -85.5l-31 18q64 123 107 175t86 52q30 0 147.5 -55t149.5 -55q29 0 62.5 34t60.5 87l30 -19q-64 -123 -106.5 -175t-85.5 -52zM971 0v240q-51 -122 -154 -191t-231 -69q-196 0 -303 131.5t-107 365.5v613
q0 68 -33.5 86t-128.5 18v47h512v-47q-95 0 -128 -18t-33 -86v-611q0 -194 73.5 -297.5t216.5 -103.5q117 0 202.5 67t113.5 201v744q0 68 -33.5 86t-128.5 18v47h512v-47q-95 0 -128.5 -18t-33.5 -86v-938q0 -68 33.5 -86.5t128.5 -18.5v-47h-350z" />
    <glyph glyph-name="utilde" unicode="&#x169;" 
d="M588 1014q-32 0 -126 55t-116 55q-29 0 -62.5 -33.5t-60.5 -86.5l-28 18q62 123 105 175t87 52q31 0 124.5 -54t115.5 -54q29 0 62.5 33t60.5 86l30 -19q-64 -123 -106.5 -175t-85.5 -52zM662 0v154q-33 -69 -106 -121.5t-165 -52.5q-123 0 -191.5 82t-68.5 210v451
q0 72 -22.5 89t-98.5 17v43h301v-571q0 -108 44 -166.5t130 -58.5q57 0 102.5 32.5t74.5 88.5v526q0 71 -23 88.5t-100 17.5v43h303v-720q0 -72 23 -90.5t98 -18.5v-43h-301z" />
    <glyph glyph-name="Umacron" unicode="&#x16a;" horiz-adv-x="1353" 
d="M938 1358h-569l32 67h570zM971 0v240q-51 -122 -154 -191t-231 -69q-196 0 -303 131.5t-107 365.5v613q0 68 -33.5 86t-128.5 18v47h512v-47q-95 0 -128 -18t-33 -86v-611q0 -194 73.5 -297.5t216.5 -103.5q117 0 202.5 67t113.5 201v744q0 68 -33.5 86t-128.5 18v47h512
v-47q-95 0 -128.5 -18t-33.5 -86v-938q0 -68 33.5 -86.5t128.5 -18.5v-47h-350z" />
    <glyph glyph-name="umacron" unicode="&#x16b;" 
d="M713 1055h-488l33 67h487zM662 0v154q-33 -69 -106 -121.5t-165 -52.5q-123 0 -191.5 82t-68.5 210v451q0 72 -22.5 89t-98.5 17v43h301v-571q0 -108 44 -166.5t130 -58.5q57 0 102.5 32.5t74.5 88.5v526q0 71 -23 88.5t-100 17.5v43h303v-720q0 -72 23 -90.5t98 -18.5
v-43h-301z" />
    <glyph glyph-name="Ubreve" unicode="&#x16c;" horiz-adv-x="1353" 
d="M670 1309q-112 0 -186 82.5t-74 205.5h32q3 -48 24 -82.5t55 -52t70 -25t79 -7.5t79 7.5t69.5 25t54 52t24.5 82.5h33q0 -123 -74 -205.5t-186 -82.5zM971 0v240q-51 -122 -154 -191t-231 -69q-196 0 -303 131.5t-107 365.5v613q0 68 -33.5 86t-128.5 18v47h512v-47
q-95 0 -128 -18t-33 -86v-611q0 -194 73.5 -297.5t216.5 -103.5q117 0 202.5 67t113.5 201v744q0 68 -33.5 86t-128.5 18v47h512v-47q-95 0 -128.5 -18t-33.5 -86v-938q0 -68 33.5 -86.5t128.5 -18.5v-47h-350z" />
    <glyph glyph-name="ubreve" unicode="&#x16d;" 
d="M485 997q-100 0 -162.5 93t-62.5 245h33q6 -111 60.5 -165t131.5 -54t132 54t61 165h33q0 -152 -63 -245t-163 -93zM662 0v154q-33 -69 -106 -121.5t-165 -52.5q-123 0 -191.5 82t-68.5 210v451q0 72 -22.5 89t-98.5 17v43h301v-571q0 -108 44 -166.5t130 -58.5
q57 0 102.5 32.5t74.5 88.5v526q0 71 -23 88.5t-100 17.5v43h303v-720q0 -72 23 -90.5t98 -18.5v-43h-301z" />
    <glyph glyph-name="Uring" unicode="&#x16e;" horiz-adv-x="1353" 
d="M674 1296q-66 0 -115 48.5t-49 115.5q0 66 49 113t115 47q67 0 113.5 -47t46.5 -113q0 -68 -46.5 -116t-113.5 -48zM674 1346q47 0 79.5 33.5t32.5 80.5q0 46 -32.5 79.5t-79.5 33.5q-46 0 -80.5 -33.5t-34.5 -79.5q0 -47 34.5 -80.5t80.5 -33.5zM971 0v240
q-51 -122 -154 -191t-231 -69q-196 0 -303 131.5t-107 365.5v613q0 68 -33.5 86t-128.5 18v47h512v-47q-95 0 -128 -18t-33 -86v-611q0 -194 73.5 -297.5t216.5 -103.5q117 0 202.5 67t113.5 201v744q0 68 -33.5 86t-128.5 18v47h512v-47q-95 0 -128.5 -18t-33.5 -86v-938
q0 -68 33.5 -86.5t128.5 -18.5v-47h-350z" />
    <glyph glyph-name="uring" unicode="&#x16f;" 
d="M487 1001q-65 0 -112 47t-47 113q0 64 47 111t112 47q66 0 112 -46.5t46 -111.5q0 -66 -46 -113t-112 -47zM487 1049q46 0 78.5 33t32.5 79q0 45 -33 78t-78 33q-44 0 -78 -33.5t-34 -77.5q0 -45 33.5 -78.5t78.5 -33.5zM662 0v154q-33 -69 -106 -121.5t-165 -52.5
q-123 0 -191.5 82t-68.5 210v451q0 72 -22.5 89t-98.5 17v43h301v-571q0 -108 44 -166.5t130 -58.5q57 0 102.5 32.5t74.5 88.5v526q0 71 -23 88.5t-100 17.5v43h303v-720q0 -72 23 -90.5t98 -18.5v-43h-301z" />
    <glyph glyph-name="Uhungarumlaut" unicode="&#x170;" horiz-adv-x="1353" 
d="M465 1311l229 291h4q60 -69 117 -105v-8l-336 -191zM752 1311l227 291h4q55 -63 121 -105v-8l-340 -191zM971 0v240q-51 -122 -154 -191t-231 -69q-196 0 -303 131.5t-107 365.5v613q0 68 -33.5 86t-128.5 18v47h512v-47q-95 0 -128 -18t-33 -86v-611q0 -194 73.5 -297.5
t216.5 -103.5q117 0 202.5 67t113.5 201v744q0 68 -33.5 86t-128.5 18v47h512v-47q-95 0 -128.5 -18t-33.5 -86v-938q0 -68 33.5 -86.5t128.5 -18.5v-47h-350z" />
    <glyph glyph-name="uhungarumlaut" unicode="&#x171;" 
d="M551 993l158 355h6q61 -40 137 -54v-8l-283 -301zM313 993l158 355h6q58 -40 133 -54v-8l-280 -301zM662 0v154q-33 -69 -106 -121.5t-165 -52.5q-123 0 -191.5 82t-68.5 210v451q0 72 -22.5 89t-98.5 17v43h301v-571q0 -108 44 -166.5t130 -58.5q57 0 102.5 32.5
t74.5 88.5v526q0 71 -23 88.5t-100 17.5v43h303v-720q0 -72 23 -90.5t98 -18.5v-43h-301z" />
    <glyph glyph-name="Uogonek" unicode="&#x172;" horiz-adv-x="1353" 
d="M1114 -272q-99 -138 -207 -138q-57 0 -96 36.5t-39 101.5q0 117 199 278v234q-51 -122 -154 -191t-231 -69q-196 0 -303 131.5t-107 365.5v613q0 68 -33.5 86t-128.5 18v47h512v-47q-95 0 -128 -18t-33 -86v-611q0 -194 73.5 -297.5t216.5 -103.5q117 0 202.5 67
t113.5 201v744q0 68 -33.5 86t-128.5 18v47h512v-47q-95 0 -128.5 -18t-33.5 -86v-938q0 -68 33.5 -86.5t128.5 -18.5v-47h-299q-67 -65 -101 -120.5t-34 -117.5q0 -43 22 -67.5t56 -24.5q35 0 64 18t63 58z" />
    <glyph glyph-name="uogonek" unicode="&#x173;" 
d="M807 -272q-99 -138 -207 -138q-57 0 -96 36.5t-39 101.5q0 117 197 276v150q-33 -69 -106 -121.5t-165 -52.5q-123 0 -191.5 82t-68.5 210v451q0 72 -22.5 89t-98.5 17v43h301v-571q0 -108 44 -166.5t130 -58.5q57 0 102.5 32.5t74.5 88.5v526q0 71 -23 88.5t-100 17.5
v43h303v-720q0 -72 23 -90.5t98 -18.5v-43h-248q-67 -65 -101 -120.5t-34 -117.5q0 -43 22 -67.5t55 -24.5q35 0 64 18t63 58z" />
    <glyph glyph-name="Wcircumflex" unicode="&#x174;" horiz-adv-x="1789" 
d="M973 1583q25 -49 87 -135.5t114 -147.5l-29 -6l-242 172l-241 -172l-29 6q51 57 113 144.5t88 138.5q38 -6 69 -6q33 0 70 6zM1190 -20l-289 802l-283 -802h-16l-428 1112q-26 68 -56 85t-118 17v47h498v-47q-84 0 -114 -8t-30 -37q0 -19 15 -57l299 -805l200 587
l-77 218q-25 70 -51 86t-113 16v47h493v-47q-86 0 -119.5 -9t-33.5 -40q0 -19 12 -53l274 -801l256 772q11 42 11 55q0 25 -11 40.5t-34.5 23t-49 10t-65.5 2.5v47h430v-47q-89 0 -133 -27.5t-72 -101.5l-379 -1085h-16z" />
    <glyph glyph-name="wcircumflex" unicode="&#x175;" horiz-adv-x="1337" 
d="M750 1331q25 -61 83 -170.5t101 -179.5l-25 -6l-217 225l-217 -225l-24 6q43 70 101 179.5t83 170.5q35 -6 57 -6q24 0 58 6zM899 -20l-211 567l-225 -567h-14l-302 743q-28 71 -50.5 88.5t-88.5 17.5v43h418v-43q-30 0 -46 -1t-33.5 -5.5t-24.5 -14.5t-7 -26
q0 -15 19 -61l182 -477l143 379l-36 100q-28 71 -50.5 88.5t-89.5 17.5v43h406v-43q-59 0 -84 -9.5t-25 -39.5q0 -15 13 -59l165 -477l162 479q13 43 13 53q0 32 -29 42.5t-92 10.5v43h317v-43q-71 0 -92 -16.5t-49 -89.5l-275 -743h-14z" />
    <glyph glyph-name="Ycircumflex" unicode="&#x176;" horiz-adv-x="1218" 
d="M707 1583q25 -50 87 -136.5t113 -146.5l-28 -6l-242 172l-242 -172l-28 6q50 56 112 143.5t88 139.5q38 -6 70 -6q33 0 70 6zM907 0h-592v47q124 0 163.5 19t39.5 88v464l-336 472q-49 69 -78 86.5t-104 17.5v47h508v-47q-76 0 -108.5 -8t-32.5 -29q0 -27 26 -59
l287 -408l246 393q18 35 18 54q0 33 -39.5 45t-113.5 12v47h428v-47q-89 0 -133.5 -21.5t-86.5 -87.5l-294 -469v-462q0 -69 39 -88t163 -19v-47z" />
    <glyph glyph-name="ycircumflex" unicode="&#x177;" horiz-adv-x="956" 
d="M575 1331q25 -60 83 -169t102 -181l-25 -6l-217 225l-217 -225l-25 6q44 72 102 181t83 169q34 -6 57 -6q22 0 57 6zM266 -410l-221 29v25q222 21 408 389l-306 690q-31 71 -52.5 88.5t-86.5 17.5v43h434v-43q-63 0 -90.5 -9t-27.5 -40q0 -21 14 -59l203 -492l194 494
q15 35 15 53q0 32 -29 42.5t-90 10.5v43h319v-43q-71 0 -93.5 -16.5t-53.5 -89.5l-273 -647q-77 -182 -149 -313.5t-115 -172.5z" />
    <glyph glyph-name="Ydieresis" unicode="&#x178;" horiz-adv-x="1218" 
d="M700 1423q0 41 31 71t72 30q43 0 72.5 -30t29.5 -71q0 -44 -29.5 -73t-72.5 -29q-42 0 -72.5 29.5t-30.5 72.5zM369 1423q0 41 30 71t70 30q44 0 73 -29.5t29 -71.5q0 -44 -29 -73t-73 -29q-41 0 -70.5 29.5t-29.5 72.5zM907 0h-592v47q124 0 163.5 19t39.5 88v464
l-336 472q-49 69 -78 86.5t-104 17.5v47h508v-47q-76 0 -108.5 -8t-32.5 -29q0 -27 26 -59l287 -408l246 393q18 35 18 54q0 33 -39.5 45t-113.5 12v47h428v-47q-89 0 -133.5 -21.5t-86.5 -87.5l-294 -469v-462q0 -69 39 -88t163 -19v-47z" />
    <glyph glyph-name="Zacute" unicode="&#x179;" horiz-adv-x="1073" 
d="M436 1305l-14 10l280 291h9q58 -62 137 -111v-6zM1004 0h-963v8l729 1178h-346q-85 0 -137 -11t-90 -42.5t-56 -85t-28 -142.5h-37l4 336h926v-8l-725 -1178h376q53 0 89.5 4t72.5 17t60.5 35.5t48 59.5t42 89.5t36.5 126.5h41z" />
    <glyph glyph-name="zacute" unicode="&#x17a;" horiz-adv-x="849" 
d="M385 985l-18 8l176 355h8q56 -37 154 -58v-6zM791 0h-732v8l508 813h-207q-124 0 -172.5 -52.5t-66.5 -188.5h-41l20 301q79 -9 211 -9h475v-8l-507 -813h225q78 0 121.5 10t71.5 41.5t38 79.5t13 135h43v-317z" />
    <glyph glyph-name="Zdotaccent" unicode="&#x17b;" horiz-adv-x="1073" 
d="M438 1444q0 44 33 76t78 32q46 0 78 -32t32 -76q0 -46 -32 -77.5t-78 -31.5q-45 0 -78 32t-33 77zM1004 0h-963v8l729 1178h-346q-85 0 -137 -11t-90 -42.5t-56 -85t-28 -142.5h-37l4 336h926v-8l-725 -1178h376q53 0 89.5 4t72.5 17t60.5 35.5t48 59.5t42 89.5
t36.5 126.5h41z" />
    <glyph glyph-name="zdotaccent" unicode="&#x17c;" horiz-adv-x="849" 
d="M360 1176q0 44 33 76t78 32q46 0 78.5 -32t32.5 -76q0 -46 -32.5 -77.5t-78.5 -31.5q-45 0 -78 32t-33 77zM791 0h-732v8l508 813h-207q-124 0 -172.5 -52.5t-66.5 -188.5h-41l20 301q79 -9 211 -9h475v-8l-507 -813h225q78 0 121.5 10t71.5 41.5t38 79.5t13 135h43v-317
z" />
    <glyph glyph-name="Zcaron" unicode="&#x17d;" horiz-adv-x="1073" 
d="M819 1595q-52 -62 -114 -147.5t-87 -134.5q-37 6 -69 6q-33 0 -70 -6q-26 52 -88 138.5t-112 143.5l28 7l242 -172l242 172zM1004 0h-963v8l729 1178h-346q-85 0 -137 -11t-90 -42.5t-56 -85t-28 -142.5h-37l4 336h926v-8l-725 -1178h376q53 0 89.5 4t72.5 17t60.5 35.5
t48 59.5t42 89.5t36.5 126.5h41z" />
    <glyph glyph-name="zcaron" unicode="&#x17e;" horiz-adv-x="849" 
d="M713 1331q-44 -72 -102 -181t-83 -169q-34 6 -57 6t-57 -6q-25 60 -83 169t-102 181l25 6l217 -225l217 225zM791 0h-732v8l508 813h-207q-124 0 -172.5 -52.5t-66.5 -188.5h-41l20 301q79 -9 211 -9h475v-8l-507 -813h225q78 0 121.5 10t71.5 41.5t38 79.5t13 135h43
v-317z" />
    <glyph glyph-name="uni0192" unicode="&#x192;" horiz-adv-x="1007" 
d="M-100 -410q-110 0 -195 50l45 200h41q-31 -196 125 -196q68 0 119 39t93.5 137t72.5 260l94 498h-184l18 59h176l33 170q41 198 166 326.5t297 128.5q110 0 192 -48l-45 -196h-39q30 190 -123 190q-92 0 -158 -82t-96 -247l-47 -242q110 0 157.5 4.5t94.5 22.5h8l-40 -86
h-230l-86 -447q-53 -260 -177.5 -400.5t-311.5 -140.5z" />
    <glyph glyph-name="AEacute" unicode="&#x1fc;" horiz-adv-x="1763" 
d="M1038 1305l-14 10l281 291h8q58 -62 137 -111v-6zM881 666v491l-297 -491h297zM432 47v-47h-432v47q86 0 126 23.5t81 91.5l618 1022q-45 10 -184 10v47h1001l5 -307h-35q-7 59 -17.5 99t-31 68.5t-42.5 44.5t-63 24.5t-82 11t-110 2.5h-199v-518h215q42 0 68 1.5t47 9.5
t31 15.5t18.5 28t11.5 39t8 55.5h37v-352h-37q-7 55 -12.5 78t-25.5 42t-51.5 23t-94.5 4h-215v-463q0 -57 25.5 -74.5t83.5 -17.5h120q42 0 68.5 0.5t58.5 3t51.5 7t43.5 12t39 19t32.5 28t29 37.5t24.5 49.5t23.5 63t21.5 77.5h38l-36 -352h-971v47q94 0 128 18.5t34 86.5
v458h-330l-268 -446q-17 -26 -17 -49q0 -68 166 -68z" />
    <glyph glyph-name="aeacute" unicode="&#x1fd;" horiz-adv-x="1294" 
d="M608 985l-18 8l176 355h8q56 -37 154 -58v-6zM905 840q-86 0 -145 -65t-76 -185h397q-6 116 -49 183t-127 67zM1264 162q-57 -89 -143.5 -135.5t-182.5 -46.5q-118 0 -220 61t-159 166q-24 -86 -101 -156.5t-188 -70.5q-89 0 -152 55t-63 147q0 87 65.5 144t194.5 106
l211 78v63q0 98 -47.5 160t-144.5 62q-71 0 -129.5 -47.5t-95.5 -133.5l-41 17q41 117 134.5 189.5t213.5 72.5q86 0 144 -36.5t87 -88.5q55 58 123.5 91.5t138.5 33.5q84 0 150.5 -31t106.5 -82t60.5 -112t20.5 -127h-569v-37q0 -182 96.5 -302t251.5 -120q133 0 213 102z
M526 459l-164 -62q-139 -52 -139 -176q0 -66 35 -101.5t98 -35.5q64 0 117 58.5t53 142.5v174z" />
    <glyph glyph-name="Oslashacute" unicode="&#x1fe;" horiz-adv-x="1345" 
d="M559 1305l-14 10l280 291h9q58 -62 137 -111v-6zM276 621q0 -252 107 -414l555 860q-110 135 -266 135q-171 0 -283.5 -160.5t-112.5 -420.5zM672 39q173 0 285 160.5t112 421.5q0 240 -98 401l-553 -860q107 -123 254 -123zM672 -20q-167 0 -312 96l-90 -142l-53 13
l102 159q-115 90 -182 225t-67 290q0 130 50 249t132 204.5t192.5 136.5t227.5 51q173 0 323 -105l80 123l53 -12l-90 -142q110 -90 175 -222.5t65 -282.5q0 -130 -50 -249t-133 -204.5t-194 -136.5t-229 -51z" />
    <glyph glyph-name="oslashacute" unicode="&#x1ff;" horiz-adv-x="929" 
d="M410 985l-19 8l176 355h8q56 -37 154 -58v-6zM229 436q0 -168 47 -268l355 577q-63 97 -166 97q-107 0 -171.5 -105t-64.5 -301zM465 33q107 0 171 104t64 299q0 160 -43 258l-352 -573q58 -88 160 -88zM465 -20q-108 0 -211 61l-70 -115l-49 13l80 129q-80 64 -127 159
t-47 209q0 98 36 184.5t95 145.5t135.5 93t157.5 34q116 0 217 -66l68 109l49 -14l-76 -123q76 -62 121 -156.5t45 -206.5q0 -98 -36 -184t-95 -145t-135.5 -93t-157.5 -34z" />
    <glyph glyph-name="uni0218" unicode="&#x218;" horiz-adv-x="923" 
d="M451 39q112 0 185 57.5t73 171.5q0 81 -45.5 132t-151.5 108l-201 106q-116 63 -173.5 133t-57.5 179q0 143 107.5 239.5t265.5 96.5q62 0 118.5 -17t94 -34t51.5 -17q20 0 30.5 11t20.5 38h27l16 -362l-37 -2q-18 143 -104 233t-213 90q-98 0 -161 -59t-63 -144
q0 -37 11.5 -68t26.5 -52t45 -43.5t52 -35t64 -34.5l172 -92q61 -33 104 -62t81.5 -68.5t57.5 -89t19 -108.5q0 -158 -118.5 -262t-292.5 -104q-55 0 -106 12.5t-81.5 28t-59 28t-42.5 12.5q-35 0 -53 -65h-31l-27 412l43 2q27 -170 125.5 -270.5t227.5 -100.5zM496 -276
q-49 -10 -88 17t-39 81q0 42 30.5 69t71.5 27q46 0 80.5 -34t34.5 -95q0 -78 -65.5 -143.5t-160.5 -77.5l-8 33q68 16 106 51.5t38 71.5z" />
    <glyph glyph-name="uni0219" unicode="&#x219;" horiz-adv-x="718" 
d="M362 35q77 0 120.5 37t43.5 108q0 50 -30 80t-95 64l-151 77q-80 42 -126 97.5t-46 138.5q0 112 80.5 184t199.5 72q55 0 118.5 -23.5t72.5 -23.5q14 0 22 9.5t17 29.5h24l17 -264l-35 -3q-19 106 -84.5 165t-144.5 59q-68 0 -108 -38t-40 -99q0 -51 31 -82.5t96 -65.5
l137 -70q88 -45 136.5 -100.5t48.5 -142.5q0 -113 -86 -188.5t-213 -75.5q-44 0 -85.5 11t-65.5 23.5t-45 23.5t-30 11q-14 0 -26 -16.5t-17 -38.5h-28l-15 299l39 2q15 -111 89.5 -185.5t178.5 -74.5zM383 -276q-49 -10 -88 17t-39 81q0 42 30.5 69t71.5 27q46 0 80.5 -34
t34.5 -95q0 -78 -65 -143.5t-160 -77.5l-8 33q68 16 105.5 51.5t37.5 71.5z" />
    <glyph glyph-name="uni021A" unicode="&#x21a;" horiz-adv-x="1189" 
d="M688 1190v-1036q0 -69 39.5 -88t163.5 -19v-47h-592v47q124 0 163.5 19t39.5 88v1036h-80q-66 0 -108.5 -3.5t-82 -14.5t-62.5 -29.5t-42 -52t-29.5 -78.5t-17.5 -111h-39l6 350q55 -10 174 -10h748q119 0 174 10l6 -350h-39q-7 66 -17.5 111t-29.5 78.5t-42 52t-63 29.5
t-82.5 14.5t-109.5 3.5h-78zM621 -276q-49 -10 -88 17t-39 81q0 42 30.5 69t71.5 27q46 0 80.5 -34t34.5 -95q0 -78 -65.5 -143.5t-160.5 -77.5l-8 33q68 16 106 51.5t38 71.5z" />
    <glyph glyph-name="uni021B" unicode="&#x21b;" horiz-adv-x="622" 
d="M29 836q167 113 274 266h16v-234q199 0 287 9l-12 -68h-275v-561q0 -79 35.5 -126.5t104.5 -47.5q85 0 149 88l29 -23q-98 -159 -266 -159q-98 0 -165 65t-67 166l6 598h-116v27zM373 -276q-49 -10 -88 17t-39 81q0 42 30.5 69t71.5 27q46 0 80.5 -34t34.5 -95
q0 -78 -65 -143.5t-160 -77.5l-9 33q68 16 106 51.5t38 71.5z" />
    <glyph glyph-name="uni0237" unicode="&#x237;" horiz-adv-x="442" 
d="M139 -139v862q0 71 -24 88.5t-101 17.5v43h305v-946q0 -162 -92.5 -249t-236.5 -87q-61 0 -113.5 17.5t-77.5 42.5l19 33q58 -39 133 -39q88 0 138 53.5t50 163.5z" />
    <glyph glyph-name="circumflex" unicode="&#x2c6;" horiz-adv-x="1024" 
d="M569 1331q25 -60 83 -169t102 -181l-25 -6l-217 225l-217 -225l-25 6q44 72 102 181t83 169q35 -6 57 -6t57 6z" />
    <glyph glyph-name="caron" unicode="&#x2c7;" horiz-adv-x="1024" 
d="M754 1331q-44 -72 -102 -181t-83 -169q-34 6 -57 6t-57 -6q-25 60 -83 169t-102 181l25 6l217 -225l217 225z" />
    <glyph glyph-name="breve" unicode="&#x2d8;" horiz-adv-x="1024" 
d="M512 997q-100 0 -162.5 93t-62.5 245h32q6 -111 61 -165t132 -54t132 54t61 165h32q0 -152 -62.5 -245t-162.5 -93z" />
    <glyph glyph-name="dotaccent" unicode="&#x2d9;" horiz-adv-x="1024" 
d="M401 1176q0 44 33 76t78 32q46 0 78.5 -32t32.5 -76q0 -46 -32.5 -77.5t-78.5 -31.5q-45 0 -78 32t-33 77z" />
    <glyph glyph-name="ring" unicode="&#x2da;" horiz-adv-x="1024" 
d="M512 1001q-65 0 -112.5 47t-47.5 113q0 64 47.5 111t112.5 47q66 0 112 -46.5t46 -111.5q0 -66 -46 -113t-112 -47zM512 1049q46 0 78.5 33t32.5 79q0 45 -33 78t-78 33q-44 0 -78.5 -33.5t-34.5 -77.5q0 -45 34 -78.5t79 -33.5z" />
    <glyph glyph-name="ogonek" unicode="&#x2db;" horiz-adv-x="1024" 
d="M618 47l23 -24q-80 -75 -120 -134.5t-40 -126.5q0 -43 22 -67.5t56 -24.5q35 0 64 18t63 58l23 -18q-99 -138 -207 -138q-57 0 -96 36.5t-39 101.5q0 130 251 319z" />
    <glyph glyph-name="tilde" unicode="&#x2dc;" horiz-adv-x="1024" 
d="M612 1014q-32 0 -125.5 55t-115.5 55q-29 0 -62.5 -33.5t-60.5 -86.5l-29 18q62 122 105.5 174.5t87.5 52.5q31 0 124 -54t115 -54q29 0 62.5 33t60.5 86l31 -19q-64 -123 -107 -175t-86 -52z" />
    <glyph glyph-name="hungarumlaut" unicode="&#x2dd;" horiz-adv-x="1024" 
d="M465 993l158 355h6q61 -40 137 -54v-8l-283 -301zM227 993l158 355h6q58 -40 133 -54v-8l-280 -301z" />
    <glyph glyph-name="Wgrave" unicode="&#x1e80;" horiz-adv-x="1789" 
d="M1012 1315l-15 -10l-411 184v6q79 49 137 111h8zM1190 -20l-289 802l-283 -802h-16l-428 1112q-26 68 -56 85t-118 17v47h498v-47q-84 0 -114 -8t-30 -37q0 -19 15 -57l299 -805l200 587l-77 218q-25 70 -51 86t-113 16v47h493v-47q-86 0 -119.5 -9t-33.5 -40
q0 -19 12 -53l274 -801l256 772q11 42 11 55q0 25 -11 40.5t-34.5 23t-49 10t-65.5 2.5v47h430v-47q-89 0 -133 -27.5t-72 -101.5l-379 -1085h-16z" />
    <glyph glyph-name="wgrave" unicode="&#x1e81;" horiz-adv-x="1337" 
d="M758 993l-19 -8l-319 299v6q97 21 153 58h9zM899 -20l-211 567l-225 -567h-14l-302 743q-28 71 -50.5 88.5t-88.5 17.5v43h418v-43q-30 0 -46 -1t-33.5 -5.5t-24.5 -14.5t-7 -26q0 -15 19 -61l182 -477l143 379l-36 100q-28 71 -50.5 88.5t-89.5 17.5v43h406v-43
q-59 0 -84 -9.5t-25 -39.5q0 -15 13 -59l165 -477l162 479q13 43 13 53q0 32 -29 42.5t-92 10.5v43h317v-43q-71 0 -92 -16.5t-49 -89.5l-275 -743h-14z" />
    <glyph glyph-name="Wacute" unicode="&#x1e82;" horiz-adv-x="1789" 
d="M791 1305l-15 10l281 291h8q58 -62 137 -111v-6zM1190 -20l-289 802l-283 -802h-16l-428 1112q-26 68 -56 85t-118 17v47h498v-47q-84 0 -114 -8t-30 -37q0 -19 15 -57l299 -805l200 587l-77 218q-25 70 -51 86t-113 16v47h493v-47q-86 0 -119.5 -9t-33.5 -40
q0 -19 12 -53l274 -801l256 772q11 42 11 55q0 25 -11 40.5t-34.5 23t-49 10t-65.5 2.5v47h430v-47q-89 0 -133 -27.5t-72 -101.5l-379 -1085h-16z" />
    <glyph glyph-name="wacute" unicode="&#x1e83;" horiz-adv-x="1337" 
d="M637 985l-19 8l177 355h8q56 -37 153 -58v-6zM899 -20l-211 567l-225 -567h-14l-302 743q-28 71 -50.5 88.5t-88.5 17.5v43h418v-43q-30 0 -46 -1t-33.5 -5.5t-24.5 -14.5t-7 -26q0 -15 19 -61l182 -477l143 379l-36 100q-28 71 -50.5 88.5t-89.5 17.5v43h406v-43
q-59 0 -84 -9.5t-25 -39.5q0 -15 13 -59l165 -477l162 479q13 43 13 53q0 32 -29 42.5t-92 10.5v43h317v-43q-71 0 -92 -16.5t-49 -89.5l-275 -743h-14z" />
    <glyph glyph-name="Wdieresis" unicode="&#x1e84;" horiz-adv-x="1789" 
d="M967 1423q0 41 30.5 71t71.5 30q43 0 72.5 -30t29.5 -71q0 -44 -29.5 -73t-72.5 -29q-42 0 -72 29t-30 73zM635 1423q0 41 30 71t70 30q44 0 73.5 -29.5t29.5 -71.5q0 -44 -29.5 -73t-73.5 -29q-41 0 -70.5 29.5t-29.5 72.5zM1190 -20l-289 802l-283 -802h-16l-428 1112
q-26 68 -56 85t-118 17v47h498v-47q-84 0 -114 -8t-30 -37q0 -19 15 -57l299 -805l200 587l-77 218q-25 70 -51 86t-113 16v47h493v-47q-86 0 -119.5 -9t-33.5 -40q0 -19 12 -53l274 -801l256 772q11 42 11 55q0 25 -11 40.5t-34.5 23t-49 10t-65.5 2.5v47h430v-47
q-89 0 -133 -27.5t-72 -101.5l-379 -1085h-16z" />
    <glyph glyph-name="wdieresis" unicode="&#x1e85;" horiz-adv-x="1337" 
d="M451 1157q0 42 29 71t71 29q43 0 71.5 -28.5t28.5 -71.5q0 -44 -28.5 -73t-71.5 -29q-42 0 -71 29t-29 73zM729 1157q0 42 31 71t74 29t71.5 -28.5t28.5 -71.5q0 -44 -28.5 -73t-71.5 -29t-74 29t-31 73zM899 -20l-211 567l-225 -567h-14l-302 743q-28 71 -50.5 88.5
t-88.5 17.5v43h418v-43q-30 0 -46 -1t-33.5 -5.5t-24.5 -14.5t-7 -26q0 -15 19 -61l182 -477l143 379l-36 100q-28 71 -50.5 88.5t-89.5 17.5v43h406v-43q-59 0 -84 -9.5t-25 -39.5q0 -15 13 -59l165 -477l162 479q13 43 13 53q0 32 -29 42.5t-92 10.5v43h317v-43
q-71 0 -92 -16.5t-49 -89.5l-275 -743h-14z" />
    <glyph glyph-name="Ygrave" unicode="&#x1ef2;" horiz-adv-x="1218" 
d="M745 1315l-14 -10l-412 184v6q82 51 138 111h8zM907 0h-592v47q124 0 163.5 19t39.5 88v464l-336 472q-49 69 -78 86.5t-104 17.5v47h508v-47q-76 0 -108.5 -8t-32.5 -29q0 -27 26 -59l287 -408l246 393q18 35 18 54q0 33 -39.5 45t-113.5 12v47h428v-47
q-89 0 -133.5 -21.5t-86.5 -87.5l-294 -469v-462q0 -69 39 -88t163 -19v-47z" />
    <glyph glyph-name="ygrave" unicode="&#x1ef3;" horiz-adv-x="956" 
d="M592 993l-19 -8l-319 299v6q98 21 154 58h8zM266 -410l-221 29v25q222 21 408 389l-306 690q-31 71 -52.5 88.5t-86.5 17.5v43h434v-43q-63 0 -90.5 -9t-27.5 -40q0 -21 14 -59l203 -492l194 494q15 35 15 53q0 32 -29 42.5t-90 10.5v43h319v-43q-71 0 -93.5 -16.5
t-53.5 -89.5l-273 -647q-77 -182 -149 -313.5t-115 -172.5z" />
    <glyph glyph-name="endash" unicode="&#x2013;" horiz-adv-x="794" 
d="M692 434h-610l20 78h611z" />
    <glyph glyph-name="emdash" unicode="&#x2014;" horiz-adv-x="1204" 
d="M1102 434h-1020l20 78h1020z" />
    <glyph glyph-name="quoteleft" unicode="&#x2018;" horiz-adv-x="376" 
d="M166 1151q52 11 94.5 -20t42.5 -89q0 -45 -32 -76.5t-74 -31.5q-55 0 -89 37t-34 108q0 98 69 175t179 94l8 -35q-82 -20 -123 -67.5t-41 -94.5z" />
    <glyph glyph-name="quoteright" unicode="&#x2019;" horiz-adv-x="376" 
d="M211 1130q-52 -11 -94.5 20t-42.5 89q0 45 32 77t74 32q55 0 89 -37.5t34 -108.5q0 -97 -69 -174t-179 -94l-8 35q82 20 123 67t41 94z" />
    <glyph glyph-name="quotesinglbase" unicode="&#x201a;" horiz-adv-x="376" 
d="M211 2q-52 -11 -94.5 20t-42.5 89q0 45 32 76.5t74 31.5q55 0 89 -37t34 -108q0 -98 -69 -175t-179 -94l-8 35q82 20 123 67.5t41 94.5z" />
    <glyph glyph-name="quotedblleft" unicode="&#x201c;" horiz-adv-x="657" 
d="M166 1151q52 11 94.5 -20t42.5 -89q0 -45 -32 -76.5t-74 -31.5q-55 0 -89 37t-34 108q0 98 69 175t179 94l8 -35q-82 -20 -123 -67.5t-41 -94.5zM446 1151q52 11 95 -20t43 -89q0 -45 -32.5 -76.5t-74.5 -31.5q-55 0 -89 37t-34 108q0 98 69 175t179 94l8 -35
q-82 -20 -123 -67.5t-41 -94.5z" />
    <glyph glyph-name="quotedblright" unicode="&#x201d;" horiz-adv-x="657" 
d="M492 1130q-52 -11 -95 20t-43 89q0 45 32.5 77t74.5 32q55 0 89 -37.5t34 -108.5q0 -97 -69 -174t-179 -94l-8 35q82 20 123 67t41 94zM211 1130q-52 -11 -94.5 20t-42.5 89q0 45 32 77t74 32q55 0 89 -37.5t34 -108.5q0 -97 -69 -174t-179 -94l-8 35q82 20 123 67t41 94
z" />
    <glyph glyph-name="quotedblbase" unicode="&#x201e;" horiz-adv-x="657" 
d="M492 2q-52 -11 -95 20t-43 89q0 45 32.5 76.5t74.5 31.5q55 0 89 -37t34 -108q0 -98 -69 -175t-179 -94l-8 35q82 20 123 67.5t41 94.5zM211 2q-52 -11 -94.5 20t-42.5 89q0 45 32 76.5t74 31.5q55 0 89 -37t34 -108q0 -98 -69 -175t-179 -94l-8 35q82 20 123 67.5
t41 94.5z" />
    <glyph glyph-name="dagger" unicode="&#x2020;" horiz-adv-x="577" 
d="M289 1047l-49 157q0 23 14 40.5t35 17.5t35 -17.5t14 -40.5zM276 1034l-157 -49q-23 0 -40.5 14t-17.5 35t17.5 35t40.5 14zM301 1034l158 49q23 0 40 -14t17 -35t-17 -35t-40 -14zM289 1022l49 -342q0 -23 -14 -40t-35 -17t-35 17t-14 40z" />
    <glyph glyph-name="daggerdbl" unicode="&#x2021;" horiz-adv-x="577" 
d="M289 1087l-49 117q0 23 14 40.5t35 17.5t35 -17.5t14 -40.5zM301 1075l158 49q23 0 40 -14t17 -35t-17 -35t-40 -14zM276 1075l-157 -49q-23 0 -40.5 14t-17.5 35t17.5 35t40.5 14zM244 942l45 121l45 -121l-45 -121zM276 809l-157 -49q-23 0 -40.5 14t-17.5 35t17.5 35
t40.5 14zM301 809l158 49q23 0 40 -14t17 -35t-17 -35t-40 -14zM289 797l49 -117q0 -23 -14 -40t-35 -17t-35 17t-14 40z" />
    <glyph glyph-name="bullet" unicode="&#x2022;" horiz-adv-x="712" 
d="M356 203q-114 0 -194 79t-80 193q0 113 80 194t194 81t194.5 -81t80.5 -194q0 -114 -80.5 -193t-194.5 -79z" />
    <glyph glyph-name="ellipsis" unicode="&#x2026;" horiz-adv-x="1087" 
d="M72 96q0 48 33.5 81.5t82.5 33.5q47 0 81 -34t34 -81q0 -49 -33.5 -82.5t-81.5 -33.5q-50 0 -83 33t-33 83zM424 96q0 48 34 81.5t83 33.5q47 0 80.5 -34t33.5 -81q0 -49 -33 -82.5t-81 -33.5q-50 0 -83.5 33.5t-33.5 82.5zM776 96q0 48 34 81.5t83 33.5q47 0 81 -34
t34 -81q0 -49 -33.5 -82.5t-81.5 -33.5q-50 0 -83.5 33.5t-33.5 82.5z" />
    <glyph glyph-name="perthousand" unicode="&#x2030;" horiz-adv-x="1789" 
d="M598 950q0 -120 -80.5 -215.5t-181.5 -95.5q-100 0 -179 95.5t-79 215.5q0 121 79 216.5t179 95.5q101 0 181.5 -95.5t80.5 -216.5zM883 1001l-666 -1001h-90q83 76 192 240l664 1001h92q-83 -76 -192 -240zM459 950q0 124 -31.5 198.5t-91.5 74.5q-58 0 -89.5 -74.5
t-31.5 -198.5q0 -121 31.5 -196.5t89.5 -75.5q59 0 91 75t32 197zM606 291q0 120 80 215.5t180 95.5q101 0 180.5 -95.5t79.5 -215.5q0 -121 -79.5 -216t-180.5 -95q-100 0 -180 95t-80 216zM1192 291q0 120 80 215.5t180 95.5q101 0 180.5 -95.5t79.5 -215.5
q0 -121 -79.5 -216t-180.5 -95q-100 0 -180 95t-80 216zM745 291q0 -124 31.5 -198.5t89.5 -74.5q60 0 91.5 74.5t31.5 198.5q0 122 -32 197t-91 75q-58 0 -89.5 -75.5t-31.5 -196.5zM1331 291q0 -124 31.5 -198.5t89.5 -74.5q60 0 91.5 74.5t31.5 198.5q0 122 -32 197
t-91 75q-58 0 -89.5 -75.5t-31.5 -196.5z" />
    <glyph glyph-name="guilsinglleft" unicode="&#x2039;" horiz-adv-x="464" 
d="M57 438l322 332h31l-179 -332l179 -332h-31z" />
    <glyph glyph-name="guilsinglright" unicode="&#x203a;" horiz-adv-x="464" 
d="M86 770l322 -332l-322 -332h-31l178 332l-178 332h31z" />
    <glyph glyph-name="fraction" unicode="&#x2044;" horiz-adv-x="538" 
d="M551 1001l-666 -1001h-90q86 78 193 240l665 1001h90q-83 -76 -192 -240z" />
    <glyph glyph-name="Euro" unicode="&#x20ac;" horiz-adv-x="1095" 
d="M1073 168q-60 -84 -158.5 -136t-220.5 -52q-94 0 -184 36t-165.5 101.5t-128.5 166.5t-69 222h-104v57h98q-2 16 -2 51q0 30 4 88h-100v58h109q41 225 191 363.5t349 138.5q61 0 115.5 -17t90 -34t48.5 -17q16 0 25.5 11t19.5 38h27l24 -369l-38 -2q-22 156 -106 243
t-212 87q-143 0 -238 -119.5t-110 -322.5h225q117 0 164.5 4t95.5 22h8l-38 -84h-457v-10q0 -74 8 -129h148q114 0 162.5 4.5t97.5 22.5h8l-39 -84h-369q40 -203 155 -318.5t255 -115.5q89 0 152.5 26t129.5 103z" />
    <glyph glyph-name="uni20B9" unicode="&#x20b9;" horiz-adv-x="1075" 
d="M1028 43v-43h-317l-207 348q-71 125 -132.5 187t-138.5 65h-124v55h147q56 0 103.5 7.5t93 26t77.5 48.5t51 77.5t19 109.5q0 19 -4 51h-487v55h471q-33 81 -119.5 118.5t-204.5 37.5h-147v55h651q114 0 162.5 4.5t97.5 22.5h8l-39 -82h-397q130 -57 174 -156
q103 0 155.5 5t100.5 22h8l-39 -82h-207q4 -32 4 -51q0 -115 -89.5 -192t-227.5 -111q108 -48 199 -201l143 -225q51 -87 92.5 -119t122.5 -33z" />
    <glyph glyph-name="trademark" unicode="&#x2122;" horiz-adv-x="1153" 
d="M344 1217v-371q0 -25 14 -32t58 -7v-25h-236v25q43 0 56.5 7t13.5 32v371h-27q-66 0 -89 -20.5t-30 -92.5h-16l2 141q20 -4 62 -4h292q40 0 60 4l2 -141h-17q-6 72 -28 92.5t-88 20.5h-29zM905 1241h160v-22q-32 0 -43 -6t-8 -31l33 -338q3 -25 14 -31t43 -6v-25h-205v25
q33 0 43.5 6t9.5 31l-30 350l-144 -418h-4l-139 418l-33 -348q-3 -25 12 -32t48 -7v-25h-156v25q35 0 48.5 6.5t16.5 32.5l31 336q3 25 -8 31t-45 6v22h168l90 -291z" />
    <glyph glyph-name="uni2153" unicode="&#x2153;" horiz-adv-x="1159" 
d="M322 1092v-365q0 -39 17 -48t81 -9v-33h-330v33q63 0 80.5 9.5t17.5 47.5v406q0 24 -4.5 32.5t-21.5 8.5q-3 0 -78 -11v33l242 59q-4 -35 -4 -163zM848 1001l-666 -1001h-90q86 78 193 240l665 1001h90q-83 -76 -192 -240zM786 492q-36 0 -52.5 -15.5t-28.5 -58.5h-25
l29 188h358v-8l-217 -252q85 14 149 -29.5t64 -132.5q0 -86 -64.5 -141t-146.5 -55q-79 0 -133 43.5t-76 109.5l27 13q43 -109 141 -109q57 0 92 37t35 98q0 67 -49 101.5t-111 19.5l-4 4l152 187h-140z" />
    <glyph glyph-name="uni2154" unicode="&#x2154;" horiz-adv-x="1206" 
d="M475 635h-405v8q127 125 187 195t78.5 110.5t18.5 87.5q0 52 -29.5 84.5t-82.5 32.5q-93 0 -127 -104l-23 6q13 80 69.5 139t139.5 59q77 0 126.5 -47.5t49.5 -122.5q0 -34 -13.5 -68t-32 -61.5t-55 -64t-65 -61.5t-79.5 -68q-17 -14 -25 -21h155q60 0 83.5 14.5
t37.5 55.5h29zM895 1001l-666 -1001h-90q86 78 193 240l665 1001h90q-83 -76 -192 -240zM836 492q-36 0 -53 -15.5t-29 -58.5h-25l29 188h356v-8l-215 -252q85 14 149 -29.5t64 -132.5q0 -86 -65.5 -141t-147.5 -55q-79 0 -132 43t-75 110l27 13q40 -109 141 -109
q57 0 92 37t35 98q0 67 -49 101.5t-111 19.5l-4 4l152 187h-139z" />
    <glyph glyph-name="uni215B" unicode="&#x215b;" horiz-adv-x="1165" 
d="M322 1092v-365q0 -39 17 -48t81 -9v-33h-330v33q63 0 80.5 9.5t17.5 47.5v406q0 24 -4.5 32.5t-21.5 8.5q-3 0 -78 -11v33l242 59q-4 -35 -4 -163zM848 1001l-666 -1001h-90q86 78 193 240l665 1001h90q-83 -76 -192 -240zM852 -10q-93 0 -155 46.5t-62 110.5q0 48 36 85
t93 59q-55 37 -82 72t-27 86q0 68 57.5 118.5t139.5 50.5q90 0 143.5 -41.5t53.5 -103.5q0 -47 -36.5 -82t-90.5 -51l36 -25q39 -25 58.5 -41t36 -44t16.5 -62q0 -73 -61 -125.5t-156 -52.5zM842 391l55 -37q61 46 61 127q0 45 -25.5 73t-74.5 28q-40 0 -65 -23.5t-25 -62.5
q0 -37 18.5 -60.5t55.5 -44.5zM852 27q47 0 75.5 23t28.5 63q0 33 -17 55t-58 49l-90 57q-62 -45 -62 -122q0 -58 35 -91.5t88 -33.5z" />
    <glyph glyph-name="uni215C" unicode="&#x215c;" horiz-adv-x="1196" 
d="M879 1001l-666 -1001h-90q83 76 192 240l666 1001h90q-83 -76 -192 -240zM236 1126q-37 0 -53.5 -15t-28.5 -58h-25l29 188h356v-8l-215 -252q85 14 149 -29.5t64 -132.5q0 -86 -65.5 -141t-147.5 -55q-79 0 -132 43t-75 110l27 12q40 -108 141 -108q57 0 91 36.5
t34 98.5q0 67 -48 101.5t-110 19.5l-4 4l152 186h-139zM885 -10q-93 0 -155 46.5t-62 110.5q0 48 36 85t93 59q-55 37 -82 72t-27 86q0 68 57.5 118.5t139.5 50.5q89 0 141.5 -41.5t52.5 -103.5q0 -46 -36.5 -81t-88.5 -52l37 -25q39 -25 58.5 -41t36 -44t16.5 -62
q0 -73 -61 -125.5t-156 -52.5zM872 391l58 -37q59 45 59 127q0 45 -25 73t-73 28q-40 0 -65 -23.5t-25 -62.5q0 -37 18 -60.5t53 -44.5zM883 27q48 0 77 22.5t29 63.5q0 33 -17.5 55t-60.5 49l-90 57q-59 -46 -59 -122q0 -58 34.5 -91.5t86.5 -33.5z" />
    <glyph glyph-name="uni215D" unicode="&#x215d;" horiz-adv-x="1204" 
d="M887 1001l-666 -1001h-90q86 78 193 240l665 1001h90q-83 -76 -192 -240zM360 1235q78 0 99.5 6t34.5 35h24l-35 -156h-254l-24 -153q54 43 125 43q79 0 136.5 -51t57.5 -132q0 -88 -67 -146t-154 -58q-81 0 -136 44t-77 111l27 13q19 -52 55.5 -80.5t83.5 -28.5
q62 0 98.5 39t36.5 100t-36 96t-91 35q-39 0 -94 -34l-8 2l49 315h149zM891 -10q-93 0 -155 46.5t-62 110.5q0 48 36.5 86t92.5 58q-55 37 -82 72t-27 86q0 68 58.5 118.5t140.5 50.5q89 0 141.5 -41.5t52.5 -103.5q0 -46 -36 -81t-90 -54l36 -23q59 -37 86 -67.5t27 -79.5
q0 -73 -61 -125.5t-158 -52.5zM881 391l57 -37q59 45 59 127q0 45 -25 73t-73 28q-40 0 -66 -23.5t-26 -62.5q0 -36 19 -59.5t55 -45.5zM891 27q47 0 75.5 23t28.5 63q0 34 -16.5 56t-58.5 48l-91 57q-59 -43 -59 -122q0 -58 34.5 -91.5t86.5 -33.5z" />
    <glyph glyph-name="uni215E" unicode="&#x215e;" horiz-adv-x="1122" 
d="M805 1001l-666 -1001h-90q86 78 193 240l665 1001h90q-83 -76 -192 -240zM467 1120h-252q-40 0 -59.5 -15t-32.5 -61h-27l33 197h424v-4l-250 -604h-108v4q64 67 126.5 179.5t145.5 303.5zM809 -10q-93 0 -155 46.5t-62 110.5q0 48 36.5 86t92.5 58q-55 37 -82 72t-27 86
q0 68 58.5 118.5t140.5 50.5q90 0 142.5 -41.5t52.5 -103.5q0 -46 -36 -81t-91 -54l36 -23q59 -37 86 -67.5t27 -79.5q0 -73 -61 -125.5t-158 -52.5zM799 391l55 -37q61 46 61 127q0 45 -25 73t-73 28q-42 0 -67 -23.5t-25 -62.5q0 -36 19 -59.5t55 -45.5zM809 27
q47 0 75.5 23t28.5 63q0 34 -16.5 56t-58.5 48l-90 57q-62 -45 -62 -122q0 -58 35.5 -91.5t87.5 -33.5z" />
    <glyph glyph-name="minus" unicode="&#x2212;" horiz-adv-x="960" 
d="M88 569v58h784v-58h-784z" />
    <glyph glyph-name="approxequal" unicode="&#x2248;" horiz-adv-x="970" 
d="M92 625v71q105 105 211 105q46 0 96 -17.5t87 -39t85.5 -39t90.5 -17.5q105 0 217 115v-70q-101 -106 -217 -106q-44 0 -93.5 17t-86.5 38t-86 38t-93 17q-99 0 -211 -112zM92 403v72q105 105 211 105q46 0 96 -17.5t87 -39t85.5 -39t90.5 -17.5q106 0 217 117v-72
q-101 -106 -217 -106q-44 0 -93.5 17.5t-86.5 38.5t-86 38.5t-93 17.5q-99 0 -211 -115z" />
    <glyph glyph-name="notequal" unicode="&#x2260;" horiz-adv-x="970" 
d="M879 446h-480l-166 -204h-69l166 204h-238v56h283l160 196h-443v54h486l161 200h68l-162 -200h234v-54h-277l-160 -196h437v-56z" />
    <glyph glyph-name="lessequal" unicode="&#x2264;" horiz-adv-x="704" 
d="M51 647v25l574 250v-62l-469 -201l469 -200v-62zM51 229v56h574v-56h-574z" />
    <glyph glyph-name="greaterequal" unicode="&#x2265;" horiz-adv-x="704" 
d="M653 647l-573 -250v62l469 200l-469 201v62l573 -250v-25zM653 229h-573v56h573v-56z" />
    <glyph glyph-name="i.dot" horiz-adv-x="483" 
d="M141 1176q0 44 33 76t78 32q46 0 78 -32t32 -76q0 -46 -32 -77.5t-78 -31.5q-45 0 -78 32t-33 77zM162 723q0 72 -22.5 89t-98.5 17v43h301v-720q0 -72 23.5 -90.5t99.5 -18.5v-43h-424v43q75 0 98 18.5t23 90.5v571z" />
    <glyph glyph-name="caron.Slovak" horiz-adv-x="1024" 
d="M377 940l20 401l4 5q100 -21 148 -25l2 -6l-156 -377z" />
    <glyph glyph-name="commaturn" horiz-adv-x="1024" 
d="M479 1210q49 10 88 -17t39 -81q0 -42 -30.5 -69t-71.5 -27q-46 0 -80.5 34t-34.5 95q0 78 65 143.5t160 77.5l9 -33q-68 -16 -106 -51.5t-38 -71.5z" />
    <glyph glyph-name="uni00200326" horiz-adv-x="1024" 
d="M545 -276q-49 -10 -88 17t-39 81q0 42 30.5 69t71.5 27q46 0 80.5 -34t34.5 -95q0 -78 -65 -143.5t-160 -77.5l-9 33q68 16 106 51.5t38 71.5z" />
    <glyph glyph-name="guilsinglleft.cap" horiz-adv-x="464" 
d="M57 598l322 332h31l-179 -332l179 -332h-31z" />
    <glyph glyph-name="guilsinglright.cap" horiz-adv-x="464" 
d="M86 930l322 -332l-322 -332h-31l178 332l-178 332h31z" />
    <glyph glyph-name="guillemotleft.cap" horiz-adv-x="724" 
d="M57 598l322 332h31l-179 -332l179 -332h-31zM317 598l322 332h31l-178 -332l178 -332h-31z" />
    <glyph glyph-name="guillemotright.cap" horiz-adv-x="724" 
d="M86 930l322 -332l-322 -332h-31l178 332l-178 332h31zM346 930l322 -332l-322 -332h-31l179 332l-179 332h31z" />
    <glyph glyph-name="slash.cap" horiz-adv-x="813" 
d="M41 -127l668 1458h63l-668 -1458h-63z" />
    <glyph glyph-name="backslash.cap" horiz-adv-x="813" 
d="M772 -127h-63l-668 1458h63z" />
    <glyph glyph-name="bar.cap" horiz-adv-x="546" 
d="M246 -127v1458h55v-1458h-55z" />
    <glyph glyph-name="periodcentered.cap" horiz-adv-x="395" 
d="M82 614q0 48 34 81.5t83 33.5q47 0 80.5 -34t33.5 -81q0 -49 -33 -82.5t-81 -33.5q-50 0 -83.5 33.5t-33.5 82.5z" />
    <glyph glyph-name="bullet.cap" horiz-adv-x="712" 
d="M356 346q-114 0 -194 79t-80 193q0 113 80 194t194 81t194.5 -81t80.5 -194q0 -114 -80.5 -193t-194.5 -79z" />
    <glyph glyph-name="hyphen.cap" horiz-adv-x="548" 
d="M446 573h-364l20 78h365z" />
    <glyph glyph-name="endash.cap" horiz-adv-x="794" 
d="M692 573h-610l20 78h611z" />
    <glyph glyph-name="emdash.cap" horiz-adv-x="1204" 
d="M1102 573h-1020l20 78h1020z" />
    <glyph glyph-name="parenleft.cap" horiz-adv-x="626" 
d="M80 602q0 222 133.5 411.5t353.5 317.5l25 -24q-172 -128 -258 -312t-86 -393t86.5 -393.5t257.5 -310.5l-25 -25q-220 128 -353.5 317.5t-133.5 411.5z" />
    <glyph glyph-name="parenright.cap" horiz-adv-x="626" 
d="M59 1331q221 -128 354.5 -317.5t133.5 -411.5t-133.5 -411.5t-354.5 -317.5l-24 25q171 126 257.5 310.5t86.5 393.5t-86 393t-258 312z" />
    <glyph glyph-name="bracketleft.cap" horiz-adv-x="620" 
d="M305 1270v-1338l248 -26v-35h-399v1460h399v-35z" />
    <glyph glyph-name="bracketright.cap" horiz-adv-x="620" 
d="M315 -68v1338l-247 26v35h399v-1460h-399v35z" />
    <glyph glyph-name="braceleft.cap" horiz-adv-x="710" 
d="M78 592v18q62 9 100 21.5t68 36t42.5 62t12.5 97.5q0 38 -25.5 124.5t-25.5 146.5q0 104 84.5 168.5t243.5 64.5h65v-35l-63 -6q-84 -9 -128 -58.5t-44 -135.5q0 -40 19 -124.5t19 -123.5q0 -57 -19.5 -100.5t-56.5 -71.5t-80.5 -45.5t-101.5 -30.5q121 -25 189.5 -80.5
t68.5 -165.5q0 -39 -19 -122t-19 -123q0 -87 44 -137.5t128 -59.5l63 -6v-35h-65q-159 0 -243.5 64.5t-84.5 168.5q0 60 25.5 145.5t25.5 125.5q0 59 -12.5 97.5t-42.5 62t-68 36t-100 21.5z" />
    <glyph glyph-name="braceright.cap" horiz-adv-x="710" 
d="M633 610v-18q-62 -9 -100 -21.5t-68 -36t-42.5 -62t-12.5 -97.5q0 -40 25.5 -125.5t25.5 -145.5q0 -104 -84.5 -168.5t-243.5 -64.5h-65v35l63 6q84 9 128 59.5t44 137.5q0 40 -19.5 123t-19.5 122q0 110 68.5 165.5t189.5 80.5q-58 13 -101.5 30.5t-80.5 45.5
t-56.5 71.5t-19.5 100.5q0 39 19.5 123.5t19.5 124.5q0 86 -44 135.5t-128 58.5l-63 6v35h65q159 0 243.5 -64.5t84.5 -168.5q0 -60 -25.5 -146.5t-25.5 -124.5q0 -59 12.5 -97.5t42.5 -62t68 -36t100 -21.5z" />
    <glyph glyph-name="at.cap" horiz-adv-x="1501" 
d="M770 -141q-154 0 -283.5 41t-226 119t-151 200t-54.5 275q0 162 70 314t183 261t262 174.5t302 65.5q139 0 249 -40t180.5 -112t107.5 -169t37 -212q0 -111 -44 -217t-115.5 -183.5t-168 -125t-196.5 -47.5q-59 0 -88 32t-31 87v18q-101 -137 -242 -137q-80 0 -138 63.5
t-58 165.5q0 151 83 286.5t221.5 216.5t293.5 81q77 0 151 -21l-135 -628q-6 -24 -6 -48q0 -45 43 -45q95 0 172.5 72t118.5 185.5t41 242.5q0 226 -119 353.5t-359 127.5q-134 0 -262.5 -59t-226.5 -159.5t-157.5 -243t-59.5 -299.5q0 -187 81 -320t220.5 -197.5
t322.5 -64.5q136 0 267 43t235 123l19 -29q-79 -79 -232.5 -134.5t-306.5 -55.5zM653 291q88 0 160 96l123 582q-168 0 -283.5 -144t-115.5 -358q0 -87 32 -131.5t84 -44.5z" />
    <glyph glyph-name="zero.op" horiz-adv-x="1054" 
d="M61 436q0 121 64.5 227t172 168t228.5 62t229 -62t173 -168t65 -227t-65 -227t-173 -167.5t-229 -61.5t-228.5 61.5t-172 167.5t-64.5 227zM795 436q0 177 -71.5 291.5t-197.5 114.5t-197 -114.5t-71 -291.5q0 -176 71 -289.5t197 -113.5t197.5 114t71.5 289z" />
    <glyph glyph-name="one.op" horiz-adv-x="743" 
d="M690 47v-47h-635v47q150 0 188 17t38 92v563q0 73 -37.5 89.5t-188.5 16.5v47h635v-47q-56 0 -86 -1t-59.5 -4.5t-42.5 -9.5t-23.5 -19t-13 -29.5t-2.5 -42.5v-563q0 -32 5.5 -50.5t16.5 -31.5t41 -18t64 -7t100 -2z" />
    <glyph glyph-name="two.op" horiz-adv-x="872" 
d="M848 184l-70 -184h-733v8q259 242 319 303q140 144 178 243q21 55 21 114q0 97 -56 164t-161 67q-100 0 -164 -70.5t-88 -191.5l-39 8q19 166 119.5 276.5t249.5 110.5q144 0 228.5 -87.5t84.5 -217.5q0 -29 -8 -59t-18 -55.5t-33.5 -58t-40.5 -55t-52.5 -58t-56.5 -56
t-67 -59.5t-68.5 -57.5t-75.5 -62t-75 -61.5h342q101 0 154.5 7.5t101.5 31.5h8z" />
    <glyph glyph-name="three.op" horiz-adv-x="882" 
d="M299 721q-72 0 -106 -37t-64 -141h-35l58 329h671v-8l-448 -549q64 10 127.5 6.5t121.5 -30t102 -66t70.5 -102.5t26.5 -139q0 -115 -62.5 -207t-158.5 -139.5t-203 -47.5q-149 0 -258 87t-143 217l41 20q37 -110 122 -174t199 -64q124 0 203.5 82t79.5 217
q0 64 -20.5 117.5t-55.5 88t-82.5 56.5t-101.5 22t-113 -15l-6 8l371 469h-336z" />
    <glyph glyph-name="four.op" horiz-adv-x="1087" 
d="M158 158h407v493zM1012 80h-273v-469h-174v469h-530v14l655 801h49v-737h45q119 0 170.5 6t98.5 29h8z" />
    <glyph glyph-name="five.op" horiz-adv-x="897" 
d="M831 907l-69 -194h-481l-68 -432q40 34 100.5 56.5t126.5 22.5q102 0 187.5 -40.5t139.5 -123t54 -192.5q0 -87 -35.5 -165t-94.5 -132.5t-138.5 -86.5t-165.5 -32q-152 0 -256.5 88.5t-134.5 217.5l39 20q30 -107 112 -173.5t189 -66.5q136 0 216.5 92t80.5 230
q0 134 -75.5 210.5t-186.5 76.5q-58 0 -103.5 -20.5t-105.5 -63.5l-12 2l102 671h305q117 0 168 6t98 29h8z" />
    <glyph glyph-name="six.op" horiz-adv-x="987" 
d="M909 389q0 -168 -119.5 -288.5t-285.5 -120.5q-83 0 -161.5 39.5t-138.5 108.5t-96 171.5t-36 220.5q0 154 63.5 301t171 259t260.5 180.5t322 68.5q46 0 69 -2v-47q-16 2 -49 2q-182 0 -326 -93.5t-229.5 -263t-99.5 -390.5q49 92 133.5 144t181.5 52q147 0 243.5 -95
t96.5 -247zM514 33q97 0 161 78.5t64 220.5q0 141 -69.5 221t-186.5 80q-73 0 -138.5 -45.5t-92.5 -122.5v-12q0 -188 75.5 -304t186.5 -116z" />
    <glyph glyph-name="seven.op" horiz-adv-x="880" 
d="M741 709h-475q-76 0 -117.5 -37t-70.5 -135h-39l74 335h751v-8l-561 -1253h-125v8q106 138 226 376t337 714z" />
    <glyph glyph-name="eight.op" horiz-adv-x="917" 
d="M459 -20q-170 0 -286 102t-116 240q0 202 275 329l-13 8q-46 31 -81.5 62t-69 72.5t-52 93t-18.5 108.5q0 143 107 250t260 107q160 0 260 -94t100 -228q0 -106 -78.5 -189.5t-191.5 -127.5l82 -56q117 -78 171 -146t54 -163q0 -153 -114.5 -260.5t-288.5 -107.5z
M422 801l102 -68q75 39 124.5 116t49.5 198q0 103 -62 175t-173 72q-96 0 -156.5 -63.5t-60.5 -159.5q0 -88 45 -150t131 -120zM461 35q113 0 181.5 61t68.5 160q0 81 -43 136.5t-154 131.5l-149 105q-164 -92 -164 -301q0 -131 74 -212t186 -81z" />
    <glyph glyph-name="nine.op" horiz-adv-x="972" 
d="M485 242q74 0 139.5 45.5t92.5 122.5v18q0 188 -74.5 300t-187.5 112q-98 0 -162 -77.5t-64 -219.5q0 -140 70 -220.5t186 -80.5zM70 -401q-66 0 -99 4v47q25 -4 74 -4q177 0 323 86.5t237 244t108 359.5q-47 -90 -131.5 -141.5t-182.5 -51.5q-144 0 -242 95.5t-98 246.5
q0 168 120 289t286 121q85 0 164.5 -39.5t139.5 -109t96 -171t36 -217.5q0 -147 -66.5 -286.5t-177.5 -243t-265.5 -166.5t-321.5 -63z" />
    <glyph glyph-name="thinspace" horiz-adv-x="163" 
 />
    <glyph glyph-name="f_f_short" horiz-adv-x="1087" 
d="M686 877v51q0 186 89 305t241 119q96 0 170 -43l-6 -170h-41q-3 161 -119 161q-75 0 -114.5 -75t-39.5 -219v-138q140 0 228 9l-13 -68h-215v-657q0 -73 26.5 -91t125.5 -18v-43h-453v43q75 0 98 18.5t23 90.5v657h-354v-657q0 -72 23.5 -90.5t97.5 -18.5v-43h-422v43
q75 0 98 18.5t23 90.5v657h-101v35l101 28v19q0 186 92.5 305t249.5 119q104 0 178 -43l-6 -170h-41q-6 162 -131 162q-78 0 -120 -75.5t-42 -219.5v-105q265 0 354 13z" />
    <glyph glyph-name="L.sc" horiz-adv-x="948" 
d="M854 0h-799v45q77 0 104 16t27 74v762q0 59 -26.5 74.5t-104.5 15.5v45h445v-45q-80 0 -106.5 -15.5t-26.5 -74.5v-768q0 -43 19.5 -59.5t68.5 -16.5h106q57 0 93 5.5t68 20.5t53.5 46t40 77.5t36.5 119.5h35z" />
    <glyph glyph-name="Dcroat.sc" horiz-adv-x="1169" 
d="M487 0h-421v45q76 0 103.5 15t27.5 69v387h-119l16 51h103v336q0 54 -27.5 69t-103.5 15v45h423q179 0 317 -57.5t218 -171t80 -268.5q0 -153 -82 -276t-223 -191t-312 -68zM463 51h16q202 0 316 117t114 354q0 232 -112 348t-324 111h-96v-414h217l-19 -51h-198v-383
q0 -49 20.5 -65.5t65.5 -16.5z" />
    <glyph glyph-name="AE.sc" horiz-adv-x="1562" 
d="M766 555v397l-242 -397h242zM399 45v-45h-370v45q72 0 106.5 19.5t69.5 76.5l510 838q-39 8 -150 8v45h865l2 -262h-29q-8 58 -21 95t-32 61t-55 35.5t-77 15.5t-110 4h-160v-426h172q43 0 69 3.5t43 10t25.5 24t12.5 35t8 54.5h33v-303h-33q-5 45 -10 64.5t-21.5 36
t-44.5 20.5t-82 4h-172v-375q0 -47 22 -61.5t72 -14.5h93q51 0 80 1.5t63.5 6t54 15t41.5 27.5t36 44t28 64t26 88h35l-33 -299h-831v45q77 0 104 16t27 74v369h-272l-220 -361q-14 -25 -14 -43q0 -55 139 -55z" />
    <glyph glyph-name="OE.sc" horiz-adv-x="1583" 
d="M702 983h-16q-193 0 -310.5 -118.5t-117.5 -354.5q0 -228 115.5 -342.5t318.5 -114.5h96v850q0 48 -20.5 64t-65.5 16zM676 0q-172 0 -309 58t-219 173.5t-82 270.5q0 152 83.5 274t223.5 189t305 67h770l4 -262h-31q-7 58 -20 95t-31.5 60.5t-54.5 35t-76 15t-109 3.5
h-161v-424h174q35 0 57.5 1.5t39.5 8.5t26 13.5t15.5 24t9.5 33t7 46.5h33v-303h-33q-6 45 -11 64.5t-21.5 36t-43.5 20.5t-79 4h-174v-373q0 -49 22 -63.5t72 -14.5h92q51 0 80 1.5t63.5 6t54 15t41.5 27.5t36.5 44t29 64t27.5 88h31l-31 -299h-811z" />
    <glyph glyph-name="Igrave.sc" horiz-adv-x="552" 
d="M395 1133l-18 -9l-320 299v7q101 22 154 57h8zM500 45v-45h-445v45q77 0 104 16t27 74v762q0 59 -26.5 74.5t-104.5 15.5v45h445v-45q-79 0 -106 -15.5t-27 -74.5v-762q0 -58 27.5 -74t105.5 -16z" />
    <glyph glyph-name="D.sc" horiz-adv-x="1159" 
d="M477 0h-422v45q76 0 103.5 15t27.5 69v774q0 54 -27.5 69t-103.5 15v45h424q179 0 317 -57.5t218 -171t80 -268.5q0 -153 -82 -276t-223 -191t-312 -68zM453 51h16q202 0 316 117t114 354q0 232 -112 348t-324 111h-96v-848q0 -49 20.5 -65.5t65.5 -16.5z" />
    <glyph glyph-name="multiply.op" horiz-adv-x="798" 
d="M705 729l-267 -268l264 -268l-38 -39l-265 268l-264 -268l-41 39l266 268l-266 268l41 41l264 -270l265 270z" />
    <glyph glyph-name="Hbar.sc" horiz-adv-x="1253" 
d="M872 553v131h-493v-131h493zM510 45v-45h-444v45q77 0 104 16t27 74v549h-129l16 51h113v162q0 59 -26.5 74.5t-104.5 15.5v45h444v-45q-78 0 -104.5 -15.5t-26.5 -74.5v-162h493v162q0 59 -26.5 74.5t-104.5 15.5v45h447v-45q-80 0 -106.5 -15.5t-26.5 -74.5v-162h131
l-19 -51h-112v-549q0 -58 27 -74t106 -16v-45h-447v45q77 0 104 16t27 74v361h-493v-361q0 -58 27 -74t104 -16z" />
    <glyph glyph-name="plusminus.op" horiz-adv-x="960" 
d="M872 532h-364v-276h-57v276h-363v58h363v274h57v-274h364v-58zM88 78v53h784v-53h-784z" />
    <glyph glyph-name="Cacute.sc" horiz-adv-x="1017" 
d="M522 1124l-18 9l176 354h8q53 -35 154 -57v-7zM250 578q0 -118 35.5 -217.5t94.5 -164t133.5 -100t154.5 -35.5q82 0 146 26t126 91l27 -31q-57 -74 -154.5 -119.5t-218.5 -45.5q-98 0 -192 36.5t-169 102t-121 167t-46 220.5q0 156 72.5 281.5t194 194.5t267.5 69
q60 0 114 -15.5t89 -31t49 -15.5q18 0 26.5 9.5t16.5 33.5h20l15 -307l-31 -2q-22 132 -97.5 203t-203.5 71q-151 0 -249.5 -117t-98.5 -304z" />
    <glyph glyph-name="three.sc" horiz-adv-x="837" 
d="M297 885q-62 0 -91 -29.5t-54 -112.5h-33l45 289h602v-6l-381 -438q69 15 137 1t122.5 -46t88 -93.5t33.5 -140.5q0 -96 -53 -172.5t-134.5 -116.5t-172.5 -40q-129 0 -221.5 73.5t-125.5 182.5l35 22q35 -92 104.5 -145.5t163.5 -53.5q103 0 165.5 67t62.5 177
q0 126 -90.5 189.5t-210.5 29.5l-6 10l290 353h-276z" />
    <glyph glyph-name="H.sc" horiz-adv-x="1230" 
d="M500 45v-45h-445v45q77 0 104 16t27 74v762q0 59 -26.5 74.5t-104.5 15.5v45h445v-45q-79 0 -106 -15.5t-27 -74.5v-330h495v330q0 59 -26.5 74.5t-106.5 15.5v45h447v-45q-79 0 -106.5 -15.5t-27.5 -74.5v-762q0 -58 28 -74t106 -16v-45h-447v45q79 0 106 16t27 74v375
h-495v-375q0 -58 27.5 -74t105.5 -16z" />
    <glyph glyph-name="equal.op" horiz-adv-x="970" 
d="M92 557v55h787v-55h-787zM92 301v57h787v-57h-787z" />
    <glyph glyph-name="exclamdown.cap" horiz-adv-x="393" 
d="M311 1145q0 -47 -33.5 -81t-80.5 -34q-49 0 -83 33.5t-34 81.5q0 49 34 83t83 34q47 0 80.5 -34t33.5 -83zM182 881h29q4 -83 23.5 -233.5t45.5 -325.5t31 -211q0 -50 -32 -90.5t-82 -40.5t-82.5 40.5t-32.5 90.5q1 11 47.5 335t52.5 435z" />
    <glyph glyph-name="uni0122.sc" horiz-adv-x="1120" 
d="M971 27q-143 -47 -295 -47q-94 0 -183 22.5t-166 68.5t-135.5 109t-92 150t-33.5 186q0 157 78.5 282t203.5 191t268 66q66 0 122.5 -16t92 -32t48.5 -16q16 0 25.5 10t17.5 33h24l15 -307l-35 -2q-21 131 -95.5 203.5t-203.5 72.5q-160 0 -261.5 -122.5t-101.5 -339.5
q0 -120 36.5 -218.5t96.5 -160.5t133.5 -95.5t151.5 -33.5q60 0 86.5 17t26.5 63v219q0 54 -33.5 70t-114.5 16v45h436v-45q-75 0 -96.5 -14.5t-21.5 -71.5v-199q0 -67 6 -104zM666 -276q-49 -10 -88 17t-39 81q0 42 30.5 69t71.5 27q46 0 80.5 -34t34.5 -95
q0 -78 -65.5 -143.5t-160.5 -77.5l-8 33q68 16 106 51.5t38 71.5z" />
    <glyph glyph-name="Eth.sc" horiz-adv-x="1169" 
d="M487 0h-421v45q76 0 103.5 15t27.5 69v387h-119l16 51h103v336q0 54 -27.5 69t-103.5 15v45h423q179 0 317 -57.5t218 -171t80 -268.5q0 -153 -82 -276t-223 -191t-312 -68zM463 51h16q202 0 316 117t114 354q0 232 -112 348t-324 111h-96v-414h217l-19 -51h-198v-383
q0 -49 20.5 -65.5t65.5 -16.5z" />
    <glyph glyph-name="Y.sc" horiz-adv-x="1101" 
d="M809 0h-514v45q103 0 135.5 16t32.5 74v381l-281 381q-42 58 -67 74t-86 16v45h444v-45q-65 0 -92 -7t-27 -26q0 -6 25 -51l237 -328l205 320q17 27 17 45q0 47 -129 47v45h364v-45q-74 0 -110.5 -18t-71.5 -74l-248 -381v-379q0 -58 32 -74t134 -16v-45z" />
    <glyph glyph-name="less.op" horiz-adv-x="704" 
d="M55 440v21l572 330v-66l-484 -274l484 -275v-67z" />
    <glyph glyph-name="greater.op" horiz-adv-x="704" 
d="M649 440l-571 -331v67l481 275l-481 274v66l571 -330v-21z" />
    <glyph glyph-name="Ccaron.sc" horiz-adv-x="1017" 
d="M854 1470q-43 -70 -101 -179.5t-83 -170.5q-35 6 -58 6q-22 0 -57 -6q-25 61 -83 170.5t-101 179.5l24 7l217 -226l217 226zM250 578q0 -118 35.5 -217.5t94.5 -164t133.5 -100t154.5 -35.5q82 0 146 26t126 91l27 -31q-57 -74 -154.5 -119.5t-218.5 -45.5
q-98 0 -192 36.5t-169 102t-121 167t-46 220.5q0 156 72.5 281.5t194 194.5t267.5 69q60 0 114 -15.5t89 -31t49 -15.5q18 0 26.5 9.5t16.5 33.5h20l15 -307l-31 -2q-22 132 -97.5 203t-203.5 71q-151 0 -249.5 -117t-98.5 -304z" />
    <glyph glyph-name="questiondown.sc" horiz-adv-x="716" 
d="M489 940q0 -46 -32.5 -79.5t-79.5 -33.5t-80 33.5t-33 79.5t33 79.5t80 33.5t79.5 -33.5t32.5 -79.5zM408 104q169 0 215 209l34 -8q-8 -64 -32 -121t-63.5 -103.5t-99 -73.5t-130.5 -27q-121 0 -196 71.5t-75 184.5q0 51 21.5 98.5t53.5 82t70.5 72.5t72 70.5t58 74.5
t28.5 85h34q-5 -61 -24 -114.5t-43 -90.5t-47 -71.5t-38.5 -75t-15.5 -84.5q0 -75 48 -127t129 -52z" />
    <glyph glyph-name="Atilde.sc" horiz-adv-x="1179" 
d="M709 1153q-32 0 -126 55.5t-116 55.5q-29 0 -62.5 -34t-60.5 -87l-29 18q62 123 105.5 175.5t87.5 52.5q31 0 124.5 -54.5t115.5 -54.5q29 0 62 33t60 86l31 -19q-64 -123 -106.5 -175t-85.5 -52zM535 846l-144 -379h295zM397 45v-45h-368v45q77 0 111.5 18t56.5 78
l350 906h88l373 -912q25 -60 48.5 -75t94.5 -15v-45h-440v45q71 0 97 7t26 32q0 16 -15 51l-110 275h-340l-101 -267q-8 -21 -8 -39q0 -34 34.5 -46.5t102.5 -12.5z" />
    <glyph glyph-name="plus.op" horiz-adv-x="960" 
d="M872 426h-364v-363h-57v363h-363v57h363v363h57v-363h364v-57z" />
    <glyph glyph-name="Ocircumflex.sc" horiz-adv-x="1157" 
d="M637 1470q25 -61 83 -170.5t101 -179.5l-24 -6l-217 225l-218 -225l-24 6q43 70 101 179.5t83 170.5q35 -6 58 -6q22 0 57 6zM66 516q0 145 71.5 269.5t190 196t252.5 71.5t252.5 -71.5t190 -196t71.5 -269.5t-71.5 -269t-190 -195.5t-252.5 -71.5t-252.5 71.5
t-190 195.5t-71.5 269zM895 516q0 218 -88 350.5t-227 132.5q-140 0 -229 -133t-89 -350t89 -350t229 -133q139 0 227 132.5t88 350.5z" />
    <glyph glyph-name="Eng.sc" horiz-adv-x="1177" 
d="M745 -340q-48 0 -91.5 15t-61.5 36l18 31q54 -35 121 -35q94 0 151.5 63t57.5 181v88l-678 825v-725q0 -58 37.5 -76t122.5 -18v-45h-381v45q84 0 120 17.5t36 76.5v799q-33 32 -64.5 40.5t-95.5 8.5v45h317l586 -725v586q0 58 -37.5 76t-122.5 18v45h379v-45
q-84 0 -119.5 -17.5t-35.5 -76.5v-950q0 -128 -75 -205.5t-184 -77.5z" />
    <glyph glyph-name="uni0156.sc" horiz-adv-x="1148" 
d="M451 979h-84v-438h84q278 0 278 227q0 211 -278 211zM500 0h-445v45q77 0 104 16t27 74v762q0 59 -26.5 74.5t-104.5 15.5v45h430q120 0 214 -28t153 -89t59 -147q0 -94 -72.5 -159t-185.5 -93q109 -47 183 -176l110 -172q46 -75 80 -100t100 -25v-43h-286l-156 262
q-64 120 -117.5 175.5t-115.5 58.5h-84v-361q0 -58 27.5 -74t105.5 -16v-45zM612 -276q-49 -10 -88 17t-39 81q0 41 31 68.5t72 27.5q46 0 80 -34t34 -95q0 -78 -65 -143.5t-160 -77.5l-8 33q68 16 105.5 51.5t37.5 71.5z" />
    <glyph glyph-name="Ydieresis.sc" horiz-adv-x="1101" 
d="M338 1264q0 42 29 71t71 29q43 0 72 -28.5t29 -71.5q0 -44 -29 -73.5t-72 -29.5q-42 0 -71 29.5t-29 73.5zM616 1264q0 42 31 71t74 29t71.5 -28.5t28.5 -71.5q0 -44 -28.5 -73.5t-71.5 -29.5t-74 29.5t-31 73.5zM809 0h-514v45q103 0 135.5 16t32.5 74v381l-281 381
q-42 58 -67 74t-86 16v45h444v-45q-65 0 -92 -7t-27 -26q0 -6 25 -51l237 -328l205 320q17 27 17 45q0 47 -129 47v45h364v-45q-74 0 -110.5 -18t-71.5 -74l-248 -381v-379q0 -58 32 -74t134 -16v-45z" />
    <glyph glyph-name="Sacute.sc" horiz-adv-x="847" 
d="M344 1124l-18 9l176 354h8q53 -35 154 -57v-7zM426 33q92 0 149.5 47t57.5 139q0 67 -38 109t-126 88l-170 88q-99 52 -149 112t-50 150q0 122 93 204.5t229 82.5q55 0 104 -15.5t81.5 -31t45.5 -15.5q18 0 27.5 10t17.5 33h23l14 -305l-33 -2q-14 117 -89.5 193.5
t-182.5 76.5q-81 0 -132.5 -46.5t-51.5 -114.5q0 -30 9.5 -55t21.5 -41.5t38 -35.5t43 -28.5t52 -28.5l145 -76q113 -59 170 -121.5t57 -156.5q0 -136 -100.5 -224.5t-251.5 -88.5q-60 0 -114.5 18t-90 36.5t-49.5 18.5q-31 0 -45 -57h-27l-22 350l37 2q23 -141 110.5 -228
t196.5 -87z" />
    <glyph glyph-name="Adieresis.sc" horiz-adv-x="1179" 
d="M348 1264q0 42 29.5 71t71.5 29q43 0 71.5 -28.5t28.5 -71.5q0 -44 -28.5 -73.5t-71.5 -29.5q-42 0 -71.5 29.5t-29.5 73.5zM627 1264q0 42 30.5 71t73.5 29t71.5 -28.5t28.5 -71.5q0 -44 -28.5 -73.5t-71.5 -29.5t-73.5 29.5t-30.5 73.5zM535 846l-144 -379h295zM397 45
v-45h-368v45q77 0 111.5 18t56.5 78l350 906h88l373 -912q25 -60 48.5 -75t94.5 -15v-45h-440v45q71 0 97 7t26 32q0 16 -15 51l-110 275h-340l-101 -267q-8 -21 -8 -39q0 -34 34.5 -46.5t102.5 -12.5z" />
    <glyph glyph-name="Ecaron.sc" 
d="M752 1470q-44 -72 -102 -181t-83 -169q-34 6 -57 6q-22 0 -57 -6q-25 60 -83 169t-102 181l25 7l217 -226l217 226zM731 682v-303h-33q-6 45 -11 64.5t-21.5 36t-44 20.5t-80.5 4h-174v-375q0 -47 22 -61.5t72 -14.5h94q44 0 70.5 1t58 4.5t50 10t40 19t35 30t28 43.5
t26 59.5t22.5 78.5h30l-30 -299h-830v45q77 0 104 16t27 74v762q0 59 -26.5 74.5t-104.5 15.5v45h793l4 -262h-31q-10 73 -26 113.5t-52.5 63t-82.5 28.5t-132 6h-161v-426h174q36 0 58.5 1.5t40 8.5t26.5 13.5t15.5 24t9.5 33t7 46.5h33z" />
    <glyph glyph-name="V.sc" horiz-adv-x="1179" 
d="M600 -16h-14l-414 913q-26 60 -49.5 75t-93.5 15v45h438v-45q-70 0 -96.5 -7t-26.5 -30q0 -16 16 -53l285 -672l268 664q9 24 9 41q0 34 -34 45.5t-102 11.5v45h365v-45q-77 0 -110 -17.5t-58 -78.5z" />
    <glyph glyph-name="Obreve.sc" horiz-adv-x="1157" 
d="M580 1137q-100 0 -163 93t-63 245h33q6 -111 61 -165.5t132 -54.5q76 0 131 54.5t61 165.5h33q0 -152 -62.5 -245t-162.5 -93zM66 516q0 145 71.5 269.5t190 196t252.5 71.5t252.5 -71.5t190 -196t71.5 -269.5t-71.5 -269t-190 -195.5t-252.5 -71.5t-252.5 71.5
t-190 195.5t-71.5 269zM895 516q0 218 -88 350.5t-227 132.5q-140 0 -229 -133t-89 -350t89 -350t229 -133q139 0 227 132.5t88 350.5z" />
    <glyph glyph-name="uni021A.sc" horiz-adv-x="1099" 
d="M641 983v-848q0 -59 32 -75.5t134 -16.5v-43h-514v43q102 0 134 16.5t32 75.5v848h-72q-66 0 -107 -5t-76 -19t-54 -42t-32 -71t-20 -109h-37l5 303q58 -8 147 -8h674q89 0 147 8l4 -303h-37q-9 83 -25 130.5t-52 74t-82 34t-129 7.5h-72zM582 -276q-49 -10 -88 17
t-39 81q0 42 30.5 69t71.5 27q46 0 80.5 -34t34.5 -95q0 -78 -65.5 -143.5t-160.5 -77.5l-8 33q68 16 106 51.5t38 71.5z" />
    <glyph glyph-name="N.sc" horiz-adv-x="1177" 
d="M1004 -16h-19l-723 880v-725q0 -58 37.5 -76t122.5 -18v-45h-381v45q84 0 120 17.5t36 76.5v799q-33 32 -64.5 40.5t-95.5 8.5v45h317l586 -725v586q0 58 -37.5 76t-122.5 18v45h379v-45q-84 0 -119.5 -17.5t-35.5 -76.5v-909z" />
    <glyph glyph-name="Uacute.sc" horiz-adv-x="1212" 
d="M506 1124l-19 9l177 354h8q54 -35 153 -57v-7zM844 0v199q-40 -101 -128.5 -160t-197.5 -59q-165 0 -255.5 109t-90.5 302v506q0 59 -26.5 74.5t-104.5 15.5v45h444v-45q-78 0 -104.5 -15.5t-26.5 -74.5v-512q0 -154 59.5 -236.5t174.5 -82.5q93 0 162.5 55.5t93.5 161.5
v614q0 59 -27 74.5t-104 15.5v45h444v-45q-79 0 -106 -15.5t-27 -74.5v-762q0 -58 27.5 -74t105.5 -16v-45h-313z" />
    <glyph glyph-name="Gdotaccent.sc" horiz-adv-x="1120" 
d="M512 1282q0 44 33.5 76.5t77.5 32.5q45 0 77.5 -32.5t32.5 -76.5q0 -46 -32 -77t-78 -31q-45 0 -78 31.5t-33 76.5zM971 27q-143 -47 -295 -47q-94 0 -183 22.5t-166 68.5t-135.5 109t-92 150t-33.5 186q0 157 78.5 282t203.5 191t268 66q66 0 122.5 -16t92 -32t48.5 -16
q16 0 25.5 10t17.5 33h24l15 -307l-35 -2q-21 131 -95.5 203.5t-203.5 72.5q-160 0 -261.5 -122.5t-101.5 -339.5q0 -120 36.5 -218.5t96.5 -160.5t133.5 -95.5t151.5 -33.5q60 0 86.5 17t26.5 63v219q0 54 -33.5 70t-114.5 16v45h436v-45q-75 0 -96.5 -14.5t-21.5 -71.5
v-199q0 -67 6 -104z" />
    <glyph glyph-name="T.sc" horiz-adv-x="1099" 
d="M641 983v-848q0 -59 32 -75.5t134 -16.5v-43h-514v43q102 0 134 16.5t32 75.5v848h-72q-66 0 -107 -5t-76 -19t-54 -42t-32 -71t-20 -109h-37l5 303q58 -8 147 -8h674q89 0 147 8l4 -303h-37q-9 83 -25 130.5t-52 74t-82 34t-129 7.5h-72z" />
    <glyph glyph-name="divide.op" horiz-adv-x="960" 
d="M414 786q0 26 19.5 46t45.5 20q28 0 49 -20t21 -46q0 -28 -21 -48.5t-49 -20.5q-26 0 -45.5 20.5t-19.5 48.5zM88 426v57h784v-57h-784zM414 123q0 29 19 48t46 19q28 0 49 -19t21 -48q0 -26 -21 -46t-49 -20q-26 0 -45.5 20t-19.5 46z" />
    <glyph glyph-name="nine.sc" horiz-adv-x="915" 
d="M467 532q53 0 106 34.5t78 92.5v9q0 154 -62.5 245t-154.5 91q-78 0 -130 -59t-52 -171q0 -110 59 -176t156 -66zM158 -16q-28 0 -90 4v41q46 -4 61 -4q225 0 365 158.5t155 420.5q-42 -70 -116.5 -112.5t-151.5 -42.5q-128 0 -211.5 76.5t-83.5 199.5q0 138 104 233
t254 95q74 0 144 -32.5t124.5 -89.5t88 -141.5t33.5 -181.5q0 -124 -52.5 -238.5t-141.5 -199t-215.5 -135.5t-266.5 -51z" />
    <glyph glyph-name="Tbar.sc" horiz-adv-x="1099" 
d="M807 43v-43h-514v43q102 0 134 16.5t32 75.5v379h-191l17 49h174v420h-72q-66 0 -107 -5t-76 -19t-54 -42t-32 -71t-20 -109h-37l5 303q58 -8 147 -8h674q89 0 147 8l4 -303h-37q-9 83 -25 130.5t-52 74t-82 34t-129 7.5h-72v-420h190l-16 -49h-174v-379q0 -59 32 -75.5
t134 -16.5z" />
    <glyph glyph-name="Zacute.sc" horiz-adv-x="983" 
d="M434 1124l-18 9l176 354h8q53 -35 154 -57v-7zM893 0h-830v6l611 975h-281q-74 0 -118.5 -9t-77.5 -35t-48.5 -70.5t-23.5 -118.5h-33l4 284h799v-6l-604 -973h301q69 0 111 9t80 38t63 83t47 145h35z" />
    <glyph glyph-name="Rcaron.sc" horiz-adv-x="1148" 
d="M750 1470q-44 -72 -102 -181t-83 -169q-34 6 -57 6q-22 0 -57 -6q-25 60 -83 169t-102 181l25 7l217 -226l217 226zM451 979h-84v-438h84q278 0 278 227q0 211 -278 211zM500 0h-445v45q77 0 104 16t27 74v762q0 59 -26.5 74.5t-104.5 15.5v45h430q120 0 214 -28t153 -89
t59 -147q0 -94 -72.5 -159t-185.5 -93q109 -47 183 -176l110 -172q46 -75 80 -100t100 -25v-43h-286l-156 262q-64 120 -117.5 175.5t-115.5 58.5h-84v-361q0 -58 27.5 -74t105.5 -16v-45z" />
    <glyph glyph-name="Tcommaaccent.sc" horiz-adv-x="1099" 
d="M709 -217q0 -61 -45.5 -105.5t-119 -66t-165.5 -21.5v33q94 0 151.5 33.5t57.5 83.5q0 83 -154 86l72 174h-213v43q102 0 134 16.5t32 75.5v848h-72q-66 0 -107 -5t-76 -19t-54 -42t-32 -71t-20 -109h-37l5 303q58 -8 147 -8h674q89 0 147 8l4 -303h-37q-9 83 -25 130.5
t-52 74t-82 34t-129 7.5h-72v-848q0 -59 32 -75.5t134 -16.5v-43h-262l-31 -86q46 -2 87.5 -14.5t74.5 -43t33 -73.5z" />
    <glyph glyph-name="Zdotaccent.sc" horiz-adv-x="983" 
d="M416 1282q0 44 33 76.5t77 32.5q46 0 78.5 -32.5t32.5 -76.5q0 -45 -32.5 -76.5t-78.5 -31.5q-45 0 -77.5 31.5t-32.5 76.5zM893 0h-830v6l611 975h-281q-74 0 -118.5 -9t-77.5 -35t-48.5 -70.5t-23.5 -118.5h-33l4 284h799v-6l-604 -973h301q69 0 111 9t80 38t63 83
t47 145h35z" />
    <glyph glyph-name="Wcircumflex.sc" horiz-adv-x="1585" 
d="M870 1470q25 -60 83 -169t102 -181l-25 -6l-217 225l-217 -225l-25 6q44 72 102 181t83 169q35 -6 57 -6t57 6zM1047 -16l-250 665l-244 -665h-12l-369 917q-21 57 -46 71.5t-97 14.5v45h430v-45q-67 0 -92 -6.5t-25 -28.5q0 -7 14 -51l246 -641l166 465l-68 176
q-22 58 -43.5 72t-89.5 14v45h426v-45q-72 0 -99.5 -7t-27.5 -32q0 -4 13 -47l225 -637l213 615q8 24 8 45q0 38 -33.5 50.5t-101.5 12.5v45h366v-45q-75 0 -111 -22.5t-59 -83.5l-327 -897h-12z" />
    <glyph glyph-name="six.sc" horiz-adv-x="915" 
d="M829 307q0 -138 -104 -232.5t-254 -94.5q-74 0 -144 32.5t-124.5 89.5t-87.5 141t-33 181q0 124 52.5 238.5t141.5 199.5t215.5 136t266.5 51q12 0 90 -5v-40q-46 4 -62 4q-225 0 -365 -159t-155 -421q42 70 117 113t152 43q127 0 210.5 -77t83.5 -200zM481 29
q79 0 131 59t52 170q0 110 -59 176t-156 66q-53 0 -106.5 -34.5t-78.5 -92.5v-8q0 -154 62.5 -245t154.5 -91z" />
    <glyph glyph-name="A.sc" horiz-adv-x="1179" 
d="M535 846l-144 -379h295zM397 45v-45h-368v45q77 0 111.5 18t56.5 78l350 906h88l373 -912q25 -60 48.5 -75t94.5 -15v-45h-440v45q71 0 97 7t26 32q0 16 -15 51l-110 275h-340l-101 -267q-8 -21 -8 -39q0 -34 34.5 -46.5t102.5 -12.5z" />
    <glyph glyph-name="Ibreve.sc" horiz-adv-x="552" 
d="M276 1137q-100 0 -162.5 93t-62.5 245h33q6 -111 61 -165.5t131 -54.5q77 0 132 54.5t61 165.5h33q0 -152 -63 -245t-163 -93zM500 45v-45h-445v45q77 0 104 16t27 74v762q0 59 -26.5 74.5t-104.5 15.5v45h445v-45q-79 0 -106 -15.5t-27 -74.5v-762q0 -58 27.5 -74
t105.5 -16z" />
    <glyph glyph-name="zero.sc" horiz-adv-x="1005" 
d="M82 516q0 141 59 266t156 198t205 73t205.5 -73t157 -198t59.5 -266t-59.5 -265.5t-157 -197.5t-205.5 -73t-205 73t-156 197.5t-59 265.5zM725 516q0 141 -22.5 247t-74 171t-126.5 65t-126.5 -65t-74 -171t-22.5 -247q0 -104 13 -190.5t39.5 -153.5t70 -104t100.5 -37
t100.5 37t70 104t39.5 153.5t13 190.5z" />
    <glyph glyph-name="Ecircumflex.sc" 
d="M567 1470q25 -60 83 -169t102 -181l-25 -6l-217 225l-217 -225l-25 6q44 72 102 181t83 169q35 -6 57 -6t57 6zM731 682v-303h-33q-6 45 -11 64.5t-21.5 36t-44 20.5t-80.5 4h-174v-375q0 -47 22 -61.5t72 -14.5h94q44 0 70.5 1t58 4.5t50 10t40 19t35 30t28 43.5
t26 59.5t22.5 78.5h30l-30 -299h-830v45q77 0 104 16t27 74v762q0 59 -26.5 74.5t-104.5 15.5v45h793l4 -262h-31q-10 73 -26 113.5t-52.5 63t-82.5 28.5t-132 6h-161v-426h174q36 0 58.5 1.5t40 8.5t26.5 13.5t15.5 24t9.5 33t7 46.5h33z" />
    <glyph glyph-name="Ohungarumlaut.sc" horiz-adv-x="1157" 
d="M645 1133l158 354h6q59 -39 137 -53v-9l-282 -301zM408 1133l157 354h6q56 -39 134 -53v-9l-281 -301zM66 516q0 145 71.5 269.5t190 196t252.5 71.5t252.5 -71.5t190 -196t71.5 -269.5t-71.5 -269t-190 -195.5t-252.5 -71.5t-252.5 71.5t-190 195.5t-71.5 269zM895 516
q0 218 -88 350.5t-227 132.5q-140 0 -229 -133t-89 -350t89 -350t229 -133q139 0 227 132.5t88 350.5z" />
    <glyph glyph-name="J.sc" horiz-adv-x="536" 
d="M178 -39v936q0 59 -26.5 74.5t-104.5 15.5v45h445v-45q-79 0 -106.5 -15.5t-27.5 -74.5v-874q0 -137 -88.5 -220.5t-226.5 -83.5q-91 0 -166 48l17 40q46 -32 120 -32q78 0 121 46t43 140z" />
    <glyph glyph-name="Ncaron.sc" horiz-adv-x="1177" 
d="M860 1470q-43 -70 -101 -179.5t-83 -170.5q-35 6 -58 6q-22 0 -57 -6q-25 61 -83 170.5t-101 179.5l24 7l217 -226l218 226zM1004 -16h-19l-723 880v-725q0 -58 37.5 -76t122.5 -18v-45h-381v45q84 0 120 17.5t36 76.5v799q-33 32 -64.5 40.5t-95.5 8.5v45h317l586 -725
v586q0 58 -37.5 76t-122.5 18v45h379v-45q-84 0 -119.5 -17.5t-35.5 -76.5v-909z" />
    <glyph glyph-name="dotbelow" horiz-adv-x="1024" 
d="M401 -190q0 44 33 76t78 32q46 0 78.5 -32t32.5 -76q0 -46 -32.5 -77.5t-78.5 -31.5q-45 0 -78 32t-33 77z" />
    <glyph glyph-name="Scaron.sc" horiz-adv-x="847" 
d="M676 1470q-43 -70 -101 -179.5t-83 -170.5q-35 6 -58 6q-22 0 -57 -6q-25 61 -83 170.5t-101 179.5l24 7l217 -226l217 226zM426 33q92 0 149.5 47t57.5 139q0 67 -38 109t-126 88l-170 88q-99 52 -149 112t-50 150q0 122 93 204.5t229 82.5q55 0 104 -15.5t81.5 -31
t45.5 -15.5q18 0 27.5 10t17.5 33h23l14 -305l-33 -2q-14 117 -89.5 193.5t-182.5 76.5q-81 0 -132.5 -46.5t-51.5 -114.5q0 -30 9.5 -55t21.5 -41.5t38 -35.5t43 -28.5t52 -28.5l145 -76q113 -59 170 -121.5t57 -156.5q0 -136 -100.5 -224.5t-251.5 -88.5q-60 0 -114.5 18
t-90 36.5t-49.5 18.5q-31 0 -45 -57h-27l-22 350l37 2q23 -141 110.5 -228t196.5 -87z" />
    <glyph glyph-name="Wdieresis.sc" horiz-adv-x="1585" 
d="M571 1264q0 42 29.5 71t71.5 29q43 0 71.5 -28.5t28.5 -71.5q0 -44 -28.5 -73.5t-71.5 -29.5q-42 0 -71.5 29.5t-29.5 73.5zM850 1264q0 42 30.5 71t73.5 29t72 -28.5t29 -71.5q0 -44 -29 -73.5t-72 -29.5t-73.5 29.5t-30.5 73.5zM1047 -16l-250 665l-244 -665h-12
l-369 917q-21 57 -46 71.5t-97 14.5v45h430v-45q-67 0 -92 -6.5t-25 -28.5q0 -7 14 -51l246 -641l166 465l-68 176q-22 58 -43.5 72t-89.5 14v45h426v-45q-72 0 -99.5 -7t-27.5 -32q0 -4 13 -47l225 -637l213 615q8 24 8 45q0 38 -33.5 50.5t-101.5 12.5v45h366v-45
q-75 0 -111 -22.5t-59 -83.5l-327 -897h-12z" />
    <glyph glyph-name="Udieresis.sc" horiz-adv-x="1212" 
d="M356 1264q0 42 29.5 71t71.5 29q43 0 71.5 -28.5t28.5 -71.5q0 -44 -28.5 -73.5t-71.5 -29.5q-42 0 -71.5 29.5t-29.5 73.5zM635 1264q0 42 30.5 71t73.5 29t72 -28.5t29 -71.5q0 -44 -29 -73.5t-72 -29.5t-73.5 29.5t-30.5 73.5zM844 0v199q-40 -101 -128.5 -160
t-197.5 -59q-165 0 -255.5 109t-90.5 302v506q0 59 -26.5 74.5t-104.5 15.5v45h444v-45q-78 0 -104.5 -15.5t-26.5 -74.5v-512q0 -154 59.5 -236.5t174.5 -82.5q93 0 162.5 55.5t93.5 161.5v614q0 59 -27 74.5t-104 15.5v45h444v-45q-79 0 -106 -15.5t-27 -74.5v-762
q0 -58 27.5 -74t105.5 -16v-45h-313z" />
    <glyph glyph-name="E.sc" 
d="M731 682v-303h-33q-6 45 -11 64.5t-21.5 36t-44 20.5t-80.5 4h-174v-375q0 -47 22 -61.5t72 -14.5h94q44 0 70.5 1t58 4.5t50 10t40 19t35 30t28 43.5t26 59.5t22.5 78.5h30l-30 -299h-830v45q77 0 104 16t27 74v762q0 59 -26.5 74.5t-104.5 15.5v45h793l4 -262h-31
q-10 73 -26 113.5t-52.5 63t-82.5 28.5t-132 6h-161v-426h174q36 0 58.5 1.5t40 8.5t26.5 13.5t15.5 24t9.5 33t7 46.5h33z" />
    <glyph glyph-name="Umacron.sc" horiz-adv-x="1212" 
d="M825 1194h-487l33 68h487zM844 0v199q-40 -101 -128.5 -160t-197.5 -59q-165 0 -255.5 109t-90.5 302v506q0 59 -26.5 74.5t-104.5 15.5v45h444v-45q-78 0 -104.5 -15.5t-26.5 -74.5v-512q0 -154 59.5 -236.5t174.5 -82.5q93 0 162.5 55.5t93.5 161.5v614q0 59 -27 74.5
t-104 15.5v45h444v-45q-79 0 -106 -15.5t-27 -74.5v-762q0 -58 27.5 -74t105.5 -16v-45h-313z" />
    <glyph glyph-name="M.sc" horiz-adv-x="1466" 
d="M1008 1032h331v-45q-73 0 -101 -12t-28 -53q0 -3 1 -10t1 -11l76 -770q6 -56 33.5 -71t103.5 -15v-45h-440v45q69 0 96 11t27 50v25l-80 803l-342 -950h-14l-338 950l-74 -803v-14q0 -20 7 -33.5t18 -21t31.5 -11.5t39 -5t50.5 -1v-45h-365v45q82 0 115 14.5t39 71.5
l75 770v19q0 43 -27.5 55t-99.5 12v45h340l256 -747z" />
    <glyph glyph-name="Aogonek.sc" horiz-adv-x="1179" 
d="M535 846l-144 -379h295zM856 -276q-99 -138 -207 -138q-57 0 -96 36.5t-39 101.5q0 117 197 276v45q71 0 97 7t26 32q0 16 -15 51l-110 275h-340l-101 -267q-8 -21 -8 -39q0 -34 34.5 -46.5t102.5 -12.5v-45h-368v45q77 0 111.5 18t56.5 78l350 906h88l373 -912
q25 -60 48.5 -75t94.5 -15v-45h-381q-70 -67 -105.5 -123t-35.5 -119q0 -43 22 -67.5t56 -24.5q35 0 64 18t63 58z" />
    <glyph glyph-name="Itilde.sc" horiz-adv-x="552" 
d="M379 1153q-32 0 -126 55.5t-116 55.5q-29 0 -62.5 -34t-60.5 -87l-28 18q62 123 105 175.5t87 52.5q31 0 124.5 -54.5t115.5 -54.5q29 0 62.5 33t60.5 86l30 -19q-64 -123 -106.5 -175t-85.5 -52zM500 45v-45h-445v45q77 0 104 16t27 74v762q0 59 -26.5 74.5t-104.5 15.5
v45h445v-45q-79 0 -106 -15.5t-27 -74.5v-762q0 -58 27.5 -74t105.5 -16z" />
    <glyph glyph-name="Z.sc" horiz-adv-x="983" 
d="M893 0h-830v6l611 975h-281q-74 0 -118.5 -9t-77.5 -35t-48.5 -70.5t-23.5 -118.5h-33l4 284h799v-6l-604 -973h301q69 0 111 9t80 38t63 83t47 145h35z" />
    <glyph glyph-name="four.sc" horiz-adv-x="995" 
d="M164 438h336v396zM825 45v-45h-471v45q89 0 117.5 14.5t28.5 73.5v238h-449v12l567 664h60v-609h39q97 0 140.5 5t82.5 24h6l-41 -96h-227v-238q0 -59 28.5 -73.5t118.5 -14.5z" />
    <glyph glyph-name="uni013B.sc" horiz-adv-x="948" 
d="M854 0h-799v45q77 0 104 16t27 74v762q0 59 -26.5 74.5t-104.5 15.5v45h445v-45q-80 0 -106.5 -15.5t-26.5 -74.5v-768q0 -43 19.5 -59.5t68.5 -16.5h106q57 0 93 5.5t68 20.5t53.5 46t40 77.5t36.5 119.5h35zM504 -276q-49 -10 -88 17t-39 81q0 42 30.5 69t71.5 27
q46 0 80.5 -34t34.5 -95q0 -78 -65 -143.5t-160 -77.5l-9 33q68 16 106 51.5t38 71.5z" />
    <glyph glyph-name="P.sc" horiz-adv-x="970" 
d="M473 506q111 0 182.5 61.5t71.5 184.5q0 65 -22.5 110.5t-64 70t-92.5 35.5t-116 11h-65v-463q51 -10 106 -10zM535 45v-45h-480v45q77 0 104 16t27 74v762q0 59 -26.5 74.5t-104.5 15.5v45h410q92 0 170 -16t140.5 -49t98 -88.5t35.5 -128.5q0 -92 -59 -161.5
t-149.5 -102.5t-194.5 -33q-64 0 -139 14v-332q0 -57 30 -73.5t138 -16.5z" />
    <glyph glyph-name="C.sc" horiz-adv-x="1017" 
d="M250 578q0 -118 35.5 -217.5t94.5 -164t133.5 -100t154.5 -35.5q82 0 146 26t126 91l27 -31q-57 -74 -154.5 -119.5t-218.5 -45.5q-98 0 -192 36.5t-169 102t-121 167t-46 220.5q0 156 72.5 281.5t194 194.5t267.5 69q60 0 114 -15.5t89 -31t49 -15.5q18 0 26.5 9.5
t16.5 33.5h20l15 -307l-31 -2q-22 132 -97.5 203t-203.5 71q-151 0 -249.5 -117t-98.5 -304z" />
    <glyph glyph-name="K.sc" horiz-adv-x="1116" 
d="M500 45v-45h-445v45q77 0 104 16t27 74v762q0 59 -26.5 74.5t-104.5 15.5v45h445v-45q-79 0 -106 -15.5t-27 -74.5v-762q0 -58 27.5 -74t105.5 -16zM829 0l-444 549q46 8 104 69l283 300q25 28 25 40q0 17 -26.5 23t-80.5 6v45h365v-45q-78 0 -122 -13.5t-83 -55.5
l-295 -308l373 -450q56 -72 88.5 -94.5t81.5 -22.5v-43h-269z" />
    <glyph glyph-name="Oacute.sc" horiz-adv-x="1157" 
d="M494 1124l-19 9l176 354h8q53 -35 154 -57v-7zM66 516q0 145 71.5 269.5t190 196t252.5 71.5t252.5 -71.5t190 -196t71.5 -269.5t-71.5 -269t-190 -195.5t-252.5 -71.5t-252.5 71.5t-190 195.5t-71.5 269zM895 516q0 218 -88 350.5t-227 132.5q-140 0 -229 -133t-89 -350
t89 -350t229 -133q139 0 227 132.5t88 350.5z" />
    <glyph glyph-name="uni0136.sc" horiz-adv-x="1116" 
d="M500 45v-45h-445v45q77 0 104 16t27 74v762q0 59 -26.5 74.5t-104.5 15.5v45h445v-45q-79 0 -106 -15.5t-27 -74.5v-762q0 -58 27.5 -74t105.5 -16zM829 0l-444 549q46 8 104 69l283 300q25 28 25 40q0 17 -26.5 23t-80.5 6v45h365v-45q-78 0 -122 -13.5t-83 -55.5
l-295 -308l373 -450q56 -72 88.5 -94.5t81.5 -22.5v-43h-269zM608 -276q-49 -10 -88 17t-39 81q0 41 31 68.5t72 27.5q46 0 80 -34t34 -95q0 -78 -65 -143.5t-160 -77.5l-8 33q68 16 105.5 51.5t37.5 71.5z" />
    <glyph glyph-name="Emacron.sc" 
d="M737 1194h-487l33 68h487zM731 682v-303h-33q-6 45 -11 64.5t-21.5 36t-44 20.5t-80.5 4h-174v-375q0 -47 22 -61.5t72 -14.5h94q44 0 70.5 1t58 4.5t50 10t40 19t35 30t28 43.5t26 59.5t22.5 78.5h30l-30 -299h-830v45q77 0 104 16t27 74v762q0 59 -26.5 74.5
t-104.5 15.5v45h793l4 -262h-31q-10 73 -26 113.5t-52.5 63t-82.5 28.5t-132 6h-161v-426h174q36 0 58.5 1.5t40 8.5t26.5 13.5t15.5 24t9.5 33t7 46.5h33z" />
    <glyph glyph-name="Gcircumflex.sc" horiz-adv-x="1120" 
d="M676 1470q25 -61 83 -170.5t101 -179.5l-24 -6l-218 225l-217 -225l-24 6q43 70 101 179.5t83 170.5q34 -6 57 -6q24 0 58 6zM971 27q-143 -47 -295 -47q-94 0 -183 22.5t-166 68.5t-135.5 109t-92 150t-33.5 186q0 157 78.5 282t203.5 191t268 66q66 0 122.5 -16t92 -32
t48.5 -16q16 0 25.5 10t17.5 33h24l15 -307l-35 -2q-21 131 -95.5 203.5t-203.5 72.5q-160 0 -261.5 -122.5t-101.5 -339.5q0 -120 36.5 -218.5t96.5 -160.5t133.5 -95.5t151.5 -33.5q60 0 86.5 17t26.5 63v219q0 54 -33.5 70t-114.5 16v45h436v-45q-75 0 -96.5 -14.5
t-21.5 -71.5v-199q0 -67 6 -104z" />
    <glyph glyph-name="Iogonek.sc" horiz-adv-x="552" 
d="M444 -272q-46 -65 -95 -101.5t-111 -36.5q-57 0 -96.5 36.5t-39.5 101.5q0 112 193 272h-240v45q77 0 104 16t27 74v762q0 59 -26.5 74.5t-104.5 15.5v45h445v-45q-79 0 -106 -15.5t-27 -74.5v-762q0 -58 27.5 -74t105.5 -16v-45h-148q-67 -65 -101 -120.5t-34 -117.5
q0 -43 22 -67.5t56 -24.5q35 0 64 18t63 58z" />
    <glyph glyph-name="minus.op" horiz-adv-x="960" 
d="M88 426v57h784v-57h-784z" />
    <glyph glyph-name="notequal.op" horiz-adv-x="970" 
d="M879 303h-480l-166 -205h-69l166 205h-238v55h283l160 197h-443v53h486l161 201h68l-162 -201h234v-53h-277l-160 -197h437v-55z" />
    <glyph glyph-name="W.sc" horiz-adv-x="1585" 
d="M1047 -16l-250 665l-244 -665h-12l-369 917q-21 57 -46 71.5t-97 14.5v45h430v-45q-67 0 -92 -6.5t-25 -28.5q0 -7 14 -51l246 -641l166 465l-68 176q-22 58 -43.5 72t-89.5 14v45h426v-45q-72 0 -99.5 -7t-27.5 -32q0 -4 13 -47l225 -637l213 615q8 24 8 45
q0 38 -33.5 50.5t-101.5 12.5v45h366v-45q-75 0 -111 -22.5t-59 -83.5l-327 -897h-12z" />
    <glyph glyph-name="Oslashacute.sc" horiz-adv-x="1157" 
d="M508 1124l-19 9l177 354h8q54 -35 153 -57v-7zM262 516q0 -216 88 -350l461 694q-42 66 -101.5 102.5t-129.5 36.5q-140 0 -229 -133t-89 -350zM580 33q139 0 227 132.5t88 350.5q0 172 -57 295l-457 -686q83 -92 199 -92zM580 -20q-135 0 -248 69l-72 -106l-49 12
l80 121q-102 74 -163.5 190.5t-61.5 249.5q0 145 71.5 269.5t190 196t252.5 71.5q156 0 294 -101l74 113l51 -12l-88 -131q85 -75 134 -181t49 -225q0 -145 -71.5 -269t-190 -195.5t-252.5 -71.5z" />
    <glyph glyph-name="Thorn.sc" horiz-adv-x="964" 
d="M471 311q113 0 185.5 62.5t72.5 185.5q0 65 -23 111t-66 70.5t-94.5 35t-117.5 10.5h-61v-464q54 -11 104 -11zM535 45v-45h-480v45q77 0 104 16t27 74v762q0 59 -26.5 74.5t-104.5 15.5v45h445v-45q-79 0 -106 -15.5t-27 -74.5v-59h102q91 0 167.5 -15t139 -46t98 -86
t35.5 -128q0 -138 -119.5 -220.5t-283.5 -82.5q-64 0 -139 14v-139q0 -59 32.5 -74.5t135.5 -15.5z" />
    <glyph glyph-name="Ldot.sc" horiz-adv-x="962" 
d="M854 0h-799v45q77 0 104 16t27 74v762q0 59 -26.5 74.5t-104.5 15.5v45h445v-45q-80 0 -106.5 -15.5t-26.5 -74.5v-768q0 -43 19.5 -59.5t68.5 -16.5h106q57 0 93 5.5t68 20.5t53.5 46t40 77.5t36.5 119.5h35zM711 645q0 44 33 76.5t77 32.5q46 0 78.5 -32.5t32.5 -76.5
q0 -45 -32.5 -76.5t-78.5 -31.5q-45 0 -77.5 31.5t-32.5 76.5z" />
    <glyph glyph-name="Uring.sc" horiz-adv-x="1212" 
d="M600 1141q-65 0 -112.5 46.5t-47.5 112.5q0 64 47.5 111t112.5 47q66 0 112 -46.5t46 -111.5q0 -66 -46 -112.5t-112 -46.5zM600 1188q46 0 78.5 33t32.5 79q0 45 -33 78t-78 33q-44 0 -78.5 -33.5t-34.5 -77.5q0 -45 34 -78.5t79 -33.5zM844 0v199q-40 -101 -128.5 -160
t-197.5 -59q-165 0 -255.5 109t-90.5 302v506q0 59 -26.5 74.5t-104.5 15.5v45h444v-45q-78 0 -104.5 -15.5t-26.5 -74.5v-512q0 -154 59.5 -236.5t174.5 -82.5q93 0 162.5 55.5t93.5 161.5v614q0 59 -27 74.5t-104 15.5v45h444v-45q-79 0 -106 -15.5t-27 -74.5v-762
q0 -58 27.5 -74t105.5 -16v-45h-313z" />
    <glyph glyph-name="Abreve.sc" horiz-adv-x="1179" 
d="M590 1137q-100 0 -162.5 93t-62.5 245h32q6 -111 61 -165.5t132 -54.5q76 0 131 54.5t61 165.5h33q0 -152 -62.5 -245t-162.5 -93zM535 846l-144 -379h295zM397 45v-45h-368v45q77 0 111.5 18t56.5 78l350 906h88l373 -912q25 -60 48.5 -75t94.5 -15v-45h-440v45
q71 0 97 7t26 32q0 16 -15 51l-110 275h-340l-101 -267q-8 -21 -8 -39q0 -34 34.5 -46.5t102.5 -12.5z" />
    <glyph glyph-name="G.sc" horiz-adv-x="1120" 
d="M971 27q-143 -47 -295 -47q-94 0 -183 22.5t-166 68.5t-135.5 109t-92 150t-33.5 186q0 157 78.5 282t203.5 191t268 66q66 0 122.5 -16t92 -32t48.5 -16q16 0 25.5 10t17.5 33h24l15 -307l-35 -2q-21 131 -95.5 203.5t-203.5 72.5q-160 0 -261.5 -122.5t-101.5 -339.5
q0 -120 36.5 -218.5t96.5 -160.5t133.5 -95.5t151.5 -33.5q60 0 86.5 17t26.5 63v219q0 54 -33.5 70t-114.5 16v45h436v-45q-75 0 -96.5 -14.5t-21.5 -71.5v-199q0 -67 6 -104z" />
    <glyph glyph-name="I.sc" horiz-adv-x="552" 
d="M500 45v-45h-445v45q77 0 104 16t27 74v762q0 59 -26.5 74.5t-104.5 15.5v45h445v-45q-79 0 -106 -15.5t-27 -74.5v-762q0 -58 27.5 -74t105.5 -16z" />
    <glyph glyph-name="Ucircumflex.sc" horiz-adv-x="1212" 
d="M655 1470q25 -60 83 -169t102 -181l-25 -6l-217 225l-217 -225l-25 6q44 72 102 181t83 169q34 -6 57 -6q22 0 57 6zM844 0v199q-40 -101 -128.5 -160t-197.5 -59q-165 0 -255.5 109t-90.5 302v506q0 59 -26.5 74.5t-104.5 15.5v45h444v-45q-78 0 -104.5 -15.5
t-26.5 -74.5v-512q0 -154 59.5 -236.5t174.5 -82.5q93 0 162.5 55.5t93.5 161.5v614q0 59 -27 74.5t-104 15.5v45h444v-45q-79 0 -106 -15.5t-27 -74.5v-762q0 -58 27.5 -74t105.5 -16v-45h-313z" />
    <glyph glyph-name="Lslash.sc" horiz-adv-x="956" 
d="M862 0h-799v45q78 0 105 16t27 74v287l-111 -45v53l111 45v422q0 59 -27 74.5t-105 15.5v45h445v-45q-80 0 -106.5 -15.5t-26.5 -74.5v-356l246 100v-53l-246 -103v-356q0 -43 19.5 -59.5t68.5 -16.5h106q57 0 93 5.5t68 20.5t53.5 46t40 77.5t36.5 119.5h35z" />
    </font>
</defs>
</svg>
