<?xml version="1.0" standalone="no"?>
<!DOCTYPE svg PUBLIC "-//W3C//DTD SVG 1.1//EN" "http://www.w3.org/Graphics/SVG/1.1/DTD/svg11.dtd" >
<svg xmlns="http://www.w3.org/2000/svg" xmlns:xlink="http://www.w3.org/1999/xlink" version="1.1">
<metadata>
Created by FontForge 20170731 at Sun Nov 27 06:51:42 2022
 By Aleksey,,,
Copyright 2017 Dinamo (Johannes Breyer, Fabian Harb)
</metadata>
<defs>
<font id="GintoNormal-RegularIta" horiz-adv-x="1269" >
  <font-face 
    font-family="Ginto Normal"
    font-weight="400"
    font-style="italic"
    font-stretch="normal"
    units-per-em="2048"
    panose-1="2 0 0 5 3 0 0 2 0 4"
    ascent="1616"
    descent="-432"
    x-height="1024"
    cap-height="1434"
    bbox="-1552 -489 4622 2212"
    underline-thickness="102"
    underline-position="-307"
    slope="-12"
    unicode-range="U+000D-FB02"
  />
<missing-glyph horiz-adv-x="1318" 
d="M76 0l305 1434h950l-305 -1434h-950zM279 164h614l235 1106h-614z" />
    <glyph glyph-name="fi" unicode="fi" horiz-adv-x="1259" 
d="M825 1024l-32 -160h-316l-182 -864h-189l183 864h-176l32 160h179l28 137q36 166 135 250t244 84q122 0 209 -61l-33 -154q-61 49 -159 49q-172 0 -209 -178l-27 -127h313zM1190 1454q49 0 78.5 -28.5t29.5 -75.5q0 -59 -38.5 -98.5t-98.5 -39.5q-50 0 -79 29t-29 76
q0 59 39.5 98t97.5 39zM799 0l217 1024h188l-217 -1024h-188z" />
    <glyph glyph-name="fl" unicode="fl" horiz-adv-x="1259" 
d="M825 1024l-32 -160h-316l-182 -864h-189l183 864h-176l32 160h179l28 137q36 166 135 250t244 84q122 0 209 -61l-33 -154q-61 49 -159 49q-172 0 -209 -178l-27 -127h313zM1112 1475h188l-313 -1475h-188z" />
    <glyph glyph-name="f_f" unicode="ff" horiz-adv-x="1402" 
d="M1407 1329q-172 0 -209 -178l-27 -127h314l-33 -160h-315l-183 -864h-188l182 864h-471l-182 -864h-189l183 864h-176l32 160h179l28 137q36 166 135 250t244 84q122 0 209 -61l-33 -154q-61 49 -159 49q-172 0 -209 -178l-27 -127h471l29 137q36 166 135 250t244 84
q121 0 208 -61l-32 -154q-61 49 -160 49z" />
    <glyph glyph-name="f_f_i" unicode="ffi" horiz-adv-x="1918" 
d="M1485 1024l-33 -160h-315l-183 -864h-188l182 864h-471l-182 -864h-189l183 864h-176l32 160h179l28 137q36 166 135 250t244 84q122 0 209 -61l-33 -154q-61 49 -159 49q-172 0 -209 -178l-27 -127h471l29 137q36 166 135 250t244 84q121 0 208 -61l-32 -154
q-61 49 -160 49q-172 0 -209 -178l-27 -127h314zM1849 1454q50 0 79.5 -28.5t29.5 -75.5q0 -59 -38.5 -98.5t-98.5 -39.5q-50 0 -79.5 29t-29.5 76q0 59 39 98t98 39zM1458 0l217 1024h189l-217 -1024h-189z" />
    <glyph glyph-name="f_f_l" unicode="ffl" horiz-adv-x="1918" 
d="M1485 1024l-33 -160h-315l-183 -864h-188l182 864h-471l-182 -864h-189l183 864h-176l32 160h179l28 137q36 166 135 250t244 84q122 0 209 -61l-33 -154q-61 49 -159 49q-172 0 -209 -178l-27 -127h471l29 137q36 166 135 250t244 84q121 0 208 -61l-32 -154
q-61 49 -160 49q-172 0 -209 -178l-27 -127h314zM1772 1475h188l-313 -1475h-189z" />
    <glyph glyph-name=".notdef" horiz-adv-x="1318" 
d="M76 0l305 1434h950l-305 -1434h-950zM279 164h614l235 1106h-614z" />
    <glyph glyph-name=".null" horiz-adv-x="1228" 
 />
    <glyph glyph-name="nonmarkingreturn" horiz-adv-x="682" 
 />
    <glyph glyph-name="CR" unicode="&#xd;" horiz-adv-x="1228" 
 />
    <glyph glyph-name="space" unicode=" " horiz-adv-x="532" 
 />
    <glyph glyph-name="exclam" unicode="!" horiz-adv-x="563" 
d="M164 410l219 1024h188l-219 -1024h-188zM186 -31q-56 0 -91.5 35.5t-35.5 93.5q0 63 42.5 107.5t105.5 44.5q57 0 93 -35.5t36 -93.5q0 -64 -42.5 -108t-107.5 -44z" />
    <glyph glyph-name="quotedbl" unicode="&#x22;" horiz-adv-x="802" 
d="M233 1004l109 512h168l-109 -512h-168zM606 1004l109 512h168l-109 -512h-168z" />
    <glyph glyph-name="numbersign" unicode="#" horiz-adv-x="1372" 
d="M123 0l178 444h-227l22 144h262l129 325h-258l23 142h293l151 379h170l-151 -379h297l151 379h170l-151 -379h237l-53 -142h-242l-129 -325h252l-53 -144h-256l-178 -444h-170l178 444h-297l-178 -444h-170zM528 588h297l129 325h-297z" />
    <glyph glyph-name="dollar" unicode="$" horiz-adv-x="1069" 
d="M819 1370q145 -38 254 -139l-45 -195q-76 80 -173 126t-193 46q-118 0 -183 -46.5t-65 -129.5q0 -72 40.5 -118t131.5 -103l143 -84q120 -70 176 -156.5t56 -197.5q0 -164 -122 -284.5t-319 -129.5l-43 -203h-172l45 219q-207 44 -325 199l49 201q75 -110 178.5 -170
t226.5 -60q129 0 202 58.5t73 156.5q0 70 -36 118.5t-126 107.5l-154 94q-111 67 -168 150.5t-57 193.5q0 114 60 198t158 126t222 45l45 215h172z" />
    <glyph glyph-name="percent" unicode="%" horiz-adv-x="1804" 
d="M459 580q-126 0 -205.5 94t-79.5 250q0 144 48 260.5t133 183t190 66.5q131 0 208.5 -91t77.5 -245q0 -221 -107 -369.5t-265 -148.5zM358 0l940 1362h172l-938 -1362h-174zM479 717q58 0 102.5 53.5t66.5 133.5t22 169q0 223 -144 223q-59 0 -104.5 -55t-66.5 -134
t-21 -163q0 -227 145 -227zM1321 -18q-126 0 -205.5 94t-79.5 250q0 221 109 365.5t282 144.5q131 0 209 -91t78 -245q0 -223 -110.5 -370.5t-282.5 -147.5zM1341 119q99 0 155 107t56 249q0 223 -143 223q-69 0 -119.5 -55.5t-72 -133t-21.5 -163.5q0 -227 145 -227z" />
    <glyph glyph-name="ampersand" unicode="&#x26;" horiz-adv-x="1560" 
d="M1595 858l-34 -164h-261l-147 -694h-186l61 287q-81 -153 -214 -235.5t-296 -82.5q-198 0 -315 109t-117 270q0 162 102.5 275t262.5 137q-83 33 -137 115t-54 180q0 132 76.5 228.5t201.5 144t281 47.5q185 0 344 -95l-41 -196q-134 114 -336 114q-147 0 -237 -69.5
t-90 -179.5q0 -80 62.5 -135.5t185.5 -55.5h442l51 244l201 61l-66 -305h260zM582 152q185 0 326.5 131t205.5 411h-465q-159 0 -257.5 -81.5t-98.5 -219.5q0 -103 76.5 -172t212.5 -69z" />
    <glyph glyph-name="quotesingle" unicode="'" horiz-adv-x="430" 
d="M233 1004l109 512h168l-109 -512h-168z" />
    <glyph glyph-name="parenleft" unicode="(" horiz-adv-x="692" 
d="M336 -246q-92 115 -156.5 316t-64.5 430q0 223 79 436t209.5 384.5t309.5 319.5h225q-283 -201 -461 -509t-178 -631q0 -228 63 -421t175 -325h-201z" />
    <glyph glyph-name="parenright" unicode=")" horiz-adv-x="692" 
d="M436 1640q92 -115 156.5 -315.5t64.5 -429.5q0 -223 -79 -436.5t-209.5 -385t-309.5 -319.5h-225q283 201 461 509.5t178 631.5q0 228 -63 420.5t-174 324.5h200z" />
    <glyph glyph-name="asterisk" unicode="*" horiz-adv-x="821" 
d="M895 1296l-27 -129l-239 25l100 -193l-129 -69l-57 205l-142 -205l-116 69l180 193l-238 -25l27 129l233 -22l-98 190l127 70l59 -203l140 203l119 -70l-181 -190z" />
    <glyph glyph-name="plus" unicode="+" 
d="M1143 729l-35 -162h-379l-82 -383h-162l82 383h-381l35 162h379l80 375h162l-80 -375h381z" />
    <glyph glyph-name="comma" unicode="," horiz-adv-x="524" 
d="M-98 -307l217 553h243l-311 -553h-149z" />
    <glyph glyph-name="hyphen" unicode="-" horiz-adv-x="942" 
d="M154 594l39 184h665l-39 -184h-665z" />
    <glyph glyph-name="period" unicode="." horiz-adv-x="528" 
d="M168 -31q-56 0 -91.5 35.5t-35.5 93.5q0 64 42 108t105 44q58 0 93.5 -35t35.5 -94q0 -64 -41.5 -108t-107.5 -44z" />
    <glyph glyph-name="slash" unicode="/" horiz-adv-x="921" 
d="M-90 -246l995 1884h185l-996 -1884h-184z" />
    <glyph glyph-name="zero" unicode="0" horiz-adv-x="1255" 
d="M573 -31q-190 0 -311 151.5t-121 389.5q0 256 76.5 457t216.5 313.5t320 112.5q196 0 316 -146.5t120 -378.5q0 -260 -78.5 -465t-219.5 -319.5t-319 -114.5zM594 150q93 0 169.5 58t125 155t74.5 220t26 257q0 175 -63.5 273.5t-194.5 98.5q-95 0 -171 -59t-123 -157.5
t-72 -218.5t-25 -249q0 -181 64 -279.5t190 -98.5z" />
    <glyph glyph-name="one" unicode="1" horiz-adv-x="788" 
d="M596 1362h172l-289 -1362h-188l241 1137l-401 -244l45 209z" />
    <glyph glyph-name="two" unicode="2" horiz-adv-x="1050" 
d="M680 489l-389 -311h596l-37 -178h-844l35 178l479 393q63 52 99 83.5t81 77.5t68.5 83t40 84.5t16.5 97.5q0 95 -63 154t-180 59q-100 0 -193 -48.5t-168 -127.5l47 219q150 140 363 140q180 0 287.5 -103t107.5 -262q0 -84 -25 -158.5t-75.5 -141t-107 -120.5
t-138.5 -119z" />
    <glyph glyph-name="three" unicode="3" horiz-adv-x="1085" 
d="M750 721q101 -28 150.5 -110t49.5 -193q0 -202 -149.5 -325.5t-382.5 -123.5q-113 0 -215 31.5t-170 93.5l37 187q42 -57 130.5 -95.5t209.5 -38.5q159 0 253.5 70.5t94.5 194.5q0 98 -65.5 156.5t-203.5 58.5h-245l39 159h252q141 0 225 65t84 175q0 90 -61 139t-185 49
q-116 0 -208.5 -37.5t-149.5 -86.5l43 198q175 105 362 105t289 -90.5t102 -243.5q0 -136 -78.5 -226.5t-207.5 -111.5z" />
    <glyph glyph-name="four" unicode="4" horiz-adv-x="1193" 
d="M1135 510l-35 -162h-228l-73 -348h-185l74 348h-665l45 211l735 803h284l-180 -852h228zM244 510h479l143 678z" />
    <glyph glyph-name="five" unicode="5" horiz-adv-x="1126" 
d="M1090 1184h-621l-74 -346q93 41 211 41q104 0 184.5 -31t130 -85t74.5 -124.5t25 -153.5q0 -220 -159 -368t-400 -148q-119 0 -232.5 36.5t-173.5 98.5l39 183q52 -64 147.5 -99.5t200.5 -35.5q166 0 268.5 88.5t102.5 230.5q0 115 -74.5 182.5t-222.5 67.5
q-63 0 -129.5 -14t-110 -30t-102.5 -42l154 727h798z" />
    <glyph glyph-name="six" unicode="6" horiz-adv-x="1198" 
d="M834 1393q222 0 352 -111l-45 -192q-44 52 -126.5 87t-191.5 35q-179 0 -303 -130t-170 -363q122 190 346 190q167 0 282.5 -117.5t115.5 -289.5q0 -233 -151 -383t-386 -150q-196 0 -314 124.5t-118 350.5q0 197 53 377q36 124 95.5 227t141 181t189 121t230.5 43z
M627 750q-145 0 -232.5 -96.5t-87.5 -237.5q0 -120 75.5 -198.5t195.5 -78.5q94 0 167.5 48t110.5 123t37 161q0 126 -72.5 202.5t-193.5 76.5z" />
    <glyph glyph-name="seven" unicode="7" horiz-adv-x="1005" 
d="M238 1362h901l-37 -172l-844 -1190h-231l870 1192h-694z" />
    <glyph glyph-name="eight" unicode="8" horiz-adv-x="1169" 
d="M1137 1044q0 -126 -80 -211t-215 -124q88 -44 136 -122.5t48 -178.5q0 -132 -68 -233t-183.5 -153.5t-260.5 -52.5q-192 0 -312 103.5t-120 259.5q0 150 90 253t242 146q-78 40 -121 107.5t-43 152.5q0 179 142.5 290.5t352.5 111.5q174 0 283 -102t109 -247zM662 778
q117 0 196.5 74.5t79.5 179.5q0 86 -61.5 137.5t-163.5 51.5q-125 0 -199 -66.5t-74 -171.5q0 -89 60 -147t162 -58zM526 141q133 0 220.5 81t87.5 198q0 98 -64.5 160.5t-177.5 62.5q-139 0 -225 -84.5t-86 -200.5q0 -97 66.5 -157t178.5 -60z" />
    <glyph glyph-name="nine" unicode="9" horiz-adv-x="1187" 
d="M692 1393q202 0 319 -133.5t117 -395.5q0 -172 -47 -327q-33 -116 -87.5 -215.5t-131.5 -180t-184 -126.5t-232 -46q-229 0 -350 146l41 178q44 -65 125 -104t184 -39q190 0 306.5 137t160.5 389q-119 -203 -338 -203q-171 0 -284 117t-113 301q0 137 64.5 251.5
t183 182.5t266.5 68zM635 633q135 0 223 88.5t88 220.5q0 120 -73 200.5t-195 80.5q-133 0 -216 -95t-83 -229q0 -114 65.5 -190t190.5 -76z" />
    <glyph glyph-name="colon" unicode=":" horiz-adv-x="557" 
d="M342 707q-56 0 -91.5 35.5t-35.5 93.5q0 63 42 107t105 44q59 0 94.5 -35.5t35.5 -93.5q0 -64 -42 -107.5t-108 -43.5zM178 -31q-56 0 -91.5 35.5t-35.5 93.5q0 63 42.5 107.5t105.5 44.5q59 0 94 -35t35 -94q0 -64 -42 -108t-108 -44z" />
    <glyph glyph-name="semicolon" unicode=";" horiz-adv-x="579" 
d="M356 707q-56 0 -91.5 35.5t-35.5 93.5q0 63 42.5 107t105.5 44q59 0 94 -35.5t35 -93.5q0 -64 -42 -107.5t-108 -43.5zM-86 -307l217 553h244l-312 -553h-149z" />
    <glyph glyph-name="less" unicode="&#x3c;" 
d="M1212 1188l-47 -189l-798 -315l665 -311l-31 -176l-819 397l43 197z" />
    <glyph glyph-name="equal" unicode="=" 
d="M223 752l35 161h922l-35 -161h-922zM145 383l35 162h922l-35 -162h-922z" />
    <glyph glyph-name="greater" unicode="&#x3e;" 
d="M348 1188l817 -397l-41 -197l-987 -397l45 194l797 311l-664 316z" />
    <glyph glyph-name="question" unicode="?" horiz-adv-x="995" 
d="M612 1464q194 0 308 -114t114 -281q0 -147 -74.5 -257.5t-201.5 -167t-289 -56.5h-6l-37 -178h-188l71 329h115q190 0 303 79t113 231q0 104 -69.5 171.5t-192.5 67.5q-85 0 -163.5 -25t-117.5 -49t-84 -59l41 195q147 114 358 114zM283 250q57 0 93 -35.5t36 -93.5
q0 -64 -42.5 -108t-107.5 -44q-56 0 -91.5 35.5t-35.5 93.5q0 63 42.5 107.5t105.5 44.5z" />
    <glyph glyph-name="at" unicode="@" horiz-adv-x="1603" 
d="M1008 1393q258 0 408.5 -122t150.5 -325q0 -58 -17 -145l-112 -529h-187l27 138q-57 -79 -145.5 -123.5t-188.5 -44.5q-153 0 -242.5 90.5t-89.5 228.5q0 170 123.5 279.5t306.5 109.5q122 0 205 -53t113 -133l4 20q12 64 12 117q0 152 -110.5 232.5t-288.5 80.5
q-194 0 -347.5 -94t-238 -257.5t-84.5 -364.5q0 -119 41 -223t113.5 -178.5t174.5 -117t220 -42.5q150 0 293 52.5t258 137.5l-45 -213q-255 -160 -528 -160q-161 0 -299 59.5t-230 160.5t-144 234t-52 279q0 261 113.5 467.5t319 322.5t466.5 116zM1036 391q128 0 205.5 65
t77.5 169q0 85 -60.5 136.5t-164.5 51.5q-130 0 -209.5 -65t-79.5 -168q0 -90 61 -139.5t170 -49.5z" />
    <glyph glyph-name="A" unicode="A" horiz-adv-x="1341" 
d="M981 0l-45 381h-576l-204 -381h-213l788 1434h268l185 -1434h-203zM449 545h466l-84 710z" />
    <glyph glyph-name="B" unicode="B" horiz-adv-x="1312" 
d="M983 770q93 -35 146 -123t53 -207q0 -202 -145.5 -321t-385.5 -119h-557l303 1434h488q172 0 263 -93t91 -241q0 -129 -65.5 -213.5t-190.5 -116.5zM825 1257h-266l-94 -440h317q124 0 190 68.5t66 179.5q0 90 -53.5 141t-159.5 51zM666 178q143 0 227 78t84 199
q0 97 -56 152t-163 55h-326l-102 -484h336z" />
    <glyph glyph-name="C" unicode="C" horiz-adv-x="1372" 
d="M805 -41q-152 0 -277.5 50.5t-209.5 139.5t-129.5 212t-45.5 268q0 178 59 333t166.5 269t267 179t351.5 65q138 0 248.5 -41.5t185.5 -106.5l-41 -199q-72 69 -177 112.5t-236 43.5q-147 0 -266 -52t-195 -141.5t-117 -204.5t-41 -245q0 -220 133.5 -354.5t356.5 -134.5
q232 0 424 122l-45 -208q-187 -107 -412 -107z" />
    <glyph glyph-name="D" unicode="D" horiz-adv-x="1474" 
d="M94 0l303 1434h467q260 0 408.5 -157t148.5 -427q0 -257 -105 -449.5t-302 -296.5t-463 -104h-457zM332 182h268q143 0 260 50t194 137.5t118.5 205.5t41.5 254q0 203 -95.5 312.5t-293.5 109.5h-268z" />
    <glyph glyph-name="E" unicode="E" horiz-adv-x="1208" 
d="M1243 1253h-686l-86 -409h643l-37 -176h-643l-102 -488h692l-37 -180h-893l303 1434h883z" />
    <glyph glyph-name="F" unicode="F" horiz-adv-x="1161" 
d="M1243 1253h-686l-86 -409h643l-37 -176h-643l-141 -668h-199l303 1434h883z" />
    <glyph glyph-name="G" unicode="G" horiz-adv-x="1597" 
d="M647 786h903l-32 -174q-31 -170 -98.5 -297t-162 -204t-207.5 -114.5t-245 -37.5q-148 0 -272.5 50.5t-209.5 139t-132.5 212.5t-47.5 268q0 178 59 333t166.5 269t267 179t351.5 65q284 0 502 -187l-39 -192q-82 82 -203.5 135t-271.5 53t-270.5 -50t-197.5 -138
t-118 -204t-41 -251q0 -223 127.5 -359.5t341.5 -136.5q197 0 332 118.5t180 346.5h-723z" />
    <glyph glyph-name="H" unicode="H" horiz-adv-x="1529" 
d="M1325 1434h199l-303 -1434h-199l135 641h-729l-135 -641h-199l303 1434h199l-129 -611h729z" />
    <glyph glyph-name="I" unicode="I" horiz-adv-x="602" 
d="M92 0l305 1434h199l-305 -1434h-199z" />
    <glyph glyph-name="J" unicode="J" horiz-adv-x="903" 
d="M211 -41q-84 0 -160 28.5t-108 67.5l41 187q29 -26 52 -42.5t72 -33t107 -16.5q105 0 180 67.5t105 204.5l215 1012h198l-227 -1059q-91 -416 -475 -416z" />
    <glyph glyph-name="K" unicode="K" horiz-adv-x="1284" 
d="M1448 1434l-782 -666l514 -768h-244l-485 745l-158 -745h-199l303 1434h199l-131 -617l696 617h287z" />
    <glyph glyph-name="L" unicode="L" horiz-adv-x="1079" 
d="M332 188h653l-39 -188h-852l303 1434h199z" />
    <glyph glyph-name="M" unicode="M" horiz-adv-x="1900" 
d="M1522 1434h313l-195 -1434h-202l186 1270l-678 -1270h-235l-129 1276l-342 -1276h-191l393 1434h310l120 -1211z" />
    <glyph glyph-name="N" unicode="N" horiz-adv-x="1572" 
d="M1378 1434h189l-303 -1434h-250l-465 1249l-266 -1249h-189l303 1434h279l446 -1207z" />
    <glyph glyph-name="O" unicode="O" horiz-adv-x="1652" 
d="M797 -41q-197 0 -347 89t-228.5 239t-78.5 336q0 236 101.5 430t288.5 308t423 114q147 0 268.5 -51.5t202.5 -141.5t125.5 -211.5t44.5 -261.5q0 -234 -103.5 -428.5t-287.5 -308t-409 -113.5zM821 150q105 0 197 36.5t159.5 99t116 145.5t73 178t24.5 194
q0 218 -128.5 349.5t-334.5 131.5q-138 0 -250 -55.5t-182.5 -149t-108 -209.5t-37.5 -243q0 -214 131.5 -345.5t339.5 -131.5z" />
    <glyph glyph-name="P" unicode="P" horiz-adv-x="1222" 
d="M850 1434q191 0 299 -106.5t108 -293.5q0 -240 -158.5 -377t-439.5 -137h-256l-110 -520h-199l303 1434h453zM694 692q170 0 263.5 91t93.5 237q0 233 -248 233h-244l-119 -561h254z" />
    <glyph glyph-name="Q" unicode="Q" horiz-adv-x="1652" 
d="M1597 809q0 -217 -90.5 -401.5t-249.5 -301.5l146 -210h-217l-84 122q-142 -59 -305 -59q-197 0 -347 89t-228.5 239t-78.5 336q0 236 101.5 430t288.5 308t423 114q147 0 268.5 -51.5t202.5 -141.5t125.5 -211.5t44.5 -261.5zM821 150q86 0 172 26l-241 354h213
l186 -268q114 91 177 236t63 305q0 218 -128.5 349.5t-334.5 131.5q-138 0 -250 -55.5t-182.5 -149t-108 -209.5t-37.5 -243q0 -214 131.5 -345.5t339.5 -131.5z" />
    <glyph glyph-name="R" unicode="R" horiz-adv-x="1275" 
d="M1288 1051q0 -133 -65 -233.5t-173.5 -151t-242.5 -50.5h-119l424 -616h-235l-441 678l-143 -678h-199l303 1434h502q183 0 286 -106.5t103 -276.5zM457 770h321q140 0 221.5 73.5t81.5 198.5q0 101 -56 156t-163 55h-303z" />
    <glyph glyph-name="S" unicode="S" horiz-adv-x="1140" 
d="M532 -41q-137 0 -269 56t-220 171l49 203q166 -242 428 -242q141 0 221 64.5t80 171.5q0 74 -40 124t-142 114l-162 100q-117 72 -176 160t-59 204q0 122 64.5 212t171 134t239.5 44q115 0 231.5 -47t196.5 -125l-45 -197q-80 85 -183.5 133.5t-205.5 48.5
q-127 0 -198 -51.5t-71 -142.5q0 -77 44 -125.5t145 -108.5l151 -90q126 -75 186 -165.5t60 -207.5q0 -87 -35.5 -166.5t-98.5 -140t-157 -96t-205 -35.5z" />
    <glyph glyph-name="T" unicode="T" horiz-adv-x="1105" 
d="M1274 1434l-39 -183h-432l-264 -1251h-199l264 1251h-418l39 183h1049z" />
    <glyph glyph-name="U" unicode="U" horiz-adv-x="1470" 
d="M655 -41q-215 0 -345 125.5t-130 341.5q0 80 17 158l180 850h198l-188 -877q-14 -75 -14 -119q0 -141 82 -214.5t221 -73.5q161 0 267.5 90.5t143.5 273.5l197 920h199l-197 -926q-58 -272 -221 -410.5t-410 -138.5z" />
    <glyph glyph-name="V" unicode="V" horiz-adv-x="1349" 
d="M1276 1434h221l-817 -1434h-225l-211 1434h202l162 -1201z" />
    <glyph glyph-name="W" unicode="W" horiz-adv-x="2009" 
d="M1929 1434h219l-684 -1434h-250l-61 1251l-580 -1251h-251l-62 1434h205l27 -1192l557 1192h268l63 -1196z" />
    <glyph glyph-name="X" unicode="X" horiz-adv-x="1236" 
d="M1393 1434l-611 -691l322 -743h-227l-238 588l-467 -588h-252l631 768l-307 666h221l229 -527l451 527h248z" />
    <glyph glyph-name="Y" unicode="Y" horiz-adv-x="1318" 
d="M1229 1434h233l-700 -897l-113 -537h-198l112 537l-307 897h205l233 -703z" />
    <glyph glyph-name="Z" unicode="Z" horiz-adv-x="1202" 
d="M1294 1434l-37 -181l-1009 -1069h803l-39 -184h-1035l41 197l990 1058h-748l37 179h997z" />
    <glyph glyph-name="bracketleft" unicode="[" horiz-adv-x="722" 
d="M23 -246l401 1884h487l-32 -157h-308l-333 -1569h307l-35 -158h-487z" />
    <glyph glyph-name="backslash" unicode="\" horiz-adv-x="1646" 
d="M1452 -246h-184l-996 1884h185z" />
    <glyph glyph-name="bracketright" unicode="]" horiz-adv-x="724" 
d="M780 1638l-401 -1884h-488l33 158h307l334 1569h-307l35 157h487z" />
    <glyph glyph-name="asciicircum" unicode="^" 
d="M1114 614h-188l-140 574l-380 -574h-193l500 748h217z" />
    <glyph glyph-name="underscore" unicode="_" horiz-adv-x="1200" 
d="M-14 -143l30 143h963l-31 -143h-962z" />
    <glyph glyph-name="grave" unicode="`" horiz-adv-x="548" 
d="M623 1147h-158l-268 287h194z" />
    <glyph glyph-name="a" unicode="a" horiz-adv-x="1077" 
d="M561 1055q192 0 297 -87t105 -255q0 -64 -19 -148l-121 -565h-186l25 109q-55 -65 -134.5 -102.5t-167.5 -37.5q-141 0 -223 86t-82 217q0 161 114 265t284 104q107 0 181 -43.5t107 -112.5l23 101q10 52 10 86q0 101 -63.5 157t-180.5 56q-181 0 -348 -144l41 201
q154 113 338 113zM446 121q117 0 189 59t72 152q0 76 -56 123t-151 47q-114 0 -183 -58.5t-69 -154.5q0 -80 52 -124t146 -44z" />
    <glyph glyph-name="b" unicode="b" horiz-adv-x="1222" 
d="M748 1055q119 0 208.5 -62.5t135 -167.5t45.5 -237q0 -164 -65.5 -305.5t-184.5 -227.5t-264 -86q-261 0 -336 258l-49 -227h-189l313 1475h189l-131 -611q133 191 328 191zM600 139q105 0 185.5 62.5t120.5 158.5t40 207q0 151 -72 233.5t-188 82.5q-106 0 -187.5 -67
t-122 -167.5t-40.5 -212.5q0 -145 69.5 -221t194.5 -76z" />
    <glyph glyph-name="c" unicode="c" horiz-adv-x="1015" 
d="M563 -31q-209 0 -342 136.5t-133 353.5q0 165 70 300t203 215.5t305 80.5q195 0 340 -109l-39 -178q-58 58 -138 87.5t-167 29.5q-181 0 -281 -118t-100 -296q0 -154 88 -243t229 -89q134 0 293 88l-39 -182q-56 -26 -89 -39t-87.5 -25t-112.5 -12z" />
    <glyph glyph-name="d" unicode="d" horiz-adv-x="1222" 
d="M1081 1475h189l-314 -1475h-188l33 158q-60 -89 -138 -139t-188 -50q-119 0 -208.5 62.5t-135 167.5t-45.5 237q0 164 65.5 305.5t184.5 227.5t264 86q260 0 338 -256zM537 141q106 0 187.5 67t122 167.5t40.5 212.5q0 145 -69.5 221t-194.5 76q-105 0 -186 -62.5
t-121 -158.5t-40 -207q0 -151 72.5 -233.5t188.5 -82.5z" />
    <glyph glyph-name="e" unicode="e" horiz-adv-x="1101" 
d="M637 1055q186 0 290.5 -110t104.5 -288q0 -61 -12 -125l-10 -53h-727v-8q0 -158 83.5 -245t237.5 -87q86 0 164.5 26t171.5 77l-39 -183q-62 -30 -101 -46t-101 -30t-128 -14q-224 0 -352.5 135t-128.5 355q0 124 38.5 232.5t108 189t173 127.5t227.5 47zM618 885
q-128 0 -209 -72.5t-110 -194.5h553q2 12 2 37q0 106 -63.5 168t-172.5 62z" />
    <glyph glyph-name="f" unicode="f" horiz-adv-x="743" 
d="M748 1329q-172 0 -209 -178l-27 -127h313l-32 -160h-316l-182 -864h-189l183 864h-176l32 160h179l28 137q36 166 135 250t244 84q122 0 209 -61l-33 -154q-61 49 -159 49z" />
    <glyph glyph-name="g" unicode="g" horiz-adv-x="1218" 
d="M983 1024h188l-200 -932q-56 -260 -209.5 -386t-370.5 -126q-114 0 -215.5 42.5t-161.5 107.5l39 186q73 -81 154.5 -124.5t185.5 -43.5q159 0 260.5 101t139.5 278l20 92q-129 -190 -330 -190q-178 0 -284.5 125.5t-106.5 318.5q0 153 66.5 286t185.5 214.5t262 81.5
q250 0 330 -256zM547 197q101 0 179.5 58t118.5 148.5t40 194.5q0 135 -69 211t-189 76q-79 0 -145 -33.5t-109 -89t-66.5 -126.5t-23.5 -147q0 -139 73 -215.5t191 -76.5z" />
    <glyph glyph-name="h" unicode="h" horiz-adv-x="1187" 
d="M760 1055q147 0 230 -85.5t83 -242.5q0 -59 -12 -127l-127 -600h-189l127 600q13 63 13 105q0 184 -203 184q-121 0 -201.5 -79t-118.5 -224l-124 -586h-189l313 1475h189l-129 -611q63 96 144.5 143.5t193.5 47.5z" />
    <glyph glyph-name="i" unicode="i" horiz-adv-x="516" 
d="M418 1212q-50 0 -79.5 29t-29.5 76q0 59 39.5 98t97.5 39q50 0 79.5 -28.5t29.5 -75.5q0 -59 -38.5 -98.5t-98.5 -39.5zM55 0l217 1024h189l-217 -1024h-189z" />
    <glyph glyph-name="j" unicode="j" horiz-adv-x="528" 
d="M428 1212q-50 0 -79.5 29t-29.5 76q0 58 39.5 97.5t98.5 39.5q49 0 78.5 -28.5t29.5 -75.5q0 -59 -38.5 -98.5t-98.5 -39.5zM-102 -420q-105 0 -172 55l32 158q61 -45 136 -45q59 0 98 39.5t59 130.5l232 1106h188l-242 -1151q-29 -140 -117 -216.5t-214 -76.5z" />
    <glyph glyph-name="k" unicode="k" horiz-adv-x="1026" 
d="M1106 1024l-571 -457l385 -567h-232l-336 541l-114 -541h-189l313 1475h189l-180 -852l463 401h272z" />
    <glyph glyph-name="l" unicode="l" horiz-adv-x="516" 
d="M55 0l314 1475h188l-313 -1475h-189z" />
    <glyph glyph-name="m" unicode="m" horiz-adv-x="1691" 
d="M1309 1055q127 0 202.5 -80t75.5 -217q0 -61 -14 -121l-135 -637h-189l137 643q9 43 9 78q0 83 -46 125.5t-126 42.5q-84 0 -147 -52t-91 -139q-4 -26 -8 -41l-139 -657h-187l142 662q6 35 6 61q0 80 -48 123t-130 43q-78 0 -140.5 -55.5t-95.5 -149.5l-145 -684h-189
l217 1024h189l-33 -152q117 183 303 183q94 0 161.5 -53.5t90.5 -147.5q122 201 330 201z" />
    <glyph glyph-name="n" unicode="n" horiz-adv-x="1189" 
d="M762 1055q147 0 230 -85.5t83 -242.5q0 -59 -12 -127l-127 -600h-188l126 600q13 63 13 105q0 184 -203 184q-128 0 -211 -87.5t-117 -248.5l-116 -553h-189l217 1024h189l-35 -160q127 191 340 191z" />
    <glyph glyph-name="o" unicode="o" horiz-adv-x="1163" 
d="M530 -41q-197 0 -320.5 133.5t-123.5 343.5q0 174 70 315.5t195 222.5t280 81q198 0 322 -129t124 -346q0 -173 -69.5 -315t-195 -224t-282.5 -82zM545 133q151 0 245.5 122t94.5 308q0 150 -74.5 235t-198.5 85q-150 0 -241.5 -120.5t-91.5 -309.5q0 -150 72 -235
t194 -85z" />
    <glyph glyph-name="p" unicode="p" horiz-adv-x="1224" 
d="M750 1055q119 0 208.5 -62.5t135 -167.5t45.5 -237q0 -164 -65.5 -305.5t-184.5 -227.5t-264 -86q-260 0 -336 258l-133 -616h-187l299 1413h189l-35 -160q133 191 328 191zM602 139q105 0 185.5 62.5t120.5 158.5t40 207q0 151 -72 233.5t-188 82.5q-106 0 -187.5 -67
t-122 -167.5t-40.5 -212.5q0 -145 69.5 -221t194.5 -76z" />
    <glyph glyph-name="q" unicode="q" horiz-adv-x="1222" 
d="M985 1024h189l-300 -1413h-188l111 530q-126 -172 -322 -172q-119 0 -208.5 62.5t-135 167.5t-45.5 237q0 122 39.5 235.5t106.5 198t163.5 135t204.5 50.5q258 0 336 -258zM537 141q106 0 187.5 67t122 167.5t40.5 212.5q0 145 -70 221t-194 76q-105 0 -186 -62.5
t-121 -158.5t-40 -207q0 -150 73 -233t188 -83z" />
    <glyph glyph-name="r" unicode="r" horiz-adv-x="763" 
d="M692 1042q87 0 139 -49l-38 -180q-57 49 -154 49t-176 -87t-109 -238l-114 -537h-189l217 1024h189l-41 -193q57 102 128 156.5t148 54.5z" />
    <glyph glyph-name="s" unicode="s" horiz-adv-x="923" 
d="M428 -31q-125 0 -234 45.5t-174 122.5l37 160q61 -74 159.5 -118t207.5 -44q87 0 138.5 37.5t51.5 112.5q0 44 -25.5 78t-90.5 65l-162 74q-184 85 -184 248q0 140 101 222.5t277 82.5q93 0 189 -37.5t155 -99.5l-36 -164q-49 61 -136 98t-176 37q-196 0 -196 -131
q0 -42 27.5 -70t82.5 -53l148 -66q113 -50 163 -113.5t50 -158.5q0 -151 -101 -239.5t-272 -88.5z" />
    <glyph glyph-name="t" unicode="t" horiz-adv-x="772" 
d="M854 1024l-33 -160h-278l-185 -864h-188l184 864h-250l33 160h250l55 256l201 61l-68 -317h279z" />
    <glyph glyph-name="u" unicode="u" horiz-adv-x="1179" 
d="M942 1024h188l-217 -1024h-188l37 176q-132 -203 -363 -203q-127 0 -210 80t-83 223q0 44 13 107l135 641h188l-131 -621q-10 -55 -10 -88q0 -91 50.5 -136.5t140.5 -45.5q259 0 337 356z" />
    <glyph glyph-name="v" unicode="v" horiz-adv-x="1054" 
d="M920 1024h202l-616 -1024h-174l-185 1024h193l121 -788z" />
    <glyph glyph-name="w" unicode="w" horiz-adv-x="1597" 
d="M1464 1024h203l-551 -1024h-172l-82 821l-436 -821h-172l-96 1024h194l41 -758l402 758h209l75 -762z" />
    <glyph glyph-name="x" unicode="x" horiz-adv-x="1009" 
d="M1073 1024l-455 -510l261 -514h-213l-181 399l-340 -399h-229l487 555l-247 469h211l165 -367l316 367h225z" />
    <glyph glyph-name="y" unicode="y" horiz-adv-x="1071" 
d="M936 1024h209l-946 -1413h-203l340 489l-186 924h188l131 -711z" />
    <glyph glyph-name="z" unicode="z" horiz-adv-x="929" 
d="M938 1024l-35 -166l-688 -690h576l-35 -168h-787l39 180l664 680h-506l35 164h737z" />
    <glyph glyph-name="braceleft" unicode="{" horiz-adv-x="770" 
d="M807 1659q85 0 149 -31l-32 -151q-59 26 -129 26q-167 0 -201 -166l-78 -358q-45 -217 -242 -283q132 -53 132 -196q0 -48 -13 -105l-71 -340q-7 -35 -7 -53q0 -113 136 -113q77 0 141 29l-31 -151q-93 -33 -178 -33q-122 0 -186 61t-64 172q0 48 12 107l68 321
q12 59 12 97q0 60 -37.5 82t-134.5 22l15 70v2l12 57l12 53q124 0 171.5 39.5t72.5 161.5l74 340q34 161 137 250.5t260 89.5z" />
    <glyph glyph-name="bar" unicode="|" horiz-adv-x="536" 
d="M23 -246l401 1884h168l-402 -1884h-167z" />
    <glyph glyph-name="braceright" unicode="}" horiz-adv-x="774" 
d="M784 727v-2l-12 -57l-12 -54q-124 0 -171.5 -39t-72.5 -161l-74 -340q-34 -161 -137 -250.5t-260 -89.5q-87 0 -149 30l32 152q61 -27 129 -27q167 0 201 166l78 359q45 216 242 282q-132 53 -132 197q0 47 13 104l71 340q7 35 7 54q0 112 -136 112q-79 0 -141 -28
l31 151q93 33 178 33q122 0 186 -61.5t64 -172.5q0 -47 -12 -106l-68 -322q-12 -59 -12 -96q0 -60 37.5 -82t134.5 -22z" />
    <glyph glyph-name="asciitilde" unicode="~" 
d="M811 455q-53 0 -96 16t-71.5 39.5t-53.5 46.5t-53.5 39t-59.5 16q-54 0 -96 -37.5t-55 -99.5h-158q31 141 128 220t210 79q52 0 95 -16.5t71.5 -39.5t54 -46t53.5 -39.5t58 -16.5q53 0 96.5 38t56.5 100h158q-29 -140 -127 -219.5t-211 -79.5z" />
    <glyph glyph-name="uni00A0" unicode="&#xa0;" horiz-adv-x="532" 
 />
    <glyph glyph-name="exclamdown" unicode="&#xa1;" horiz-adv-x="563" 
d="M377 1075q56 0 91.5 -35.5t35.5 -93.5q0 -63 -42.5 -107t-105.5 -44q-57 0 -93 35.5t-36 93.5q0 64 42.5 107.5t107.5 43.5zM399 635l-219 -1024h-188l219 1024h188z" />
    <glyph glyph-name="cent" unicode="&#xa2;" horiz-adv-x="1046" 
d="M668 885q-181 0 -281 -118t-100 -296q0 -154 88 -243t229 -89q134 0 293 88l-39 -182q-56 -26 -89 -39t-87.5 -25t-112.5 -12h-4l-45 -213h-172l51 242q-141 48 -223 170.5t-82 290.5q0 240 145.5 408.5t383.5 185.5l47 225h172l-49 -234q118 -23 219 -98l-39 -178
q-58 58 -138 87.5t-167 29.5z" />
    <glyph glyph-name="sterling" unicode="&#xa3;" horiz-adv-x="1173" 
d="M1053 1393q119 0 190 -47l-37 -177q-58 52 -170 52q-93 0 -176 -62t-168 -205l-117 -196h361l-35 -160h-420l-248 -416h775l-39 -182h-979l41 190l245 408h-165l34 160h228l153 254q119 196 241 288.5t286 92.5z" />
    <glyph glyph-name="currency" unicode="&#xa4;" horiz-adv-x="1275" 
d="M1077 944q49 -82 49 -194q0 -199 -118 -336l110 -142l-125 -106l-114 145q-105 -57 -238 -57q-143 0 -258 88l-178 -176l-109 106l187 185q-52 87 -52 192q0 196 117 332l-112 141l124 107l115 -146q108 60 240 60q151 0 262 -84l172 170l108 -107zM399 666
q0 -116 67.5 -181t180.5 -65q137 0 222 89.5t85 223.5q0 117 -70 181.5t-184 64.5q-137 0 -219 -88.5t-82 -224.5z" />
    <glyph glyph-name="yen" unicode="&#xa5;" horiz-adv-x="1228" 
d="M1333 1362l-481 -578h295l-31 -143h-383l-4 -4l-35 -160h387l-28 -143h-387l-72 -334h-186l71 334h-379l29 143h379l35 160l-2 4h-377l31 143h290l-229 578h207l205 -567l442 567h223z" />
    <glyph glyph-name="brokenbar" unicode="&#xa6;" horiz-adv-x="536" 
d="M258 860l166 778h168l-166 -778h-168zM23 -246l165 778h168l-166 -778h-167z" />
    <glyph glyph-name="section" unicode="&#xa7;" horiz-adv-x="1021" 
d="M651 1393q92 0 190.5 -40t157.5 -104l-32 -162q-52 64 -142 103t-180 39q-97 0 -146.5 -37t-49.5 -105q0 -52 26.5 -84t81.5 -59l148 -67q116 -54 168.5 -117t52.5 -156q0 -108 -63.5 -186.5t-178.5 -122.5q113 -81 113 -223q0 -159 -102.5 -250.5t-278.5 -91.5
q-127 0 -238.5 47t-177.5 127l39 164q63 -78 162 -124t211 -46q91 0 144.5 39.5t53.5 119.5q0 49 -26.5 86t-96.5 72l-131 64q-117 56 -169 121t-52 159q0 108 70.5 185.5t195.5 103.5q-139 85 -139 227q0 147 103.5 232.5t285.5 85.5zM750 569q0 60 -37 103.5t-121 83.5
l-62 28q-108 -9 -164.5 -60t-56.5 -132q0 -60 37 -103t117 -81l117 -54h2q168 69 168 215z" />
    <glyph glyph-name="dieresis" unicode="&#xa8;" horiz-adv-x="837" 
d="M377 1178q-48 0 -78.5 29.5t-30.5 76.5q0 52 36 87.5t89 35.5q50 0 80.5 -28.5t30.5 -75.5q0 -53 -35.5 -89t-91.5 -36zM774 1178q-47 0 -77.5 29.5t-30.5 76.5q0 52 36 87.5t89 35.5q50 0 80 -28.5t30 -75.5q0 -53 -35.5 -89t-91.5 -36z" />
    <glyph glyph-name="copyright" unicode="&#xa9;" horiz-adv-x="1458" 
d="M672 -41q-167 0 -290.5 79t-186 212t-62.5 301q0 231 95 424t264 305.5t376 112.5q166 0 287 -79.5t180.5 -213.5t59.5 -305q0 -170 -57 -324.5t-153.5 -266.5t-230.5 -178.5t-282 -66.5zM682 61q106 0 202 41.5t168 113t125 165.5t80 202.5t27 219.5q0 222 -119 354.5
t-313 132.5q-139 0 -256 -63.5t-192 -168t-116.5 -236.5t-41.5 -273q0 -220 120 -354t316 -134zM797 309q-149 0 -235.5 90.5t-86.5 233.5q0 177 111.5 293t298.5 116q121 0 196 -71l-28 -127q-74 74 -187 74q-118 0 -185 -81t-67 -198q0 -90 55.5 -144.5t147.5 -54.5
q100 0 195 60l-29 -140q-82 -51 -186 -51z" />
    <glyph glyph-name="ordfeminine" unicode="&#xaa;" horiz-adv-x="962" 
d="M602 1456q170 0 260 -77.5t90 -223.5q0 -62 -14 -125l-104 -489h-172l20 86q-100 -111 -250 -111q-122 0 -196 72t-74 192q0 138 99.5 230t248.5 92q87 0 149 -33.5t95 -89.5l14 70q8 33 8 71q0 85 -51.5 131.5t-149.5 46.5q-153 0 -309 -137l39 195q141 100 297 100z
M504 657q96 0 155.5 47.5t59.5 124.5q0 63 -45.5 101.5t-122.5 38.5q-93 0 -151 -47.5t-58 -122.5q0 -66 43 -104t119 -38z" />
    <glyph glyph-name="guillemotleft" unicode="&#xab;" horiz-adv-x="1255" 
d="M791 1024l-502 -516l260 -508h-197l-276 512l497 512h218zM1303 1024l-502 -516l260 -508h-197l-276 512l497 512h218z" />
    <glyph glyph-name="logicalnot" unicode="&#xac;" horiz-adv-x="1271" 
d="M1133 729l-7 -31l-108 -510h-162l80 379h-760l35 162h922z" />
    <glyph glyph-name="uni00AD" unicode="&#xad;" horiz-adv-x="942" 
d="M154 594l39 184h665l-39 -184h-665z" />
    <glyph glyph-name="registered" unicode="&#xae;" horiz-adv-x="1458" 
d="M868 1393q166 0 287 -79.5t180.5 -213.5t59.5 -305q0 -170 -57 -324.5t-153.5 -266.5t-230.5 -178.5t-282 -66.5q-167 0 -290.5 79t-186 212t-62.5 301q0 231 95 424t264 305.5t376 112.5zM682 61q106 0 202 41.5t168 113t125 165.5t80 202.5t27 219.5q0 222 -119 354.5
t-313 132.5q-139 0 -256 -63.5t-192 -168t-116.5 -236.5t-41.5 -273q0 -220 120 -354t316 -134zM895 1038q91 0 146 -56.5t55 -137.5q0 -107 -74.5 -164t-198.5 -59l176 -299h-147l-172 333l-72 -333h-129l154 716h262zM793 709q163 0 163 125q0 41 -25 66.5t-77 25.5h-117
l-47 -217h103z" />
    <glyph glyph-name="macron" unicode="&#xaf;" horiz-adv-x="768" 
d="M238 1192l28 135h584l-29 -135h-583z" />
    <glyph glyph-name="degree" unicode="&#xb0;" horiz-adv-x="821" 
d="M524 887q-127 0 -212 81t-85 201q0 155 103.5 256t259.5 101q129 0 209 -82t80 -205q0 -155 -99.5 -253.5t-255.5 -98.5zM532 1020q90 0 147.5 56t57.5 149q0 73 -43 122.5t-114 49.5q-92 0 -150.5 -60.5t-58.5 -152.5q0 -71 44 -117.5t117 -46.5z" />
    <glyph glyph-name="plusminus" unicode="&#xb1;" horiz-adv-x="1271" 
d="M786 831h379l-35 -161h-376l-60 -277h-162l60 277h-383l35 161h381l59 277h162zM98 158l35 161h922l-35 -161h-922z" />
    <glyph glyph-name="uni00B2" unicode="&#xb2;" horiz-adv-x="722" 
d="M553 936l-215 -166h354l-30 -141h-549l22 112l314 265q92 79 117 108q57 66 57 143q0 48 -35.5 78.5t-100.5 30.5q-128 0 -239 -119l28 162q99 96 242 96q120 0 191 -62.5t71 -166.5q0 -69 -32.5 -132t-77 -107.5t-117.5 -100.5z" />
    <glyph glyph-name="uni00B3" unicode="&#xb3;" horiz-adv-x="735" 
d="M598 1073q64 -18 95.5 -70.5t31.5 -121.5q0 -130 -97 -210.5t-247 -80.5q-164 0 -252 82l27 139q28 -36 84 -61t135 -25q90 0 143 39.5t53 109.5q0 60 -36 96t-113 36h-160l31 120h162q79 0 126.5 37t47.5 97q0 110 -137 110q-74 0 -134.5 -23.5t-97.5 -54.5l31 148
q113 67 233 67q122 0 189 -58.5t67 -158.5q0 -86 -49.5 -144t-132.5 -73z" />
    <glyph glyph-name="acute" unicode="&#xb4;" horiz-adv-x="548" 
d="M207 1147l231 287h195l-268 -287h-158z" />
    <glyph glyph-name="uni00B5" unicode="&#xb5;" horiz-adv-x="1191" 
d="M954 1024h189l-217 -1024h-189l37 176q-67 -99 -156 -151t-188 -52q-71 0 -116.5 23t-65.5 57l-92 -442h-189l299 1413h189l-127 -604q-13 -63 -13 -105q0 -182 193 -182q124 0 211.5 93.5t122.5 262.5z" />
    <glyph glyph-name="paragraph" unicode="&#xb6;" horiz-adv-x="1294" 
d="M381 -246l168 789h-6q-176 0 -281.5 96t-105.5 248q0 228 157 351.5t437 123.5h141l-342 -1608h-168zM750 -246l342 1608h168l-342 -1608h-168z" />
    <glyph glyph-name="periodcentered" unicode="&#xb7;" horiz-adv-x="520" 
d="M281 543q-56 0 -91.5 35.5t-35.5 93.5q0 63 42 107t105 44q59 0 94 -35.5t35 -93.5q0 -64 -41.5 -107.5t-107.5 -43.5z" />
    <glyph glyph-name="cedilla" unicode="&#xb8;" horiz-adv-x="557" 
d="M152 -59q70 0 107.5 -40t37.5 -102q0 -95 -60.5 -150t-160.5 -55q-92 0 -160 46l27 118q42 -53 129 -53q54 0 81 21.5t27 58.5q0 29 -23.5 47t-70.5 18h-53l35 162h96l-14 -71h2z" />
    <glyph glyph-name="uni00B9" unicode="&#xb9;" horiz-adv-x="579" 
d="M520 1475h117l-182 -859h-152l143 680l-258 -155l33 155z" />
    <glyph glyph-name="ordmasculine" unicode="&#xba;" horiz-adv-x="1038" 
d="M569 516q-172 0 -279.5 114.5t-107.5 295.5q0 226 137 378t343 152q173 0 281 -110.5t108 -296.5q0 -227 -136.5 -380t-345.5 -153zM586 676q126 0 205 101.5t79 256.5q0 124 -62.5 194t-166.5 70q-126 0 -202.5 -101t-76.5 -257q0 -125 60 -194.5t164 -69.5z" />
    <glyph glyph-name="guillemotright" unicode="&#xbb;" horiz-adv-x="1253" 
d="M391 1024l277 -512l-498 -512h-217l502 516l-260 508h196zM903 1024l277 -512l-498 -512h-217l502 516l-260 508h196z" />
    <glyph glyph-name="onequarter" unicode="&#xbc;" horiz-adv-x="1738" 
d="M303 616l143 680l-258 -155l33 155l299 179h117l-182 -859h-152zM1274 1434h172l-1127 -1434h-174zM1636 338l-26 -127h-133l-45 -211h-148l45 211h-405l28 135l463 512h199l-111 -520h133zM1104 338h252l78 371z" />
    <glyph glyph-name="onehalf" unicode="&#xbd;" horiz-adv-x="1654" 
d="M303 616l143 680l-258 -155l33 155l299 179h117l-182 -859h-152zM1274 1434h172l-1127 -1434h-174zM1352 307l-215 -166h354l-31 -141h-549l23 113l313 264q92 79 118 110q56 67 56 142q0 48 -35 78t-100 30q-128 0 -239 -119l28 162q100 97 242 97q120 0 191 -62.5
t71 -167.5q0 -69 -32.5 -132t-77 -107.5t-117.5 -100.5z" />
    <glyph glyph-name="threequarters" unicode="&#xbe;" horiz-adv-x="1894" 
d="M725 881q0 -130 -97 -210.5t-247 -80.5q-164 0 -252 82l27 139q28 -36 84 -61t135 -25q90 0 143 39.5t53 109.5q0 60 -36 96t-113 36h-160l31 120h162q79 0 126.5 37t47.5 97q0 110 -137 110q-74 0 -134.5 -23.5t-97.5 -54.5l31 148q113 67 233 67q122 0 189 -58.5
t67 -158.5q0 -86 -49.5 -144t-132.5 -73q64 -18 95.5 -70.5t31.5 -121.5zM1430 1434h172l-1127 -1434h-174zM1792 338l-27 -127h-133l-45 -211h-147l45 211h-406l29 135l463 512h198l-110 -520h133zM1260 338h251l78 371z" />
    <glyph glyph-name="questiondown" unicode="&#xbf;" horiz-adv-x="983" 
d="M733 1075q56 0 91.5 -35.5t35.5 -93.5q0 -63 -42 -107t-105 -44q-57 0 -93 35.5t-36 93.5q0 64 42 107.5t107 43.5zM156 -4q0 -104 69.5 -172t192.5 -68q85 0 163 25t116.5 49t84.5 59l-41 -194q-148 -115 -358 -115q-194 0 -308 114t-114 281q0 221 159 351.5t406 130.5
h6l37 178h189l-72 -330h-115q-190 0 -302.5 -78.5t-112.5 -230.5z" />
    <glyph glyph-name="Agrave" unicode="&#xc0;" horiz-adv-x="1341" 
d="M1081 1561h-166l-237 286h203zM981 0l-45 381h-576l-204 -381h-213l788 1434h268l185 -1434h-203zM449 545h466l-84 710z" />
    <glyph glyph-name="Aacute" unicode="&#xc1;" horiz-adv-x="1341" 
d="M1243 1847l-268 -286h-166l231 286h203zM731 1434h268l185 -1434h-203l-45 381h-576l-204 -381h-213zM449 545h466l-84 710z" />
    <glyph glyph-name="Acircumflex" unicode="&#xc2;" horiz-adv-x="1341" 
d="M936 1747l-203 -186h-170l295 286h197l172 -286h-158zM731 1434h268l185 -1434h-203l-45 381h-576l-204 -381h-213zM449 545h466l-84 710z" />
    <glyph glyph-name="Atilde" unicode="&#xc3;" horiz-adv-x="1341" 
d="M1210 1815h123q-24 -118 -93 -181t-169 -63q-52 0 -98.5 20.5t-75 45t-64.5 45t-69 20.5q-101 0 -127 -115h-121q24 118 94.5 181t171.5 63q51 0 96 -21t72.5 -45.5t62.5 -45.5t68 -21q106 0 129 117zM731 1434h268l185 -1434h-203l-45 381h-576l-204 -381h-213zM449 545
h466l-84 710z" />
    <glyph glyph-name="Adieresis" unicode="&#xc4;" horiz-adv-x="1341" 
d="M702 1548q-50 0 -82 31t-32 82q0 55 38 93t95 38q52 0 83.5 -31t31.5 -82q0 -56 -37.5 -93.5t-96.5 -37.5zM1145 1792q52 0 83.5 -31t31.5 -82q0 -56 -37.5 -93.5t-96.5 -37.5q-50 0 -82 31t-32 82q0 55 38 93t95 38zM731 1434h268l185 -1434h-203l-45 381h-576
l-204 -381h-213zM449 545h466l-84 710z" />
    <glyph glyph-name="Aring" unicode="&#xc5;" horiz-adv-x="1341" 
d="M913 1516q-93 0 -152 57t-59 151q0 102 71 173t175 71q96 0 155.5 -57t59.5 -152q0 -102 -71 -172.5t-179 -70.5zM942 1870q-58 0 -96.5 -39.5t-38.5 -97.5q0 -54 32 -86.5t83 -32.5q59 0 98 39.5t39 97.5q0 54 -32 86.5t-85 32.5zM981 0l-45 381h-576l-204 -381h-213
l788 1434h268l185 -1434h-203zM449 545h466l-84 710z" />
    <glyph glyph-name="AE" unicode="&#xc6;" horiz-adv-x="1959" 
d="M1995 1253h-686l-86 -409h643l-37 -176h-643l-103 -488h693l-37 -180h-893l80 381h-520l-306 -381h-221l1153 1434h1000zM535 545h426l153 725z" />
    <glyph glyph-name="Ccedilla" unicode="&#xc7;" horiz-adv-x="1372" 
d="M967 1284q-147 0 -266 -52t-195 -141.5t-117 -204.5t-41 -245q0 -220 133.5 -354.5t356.5 -134.5q232 0 424 122l-45 -208q-187 -107 -412 -107q-24 0 -78 4l-8 -43h4q72 0 109.5 -38.5t37.5 -98.5q0 -88 -60.5 -138.5t-160.5 -50.5q-92 0 -160 46l27 118q42 -53 129 -53
q54 0 81.5 17.5t27.5 46.5q0 27 -24.5 44t-72.5 17h-53l29 147q-230 51 -360 226.5t-130 425.5q0 178 59 333t166.5 269t267 179t351.5 65q138 0 248.5 -41.5t185.5 -106.5l-41 -199q-72 69 -177 112.5t-236 43.5z" />
    <glyph glyph-name="Egrave" unicode="&#xc8;" horiz-adv-x="1208" 
d="M1073 1561h-166l-237 286h202zM1243 1253h-686l-86 -409h643l-37 -176h-643l-102 -488h692l-37 -180h-893l303 1434h883z" />
    <glyph glyph-name="Eacute" unicode="&#xc9;" horiz-adv-x="1208" 
d="M1235 1847l-268 -286h-166l231 286h203zM1243 1253h-686l-86 -409h643l-37 -176h-643l-102 -488h692l-37 -180h-893l303 1434h883z" />
    <glyph glyph-name="Ecircumflex" unicode="&#xca;" horiz-adv-x="1208" 
d="M928 1747l-203 -186h-170l295 286h197l172 -286h-158zM1243 1253h-686l-86 -409h643l-37 -176h-643l-102 -488h692l-37 -180h-893l303 1434h883z" />
    <glyph glyph-name="Edieresis" unicode="&#xcb;" horiz-adv-x="1208" 
d="M694 1548q-50 0 -82 31t-32 82q0 55 38 93t95 38q52 0 83 -31t31 -82q0 -56 -37 -93.5t-96 -37.5zM1118 1548q-50 0 -82 31t-32 82q0 55 38 93t95 38q52 0 83 -31t31 -82q0 -56 -37 -93.5t-96 -37.5zM1243 1253h-686l-86 -409h643l-37 -176h-643l-102 -488h692l-37 -180
h-893l303 1434h883z" />
    <glyph glyph-name="Igrave" unicode="&#xcc;" horiz-adv-x="602" 
d="M711 1561h-166l-238 286h203zM92 0l305 1434h199l-305 -1434h-199z" />
    <glyph glyph-name="Iacute" unicode="&#xcd;" horiz-adv-x="602" 
d="M438 1561l232 286h202l-268 -286h-166zM92 0l305 1434h199l-305 -1434h-199z" />
    <glyph glyph-name="Icircumflex" unicode="&#xce;" horiz-adv-x="602" 
d="M684 1847l172 -286h-158l-133 186l-203 -186h-169l294 286h197zM92 0l305 1434h199l-305 -1434h-199z" />
    <glyph glyph-name="Idieresis" unicode="&#xcf;" horiz-adv-x="602" 
d="M332 1548q-50 0 -82.5 31.5t-32.5 81.5q0 55 38.5 93t94.5 38q52 0 83.5 -31t31.5 -82q0 -56 -37 -93.5t-96 -37.5zM756 1548q-50 0 -82.5 31.5t-32.5 81.5q0 55 38.5 93t94.5 38q52 0 83.5 -31t31.5 -82q0 -56 -37 -93.5t-96 -37.5zM92 0l305 1434h199l-305 -1434h-199z
" />
    <glyph glyph-name="Eth" unicode="&#xd0;" horiz-adv-x="1474" 
d="M864 1434q260 0 408.5 -157t148.5 -427q0 -257 -105 -449.5t-302 -296.5t-463 -104h-457l137 649h-174l29 135h174l137 650h467zM600 182q143 0 260 50t194 137.5t118.5 205.5t41.5 254q0 203 -95.5 312.5t-293.5 109.5h-268l-98 -467h313l-29 -135h-313l-98 -467h268z
" />
    <glyph glyph-name="Ntilde" unicode="&#xd1;" horiz-adv-x="1572" 
d="M836 1702q-101 0 -127 -115h-121q24 118 94.5 181t171.5 63q51 0 96 -21t72.5 -45.5t62.5 -45.5t68 -21q106 0 129 117h123q-24 -118 -93 -181t-169 -63q-52 0 -98.5 20.5t-75 45t-64.5 45t-69 20.5zM1378 1434h189l-303 -1434h-250l-465 1249l-266 -1249h-189l303 1434
h279l446 -1207z" />
    <glyph glyph-name="Ograve" unicode="&#xd2;" horiz-adv-x="1652" 
d="M1192 1561h-166l-238 286h203zM797 -41q-197 0 -347 89t-228.5 239t-78.5 336q0 236 101.5 430t288.5 308t423 114q147 0 268.5 -51.5t202.5 -141.5t125.5 -211.5t44.5 -261.5q0 -234 -103.5 -428.5t-287.5 -308t-409 -113.5zM821 150q105 0 197 36.5t159.5 99t116 145.5
t73 178t24.5 194q0 218 -128.5 349.5t-334.5 131.5q-138 0 -250 -55.5t-182.5 -149t-108 -209.5t-37.5 -243q0 -214 131.5 -345.5t339.5 -131.5z" />
    <glyph glyph-name="Oacute" unicode="&#xd3;" horiz-adv-x="1652" 
d="M920 1561l231 286h203l-269 -286h-165zM797 -41q-197 0 -347 89t-228.5 239t-78.5 336q0 236 101.5 430t288.5 308t423 114q147 0 268.5 -51.5t202.5 -141.5t125.5 -211.5t44.5 -261.5q0 -234 -103.5 -428.5t-287.5 -308t-409 -113.5zM821 150q105 0 197 36.5t159.5 99
t116 145.5t73 178t24.5 194q0 218 -128.5 349.5t-334.5 131.5q-138 0 -250 -55.5t-182.5 -149t-108 -209.5t-37.5 -243q0 -214 131.5 -345.5t339.5 -131.5z" />
    <glyph glyph-name="Ocircumflex" unicode="&#xd4;" horiz-adv-x="1652" 
d="M1047 1747l-203 -186h-170l295 286h196l172 -286h-157zM956 1475q147 0 268.5 -51.5t202.5 -141.5t125.5 -211.5t44.5 -261.5q0 -234 -103.5 -428.5t-287.5 -308t-409 -113.5q-197 0 -347 89t-228.5 239t-78.5 336q0 236 101.5 430t288.5 308t423 114zM821 150
q105 0 197 36.5t159.5 99t116 145.5t73 178t24.5 194q0 218 -128.5 349.5t-334.5 131.5q-138 0 -250 -55.5t-182.5 -149t-108 -209.5t-37.5 -243q0 -214 131.5 -345.5t339.5 -131.5z" />
    <glyph glyph-name="Otilde" unicode="&#xd5;" horiz-adv-x="1652" 
d="M627 1587q24 118 94.5 181t171.5 63q51 0 96 -21t72.5 -45.5t62.5 -45.5t68 -21q106 0 129 117h123q-24 -118 -93 -181t-169 -63q-52 0 -99 20.5t-75.5 45t-64.5 45t-69 20.5q-100 0 -126 -115h-121zM797 -41q-197 0 -347 89t-228.5 239t-78.5 336q0 236 101.5 430
t288.5 308t423 114q147 0 268.5 -51.5t202.5 -141.5t125.5 -211.5t44.5 -261.5q0 -234 -103.5 -428.5t-287.5 -308t-409 -113.5zM821 150q105 0 197 36.5t159.5 99t116 145.5t73 178t24.5 194q0 218 -128.5 349.5t-334.5 131.5q-138 0 -250 -55.5t-182.5 -149t-108 -209.5
t-37.5 -243q0 -214 131.5 -345.5t339.5 -131.5z" />
    <glyph glyph-name="Odieresis" unicode="&#xd6;" horiz-adv-x="1652" 
d="M813 1548q-50 0 -82.5 31.5t-32.5 81.5q0 55 38 93t95 38q52 0 83.5 -31t31.5 -82q0 -56 -37 -93.5t-96 -37.5zM1237 1548q-50 0 -82.5 31.5t-32.5 81.5q0 55 38 93t95 38q52 0 83.5 -31t31.5 -82q0 -56 -37 -93.5t-96 -37.5zM797 -41q-197 0 -347 89t-228.5 239
t-78.5 336q0 236 101.5 430t288.5 308t423 114q147 0 268.5 -51.5t202.5 -141.5t125.5 -211.5t44.5 -261.5q0 -234 -103.5 -428.5t-287.5 -308t-409 -113.5zM821 150q105 0 197 36.5t159.5 99t116 145.5t73 178t24.5 194q0 218 -128.5 349.5t-334.5 131.5q-138 0 -250 -55.5
t-182.5 -149t-108 -209.5t-37.5 -243q0 -214 131.5 -345.5t339.5 -131.5z" />
    <glyph glyph-name="multiply" unicode="&#xd7;" 
d="M1137 948l-365 -305l244 -301l-123 -102l-244 299l-358 -299l-101 108l365 305l-244 301l125 103l244 -299l358 299z" />
    <glyph glyph-name="Oslash" unicode="&#xd8;" horiz-adv-x="1652" 
d="M1749 1456l-262 -250q110 -170 110 -397q0 -234 -103.5 -428.5t-287.5 -308t-409 -113.5q-269 0 -451 164l-248 -236l-94 90l258 246q-119 169 -119 400q0 236 101.5 430t288.5 308t423 114q271 0 447 -168l252 239zM350 627q0 -147 66 -258l835 794q-124 121 -323 121
q-138 0 -250 -55.5t-182.5 -149t-108 -209.5t-37.5 -243zM1391 803q0 145 -60 256l-833 -793q129 -116 323 -116q105 0 197 36.5t159.5 99t116 145.5t73 178t24.5 194z" />
    <glyph glyph-name="Ugrave" unicode="&#xd9;" horiz-adv-x="1470" 
d="M1104 1561h-166l-238 286h203zM655 -41q-215 0 -345 125.5t-130 341.5q0 80 17 158l180 850h198l-188 -877q-14 -75 -14 -119q0 -141 82 -214.5t221 -73.5q161 0 267.5 90.5t143.5 273.5l197 920h199l-197 -926q-58 -272 -221 -410.5t-410 -138.5z" />
    <glyph glyph-name="Uacute" unicode="&#xda;" horiz-adv-x="1470" 
d="M831 1561l232 286h203l-269 -286h-166zM655 -41q-215 0 -345 125.5t-130 341.5q0 80 17 158l180 850h198l-188 -877q-14 -75 -14 -119q0 -141 82 -214.5t221 -73.5q161 0 267.5 90.5t143.5 273.5l197 920h199l-197 -926q-58 -272 -221 -410.5t-410 -138.5z" />
    <glyph glyph-name="Ucircumflex" unicode="&#xdb;" horiz-adv-x="1470" 
d="M958 1747l-202 -186h-170l295 286h196l172 -286h-157zM1284 1434h199l-197 -926q-58 -272 -221 -410.5t-410 -138.5q-215 0 -345 125.5t-130 341.5q0 80 17 158l180 850h198l-188 -877q-14 -75 -14 -119q0 -141 82 -214.5t221 -73.5q161 0 267.5 90.5t143.5 273.5z" />
    <glyph glyph-name="Udieresis" unicode="&#xdc;" horiz-adv-x="1470" 
d="M725 1548q-50 0 -82.5 31.5t-32.5 81.5q0 55 38 93t95 38q52 0 83.5 -31t31.5 -82q0 -56 -37 -93.5t-96 -37.5zM1149 1548q-50 0 -82.5 31.5t-32.5 81.5q0 55 38 93t95 38q52 0 83.5 -31t31.5 -82q0 -56 -37 -93.5t-96 -37.5zM655 -41q-215 0 -345 125.5t-130 341.5
q0 80 17 158l180 850h198l-188 -877q-14 -75 -14 -119q0 -141 82 -214.5t221 -73.5q161 0 267.5 90.5t143.5 273.5l197 920h199l-197 -926q-58 -272 -221 -410.5t-410 -138.5z" />
    <glyph glyph-name="Yacute" unicode="&#xdd;" horiz-adv-x="1318" 
d="M1190 1847l-268 -286h-166l231 286h203zM1229 1434h233l-700 -897l-113 -537h-198l112 537l-307 897h205l233 -703z" />
    <glyph glyph-name="Thorn" unicode="&#xde;" horiz-adv-x="1245" 
d="M805 1229q191 0 299 -106.5t108 -293.5q0 -240 -158.5 -377t-439.5 -137h-256l-67 -315h-199l305 1434h199l-43 -205h252zM649 487q170 0 263.5 91t93.5 237q0 234 -248 234h-244l-119 -562h254z" />
    <glyph glyph-name="germandbls" unicode="&#xdf;" horiz-adv-x="1142" 
d="M809 819q108 -26 169.5 -111.5t61.5 -228.5q0 -222 -142 -366t-363 -144q-98 0 -191 43l33 156q71 -31 143 -31q155 0 241.5 94t86.5 240q0 120 -62.5 187t-195.5 67h-78l35 160h69q128 0 212.5 67t84.5 185q0 96 -54.5 144t-143.5 48q-100 0 -160.5 -63.5t-87.5 -190.5
l-231 -1075h-189l227 1057q46 219 169.5 328.5t301.5 109.5q89 0 159.5 -27.5t113.5 -74.5t65.5 -107t22.5 -127q0 -133 -80.5 -220.5t-216.5 -119.5z" />
    <glyph glyph-name="agrave" unicode="&#xe0;" horiz-adv-x="1077" 
d="M768 1147h-158l-209 287h195zM561 1055q192 0 297 -87t105 -255q0 -64 -19 -148l-121 -565h-186l25 109q-55 -65 -134.5 -102.5t-167.5 -37.5q-141 0 -223 86t-82 217q0 161 114 265t284 104q107 0 181 -43.5t107 -112.5l23 101q10 52 10 86q0 101 -63.5 157t-180.5 56
q-181 0 -348 -144l41 201q154 113 338 113zM446 121q117 0 189 59t72 152q0 76 -56 123t-151 47q-114 0 -183 -58.5t-69 -154.5q0 -80 52 -124t146 -44z" />
    <glyph glyph-name="aacute" unicode="&#xe1;" horiz-adv-x="1077" 
d="M1004 1434l-269 -287h-157l231 287h195zM561 1055q192 0 297 -87t105 -255q0 -64 -19 -148l-121 -565h-186l25 109q-55 -65 -134.5 -102.5t-167.5 -37.5q-141 0 -223 86t-82 217q0 161 114 265t284 104q107 0 181 -43.5t107 -112.5l23 101q10 52 10 86q0 101 -63.5 157
t-180.5 56q-181 0 -348 -144l41 201q154 113 338 113zM446 121q117 0 189 59t72 152q0 76 -56 123t-151 47q-114 0 -183 -58.5t-69 -154.5q0 -80 52 -124t146 -44z" />
    <glyph glyph-name="acircumflex" unicode="&#xe2;" horiz-adv-x="1077" 
d="M707 1327l-175 -180h-163l264 287h188l142 -287h-152zM561 1055q192 0 297 -87t105 -255q0 -64 -19 -148l-121 -565h-186l25 109q-55 -65 -134.5 -102.5t-167.5 -37.5q-141 0 -223 86t-82 217q0 161 114 265t284 104q107 0 181 -43.5t107 -112.5l23 101q10 52 10 86
q0 101 -63.5 157t-180.5 56q-181 0 -348 -144l41 201q154 113 338 113zM446 121q117 0 189 59t72 152q0 76 -56 123t-151 47q-114 0 -183 -58.5t-69 -154.5q0 -80 52 -124t146 -44z" />
    <glyph glyph-name="atilde" unicode="&#xe3;" horiz-adv-x="1077" 
d="M573 1264q-76 0 -96 -93h-110q23 104 81.5 159.5t141.5 55.5q37 0 69.5 -18.5t52 -40.5t44.5 -40.5t49 -18.5q75 0 96 92h113q-22 -103 -79 -158t-140 -55q-38 0 -72 18.5t-54 40t-46 40t-50 18.5zM561 1055q192 0 297 -87t105 -255q0 -64 -19 -148l-121 -565h-186
l25 109q-55 -65 -134.5 -102.5t-167.5 -37.5q-141 0 -223 86t-82 217q0 161 114 265t284 104q107 0 181 -43.5t107 -112.5l23 101q10 52 10 86q0 101 -63.5 157t-180.5 56q-181 0 -348 -144l41 201q154 113 338 113zM446 121q117 0 189 59t72 152q0 76 -56 123t-151 47
q-114 0 -183 -58.5t-69 -154.5q0 -80 52 -124t146 -44z" />
    <glyph glyph-name="adieresis" unicode="&#xe4;" horiz-adv-x="1077" 
d="M487 1178q-47 0 -77.5 29.5t-30.5 76.5q0 52 36 87.5t89 35.5q50 0 80 -28.5t30 -75.5q0 -53 -35.5 -89t-91.5 -36zM901 1407q50 0 80.5 -28.5t30.5 -75.5q0 -53 -35.5 -89t-91.5 -36q-48 0 -78.5 29.5t-30.5 76.5q0 52 36 87.5t89 35.5zM561 1055q192 0 297 -87
t105 -255q0 -64 -19 -148l-121 -565h-186l25 109q-55 -65 -134.5 -102.5t-167.5 -37.5q-141 0 -223 86t-82 217q0 161 114 265t284 104q107 0 181 -43.5t107 -112.5l23 101q10 52 10 86q0 101 -63.5 157t-180.5 56q-181 0 -348 -144l41 201q154 113 338 113zM446 121
q117 0 189 59t72 152q0 76 -56 123t-151 47q-114 0 -183 -58.5t-69 -154.5q0 -80 52 -124t146 -44z" />
    <glyph glyph-name="aring" unicode="&#xe5;" horiz-adv-x="1077" 
d="M686 1137q-80 0 -131 50t-51 132q0 88 61.5 149.5t151.5 61.5q84 0 135 -49.5t51 -132.5q0 -89 -61.5 -150t-155.5 -61zM713 1440q-49 0 -82 -33.5t-33 -81.5q0 -44 26.5 -71t69.5 -27q50 0 82.5 33t32.5 81q0 44 -26.5 71.5t-69.5 27.5zM561 1055q192 0 297 -87
t105 -255q0 -64 -19 -148l-121 -565h-186l25 109q-55 -65 -134.5 -102.5t-167.5 -37.5q-141 0 -223 86t-82 217q0 161 114 265t284 104q107 0 181 -43.5t107 -112.5l23 101q10 52 10 86q0 101 -63.5 157t-180.5 56q-181 0 -348 -144l41 201q154 113 338 113zM446 121
q117 0 189 59t72 152q0 76 -56 123t-151 47q-114 0 -183 -58.5t-69 -154.5q0 -80 52 -124t146 -44z" />
    <glyph glyph-name="ae" unicode="&#xe6;" horiz-adv-x="1765" 
d="M422 -31q-169 0 -268 86t-99 217q0 161 114 265t284 104q105 0 179.5 -40t110.5 -105l21 90q10 52 10 86q0 101 -63.5 157t-180.5 56q-181 0 -348 -144l41 201q154 113 338 113q262 0 344 -174q150 174 395 174q186 0 291 -110.5t105 -289.5q0 -58 -23 -176h-727v-8
q0 -158 84 -245t238 -87q86 0 164.5 26t171.5 77l-39 -183q-62 -30 -101 -46t-101 -30t-128 -14q-146 0 -251.5 59.5t-164.5 166.5q-9 -21 -33 -58q-57 -78 -155 -123t-209 -45zM963 618h553q2 12 2 37q0 106 -63 168t-173 62q-125 0 -206.5 -73t-112.5 -194zM446 121
q117 0 189 59t72 152q0 76 -56 123t-151 47q-114 0 -183 -58.5t-69 -154.5q0 -80 52 -124t146 -44z" />
    <glyph glyph-name="ccedilla" unicode="&#xe7;" horiz-adv-x="1015" 
d="M662 885q-181 0 -281 -118t-100 -296q0 -154 88 -243t229 -89q134 0 293 88l-39 -182q-56 -26 -89 -39t-87.5 -25t-112.5 -12h-20l-6 -28h2q70 0 107.5 -40t37.5 -102q0 -95 -60.5 -150t-160.5 -55q-92 0 -160 46l27 118q42 -53 129 -53q54 0 81 21.5t27 58.5
q0 29 -23.5 47t-70.5 18h-53l29 132q-164 36 -262.5 164t-98.5 313q0 165 70 300t203 215.5t305 80.5q195 0 340 -109l-39 -178q-58 58 -138 87.5t-167 29.5z" />
    <glyph glyph-name="egrave" unicode="&#xe8;" horiz-adv-x="1101" 
d="M793 1147h-158l-209 287h195zM637 1055q186 0 290.5 -110t104.5 -288q0 -61 -12 -125l-10 -53h-727v-8q0 -158 83.5 -245t237.5 -87q86 0 164.5 26t171.5 77l-39 -183q-62 -30 -101 -46t-101 -30t-128 -14q-224 0 -352.5 135t-128.5 355q0 124 38.5 232.5t108 189
t173 127.5t227.5 47zM618 885q-128 0 -209 -72.5t-110 -194.5h553q2 12 2 37q0 106 -63.5 168t-172.5 62z" />
    <glyph glyph-name="eacute" unicode="&#xe9;" horiz-adv-x="1101" 
d="M1028 1434l-268 -287h-158l232 287h194zM637 1055q186 0 290.5 -110t104.5 -288q0 -61 -12 -125l-10 -53h-727v-8q0 -158 83.5 -245t237.5 -87q86 0 164.5 26t171.5 77l-39 -183q-62 -30 -101 -46t-101 -30t-128 -14q-224 0 -352.5 135t-128.5 355q0 124 38.5 232.5
t108 189t173 127.5t227.5 47zM618 885q-128 0 -209 -72.5t-110 -194.5h553q2 12 2 37q0 106 -63.5 168t-172.5 62z" />
    <glyph glyph-name="ecircumflex" unicode="&#xea;" horiz-adv-x="1101" 
d="M731 1327l-174 -180h-164l264 287h189l141 -287h-151zM637 1055q186 0 290.5 -110t104.5 -288q0 -61 -12 -125l-10 -53h-727v-8q0 -158 83.5 -245t237.5 -87q86 0 164.5 26t171.5 77l-39 -183q-62 -30 -101 -46t-101 -30t-128 -14q-224 0 -352.5 135t-128.5 355
q0 124 38.5 232.5t108 189t173 127.5t227.5 47zM618 885q-128 0 -209 -72.5t-110 -194.5h553q2 12 2 37q0 106 -63.5 168t-172.5 62z" />
    <glyph glyph-name="edieresis" unicode="&#xeb;" horiz-adv-x="1101" 
d="M512 1178q-48 0 -78.5 29.5t-30.5 76.5q0 52 36 87.5t89 35.5q50 0 80.5 -28.5t30.5 -75.5q0 -53 -35.5 -89t-91.5 -36zM909 1178q-47 0 -77.5 29.5t-30.5 76.5q0 52 36 87.5t89 35.5q50 0 80 -28.5t30 -75.5q0 -53 -35.5 -89t-91.5 -36zM637 1055q186 0 290.5 -110
t104.5 -288q0 -61 -12 -125l-10 -53h-727v-8q0 -158 83.5 -245t237.5 -87q86 0 164.5 26t171.5 77l-39 -183q-62 -30 -101 -46t-101 -30t-128 -14q-224 0 -352.5 135t-128.5 355q0 124 38.5 232.5t108 189t173 127.5t227.5 47zM618 885q-128 0 -209 -72.5t-110 -194.5h553
q2 12 2 37q0 106 -63.5 168t-172.5 62z" />
    <glyph glyph-name="igrave" unicode="&#xec;" horiz-adv-x="516" 
d="M496 1147h-158l-209 287h195zM55 0l217 1024h189l-217 -1024h-189z" />
    <glyph glyph-name="iacute" unicode="&#xed;" horiz-adv-x="516" 
d="M305 1147l232 287h194l-268 -287h-158zM55 0l217 1024h189l-217 -1024h-189z" />
    <glyph glyph-name="icircumflex" unicode="&#xee;" horiz-adv-x="516" 
d="M549 1434l141 -287h-151l-105 180l-174 -180h-164l264 287h189zM55 0l217 1024h189l-217 -1024h-189z" />
    <glyph glyph-name="idieresis" unicode="&#xef;" horiz-adv-x="516" 
d="M215 1178q-48 0 -78.5 29.5t-30.5 76.5q0 52 36 87.5t89 35.5q50 0 80.5 -28.5t30.5 -75.5q0 -53 -35.5 -89t-91.5 -36zM612 1178q-47 0 -77.5 29.5t-30.5 76.5q0 52 36 87.5t89 35.5q50 0 80 -28.5t30 -75.5q0 -53 -35.5 -89t-91.5 -36zM55 0l217 1024h189l-217 -1024
h-189z" />
    <glyph glyph-name="eth" unicode="&#xf0;" horiz-adv-x="1171" 
d="M1188 1272l-29 -135h-137q70 -207 70 -441q0 -215 -63.5 -378t-190.5 -256t-301 -93q-209 0 -332 127.5t-123 333.5q0 111 37 212.5t102.5 178.5t161 122.5t205.5 45.5q132 0 216.5 -70t121.5 -194q-11 218 -90 412h-363l29 135h264q-59 100 -158 203h215
q87 -87 142 -203h223zM545 141q147 0 242.5 108t95.5 267q0 135 -73 221t-204 86q-103 0 -180.5 -55t-115.5 -141.5t-38 -188.5q0 -143 75.5 -220t197.5 -77z" />
    <glyph glyph-name="ntilde" unicode="&#xf1;" horiz-adv-x="1189" 
d="M657 1264q-76 0 -96 -93h-110q23 104 81.5 159.5t141.5 55.5q37 0 69.5 -18.5t52 -40.5t44.5 -40.5t49 -18.5q75 0 96 92h113q-22 -103 -79 -158t-140 -55q-38 0 -72 18.5t-54 40t-46 40t-50 18.5zM762 1055q147 0 230 -85.5t83 -242.5q0 -59 -12 -127l-127 -600h-188
l126 600q13 63 13 105q0 184 -203 184q-128 0 -211 -87.5t-117 -248.5l-116 -553h-189l217 1024h189l-35 -160q127 191 340 191z" />
    <glyph glyph-name="ograve" unicode="&#xf2;" horiz-adv-x="1163" 
d="M786 1147h-157l-209 287h194zM530 -41q-197 0 -320.5 133.5t-123.5 343.5q0 174 70 315.5t195 222.5t280 81q198 0 322 -129t124 -346q0 -173 -69.5 -315t-195 -224t-282.5 -82zM545 133q151 0 245.5 122t94.5 308q0 150 -74.5 235t-198.5 85q-150 0 -241.5 -120.5
t-91.5 -309.5q0 -150 72 -235t194 -85z" />
    <glyph glyph-name="oacute" unicode="&#xf3;" horiz-adv-x="1163" 
d="M596 1147l231 287h195l-268 -287h-158zM530 -41q-197 0 -320.5 133.5t-123.5 343.5q0 174 70 315.5t195 222.5t280 81q198 0 322 -129t124 -346q0 -173 -69.5 -315t-195 -224t-282.5 -82zM545 133q151 0 245.5 122t94.5 308q0 150 -74.5 235t-198.5 85
q-150 0 -241.5 -120.5t-91.5 -309.5q0 -150 72 -235t194 -85z" />
    <glyph glyph-name="ocircumflex" unicode="&#xf4;" horiz-adv-x="1163" 
d="M725 1327l-174 -180h-164l264 287h189l141 -287h-152zM631 1055q198 0 322 -129t124 -346q0 -173 -69.5 -315t-195 -224t-282.5 -82q-197 0 -320.5 133.5t-123.5 343.5q0 174 70 315.5t195 222.5t280 81zM545 133q151 0 245.5 122t94.5 308q0 150 -74.5 235t-198.5 85
q-150 0 -241.5 -120.5t-91.5 -309.5q0 -150 72 -235t194 -85z" />
    <glyph glyph-name="otilde" unicode="&#xf5;" horiz-adv-x="1163" 
d="M813 1147q-38 0 -71.5 18.5t-53.5 40t-46 40t-50 18.5q-76 0 -96 -93h-111q23 104 81.5 159.5t141.5 55.5q37 0 69.5 -18.5t52 -40.5t44.5 -40.5t49 -18.5q38 0 63 25t34 67h112q-22 -103 -79 -158t-140 -55zM530 -41q-197 0 -320.5 133.5t-123.5 343.5q0 174 70 315.5
t195 222.5t280 81q198 0 322 -129t124 -346q0 -173 -69.5 -315t-195 -224t-282.5 -82zM545 133q151 0 245.5 122t94.5 308q0 150 -74.5 235t-198.5 85q-150 0 -241.5 -120.5t-91.5 -309.5q0 -150 72 -235t194 -85z" />
    <glyph glyph-name="odieresis" unicode="&#xf6;" horiz-adv-x="1163" 
d="M506 1178q-48 0 -78.5 29.5t-30.5 76.5q0 52 36 87.5t89 35.5q50 0 80.5 -28.5t30.5 -75.5q0 -53 -35.5 -89t-91.5 -36zM903 1178q-47 0 -77.5 29.5t-30.5 76.5q0 52 36 87.5t89 35.5q50 0 80 -28.5t30 -75.5q0 -53 -35.5 -89t-91.5 -36zM530 -41q-197 0 -320.5 133.5
t-123.5 343.5q0 174 70 315.5t195 222.5t280 81q198 0 322 -129t124 -346q0 -173 -69.5 -315t-195 -224t-282.5 -82zM545 133q151 0 245.5 122t94.5 308q0 150 -74.5 235t-198.5 85q-150 0 -241.5 -120.5t-91.5 -309.5q0 -150 72 -235t194 -85z" />
    <glyph glyph-name="divide" unicode="&#xf7;" 
d="M735 905q-47 0 -76.5 29t-29.5 76q0 53 35 89t88 36q48 0 78 -29t30 -78q0 -52 -35 -87.5t-90 -35.5zM184 567l35 162h922l-35 -162h-922zM580 162q-48 0 -77.5 28.5t-29.5 75.5q0 53 35 89t88 36q48 0 78.5 -28.5t30.5 -77.5q0 -52 -35 -87.5t-90 -35.5z" />
    <glyph glyph-name="oslash" unicode="&#xf8;" horiz-adv-x="1163" 
d="M1268 1081l-252 -239q61 -113 61 -262q0 -173 -69.5 -315t-195 -224t-282.5 -82q-192 0 -311 125l-237 -225l-82 84l247 235q-61 116 -61 258q0 174 70 315.5t195 222.5t280 81q188 0 313 -119l242 229zM279 453q0 -75 18 -134l508 484q-71 80 -193 80
q-150 0 -241.5 -120.5t-91.5 -309.5zM885 563q0 77 -21 135l-510 -485q74 -80 191 -80q151 0 245.5 122t94.5 308z" />
    <glyph glyph-name="ugrave" unicode="&#xf9;" horiz-adv-x="1179" 
d="M829 1147h-157l-209 287h194zM942 1024h188l-217 -1024h-188l37 176q-132 -203 -363 -203q-127 0 -210 80t-83 223q0 44 13 107l135 641h188l-131 -621q-10 -55 -10 -88q0 -91 50.5 -136.5t140.5 -45.5q259 0 337 356z" />
    <glyph glyph-name="uacute" unicode="&#xfa;" horiz-adv-x="1179" 
d="M1065 1434l-268 -287h-158l231 287h195zM942 1024h188l-217 -1024h-188l37 176q-132 -203 -363 -203q-127 0 -210 80t-83 223q0 44 13 107l135 641h188l-131 -621q-10 -55 -10 -88q0 -91 50.5 -136.5t140.5 -45.5q259 0 337 356z" />
    <glyph glyph-name="ucircumflex" unicode="&#xfb;" horiz-adv-x="1179" 
d="M768 1327l-174 -180h-164l264 287h189l141 -287h-152zM942 1024h188l-217 -1024h-188l37 176q-132 -203 -363 -203q-127 0 -210 80t-83 223q0 44 13 107l135 641h188l-131 -621q-10 -55 -10 -88q0 -91 50.5 -136.5t140.5 -45.5q259 0 337 356z" />
    <glyph glyph-name="udieresis" unicode="&#xfc;" horiz-adv-x="1179" 
d="M549 1178q-48 0 -78.5 29.5t-30.5 76.5q0 52 36 87.5t89 35.5q50 0 80.5 -28.5t30.5 -75.5q0 -53 -35.5 -89t-91.5 -36zM946 1178q-47 0 -77.5 29.5t-30.5 76.5q0 52 36 87.5t89 35.5q50 0 80 -28.5t30 -75.5q0 -53 -35.5 -89t-91.5 -36zM942 1024h188l-217 -1024h-188
l37 176q-132 -203 -363 -203q-127 0 -210 80t-83 223q0 44 13 107l135 641h188l-131 -621q-10 -55 -10 -88q0 -91 50.5 -136.5t140.5 -45.5q259 0 337 356z" />
    <glyph glyph-name="yacute" unicode="&#xfd;" horiz-adv-x="1071" 
d="M973 1434l-268 -287h-158l231 287h195zM936 1024h209l-946 -1413h-203l340 489l-186 924h188l131 -711z" />
    <glyph glyph-name="thorn" unicode="&#xfe;" horiz-adv-x="1222" 
d="M748 1055q119 0 208.5 -62.5t135 -167.5t45.5 -237q0 -164 -65.5 -305.5t-184.5 -227.5t-264 -86q-260 0 -336 258l-133 -616h-187l299 1413l96 451h189l-96 -451l-35 -160q133 191 328 191zM600 139q105 0 185.5 62.5t120.5 158.5t40 207q0 151 -72 233.5t-188 82.5
q-106 0 -187.5 -67t-122 -167.5t-40.5 -212.5q0 -145 69.5 -221t194.5 -76z" />
    <glyph glyph-name="ydieresis" unicode="&#xff;" horiz-adv-x="1071" 
d="M457 1178q-48 0 -78.5 29.5t-30.5 76.5q0 52 36 87.5t89 35.5q50 0 80.5 -28.5t30.5 -75.5q0 -53 -35.5 -89t-91.5 -36zM854 1178q-48 0 -78.5 29.5t-30.5 76.5q0 52 36 87.5t89 35.5q50 0 80.5 -28.5t30.5 -75.5q0 -53 -35.5 -89t-91.5 -36zM936 1024h209l-946 -1413
h-203l340 489l-186 924h188l131 -711z" />
    <glyph glyph-name="Amacron" unicode="&#x100;" horiz-adv-x="1341" 
d="M569 1724h719l-33 -151h-718zM731 1434h268l185 -1434h-203l-45 381h-576l-204 -381h-213zM449 545h466l-84 710z" />
    <glyph glyph-name="amacron" unicode="&#x101;" horiz-adv-x="1077" 
d="M412 1327h583l-28 -135h-584zM561 1055q192 0 297 -87t105 -255q0 -64 -19 -148l-121 -565h-186l25 109q-55 -65 -134.5 -102.5t-167.5 -37.5q-141 0 -223 86t-82 217q0 161 114 265t284 104q107 0 181 -43.5t107 -112.5l23 101q10 52 10 86q0 101 -63.5 157t-180.5 56
q-181 0 -348 -144l41 201q154 113 338 113zM446 121q117 0 189 59t72 152q0 76 -56 123t-151 47q-114 0 -183 -58.5t-69 -154.5q0 -80 52 -124t146 -44z" />
    <glyph glyph-name="Abreve" unicode="&#x102;" horiz-adv-x="1341" 
d="M1137 1847h153q-35 -146 -141.5 -224.5t-243.5 -78.5q-124 0 -207.5 63.5t-83.5 180.5q0 24 7 59h137q-2 -10 -2 -30q0 -65 45 -103.5t121 -38.5q83 0 138 46t77 126zM731 1434h268l185 -1434h-203l-45 381h-576l-204 -381h-213zM449 545h466l-84 710z" />
    <glyph glyph-name="abreve" unicode="&#x103;" horiz-adv-x="1077" 
d="M680 1130q-110 0 -181 59.5t-71 168.5q0 35 4 55h131q0 -4 -1 -13.5t-1 -13.5q0 -62 33 -97.5t94 -35.5q69 0 120.5 44t68.5 116h143q-31 -136 -125.5 -209.5t-214.5 -73.5zM561 1055q192 0 297 -87t105 -255q0 -64 -19 -148l-121 -565h-186l25 109
q-55 -65 -134.5 -102.5t-167.5 -37.5q-141 0 -223 86t-82 217q0 161 114 265t284 104q107 0 181 -43.5t107 -112.5l23 101q10 52 10 86q0 101 -63.5 157t-180.5 56q-181 0 -348 -144l41 201q154 113 338 113zM446 121q117 0 189 59t72 152q0 76 -56 123t-151 47
q-114 0 -183 -58.5t-69 -154.5q0 -80 52 -124t146 -44z" />
    <glyph glyph-name="Aogonek" unicode="&#x104;" horiz-adv-x="1341" 
d="M1149 0q-117 -13 -176.5 -62t-59.5 -118q0 -55 32.5 -85t82.5 -30q66 0 121 33l-25 -111q-64 -33 -135 -33q-90 0 -141 54t-51 141q0 76 48 134.5t136 82.5l-45 375h-576l-204 -381h-213l788 1434h268l185 -1434h-35zM449 545h466l-84 710z" />
    <glyph glyph-name="aogonek" unicode="&#x105;" horiz-adv-x="1077" 
d="M561 1055q192 0 297 -87t105 -255q0 -64 -19 -148l-121 -565h-35q-117 -13 -176 -62t-59 -118q0 -55 32.5 -85t82.5 -30q65 0 120 33l-26 -111q-64 -33 -133 -33q-90 0 -141.5 54t-51.5 141q0 81 53 140.5t150 82.5l23 97q-55 -65 -134.5 -102.5t-167.5 -37.5
q-141 0 -223 86t-82 217q0 161 114 265t284 104q107 0 181 -43.5t107 -112.5l23 101q10 52 10 86q0 101 -63.5 157t-180.5 56q-181 0 -348 -144l41 201q154 113 338 113zM446 121q117 0 189 59t72 152q0 76 -56 123t-151 47q-114 0 -183 -58.5t-69 -154.5q0 -80 52 -124
t146 -44z" />
    <glyph glyph-name="Cacute" unicode="&#x106;" horiz-adv-x="1372" 
d="M950 1561l232 286h202l-268 -286h-166zM805 -41q-152 0 -277.5 50.5t-209.5 139.5t-129.5 212t-45.5 268q0 178 59 333t166.5 269t267 179t351.5 65q138 0 248.5 -41.5t185.5 -106.5l-41 -199q-72 69 -177 112.5t-236 43.5q-147 0 -266 -52t-195 -141.5t-117 -204.5
t-41 -245q0 -220 133.5 -354.5t356.5 -134.5q232 0 424 122l-45 -208q-187 -107 -412 -107z" />
    <glyph glyph-name="cacute" unicode="&#x107;" horiz-adv-x="1015" 
d="M645 1147l232 287h194l-268 -287h-158zM563 -31q-209 0 -342 136.5t-133 353.5q0 165 70 300t203 215.5t305 80.5q195 0 340 -109l-39 -178q-58 58 -138 87.5t-167 29.5q-181 0 -281 -118t-100 -296q0 -154 88 -243t229 -89q134 0 293 88l-39 -182q-56 -26 -89 -39
t-87.5 -25t-112.5 -12z" />
    <glyph glyph-name="Ccircumflex" unicode="&#x108;" horiz-adv-x="1372" 
d="M1077 1747l-203 -186h-169l294 286h197l172 -286h-158zM967 1284q-147 0 -266 -52t-195 -141.5t-117 -204.5t-41 -245q0 -220 133.5 -354.5t356.5 -134.5q232 0 424 122l-45 -208q-187 -107 -412 -107q-152 0 -277.5 50.5t-209.5 139.5t-129.5 212t-45.5 268
q0 178 59 333t166.5 269t267 179t351.5 65q138 0 248.5 -41.5t185.5 -106.5l-41 -199q-72 69 -177 112.5t-236 43.5z" />
    <glyph glyph-name="ccircumflex" unicode="&#x109;" horiz-adv-x="1015" 
d="M774 1327l-174 -180h-164l264 287h189l141 -287h-151zM88 459q0 165 70 300t203 215.5t305 80.5q195 0 340 -109l-39 -178q-58 58 -138 87.5t-167 29.5q-181 0 -281 -118t-100 -296q0 -154 88 -243t229 -89q134 0 293 88l-39 -182q-56 -26 -89 -39t-87.5 -25t-112.5 -12
q-209 0 -342 136.5t-133 353.5z" />
    <glyph glyph-name="Cdotaccent" unicode="&#x10a;" horiz-adv-x="1372" 
d="M1051 1548q-55 0 -90 34t-35 89q0 60 42 102t103 42q57 0 92 -34t35 -89q0 -61 -41 -102.5t-106 -41.5zM805 -41q-152 0 -277.5 50.5t-209.5 139.5t-129.5 212t-45.5 268q0 178 59 333t166.5 269t267 179t351.5 65q138 0 248.5 -41.5t185.5 -106.5l-41 -199
q-72 69 -177 112.5t-236 43.5q-147 0 -266 -52t-195 -141.5t-117 -204.5t-41 -245q0 -220 133.5 -354.5t356.5 -134.5q232 0 424 122l-45 -208q-187 -107 -412 -107z" />
    <glyph glyph-name="cdotaccent" unicode="&#x10b;" horiz-adv-x="1015" 
d="M754 1159q-55 0 -90 34t-35 89q0 60 42 101.5t103 41.5q57 0 92 -33.5t35 -88.5q0 -61 -41 -102.5t-106 -41.5zM563 -31q-209 0 -342 136.5t-133 353.5q0 165 70 300t203 215.5t305 80.5q195 0 340 -109l-39 -178q-58 58 -138 87.5t-167 29.5q-181 0 -281 -118t-100 -296
q0 -154 88 -243t229 -89q134 0 293 88l-39 -182q-56 -26 -89 -39t-87.5 -25t-112.5 -12z" />
    <glyph glyph-name="Ccaron" unicode="&#x10c;" horiz-adv-x="1372" 
d="M1135 1561h-197l-172 286h158l133 -186l203 186h170zM143 629q0 178 59 333t166.5 269t267 179t351.5 65q138 0 248.5 -41.5t185.5 -106.5l-41 -199q-72 69 -177 112.5t-236 43.5q-147 0 -266 -52t-195 -141.5t-117 -204.5t-41 -245q0 -220 133.5 -354.5t356.5 -134.5
q232 0 424 122l-45 -208q-187 -107 -412 -107q-152 0 -277.5 50.5t-209.5 139.5t-129.5 212t-45.5 268z" />
    <glyph glyph-name="ccaron" unicode="&#x10d;" horiz-adv-x="1015" 
d="M827 1147h-188l-141 287h151l105 -181l174 181h164zM88 459q0 165 70 300t203 215.5t305 80.5q195 0 340 -109l-39 -178q-58 58 -138 87.5t-167 29.5q-181 0 -281 -118t-100 -296q0 -154 88 -243t229 -89q134 0 293 88l-39 -182q-56 -26 -89 -39t-87.5 -25t-112.5 -12
q-209 0 -342 136.5t-133 353.5z" />
    <glyph glyph-name="Dcaron" unicode="&#x10e;" horiz-adv-x="1474" 
d="M1075 1561h-196l-172 286h157l133 -186l203 186h170zM864 1434q260 0 408.5 -157t148.5 -427q0 -257 -105 -449.5t-302 -296.5t-463 -104h-457l303 1434h467zM600 182q143 0 260 50t194 137.5t118.5 205.5t41.5 254q0 203 -95.5 312.5t-293.5 109.5h-268l-225 -1069h268z
" />
    <glyph glyph-name="dcaron" unicode="&#x10f;" horiz-adv-x="1384" 
d="M1505 1493h215l-252 -369h-120zM938 799l143 676h189l-314 -1475h-188l33 158q-60 -89 -138 -139t-188 -50q-119 0 -208.5 62.5t-135 167.5t-45.5 237q0 164 65.5 305.5t184.5 227.5t264 86q260 0 338 -256zM537 141q106 0 187.5 67t122 167.5t40.5 212.5
q0 145 -69.5 221t-194.5 76q-105 0 -186 -62.5t-121 -158.5t-40 -207q0 -151 72.5 -233.5t188.5 -82.5z" />
    <glyph glyph-name="Dcroat" unicode="&#x110;" horiz-adv-x="1474" 
d="M864 1434q260 0 408.5 -157t148.5 -427q0 -257 -105 -449.5t-302 -296.5t-463 -104h-457l137 649h-174l29 135h174l137 650h467zM600 182q143 0 260 50t194 137.5t118.5 205.5t41.5 254q0 203 -95.5 312.5t-293.5 109.5h-268l-98 -467h313l-29 -135h-313l-98 -467h268z
" />
    <glyph glyph-name="dcroat" unicode="&#x111;" horiz-adv-x="1222" 
d="M1409 1333l-29 -135h-170l-254 -1198h-188l33 158q-60 -89 -138 -139t-188 -50q-119 0 -208.5 62.5t-135 167.5t-45.5 237q0 164 65.5 305.5t184.5 227.5t264 86q260 0 338 -256l84 399h-328l29 135h328l30 142h189l-31 -142h170zM537 141q106 0 187.5 67t122 167.5
t40.5 212.5q0 145 -69.5 221t-194.5 76q-105 0 -186 -62.5t-121 -158.5t-40 -207q0 -151 72.5 -233.5t188.5 -82.5z" />
    <glyph glyph-name="Emacron" unicode="&#x112;" horiz-adv-x="1208" 
d="M1280 1724l-33 -151h-719l33 151h719zM1280 1434l-37 -181h-686l-86 -409h643l-37 -176h-643l-102 -488h692l-37 -180h-893l303 1434h883z" />
    <glyph glyph-name="emacron" unicode="&#x113;" horiz-adv-x="1101" 
d="M1020 1327l-29 -135h-583l28 135h584zM637 1055q186 0 290.5 -110t104.5 -288q0 -61 -12 -125l-10 -53h-727v-8q0 -158 83.5 -245t237.5 -87q86 0 164.5 26t171.5 77l-39 -183q-62 -30 -101 -46t-101 -30t-128 -14q-224 0 -352.5 135t-128.5 355q0 124 38.5 232.5
t108 189t173 127.5t227.5 47zM618 885q-128 0 -209 -72.5t-110 -194.5h553q2 12 2 37q0 106 -63.5 168t-172.5 62z" />
    <glyph glyph-name="Ebreve" unicode="&#x114;" horiz-adv-x="1208" 
d="M897 1544q-124 0 -207.5 63.5t-83.5 180.5q0 29 6 59h138q-2 -10 -2 -30q0 -65 44.5 -103.5t120.5 -38.5q83 0 138 46t77 126h154q-35 -146 -141.5 -224.5t-243.5 -78.5zM1280 1434l-37 -181h-686l-86 -409h643l-37 -176h-643l-102 -488h692l-37 -180h-893l303 1434h883z
" />
    <glyph glyph-name="ebreve" unicode="&#x115;" horiz-adv-x="1101" 
d="M705 1130q-110 0 -181 59.5t-71 168.5q0 35 4 55h131q0 -4 -1 -13.5t-1 -13.5q0 -62 33 -97.5t94 -35.5q69 0 120 44t68 116h143q-31 -136 -125 -209.5t-214 -73.5zM637 1055q186 0 290.5 -110t104.5 -288q0 -61 -12 -125l-10 -53h-727v-8q0 -158 83.5 -245t237.5 -87
q86 0 164.5 26t171.5 77l-39 -183q-62 -30 -101 -46t-101 -30t-128 -14q-224 0 -352.5 135t-128.5 355q0 124 38.5 232.5t108 189t173 127.5t227.5 47zM618 885q-128 0 -209 -72.5t-110 -194.5h553q2 12 2 37q0 106 -63.5 168t-172.5 62z" />
    <glyph glyph-name="Edotaccent" unicode="&#x116;" horiz-adv-x="1208" 
d="M901 1548q-55 0 -90 34t-35 89q0 60 42.5 102t103.5 42q57 0 92 -34t35 -89q0 -61 -41.5 -102.5t-106.5 -41.5zM1243 1253h-686l-86 -409h643l-37 -176h-643l-102 -488h692l-37 -180h-893l303 1434h883z" />
    <glyph glyph-name="edotaccent" unicode="&#x117;" horiz-adv-x="1101" 
d="M711 1159q-55 0 -90 34t-35 89q0 60 42 101.5t103 41.5q57 0 92 -33.5t35 -88.5q0 -61 -41 -102.5t-106 -41.5zM637 1055q186 0 290.5 -110t104.5 -288q0 -61 -12 -125l-10 -53h-727v-8q0 -158 83.5 -245t237.5 -87q86 0 164.5 26t171.5 77l-39 -183q-62 -30 -101 -46
t-101 -30t-128 -14q-224 0 -352.5 135t-128.5 355q0 124 38.5 232.5t108 189t173 127.5t227.5 47zM618 885q-128 0 -209 -72.5t-110 -194.5h553q2 12 2 37q0 106 -63.5 168t-172.5 62z" />
    <glyph glyph-name="Eogonek" unicode="&#x118;" horiz-adv-x="1208" 
d="M1243 1253h-686l-86 -409h643l-37 -176h-643l-102 -488h692l-37 -180h-35q-117 -13 -176 -62t-59 -118q0 -55 32 -85t82 -30q66 0 121 33l-24 -111q-64 -33 -135 -33q-90 0 -141.5 54t-51.5 141q0 71 42.5 127.5t119.5 83.5h-668l303 1434h883z" />
    <glyph glyph-name="eogonek" unicode="&#x119;" horiz-adv-x="1101" 
d="M637 1055q186 0 290.5 -110t104.5 -288q0 -61 -12 -125l-10 -53h-727v-8q0 -158 83.5 -245t237.5 -87q86 0 164.5 26t171.5 77l-39 -183q-62 -30 -101 -46t-101 -30t-128 -14q-112 -49 -112 -149q0 -55 32 -85t82 -30q66 0 121 33l-26 -111q-64 -33 -133 -33
q-90 0 -141.5 54t-51.5 141q0 125 117 191q-173 32 -271 161t-98 318q0 124 38.5 232.5t108 189t173 127.5t227.5 47zM618 885q-128 0 -209 -72.5t-110 -194.5h553q2 12 2 37q0 106 -63.5 168t-172.5 62z" />
    <glyph glyph-name="Ecaron" unicode="&#x11a;" horiz-adv-x="1208" 
d="M985 1561h-197l-172 286h158l133 -186l203 186h170zM1280 1434l-37 -181h-686l-86 -409h643l-37 -176h-643l-102 -488h692l-37 -180h-893l303 1434h883z" />
    <glyph glyph-name="ecaron" unicode="&#x11b;" horiz-adv-x="1101" 
d="M784 1147h-188l-141 287h151l105 -181l174 181h164zM637 1055q186 0 290.5 -110t104.5 -288q0 -61 -12 -125l-10 -53h-727v-8q0 -158 83.5 -245t237.5 -87q86 0 164.5 26t171.5 77l-39 -183q-62 -30 -101 -46t-101 -30t-128 -14q-224 0 -352.5 135t-128.5 355
q0 124 38.5 232.5t108 189t173 127.5t227.5 47zM618 885q-128 0 -209 -72.5t-110 -194.5h553q2 12 2 37q0 106 -63.5 168t-172.5 62z" />
    <glyph glyph-name="Gcircumflex" unicode="&#x11c;" horiz-adv-x="1597" 
d="M1145 1747l-203 -186h-170l295 286h197l172 -286h-158zM647 786h903l-32 -174q-31 -170 -98.5 -297t-162 -204t-207.5 -114.5t-245 -37.5q-148 0 -272.5 50.5t-209.5 139t-132.5 212.5t-47.5 268q0 178 59 333t166.5 269t267 179t351.5 65q284 0 502 -187l-39 -192
q-82 82 -203.5 135t-271.5 53t-270.5 -50t-197.5 -138t-118 -204t-41 -251q0 -223 127.5 -359.5t341.5 -136.5q197 0 332 118.5t180 346.5h-723z" />
    <glyph glyph-name="gcircumflex" unicode="&#x11d;" horiz-adv-x="1218" 
d="M760 1327l-174 -180h-164l264 287h188l142 -287h-152zM983 1024h188l-200 -932q-56 -260 -209.5 -386t-370.5 -126q-114 0 -215.5 42.5t-161.5 107.5l39 186q73 -81 154.5 -124.5t185.5 -43.5q159 0 260.5 101t139.5 278l20 92q-129 -190 -330 -190q-178 0 -284.5 125.5
t-106.5 318.5q0 153 66.5 286t185.5 214.5t262 81.5q250 0 330 -256zM547 197q101 0 179.5 58t118.5 148.5t40 194.5q0 135 -69 211t-189 76q-79 0 -145 -33.5t-109 -89t-66.5 -126.5t-23.5 -147q0 -139 73 -215.5t191 -76.5z" />
    <glyph glyph-name="Gbreve" unicode="&#x11e;" horiz-adv-x="1597" 
d="M1114 1544q-124 0 -207.5 63.5t-83.5 180.5q0 29 6 59h138q-2 -10 -2 -30q0 -65 44.5 -103.5t120.5 -38.5q83 0 138.5 46t77.5 126h153q-35 -146 -141.5 -224.5t-243.5 -78.5zM647 786h903l-32 -174q-31 -170 -98.5 -297t-162 -204t-207.5 -114.5t-245 -37.5
q-148 0 -272.5 50.5t-209.5 139t-132.5 212.5t-47.5 268q0 178 59 333t166.5 269t267 179t351.5 65q284 0 502 -187l-39 -192q-82 82 -203.5 135t-271.5 53t-270.5 -50t-197.5 -138t-118 -204t-41 -251q0 -223 127.5 -359.5t341.5 -136.5q197 0 332 118.5t180 346.5h-723z
" />
    <glyph glyph-name="gbreve" unicode="&#x11f;" horiz-adv-x="1218" 
d="M733 1130q-110 0 -181 59.5t-71 168.5q0 35 4 55h131q0 -4 -1 -13.5t-1 -13.5q0 -62 33 -97.5t94 -35.5q69 0 120.5 44t68.5 116h143q-31 -136 -125.5 -209.5t-214.5 -73.5zM983 1024h188l-200 -932q-56 -260 -209.5 -386t-370.5 -126q-114 0 -215.5 42.5t-161.5 107.5
l39 186q73 -81 154.5 -124.5t185.5 -43.5q159 0 260.5 101t139.5 278l20 92q-129 -190 -330 -190q-178 0 -284.5 125.5t-106.5 318.5q0 153 66.5 286t185.5 214.5t262 81.5q250 0 330 -256zM547 197q101 0 179.5 58t118.5 148.5t40 194.5q0 135 -69 211t-189 76
q-79 0 -145 -33.5t-109 -89t-66.5 -126.5t-23.5 -147q0 -139 73 -215.5t191 -76.5z" />
    <glyph glyph-name="Gdotaccent" unicode="&#x120;" horiz-adv-x="1597" 
d="M1118 1548q-55 0 -90 34t-35 89q0 60 42.5 102t103.5 42q57 0 92 -34t35 -89q0 -61 -41.5 -102.5t-106.5 -41.5zM647 786h903l-32 -174q-31 -170 -98.5 -297t-162 -204t-207.5 -114.5t-245 -37.5q-148 0 -272.5 50.5t-209.5 139t-132.5 212.5t-47.5 268q0 178 59 333
t166.5 269t267 179t351.5 65q284 0 502 -187l-39 -192q-82 82 -203.5 135t-271.5 53t-270.5 -50t-197.5 -138t-118 -204t-41 -251q0 -223 127.5 -359.5t341.5 -136.5q197 0 332 118.5t180 346.5h-723z" />
    <glyph glyph-name="gdotaccent" unicode="&#x121;" horiz-adv-x="1218" 
d="M739 1159q-55 0 -90 34t-35 89q0 60 42.5 101.5t103.5 41.5q57 0 92 -33.5t35 -88.5q0 -61 -41.5 -102.5t-106.5 -41.5zM983 1024h188l-200 -932q-56 -260 -209.5 -386t-370.5 -126q-114 0 -215.5 42.5t-161.5 107.5l39 186q73 -81 154.5 -124.5t185.5 -43.5
q159 0 260.5 101t139.5 278l20 92q-129 -190 -330 -190q-178 0 -284.5 125.5t-106.5 318.5q0 153 66.5 286t185.5 214.5t262 81.5q250 0 330 -256zM547 197q101 0 179.5 58t118.5 148.5t40 194.5q0 135 -69 211t-189 76q-79 0 -145 -33.5t-109 -89t-66.5 -126.5t-23.5 -147
q0 -139 73 -215.5t191 -76.5z" />
    <glyph glyph-name="Gcommaaccent" unicode="&#x122;" horiz-adv-x="1597" 
d="M647 786h903l-32 -174q-31 -170 -98.5 -297t-162 -204t-207.5 -114.5t-245 -37.5q-148 0 -272.5 50.5t-209.5 139t-132.5 212.5t-47.5 268q0 178 59 333t166.5 269t267 179t351.5 65q284 0 502 -187l-39 -192q-82 82 -203.5 135t-271.5 53t-270.5 -50t-197.5 -138
t-118 -204t-41 -251q0 -223 127.5 -359.5t341.5 -136.5q197 0 332 118.5t180 346.5h-723zM541 -467l155 348h224l-250 -348h-129z" />
    <glyph glyph-name="gcommaaccent" unicode="&#x123;" horiz-adv-x="1218" 
d="M995 1495l-174 -348h-223l268 348h129zM983 1024h188l-200 -932q-56 -260 -209.5 -386t-370.5 -126q-114 0 -215.5 42.5t-161.5 107.5l39 186q73 -81 154.5 -124.5t185.5 -43.5q159 0 260.5 101t139.5 278l20 92q-129 -190 -330 -190q-178 0 -284.5 125.5t-106.5 318.5
q0 153 66.5 286t185.5 214.5t262 81.5q250 0 330 -256zM547 197q101 0 179.5 58t118.5 148.5t40 194.5q0 135 -69 211t-189 76q-79 0 -145 -33.5t-109 -89t-66.5 -126.5t-23.5 -147q0 -139 73 -215.5t191 -76.5z" />
    <glyph glyph-name="Hcircumflex" unicode="&#x124;" horiz-adv-x="1529" 
d="M1026 1747l-203 -186h-170l295 286h197l172 -286h-158zM1325 1434h199l-303 -1434h-199l135 641h-729l-135 -641h-199l303 1434h199l-129 -611h729z" />
    <glyph glyph-name="hcircumflex" unicode="&#x125;" horiz-adv-x="1187" 
d="M852 1696l-174 -180h-164l264 286h189l141 -286h-152zM760 1055q147 0 230 -85.5t83 -242.5q0 -59 -12 -127l-127 -600h-189l127 600q13 63 13 105q0 184 -203 184q-121 0 -201.5 -79t-118.5 -224l-124 -586h-189l313 1475h189l-129 -611q63 96 144.5 143.5t193.5 47.5z
" />
    <glyph glyph-name="Hbar" unicode="&#x126;" horiz-adv-x="1585" 
d="M1686 1194l-29 -135h-187l-223 -1059h-198l135 641h-729l-136 -641h-198l223 1059h-182l28 135h183l51 240h199l-52 -240h729l52 240h198l-51 -240h187zM1223 823l49 236h-729l-49 -236h729z" />
    <glyph glyph-name="hbar" unicode="&#x127;" horiz-adv-x="1187" 
d="M760 1055q147 0 230 -85.5t83 -242.5q0 -59 -12 -127l-127 -600h-189l127 600q13 63 13 105q0 184 -203 184q-121 0 -201.5 -79t-118.5 -224l-124 -586h-189l254 1198h-162l29 135h162l30 142h189l-31 -142h336l-29 -135h-335l-70 -334q63 96 144.5 143.5t193.5 47.5z
" />
    <glyph glyph-name="Itilde" unicode="&#x128;" horiz-adv-x="602" 
d="M145 1587q24 118 95 181t172 63q51 0 96 -21t72.5 -45.5t62.5 -45.5t68 -21q106 0 129 117h123q-24 -118 -93.5 -181t-169.5 -63q-52 0 -98.5 20.5t-75 45t-64.5 45t-69 20.5q-101 0 -127 -115h-121zM92 0l305 1434h199l-305 -1434h-199z" />
    <glyph glyph-name="itilde" unicode="&#x129;" horiz-adv-x="516" 
d="M522 1147q-38 0 -71.5 18.5t-53.5 40t-46 40t-50 18.5q-76 0 -96 -93h-111q23 104 81.5 159.5t141.5 55.5q37 0 69.5 -18.5t52 -40.5t44.5 -40.5t49 -18.5q38 0 63 25t34 67h112q-22 -103 -79 -158t-140 -55zM55 0l217 1024h189l-217 -1024h-189z" />
    <glyph glyph-name="Imacron" unicode="&#x12a;" horiz-adv-x="602" 
d="M231 1573l27 151h576l-27 -151h-576zM92 0l305 1434h199l-305 -1434h-199z" />
    <glyph glyph-name="imacron" unicode="&#x12b;" horiz-adv-x="516" 
d="M111 1192l28 135h584l-29 -135h-583zM55 0l217 1024h189l-217 -1024h-189z" />
    <glyph glyph-name="Ibreve" unicode="&#x12c;" horiz-adv-x="602" 
d="M535 1544q-124 0 -207.5 63.5t-83.5 180.5q0 29 6 59h137q-2 -10 -2 -30q0 -65 45 -103.5t121 -38.5q83 0 138 46t77 126h154q-35 -146 -141.5 -224.5t-243.5 -78.5zM92 0l305 1434h199l-305 -1434h-199z" />
    <glyph glyph-name="ibreve" unicode="&#x12d;" horiz-adv-x="516" 
d="M408 1130q-110 0 -181 59.5t-71 168.5q0 35 4 55h131q0 -4 -1 -13.5t-1 -13.5q0 -62 33 -97.5t94 -35.5q69 0 120 44t68 116h144q-31 -136 -125.5 -209.5t-214.5 -73.5zM55 0l217 1024h189l-217 -1024h-189z" />
    <glyph glyph-name="Iogonek" unicode="&#x12e;" horiz-adv-x="602" 
d="M397 1434h199l-305 -1434h-35q-117 -13 -176.5 -62t-59.5 -118q0 -55 32.5 -85t82.5 -30q66 0 121 33l-25 -111q-64 -33 -135 -33q-90 0 -141 54t-51 141q0 78 49.5 136.5t140.5 82.5z" />
    <glyph glyph-name="iogonek" unicode="&#x12f;" horiz-adv-x="528" 
d="M459 1454q49 0 78.5 -28.5t29.5 -75.5q0 -59 -38.5 -98.5t-98.5 -39.5q-50 0 -79 29t-29 76q0 59 39 98t98 39zM70 14l215 1010h188l-217 -1024h-45q-117 -13 -176.5 -62t-59.5 -118q0 -55 32.5 -85t82.5 -30q66 0 121 33l-27 -111q-64 -33 -133 -33q-90 0 -141 54
t-51 141q0 83 55.5 143.5t155.5 81.5z" />
    <glyph glyph-name="Idotaccent" unicode="&#x130;" horiz-adv-x="602" 
d="M539 1548q-55 0 -90 34t-35 89q0 60 42 102t103 42q57 0 92 -34t35 -89q0 -61 -41 -102.5t-106 -41.5zM92 0l305 1434h199l-305 -1434h-199z" />
    <glyph glyph-name="dotlessi" unicode="&#x131;" horiz-adv-x="516" 
d="M55 0l217 1024h189l-217 -1024h-189z" />
    <glyph glyph-name="IJ" unicode="&#x132;" horiz-adv-x="1449" 
d="M92 0l305 1434h199l-305 -1434h-199zM758 -41q-84 0 -160.5 28.5t-108.5 67.5l41 187q29 -26 52.5 -42.5t72.5 -33t107 -16.5q105 0 180 67.5t105 204.5l215 1012h198l-227 -1059q-91 -416 -475 -416z" />
    <glyph glyph-name="ij" unicode="&#x133;" horiz-adv-x="1044" 
d="M418 1212q-50 0 -79.5 29t-29.5 76q0 59 39.5 98t97.5 39q50 0 79.5 -28.5t29.5 -75.5q0 -59 -38.5 -98.5t-98.5 -39.5zM944 1212q-50 0 -79 29t-29 76q0 59 39 98t98 39q49 0 78.5 -28.5t29.5 -75.5q0 -59 -38.5 -98.5t-98.5 -39.5zM55 0l217 1024h189l-217 -1024h-189z
M414 -420q-105 0 -172 55l32 158q61 -45 136 -45q59 0 98 39.5t59 130.5l232 1106h188l-242 -1151q-29 -140 -117 -216.5t-214 -76.5z" />
    <glyph glyph-name="Jcircumflex" unicode="&#x134;" horiz-adv-x="903" 
d="M1001 1847l173 -286h-158l-133 186l-203 -186h-170l295 286h196zM500 422l215 1012h198l-227 -1059q-91 -416 -475 -416q-84 0 -160 28.5t-108 67.5l41 187q29 -26 52 -42.5t72 -33t107 -16.5q105 0 180 67.5t105 204.5z" />
    <glyph glyph-name="jcircumflex" unicode="&#x135;" horiz-adv-x="528" 
d="M561 1434l141 -287h-151l-105 180l-174 -180h-163l264 287h188zM51 -82l232 1106h188l-242 -1151q-29 -140 -117 -216.5t-214 -76.5q-105 0 -172 55l32 158q61 -45 136 -45q59 0 98 39.5t59 130.5z" />
    <glyph glyph-name="Kcommaaccent" unicode="&#x136;" horiz-adv-x="1284" 
d="M1448 1434l-782 -666l514 -768h-244l-485 745l-158 -745h-199l303 1434h199l-131 -617l696 617h287zM209 -467l156 348h223l-250 -348h-129z" />
    <glyph glyph-name="kcommaaccent" unicode="&#x137;" horiz-adv-x="1026" 
d="M1106 1024l-571 -457l385 -567h-232l-336 541l-114 -541h-189l313 1475h189l-180 -852l463 401h272zM109 -489l157 368h215l-252 -368h-120z" />
    <glyph glyph-name="Lacute" unicode="&#x139;" horiz-adv-x="1079" 
d="M872 1847l-268 -286h-166l232 286h202zM332 188h653l-39 -188h-852l303 1434h199z" />
    <glyph glyph-name="lacute" unicode="&#x13a;" horiz-adv-x="516" 
d="M399 1597l232 287h194l-268 -287h-158zM55 0l314 1475h188l-313 -1475h-189z" />
    <glyph glyph-name="Lcommaaccent" unicode="&#x13b;" horiz-adv-x="1079" 
d="M332 188h653l-39 -188h-852l303 1434h199zM133 -467l156 348h223l-250 -348h-129z" />
    <glyph glyph-name="lcommaaccent" unicode="&#x13c;" horiz-adv-x="516" 
d="M55 0l314 1475h188l-313 -1475h-189zM-154 -489l158 368h215l-252 -368h-121z" />
    <glyph glyph-name="Lcaron" unicode="&#x13d;" horiz-adv-x="1093" 
d="M596 1434l-264 -1246h653l-39 -188h-852l303 1434h199zM1143 1434l-295 -471h-150l201 471h244z" />
    <glyph glyph-name="lcaron" unicode="&#x13e;" horiz-adv-x="641" 
d="M604 1124l158 369h215l-252 -369h-121zM55 0l314 1475h188l-313 -1475h-189z" />
    <glyph glyph-name="Ldot" unicode="&#x13f;" horiz-adv-x="1079" 
d="M332 188h653l-39 -188h-852l303 1434h199zM784 645q-56 0 -91.5 35.5t-35.5 93.5q0 63 42.5 107.5t105.5 44.5q59 0 94 -35t35 -94q0 -64 -42 -108t-108 -44z" />
    <glyph glyph-name="ldot" unicode="&#x140;" horiz-adv-x="802" 
d="M55 0l314 1475h188l-313 -1475h-189zM686 543q-56 0 -91.5 35.5t-35.5 93.5q0 63 42.5 107t105.5 44q59 0 94 -35.5t35 -93.5q0 -64 -42 -107.5t-108 -43.5z" />
    <glyph glyph-name="Lslash" unicode="&#x141;" horiz-adv-x="1120" 
d="M373 188h653l-39 -188h-852l137 649l-231 -131l31 152l233 131l133 633h199l-107 -504l269 151l-33 -151l-268 -152z" />
    <glyph glyph-name="lslash" unicode="&#x142;" horiz-adv-x="649" 
d="M711 1016l-31 -152l-199 -112l-159 -752h-189l133 631l-196 -113l30 152l199 112l147 693h189l-121 -572z" />
    <glyph glyph-name="Nacute" unicode="&#x143;" horiz-adv-x="1572" 
d="M1315 1847l-268 -286h-166l231 286h203zM1378 1434h189l-303 -1434h-250l-465 1249l-266 -1249h-189l303 1434h279l446 -1207z" />
    <glyph glyph-name="nacute" unicode="&#x144;" horiz-adv-x="1189" 
d="M1087 1434l-268 -287h-157l231 287h194zM762 1055q147 0 230 -85.5t83 -242.5q0 -59 -12 -127l-127 -600h-188l126 600q13 63 13 105q0 184 -203 184q-128 0 -211 -87.5t-117 -248.5l-116 -553h-189l217 1024h189l-35 -160q127 191 340 191z" />
    <glyph glyph-name="Ncommaaccent" unicode="&#x145;" horiz-adv-x="1572" 
d="M1378 1434h189l-303 -1434h-250l-465 1249l-266 -1249h-189l303 1434h279l446 -1207zM344 -467l156 348h223l-250 -348h-129z" />
    <glyph glyph-name="ncommaaccent" unicode="&#x146;" horiz-adv-x="1189" 
d="M762 1055q147 0 230 -85.5t83 -242.5q0 -59 -12 -127l-127 -600h-188l126 600q13 63 13 105q0 184 -203 184q-128 0 -211 -87.5t-117 -248.5l-116 -553h-189l217 1024h189l-35 -160q127 191 340 191zM203 -489l157 368h215l-251 -368h-121z" />
    <glyph glyph-name="Ncaron" unicode="&#x147;" horiz-adv-x="1572" 
d="M1065 1561h-197l-172 286h158l133 -186l203 186h170zM1378 1434h189l-303 -1434h-250l-465 1249l-266 -1249h-189l303 1434h279l446 -1207z" />
    <glyph glyph-name="ncaron" unicode="&#x148;" horiz-adv-x="1189" 
d="M844 1147h-189l-141 287h152l104 -181l174 181h164zM762 1055q147 0 230 -85.5t83 -242.5q0 -59 -12 -127l-127 -600h-188l126 600q13 63 13 105q0 184 -203 184q-128 0 -211 -87.5t-117 -248.5l-116 -553h-189l217 1024h189l-35 -160q127 191 340 191z" />
    <glyph glyph-name="Eng" unicode="&#x14a;" horiz-adv-x="1572" 
d="M1378 1434h189l-297 -1405q-44 -219 -171 -329t-311 -110q-84 0 -160 28.5t-108 68.5l41 178q29 -26 52.5 -42.5t72.5 -33t107 -16.5q177 0 251 149l-495 1327l-266 -1249h-189l303 1434h279l446 -1207z" />
    <glyph glyph-name="eng" unicode="&#x14b;" horiz-adv-x="1189" 
d="M762 1055q147 0 230 -85.5t83 -242.5q0 -59 -12 -127l-127 -600l-27 -127q-29 -140 -117 -216.5t-214 -76.5q-105 0 -172 55l32 158q61 -45 135 -45q60 0 99.5 39t58.5 131l17 82l126 600q13 63 13 105q0 184 -203 184q-128 0 -211 -87.5t-117 -248.5l-116 -553h-189
l217 1024h189l-35 -160q127 191 340 191z" />
    <glyph glyph-name="Omacron" unicode="&#x14c;" horiz-adv-x="1652" 
d="M647 1573l33 151h719l-33 -151h-719zM797 -41q-197 0 -347 89t-228.5 239t-78.5 336q0 236 101.5 430t288.5 308t423 114q147 0 268.5 -51.5t202.5 -141.5t125.5 -211.5t44.5 -261.5q0 -234 -103.5 -428.5t-287.5 -308t-409 -113.5zM821 150q105 0 197 36.5t159.5 99
t116 145.5t73 178t24.5 194q0 218 -128.5 349.5t-334.5 131.5q-138 0 -250 -55.5t-182.5 -149t-108 -209.5t-37.5 -243q0 -214 131.5 -345.5t339.5 -131.5z" />
    <glyph glyph-name="omacron" unicode="&#x14d;" horiz-adv-x="1163" 
d="M401 1192l29 135h584l-29 -135h-584zM530 -41q-197 0 -320.5 133.5t-123.5 343.5q0 174 70 315.5t195 222.5t280 81q198 0 322 -129t124 -346q0 -173 -69.5 -315t-195 -224t-282.5 -82zM545 133q151 0 245.5 122t94.5 308q0 150 -74.5 235t-198.5 85
q-150 0 -241.5 -120.5t-91.5 -309.5q0 -150 72 -235t194 -85z" />
    <glyph glyph-name="Obreve" unicode="&#x14e;" horiz-adv-x="1652" 
d="M1016 1544q-124 0 -207.5 63.5t-83.5 180.5q0 29 6 59h137q-2 -10 -2 -30q0 -65 45 -103.5t121 -38.5q83 0 138 46t77 126h154q-35 -146 -141.5 -224.5t-243.5 -78.5zM797 -41q-197 0 -347 89t-228.5 239t-78.5 336q0 236 101.5 430t288.5 308t423 114q147 0 268.5 -51.5
t202.5 -141.5t125.5 -211.5t44.5 -261.5q0 -234 -103.5 -428.5t-287.5 -308t-409 -113.5zM821 150q105 0 197 36.5t159.5 99t116 145.5t73 178t24.5 194q0 218 -128.5 349.5t-334.5 131.5q-138 0 -250 -55.5t-182.5 -149t-108 -209.5t-37.5 -243q0 -214 131.5 -345.5
t339.5 -131.5z" />
    <glyph glyph-name="obreve" unicode="&#x14f;" horiz-adv-x="1163" 
d="M698 1130q-110 0 -181 59.5t-71 168.5q0 30 5 55h131q0 -4 -1 -13.5t-1 -13.5q0 -62 33 -97.5t94 -35.5q69 0 120 44t68 116h143q-31 -136 -125.5 -209.5t-214.5 -73.5zM530 -41q-197 0 -320.5 133.5t-123.5 343.5q0 174 70 315.5t195 222.5t280 81q198 0 322 -129
t124 -346q0 -173 -69.5 -315t-195 -224t-282.5 -82zM545 133q151 0 245.5 122t94.5 308q0 150 -74.5 235t-198.5 85q-150 0 -241.5 -120.5t-91.5 -309.5q0 -150 72 -235t194 -85z" />
    <glyph glyph-name="Ohungarumlaut" unicode="&#x150;" horiz-adv-x="1652" 
d="M754 1561l211 286h182l-248 -286h-145zM1069 1561l211 286h182l-248 -286h-145zM797 -41q-197 0 -347 89t-228.5 239t-78.5 336q0 236 101.5 430t288.5 308t423 114q147 0 268.5 -51.5t202.5 -141.5t125.5 -211.5t44.5 -261.5q0 -234 -103.5 -428.5t-287.5 -308
t-409 -113.5zM821 150q105 0 197 36.5t159.5 99t116 145.5t73 178t24.5 194q0 218 -128.5 349.5t-334.5 131.5q-138 0 -250 -55.5t-182.5 -149t-108 -209.5t-37.5 -243q0 -214 131.5 -345.5t339.5 -131.5z" />
    <glyph glyph-name="ohungarumlaut" unicode="&#x151;" horiz-adv-x="1163" 
d="M455 1147l252 287h174l-289 -287h-137zM762 1147l252 287h174l-289 -287h-137zM530 -41q-197 0 -320.5 133.5t-123.5 343.5q0 174 70 315.5t195 222.5t280 81q198 0 322 -129t124 -346q0 -173 -69.5 -315t-195 -224t-282.5 -82zM545 133q151 0 245.5 122t94.5 308
q0 150 -74.5 235t-198.5 85q-150 0 -241.5 -120.5t-91.5 -309.5q0 -150 72 -235t194 -85z" />
    <glyph glyph-name="OE" unicode="&#x152;" horiz-adv-x="2326" 
d="M2359 1253h-696l-86 -409h653l-37 -176h-655l-102 -488h706l-39 -180h-895l31 143q-206 -184 -485 -184q-140 0 -256 51t-192.5 140t-118.5 208.5t-42 257.5q0 178 59 336t162 273.5t250 182.5t316 67q193 0 325.5 -78t200.5 -219l55 256h885zM799 150q194 0 334.5 122
t199.5 312l27 129q6 47 6 96q0 216 -120.5 345.5t-319.5 129.5q-135 0 -246 -56t-181.5 -149.5t-108.5 -211.5t-38 -246q0 -212 123 -341.5t324 -129.5z" />
    <glyph glyph-name="oe" unicode="&#x153;" horiz-adv-x="1871" 
d="M530 -41q-197 0 -320.5 133.5t-123.5 343.5q0 174 70 315.5t195 222.5t280 81q120 0 214 -54.5t150 -154.5q70 98 175.5 153.5t236.5 55.5q186 0 290.5 -110.5t104.5 -289.5q0 -63 -22 -176h-727v-8q0 -158 83.5 -245t237.5 -87q86 0 164.5 26t171.5 77l-39 -183
q-62 -30 -101 -46t-101 -30t-128 -14q-137 0 -238 57t-159 160q-70 -106 -178 -166.5t-236 -60.5zM1069 618h553q2 12 2 37q0 106 -62.5 168t-172.5 62q-128 0 -209.5 -72.5t-110.5 -194.5zM545 133q155 0 247.5 125t92.5 305q0 150 -74.5 235t-198.5 85
q-150 0 -241.5 -120.5t-91.5 -309.5q0 -150 72 -235t194 -85z" />
    <glyph glyph-name="Racute" unicode="&#x154;" horiz-adv-x="1275" 
d="M1225 1847l-269 -286h-165l231 286h203zM1288 1051q0 -133 -65 -233.5t-173.5 -151t-242.5 -50.5h-119l424 -616h-235l-441 678l-143 -678h-199l303 1434h502q183 0 286 -106.5t103 -276.5zM457 770h321q140 0 221.5 73.5t81.5 198.5q0 101 -56 156t-163 55h-303z" />
    <glyph glyph-name="racute" unicode="&#x155;" horiz-adv-x="763" 
d="M897 1434l-268 -287h-158l231 287h195zM416 831q57 102 128 156.5t148 54.5q87 0 139 -49l-38 -180q-57 49 -154 49t-176 -87t-109 -238l-114 -537h-189l217 1024h189z" />
    <glyph glyph-name="Rcommaaccent" unicode="&#x156;" horiz-adv-x="1275" 
d="M1288 1051q0 -133 -65 -233.5t-173.5 -151t-242.5 -50.5h-119l424 -616h-235l-441 678l-143 -678h-199l303 1434h502q183 0 286 -106.5t103 -276.5zM457 770h321q140 0 221.5 73.5t81.5 198.5q0 101 -56 156t-163 55h-303zM254 -467l156 348h223l-250 -348h-129z" />
    <glyph glyph-name="rcommaaccent" unicode="&#x157;" horiz-adv-x="763" 
d="M692 1042q87 0 139 -49l-38 -180q-57 49 -154 49t-176 -87t-109 -238l-114 -537h-189l217 1024h189l-41 -193q57 102 128 156.5t148 54.5zM-150 -489l158 368h215l-252 -368h-121z" />
    <glyph glyph-name="Rcaron" unicode="&#x158;" horiz-adv-x="1275" 
d="M975 1561h-197l-172 286h158l133 -186l203 186h170zM1288 1051q0 -133 -65 -233.5t-173.5 -151t-242.5 -50.5h-119l424 -616h-235l-441 678l-143 -678h-199l303 1434h502q183 0 286 -106.5t103 -276.5zM457 770h321q140 0 221.5 73.5t81.5 198.5q0 101 -56 156t-163 55
h-303z" />
    <glyph glyph-name="rcaron" unicode="&#x159;" horiz-adv-x="763" 
d="M653 1147h-188l-141 287h151l105 -181l174 181h164zM416 831q57 102 128 156.5t148 54.5q87 0 139 -49l-38 -180q-57 49 -154 49t-176 -87t-109 -238l-114 -537h-189l217 1024h189z" />
    <glyph glyph-name="Sacute" unicode="&#x15a;" horiz-adv-x="1140" 
d="M682 1561l231 286h203l-268 -286h-166zM532 -41q-137 0 -269 56t-220 171l49 203q166 -242 428 -242q141 0 221 64.5t80 171.5q0 74 -40 124t-142 114l-162 100q-117 72 -176 160t-59 204q0 122 64.5 212t171 134t239.5 44q115 0 231.5 -47t196.5 -125l-45 -197
q-80 85 -183.5 133.5t-205.5 48.5q-127 0 -198 -51.5t-71 -142.5q0 -77 44 -125.5t145 -108.5l151 -90q126 -75 186 -165.5t60 -207.5q0 -87 -35.5 -166.5t-98.5 -140t-157 -96t-205 -35.5z" />
    <glyph glyph-name="sacute" unicode="&#x15b;" horiz-adv-x="923" 
d="M500 1147l231 287h195l-269 -287h-157zM428 -31q-125 0 -234 45.5t-174 122.5l37 160q61 -74 159.5 -118t207.5 -44q87 0 138.5 37.5t51.5 112.5q0 44 -25.5 78t-90.5 65l-162 74q-184 85 -184 248q0 140 101 222.5t277 82.5q93 0 189 -37.5t155 -99.5l-36 -164
q-49 61 -136 98t-176 37q-196 0 -196 -131q0 -42 27.5 -70t82.5 -53l148 -66q113 -50 163 -113.5t50 -158.5q0 -151 -101 -239.5t-272 -88.5z" />
    <glyph glyph-name="Scircumflex" unicode="&#x15c;" horiz-adv-x="1140" 
d="M809 1747l-203 -186h-170l295 286h197l172 -286h-158zM717 1475q115 0 231.5 -47t196.5 -125l-45 -197q-80 85 -183.5 133.5t-205.5 48.5q-127 0 -198 -51.5t-71 -142.5q0 -77 44 -125.5t145 -108.5l151 -90q126 -75 186 -165.5t60 -207.5q0 -87 -35.5 -166.5t-98.5 -140
t-157 -96t-205 -35.5q-137 0 -269 56t-220 171l49 203q166 -242 428 -242q141 0 221 64.5t80 171.5q0 74 -40 124t-142 114l-162 100q-117 72 -176 160t-59 204q0 122 64.5 212t171 134t239.5 44z" />
    <glyph glyph-name="scircumflex" unicode="&#x15d;" horiz-adv-x="923" 
d="M629 1327l-174 -180h-164l264 287h188l142 -287h-152zM530 1055q93 0 189 -37.5t155 -99.5l-36 -164q-49 61 -136 98t-176 37q-196 0 -196 -131q0 -42 27.5 -70t82.5 -53l148 -66q113 -50 163 -113.5t50 -158.5q0 -151 -101 -239.5t-272 -88.5q-125 0 -234 45.5
t-174 122.5l37 160q61 -74 159.5 -118t207.5 -44q87 0 138.5 37.5t51.5 112.5q0 44 -25.5 78t-90.5 65l-162 74q-184 85 -184 248q0 140 101 222.5t277 82.5z" />
    <glyph glyph-name="Scedilla" unicode="&#x15e;" horiz-adv-x="1140" 
d="M717 1475q115 0 231.5 -47t196.5 -125l-45 -197q-80 85 -183.5 133.5t-205.5 48.5q-127 0 -198 -51.5t-71 -142.5q0 -77 44 -125.5t145 -108.5l151 -90q126 -75 186 -165.5t60 -207.5q0 -87 -35.5 -166.5t-98.5 -140t-157 -96t-205 -35.5q-42 0 -86 6l-10 -45h4
q72 0 110 -38.5t38 -98.5q0 -88 -60.5 -138.5t-160.5 -50.5q-92 0 -160 46l26 118q42 -53 129 -53q54 0 81.5 17.5t27.5 46.5q0 28 -24 44.5t-72 16.5h-53l30 154q-193 52 -309 202l49 203q166 -242 428 -242q141 0 221 64.5t80 171.5q0 74 -40 124t-142 114l-162 100
q-117 72 -176 160t-59 204q0 122 64.5 212t171 134t239.5 44z" />
    <glyph glyph-name="scedilla" unicode="&#x15f;" horiz-adv-x="923" 
d="M428 -31q-125 0 -234 45.5t-174 122.5l37 160q61 -74 159.5 -118t207.5 -44q87 0 138.5 37.5t51.5 112.5q0 44 -25.5 78t-90.5 65l-162 74q-184 85 -184 248q0 140 101 222.5t277 82.5q93 0 189 -37.5t155 -99.5l-36 -164q-49 61 -136 98t-176 37q-196 0 -196 -131
q0 -42 27.5 -70t82.5 -53l148 -66q113 -50 163 -113.5t50 -158.5q0 -151 -101 -239.5t-272 -88.5zM76 -489l157 368h216l-252 -368h-121z" />
    <glyph glyph-name="Scaron" unicode="&#x160;" horiz-adv-x="1140" 
d="M866 1561h-196l-172 286h157l133 -186l203 186h170zM242 1085q0 122 64.5 212t171 134t239.5 44q115 0 231.5 -47t196.5 -125l-45 -197q-80 85 -183.5 133.5t-205.5 48.5q-127 0 -198 -51.5t-71 -142.5q0 -77 44 -125.5t145 -108.5l151 -90q126 -75 186 -165.5t60 -207.5
q0 -87 -35.5 -166.5t-98.5 -140t-157 -96t-205 -35.5q-137 0 -269 56t-220 171l49 203q166 -242 428 -242q141 0 221 64.5t80 171.5q0 74 -40 124t-142 114l-162 100q-117 72 -176 160t-59 204z" />
    <glyph glyph-name="scaron" unicode="&#x161;" horiz-adv-x="923" 
d="M682 1147h-188l-142 287h152l104 -181l174 181h164zM530 1055q93 0 189 -37.5t155 -99.5l-36 -164q-49 61 -136 98t-176 37q-196 0 -196 -131q0 -42 27.5 -70t82.5 -53l148 -66q113 -50 163 -113.5t50 -158.5q0 -151 -101 -239.5t-272 -88.5q-125 0 -234 45.5t-174 122.5
l37 160q61 -74 159.5 -118t207.5 -44q87 0 138.5 37.5t51.5 112.5q0 44 -25.5 78t-90.5 65l-162 74q-184 85 -184 248q0 140 101 222.5t277 82.5z" />
    <glyph glyph-name="uni0162" unicode="&#x162;" horiz-adv-x="1105" 
d="M1274 1434l-39 -183h-432l-264 -1251h-199l264 1251h-418l39 183h1049zM150 -467l155 348h223l-249 -348h-129z" />
    <glyph glyph-name="uni0163" unicode="&#x163;" horiz-adv-x="772" 
d="M358 0h-71l-13 -59h2q70 0 108 -40t38 -102q0 -95 -60.5 -150t-160.5 -55q-92 0 -160 46l27 118q42 -53 129 -53q54 0 81 21.5t27 58.5q0 29 -23.5 47t-70.5 18h-53l32 150h-20l184 864h-250l33 160h250l55 256l201 61l-68 -317h279l-33 -160h-278z" />
    <glyph glyph-name="Tcaron" unicode="&#x164;" horiz-adv-x="1105" 
d="M870 1561h-196l-172 286h157l134 -186l202 186h170zM1274 1434l-39 -183h-432l-264 -1251h-199l264 1251h-418l39 183h1049z" />
    <glyph glyph-name="tcaron" unicode="&#x165;" horiz-adv-x="772" 
d="M948 1470h195l-269 -286h-157zM643 1341l-68 -317h279l-33 -160h-278l-185 -864h-188l184 864h-250l33 160h250l55 256z" />
    <glyph glyph-name="Tbar" unicode="&#x166;" horiz-adv-x="1140" 
d="M1251 1251h-432l-98 -467h254l-29 -135h-254l-137 -649h-199l138 649h-234l29 135h233l99 467h-418l39 183h1048z" />
    <glyph glyph-name="tbar" unicode="&#x167;" horiz-adv-x="772" 
d="M821 864h-278l-62 -284h267l-29 -136h-266l-95 -444h-188l94 444h-231l28 136h232l61 284h-250l33 160h250l55 256l201 61l-68 -317h279z" />
    <glyph glyph-name="Utilde" unicode="&#x168;" horiz-adv-x="1470" 
d="M539 1587q24 118 94.5 181t171.5 63q51 0 96 -21t72.5 -45.5t62.5 -45.5t68 -21q106 0 129 117h123q-24 -118 -93 -181t-169 -63q-52 0 -99 20.5t-75.5 45t-64.5 45t-69 20.5q-101 0 -127 -115h-120zM655 -41q-215 0 -345 125.5t-130 341.5q0 80 17 158l180 850h198
l-188 -877q-14 -75 -14 -119q0 -141 82 -214.5t221 -73.5q161 0 267.5 90.5t143.5 273.5l197 920h199l-197 -926q-58 -272 -221 -410.5t-410 -138.5z" />
    <glyph glyph-name="utilde" unicode="&#x169;" horiz-adv-x="1179" 
d="M635 1264q-76 0 -96 -93h-111q23 104 81.5 159.5t141.5 55.5q37 0 69.5 -18.5t52 -40.5t44.5 -40.5t49 -18.5q38 0 63 25t34 67h112q-22 -103 -79 -158t-140 -55q-38 0 -71.5 18.5t-53.5 40t-46 40t-50 18.5zM942 1024h188l-217 -1024h-188l37 176q-132 -203 -363 -203
q-127 0 -210 80t-83 223q0 44 13 107l135 641h188l-131 -621q-10 -55 -10 -88q0 -91 50.5 -136.5t140.5 -45.5q259 0 337 356z" />
    <glyph glyph-name="Umacron" unicode="&#x16a;" horiz-adv-x="1470" 
d="M559 1573l33 151h719l-33 -151h-719zM655 -41q-215 0 -345 125.5t-130 341.5q0 80 17 158l180 850h198l-188 -877q-14 -75 -14 -119q0 -141 82 -214.5t221 -73.5q161 0 267.5 90.5t143.5 273.5l197 920h199l-197 -926q-58 -272 -221 -410.5t-410 -138.5z" />
    <glyph glyph-name="umacron" unicode="&#x16b;" horiz-adv-x="1179" 
d="M1057 1327l-29 -135h-584l29 135h584zM942 1024h188l-217 -1024h-188l37 176q-132 -203 -363 -203q-127 0 -210 80t-83 223q0 44 13 107l135 641h188l-131 -621q-10 -55 -10 -88q0 -91 50.5 -136.5t140.5 -45.5q259 0 337 356z" />
    <glyph glyph-name="Ubreve" unicode="&#x16c;" horiz-adv-x="1470" 
d="M928 1544q-124 0 -207.5 63.5t-83.5 180.5q0 29 6 59h137q-2 -10 -2 -30q0 -65 45 -103.5t121 -38.5q83 0 138 46t77 126h154q-35 -146 -141.5 -224.5t-243.5 -78.5zM655 -41q-215 0 -345 125.5t-130 341.5q0 80 17 158l180 850h198l-188 -877q-14 -75 -14 -119
q0 -141 82 -214.5t221 -73.5q161 0 267.5 90.5t143.5 273.5l197 920h199l-197 -926q-58 -272 -221 -410.5t-410 -138.5z" />
    <glyph glyph-name="ubreve" unicode="&#x16d;" horiz-adv-x="1179" 
d="M741 1130q-110 0 -181 59.5t-71 168.5q0 30 5 55h131q0 -4 -1 -13.5t-1 -13.5q0 -62 33 -97.5t94 -35.5q69 0 120 44t68 116h143q-31 -136 -125.5 -209.5t-214.5 -73.5zM942 1024h188l-217 -1024h-188l37 176q-132 -203 -363 -203q-127 0 -210 80t-83 223q0 44 13 107
l135 641h188l-131 -621q-10 -55 -10 -88q0 -91 50.5 -136.5t140.5 -45.5q259 0 337 356z" />
    <glyph glyph-name="Uring" unicode="&#x16e;" horiz-adv-x="1470" 
d="M936 1516q-93 0 -152 57t-59 151q0 102 71 173t175 71q96 0 155.5 -57t59.5 -152q0 -102 -71 -172.5t-179 -70.5zM944 1614q59 0 98 39.5t39 97.5q0 54 -31.5 86.5t-84.5 32.5q-58 0 -97 -40t-39 -97q0 -54 32 -86.5t83 -32.5zM655 -41q-215 0 -345 125.5t-130 341.5
q0 80 17 158l180 850h198l-188 -877q-14 -75 -14 -119q0 -141 82 -214.5t221 -73.5q161 0 267.5 90.5t143.5 273.5l197 920h199l-197 -926q-58 -272 -221 -410.5t-410 -138.5z" />
    <glyph glyph-name="uring" unicode="&#x16f;" horiz-adv-x="1179" 
d="M748 1137q-81 0 -132 50t-51 132q0 88 61.5 149.5t151.5 61.5q84 0 135.5 -49.5t51.5 -132.5q0 -89 -61.5 -150t-155.5 -61zM774 1440q-49 0 -82 -33.5t-33 -81.5q0 -44 27 -71t70 -27q50 0 82 33t32 81q0 44 -26.5 71.5t-69.5 27.5zM942 1024h188l-217 -1024h-188
l37 176q-132 -203 -363 -203q-127 0 -210 80t-83 223q0 44 13 107l135 641h188l-131 -621q-10 -55 -10 -88q0 -91 50.5 -136.5t140.5 -45.5q259 0 337 356z" />
    <glyph glyph-name="Uhungarumlaut" unicode="&#x170;" horiz-adv-x="1470" 
d="M666 1561l211 286h182l-248 -286h-145zM981 1561l211 286h182l-248 -286h-145zM655 -41q-215 0 -345 125.5t-130 341.5q0 80 17 158l180 850h198l-188 -877q-14 -75 -14 -119q0 -141 82 -214.5t221 -73.5q161 0 267.5 90.5t143.5 273.5l197 920h199l-197 -926
q-58 -272 -221 -410.5t-410 -138.5z" />
    <glyph glyph-name="uhungarumlaut" unicode="&#x171;" horiz-adv-x="1179" 
d="M924 1434l-289 -287h-137l252 287h174zM942 1147h-137l252 287h174zM829 489l113 535h188l-217 -1024h-188l37 176q-132 -203 -363 -203q-127 0 -210 80t-83 223q0 44 13 107l135 641h188l-131 -621q-10 -55 -10 -88q0 -91 50.5 -136.5t140.5 -45.5q259 0 337 356z" />
    <glyph glyph-name="Uogonek" unicode="&#x172;" horiz-adv-x="1470" 
d="M1284 1434h199l-197 -926q-55 -260 -207.5 -398.5t-382.5 -150.5q-94 -49 -94 -139q0 -55 32.5 -85t82.5 -30q66 0 121 33l-25 -111q-64 -33 -135 -33q-90 0 -141.5 54t-51.5 141q0 109 93 174q-182 24 -290 146.5t-108 316.5q0 80 17 158l180 850h198l-188 -877
q-14 -75 -14 -119q0 -141 82 -214.5t221 -73.5q161 0 267.5 90.5t143.5 273.5z" />
    <glyph glyph-name="uogonek" unicode="&#x173;" horiz-adv-x="1179" 
d="M942 1024h188l-217 -1024h-34q-117 -13 -176.5 -62t-59.5 -118q0 -55 32.5 -85t82.5 -30q66 0 121 33l-27 -111q-64 -33 -133 -33q-90 0 -141.5 54t-51.5 141q0 80 53 140t148 81l35 166q-132 -203 -363 -203q-127 0 -210 80t-83 223q0 44 13 107l135 641h188l-131 -621
q-10 -55 -10 -88q0 -91 50.5 -136.5t140.5 -45.5q259 0 337 356z" />
    <glyph glyph-name="Wcircumflex" unicode="&#x174;" horiz-adv-x="2009" 
d="M1227 1747l-203 -186h-170l295 286h197l172 -286h-158zM1929 1434h219l-684 -1434h-250l-61 1251l-580 -1251h-251l-62 1434h205l27 -1192l557 1192h268l63 -1196z" />
    <glyph glyph-name="wcircumflex" unicode="&#x175;" horiz-adv-x="1597" 
d="M981 1327l-174 -180h-164l264 287h189l141 -287h-152zM1464 1024h203l-551 -1024h-172l-82 821l-436 -821h-172l-96 1024h194l41 -758l402 758h209l75 -762z" />
    <glyph glyph-name="Ycircumflex" unicode="&#x176;" horiz-adv-x="1318" 
d="M883 1747l-203 -186h-170l295 286h196l173 -286h-158zM1229 1434h233l-700 -897l-113 -537h-198l112 537l-307 897h205l233 -703z" />
    <glyph glyph-name="ycircumflex" unicode="&#x177;" horiz-adv-x="1071" 
d="M676 1327l-174 -180h-164l264 287h189l141 -287h-152zM936 1024h209l-946 -1413h-203l340 489l-186 924h188l131 -711z" />
    <glyph glyph-name="Ydieresis" unicode="&#x178;" horiz-adv-x="1318" 
d="M649 1548q-50 0 -82 31t-32 82q0 55 38.5 93t94.5 38q52 0 83 -31t31 -82q0 -56 -37 -93.5t-96 -37.5zM1073 1548q-50 0 -82.5 31.5t-32.5 81.5q0 54 38.5 92.5t95.5 38.5q52 0 83 -31t31 -82q0 -56 -37 -93.5t-96 -37.5zM1229 1434h233l-700 -897l-113 -537h-198
l112 537l-307 897h205l233 -703z" />
    <glyph glyph-name="Zacute" unicode="&#x179;" horiz-adv-x="1202" 
d="M1118 1847l-268 -286h-166l231 286h203zM1294 1434l-37 -181l-1009 -1069h803l-39 -184h-1035l41 197l990 1058h-748l37 179h997z" />
    <glyph glyph-name="zacute" unicode="&#x17a;" horiz-adv-x="929" 
d="M944 1434l-268 -287h-158l232 287h194zM166 860l35 164h737l-35 -166l-688 -690h576l-35 -168h-787l39 180l664 680h-506z" />
    <glyph glyph-name="Zdotaccent" unicode="&#x17b;" horiz-adv-x="1202" 
d="M784 1548q-55 0 -90 34t-35 89q0 60 42.5 102t103.5 42q57 0 92 -34t35 -89q0 -61 -41.5 -102.5t-106.5 -41.5zM1294 1434l-37 -181l-1009 -1069h803l-39 -184h-1035l41 197l990 1058h-748l37 179h997z" />
    <glyph glyph-name="zdotaccent" unicode="&#x17c;" horiz-adv-x="929" 
d="M627 1159q-55 0 -90 34t-35 89q0 60 42 101.5t103 41.5q57 0 92 -33.5t35 -88.5q0 -61 -41 -102.5t-106 -41.5zM938 1024l-35 -166l-688 -690h576l-35 -168h-787l39 180l664 680h-506l35 164h737z" />
    <glyph glyph-name="Zcaron" unicode="&#x17d;" horiz-adv-x="1202" 
d="M868 1561h-196l-172 286h157l134 -186l202 186h170zM1294 1434l-37 -181l-1009 -1069h803l-39 -184h-1035l41 197l990 1058h-748l37 179h997z" />
    <glyph glyph-name="zcaron" unicode="&#x17e;" horiz-adv-x="929" 
d="M700 1147h-188l-141 287h151l105 -181l174 181h164zM166 860l35 164h737l-35 -166l-688 -690h576l-35 -168h-787l39 180l664 680h-506z" />
    <glyph glyph-name="florin" unicode="&#x192;" horiz-adv-x="1073" 
d="M1032 1227q-87 0 -138.5 -52.5t-92.5 -175.5l-41 -118h278l-32 -160h-299l-132 -389q-62 -183 -158 -278t-259 -95q-53 0 -103.5 14.5t-79.5 38.5l35 162q52 -49 150 -49q87 0 139.5 53t93.5 176l123 367h-252l33 160h272l47 139q30 89 65.5 153.5t85 116t116.5 77.5
t151 26q53 0 103.5 -14.5t79.5 -39.5l-35 -161q-52 49 -150 49z" />
    <glyph glyph-name="uni01E2" unicode="&#x1e2;" horiz-adv-x="1959" 
d="M1853 1724l-32 -151h-719l33 151h718zM1995 1253h-686l-86 -409h643l-37 -176h-643l-103 -488h693l-37 -180h-893l80 381h-520l-306 -381h-221l1153 1434h1000zM535 545h426l153 725z" />
    <glyph glyph-name="uni01E3" unicode="&#x1e3;" horiz-adv-x="1765" 
d="M686 1192l29 135h583l-28 -135h-584zM422 -31q-169 0 -268 86t-99 217q0 161 114 265t284 104q105 0 179.5 -40t110.5 -105l21 90q10 52 10 86q0 101 -63.5 157t-180.5 56q-181 0 -348 -144l41 201q154 113 338 113q262 0 344 -174q150 174 395 174q186 0 291 -110.5
t105 -289.5q0 -58 -23 -176h-727v-8q0 -158 84 -245t238 -87q86 0 164.5 26t171.5 77l-39 -183q-62 -30 -101 -46t-101 -30t-128 -14q-146 0 -251.5 59.5t-164.5 166.5q-9 -21 -33 -58q-57 -78 -155 -123t-209 -45zM963 618h553q2 12 2 37q0 106 -63 168t-173 62
q-125 0 -206.5 -73t-112.5 -194zM446 121q117 0 189 59t72 152q0 76 -56 123t-151 47q-114 0 -183 -58.5t-69 -154.5q0 -80 52 -124t146 -44z" />
    <glyph glyph-name="Aringacute" unicode="&#x1fa;" horiz-adv-x="1341" 
d="M1229 2212l-178 -184h-127l141 184h164zM913 1516q-93 0 -152 57t-59 151q0 102 71 173t175 71q96 0 155.5 -57t59.5 -152q0 -102 -71 -172.5t-179 -70.5zM942 1870q-58 0 -96.5 -39.5t-38.5 -97.5q0 -54 32 -86.5t83 -32.5q59 0 98 39.5t39 97.5q0 54 -32 86.5t-85 32.5
zM731 1434h268l185 -1434h-203l-45 381h-576l-204 -381h-213zM449 545h466l-84 710z" />
    <glyph glyph-name="aringacute" unicode="&#x1fb;" horiz-adv-x="1077" 
d="M1012 1782l-189 -205h-116l151 205h154zM686 1137q-80 0 -131 50t-51 132q0 88 61.5 149.5t151.5 61.5q84 0 135 -49.5t51 -132.5q0 -89 -61.5 -150t-155.5 -61zM713 1440q-49 0 -82 -33.5t-33 -81.5q0 -44 26.5 -71t69.5 -27q50 0 82.5 33t32.5 81q0 44 -26.5 71.5
t-69.5 27.5zM561 1055q192 0 297 -87t105 -255q0 -64 -19 -148l-121 -565h-186l25 109q-55 -65 -134.5 -102.5t-167.5 -37.5q-141 0 -223 86t-82 217q0 161 114 265t284 104q107 0 181 -43.5t107 -112.5l23 101q10 52 10 86q0 101 -63.5 157t-180.5 56q-181 0 -348 -144
l41 201q154 113 338 113zM446 121q117 0 189 59t72 152q0 76 -56 123t-151 47q-114 0 -183 -58.5t-69 -154.5q0 -80 52 -124t146 -44z" />
    <glyph glyph-name="AEacute" unicode="&#x1fc;" horiz-adv-x="1959" 
d="M1808 1847l-268 -286h-166l232 286h202zM1995 1253h-686l-86 -409h643l-37 -176h-643l-103 -488h693l-37 -180h-893l80 381h-520l-306 -381h-221l1153 1434h1000zM535 545h426l153 725z" />
    <glyph glyph-name="aeacute" unicode="&#x1fd;" horiz-adv-x="1765" 
d="M881 1147l231 287h195l-269 -287h-157zM422 -31q-169 0 -268 86t-99 217q0 161 114 265t284 104q105 0 179.5 -40t110.5 -105l21 90q10 52 10 86q0 101 -63.5 157t-180.5 56q-181 0 -348 -144l41 201q154 113 338 113q262 0 344 -174q150 174 395 174q186 0 291 -110.5
t105 -289.5q0 -58 -23 -176h-727v-8q0 -158 84 -245t238 -87q86 0 164.5 26t171.5 77l-39 -183q-62 -30 -101 -46t-101 -30t-128 -14q-146 0 -251.5 59.5t-164.5 166.5q-9 -21 -33 -58q-57 -78 -155 -123t-209 -45zM963 618h553q2 12 2 37q0 106 -63 168t-173 62
q-125 0 -206.5 -73t-112.5 -194zM446 121q117 0 189 59t72 152q0 76 -56 123t-151 47q-114 0 -183 -58.5t-69 -154.5q0 -80 52 -124t146 -44z" />
    <glyph glyph-name="Oslashacute" unicode="&#x1fe;" horiz-adv-x="1652" 
d="M1354 1847l-269 -286h-165l231 286h203zM1749 1456l-262 -250q110 -170 110 -397q0 -234 -103.5 -428.5t-287.5 -308t-409 -113.5q-269 0 -451 164l-248 -236l-94 90l258 246q-119 169 -119 400q0 236 101.5 430t288.5 308t423 114q271 0 447 -168l252 239zM350 627
q0 -147 66 -258l835 794q-124 121 -323 121q-138 0 -250 -55.5t-182.5 -149t-108 -209.5t-37.5 -243zM1391 803q0 145 -60 256l-833 -793q129 -116 323 -116q105 0 197 36.5t159.5 99t116 145.5t73 178t24.5 194z" />
    <glyph glyph-name="oslashacute" unicode="&#x1ff;" horiz-adv-x="1163" 
d="M1022 1434l-268 -287h-158l231 287h195zM1268 1081l-252 -239q61 -113 61 -262q0 -173 -69.5 -315t-195 -224t-282.5 -82q-192 0 -311 125l-237 -225l-82 84l247 235q-61 116 -61 258q0 174 70 315.5t195 222.5t280 81q188 0 313 -119l242 229zM279 453q0 -75 18 -134
l508 484q-71 80 -193 80q-150 0 -241.5 -120.5t-91.5 -309.5zM885 563q0 77 -21 135l-510 -485q74 -80 191 -80q151 0 245.5 122t94.5 308z" />
    <glyph glyph-name="Scommaaccent" unicode="&#x218;" horiz-adv-x="1140" 
d="M532 -41q-137 0 -269 56t-220 171l49 203q166 -242 428 -242q141 0 221 64.5t80 171.5q0 74 -40 124t-142 114l-162 100q-117 72 -176 160t-59 204q0 122 64.5 212t171 134t239.5 44q115 0 231.5 -47t196.5 -125l-45 -197q-80 85 -183.5 133.5t-205.5 48.5
q-127 0 -198 -51.5t-71 -142.5q0 -77 44 -125.5t145 -108.5l151 -90q126 -75 186 -165.5t60 -207.5q0 -87 -35.5 -166.5t-98.5 -140t-157 -96t-205 -35.5zM166 -467l156 348h223l-250 -348h-129z" />
    <glyph glyph-name="scommaaccent" unicode="&#x219;" horiz-adv-x="923" 
d="M428 -31q-125 0 -234 45.5t-174 122.5l37 160q61 -74 159.5 -118t207.5 -44q87 0 138.5 37.5t51.5 112.5q0 44 -25.5 78t-90.5 65l-162 74q-184 85 -184 248q0 140 101 222.5t277 82.5q93 0 189 -37.5t155 -99.5l-36 -164q-49 61 -136 98t-176 37q-196 0 -196 -131
q0 -42 27.5 -70t82.5 -53l148 -66q113 -50 163 -113.5t50 -158.5q0 -151 -101 -239.5t-272 -88.5zM76 -489l157 368h216l-252 -368h-121z" />
    <glyph glyph-name="uni021A" unicode="&#x21a;" horiz-adv-x="1105" 
d="M1274 1434l-39 -183h-432l-264 -1251h-199l264 1251h-418l39 183h1049zM150 -467l155 348h223l-249 -348h-129z" />
    <glyph glyph-name="uni021B" unicode="&#x21b;" horiz-adv-x="772" 
d="M854 1024l-33 -160h-278l-185 -864h-188l184 864h-250l33 160h250l55 256l201 61l-68 -317h279zM-18 -489l157 368h215l-252 -368h-120z" />
    <glyph glyph-name="uni0226" unicode="&#x226;" horiz-adv-x="1341" 
d="M909 1548q-55 0 -90 34t-35 89q0 60 42.5 102t103.5 42q57 0 92 -34t35 -89q0 -61 -41.5 -102.5t-106.5 -41.5zM981 0l-45 381h-576l-204 -381h-213l788 1434h268l185 -1434h-203zM449 545h466l-84 710z" />
    <glyph glyph-name="uni0227" unicode="&#x227;" horiz-adv-x="1077" 
d="M686 1159q-55 0 -90 34t-35 89q0 60 42.5 101.5t103.5 41.5q57 0 92 -33.5t35 -88.5q0 -61 -41.5 -102.5t-106.5 -41.5zM561 1055q192 0 297 -87t105 -255q0 -64 -19 -148l-121 -565h-186l25 109q-55 -65 -134.5 -102.5t-167.5 -37.5q-141 0 -223 86t-82 217
q0 161 114 265t284 104q107 0 181 -43.5t107 -112.5l23 101q10 52 10 86q0 101 -63.5 157t-180.5 56q-181 0 -348 -144l41 201q154 113 338 113zM446 121q117 0 189 59t72 152q0 76 -56 123t-151 47q-114 0 -183 -58.5t-69 -154.5q0 -80 52 -124t146 -44z" />
    <glyph glyph-name="uni0232" unicode="&#x232;" horiz-adv-x="1318" 
d="M1235 1724l-33 -151h-719l33 151h719zM1229 1434h233l-700 -897l-113 -537h-198l112 537l-307 897h205l233 -703z" />
    <glyph glyph-name="uni0233" unicode="&#x233;" horiz-adv-x="1071" 
d="M965 1327l-29 -135h-584l29 135h584zM936 1024h209l-946 -1413h-203l340 489l-186 924h188l131 -711z" />
    <glyph glyph-name="uni0237" unicode="&#x237;" horiz-adv-x="528" 
d="M-102 -420q-105 0 -172 55l32 158q61 -45 136 -45q59 0 98 39.5t59 130.5l232 1106h188l-242 -1151q-29 -140 -117 -216.5t-214 -76.5z" />
    <glyph glyph-name="circumflex" unicode="&#x2c6;" horiz-adv-x="798" 
d="M831 1147h-151l-105 180l-174 -180h-163l264 287h188z" />
    <glyph glyph-name="caron" unicode="&#x2c7;" horiz-adv-x="798" 
d="M729 1434h164l-264 -287h-189l-141 287h152l104 -181z" />
    <glyph glyph-name="breve" unicode="&#x2d8;" horiz-adv-x="792" 
d="M543 1130q-110 0 -181 59.5t-71 168.5q0 35 4 55h131q0 -4 -1 -13.5t-1 -13.5q0 -62 33 -97.5t94 -35.5q69 0 120 44t68 116h144q-31 -136 -125.5 -209.5t-214.5 -73.5z" />
    <glyph glyph-name="dotaccent" unicode="&#x2d9;" horiz-adv-x="477" 
d="M395 1159q-55 0 -90 34t-35 89q0 60 42.5 101.5t103.5 41.5q57 0 92 -33.5t35 -88.5q0 -61 -41.5 -102.5t-106.5 -41.5z" />
    <glyph glyph-name="ring" unicode="&#x2da;" horiz-adv-x="604" 
d="M459 1137q-81 0 -132 50t-51 132q0 88 61.5 149.5t151.5 61.5q84 0 135.5 -49.5t51.5 -132.5q0 -89 -61.5 -150t-155.5 -61zM467 1227q50 0 82.5 33t32.5 81q0 44 -27 71.5t-70 27.5q-49 0 -81.5 -33.5t-32.5 -81.5q0 -44 26.5 -71t69.5 -27z" />
    <glyph glyph-name="ogonek" unicode="&#x2db;" horiz-adv-x="557" 
d="M152 -406q-90 0 -141.5 54t-51.5 141q0 102 82 168t225 66l45 -23q-117 -13 -176 -62t-59 -118q0 -55 32 -85t82 -30q66 0 121 33l-26 -111q-64 -33 -133 -33z" />
    <glyph glyph-name="tilde" unicode="&#x2dc;" horiz-adv-x="811" 
d="M670 1147q-38 0 -71.5 18.5t-53.5 40t-46 40t-50 18.5q-77 0 -97 -93h-110q23 104 81.5 159.5t141.5 55.5q37 0 69.5 -18.5t52 -40.5t44.5 -40.5t49 -18.5q75 0 96 92h113q-22 -103 -79 -158t-140 -55z" />
    <glyph glyph-name="hungarumlaut" unicode="&#x2dd;" horiz-adv-x="835" 
d="M238 1147l251 287h175l-289 -287h-137zM545 1147l252 287h174l-289 -287h-137z" />
    <glyph glyph-name="gravecomb" unicode="&#x300;" horiz-adv-x="0" 
d="M59 1147h-157l-209 287h194z" />
    <glyph glyph-name="acutecomb" unicode="&#x301;" horiz-adv-x="0" 
d="M-342 1147l231 287h195l-268 -287h-158z" />
    <glyph glyph-name="uni0302" unicode="&#x302;" horiz-adv-x="0" 
d="M33 1147h-152l-104 180l-174 -180h-164l264 287h188z" />
    <glyph glyph-name="tildecomb" unicode="&#x303;" horiz-adv-x="0" 
d="M-141 1147q-38 0 -71.5 18.5t-53.5 40t-46 40t-50 18.5q-77 0 -97 -93h-110q23 104 81.5 159.5t141.5 55.5q37 0 69.5 -18.5t52 -40.5t44.5 -40.5t49 -18.5q75 0 96 92h113q-22 -103 -79 -158t-140 -55z" />
    <glyph glyph-name="uni0304" unicode="&#x304;" horiz-adv-x="0" 
d="M-530 1192l28 135h584l-29 -135h-583z" />
    <glyph glyph-name="uni0306" unicode="&#x306;" horiz-adv-x="0" 
d="M-250 1130q-110 0 -181 59.5t-71 168.5q0 35 4 55h131q0 -4 -1 -13.5t-1 -13.5q0 -62 33 -97.5t94 -35.5q69 0 120.5 44t68.5 116h143q-31 -136 -125.5 -209.5t-214.5 -73.5z" />
    <glyph glyph-name="uni0307" unicode="&#x307;" horiz-adv-x="0" 
d="M-82 1159q-55 0 -90 34t-35 89q0 60 42.5 101.5t103.5 41.5q57 0 92 -33.5t35 -88.5q0 -61 -41.5 -102.5t-106.5 -41.5z" />
    <glyph glyph-name="uni0308" unicode="&#x308;" horiz-adv-x="0" 
d="M-461 1178q-47 0 -77.5 29.5t-30.5 76.5q0 52 36 87.5t89 35.5q50 0 80 -28.5t30 -75.5q0 -53 -35.5 -89t-91.5 -36zM-63 1178q-48 0 -78.5 29.5t-30.5 76.5q0 52 36 87.5t89 35.5q50 0 80 -28.5t30 -75.5q0 -53 -35 -89t-91 -36z" />
    <glyph glyph-name="uni030A" unicode="&#x30a;" horiz-adv-x="0" 
d="M-145 1137q-81 0 -132 50t-51 132q0 88 61.5 149.5t151.5 61.5q84 0 135.5 -49.5t51.5 -132.5q0 -89 -61.5 -150t-155.5 -61zM-137 1227q50 0 82 33t32 81q0 44 -26.5 71.5t-69.5 27.5q-49 0 -81.5 -33.5t-32.5 -81.5q0 -44 26.5 -71t69.5 -27z" />
    <glyph glyph-name="uni030B" unicode="&#x30b;" horiz-adv-x="0" 
d="M-598 1147l252 287h174l-289 -287h-137zM-291 1147l252 287h174l-289 -287h-137z" />
    <glyph glyph-name="uni030C" unicode="&#x30c;" horiz-adv-x="0" 
d="M-70 1434h164l-264 -287h-188l-142 287h152l104 -181z" />
    <glyph glyph-name="uni0312" unicode="&#x312;" horiz-adv-x="0" 
d="M-229 1147l268 348h129l-174 -348h-223z" />
    <glyph glyph-name="uni0326" unicode="&#x326;" horiz-adv-x="0" 
d="M-625 -489l158 368h215l-252 -368h-121z" />
    <glyph glyph-name="uni0327" unicode="&#x327;" horiz-adv-x="0" 
d="M-406 -59q70 0 108 -40t38 -102q0 -95 -60.5 -150t-160.5 -55q-92 0 -160 46l27 118q42 -53 129 -53q54 0 81 21.5t27 58.5q0 29 -23.5 47t-70.5 18h-53l35 162h96l-15 -71h2z" />
    <glyph glyph-name="uni0328" unicode="&#x328;" horiz-adv-x="0" 
d="M-406 -406q-90 0 -141 54t-51 141q0 102 82 168t225 66l45 -23q-117 -13 -176 -62t-59 -118q0 -55 32 -85t82 -30q66 0 121 33l-26 -111q-64 -33 -134 -33z" />
    <glyph glyph-name="uni0335" unicode="&#x335;" horiz-adv-x="0" 
d="M-754 680l29 135h686l-29 -135h-686z" />
    <glyph glyph-name="uni0336" unicode="&#x336;" horiz-adv-x="0" 
d="M-938 680l29 135h870l-29 -135h-870z" />
    <glyph glyph-name="uni0337" unicode="&#x337;" horiz-adv-x="0" 
d="M-1165 -141l-82 84l1286 1222l82 -84z" />
    <glyph glyph-name="uni0338" unicode="&#x338;" horiz-adv-x="0" 
d="M-1458 -133l-94 90l1650 1569l95 -90z" />
    <glyph glyph-name="uni0394" unicode="&#x394;" horiz-adv-x="1280" 
d="M944 1362l199 -1206l-33 -156h-1147l33 156l711 1206h237zM793 1184l-594 -1010h755z" />
    <glyph glyph-name="uni03A9" unicode="&#x3a9;" horiz-adv-x="1542" 
d="M1481 809q0 -212 -111 -373t-317 -266h266l-37 -170h-557l37 174q228 53 370 219.5t142 390.5q0 193 -107 310.5t-293 117.5q-154 0 -273.5 -77.5t-182 -205t-62.5 -280.5q0 -161 74 -285t209 -190l-37 -174h-557l37 170h332q-126 83 -191 210.5t-65 278.5t59.5 287
t160 234t239.5 155.5t292 57.5q165 0 296.5 -77t203.5 -210t72 -297z" />
    <glyph glyph-name="uni03BC" unicode="&#x3bc;" horiz-adv-x="1191" 
d="M954 1024h189l-217 -1024h-189l37 176q-67 -99 -156 -151t-188 -52q-71 0 -116.5 23t-65.5 57l-92 -442h-189l299 1413h189l-127 -604q-13 -63 -13 -105q0 -182 193 -182q124 0 211.5 93.5t122.5 262.5z" />
    <glyph glyph-name="pi" unicode="&#x3c0;" horiz-adv-x="1372" 
d="M1120 858l-123 -579q-6 -24 -6 -46q0 -86 96 -86q69 0 132 35l-35 -162q-78 -40 -170 -40q-103 0 -161 53t-58 151q0 34 10 82l127 592h-422l-182 -858h-189l183 858h-216l35 166h1250l-35 -166h-236z" />
    <glyph glyph-name="Wgrave" unicode="&#x1e80;" horiz-adv-x="2009" 
d="M1372 1561h-166l-237 286h202zM1929 1434h219l-684 -1434h-250l-61 1251l-580 -1251h-251l-62 1434h205l27 -1192l557 1192h268l63 -1196z" />
    <glyph glyph-name="wgrave" unicode="&#x1e81;" horiz-adv-x="1597" 
d="M1042 1147h-157l-209 287h194zM1464 1024h203l-551 -1024h-172l-82 821l-436 -821h-172l-96 1024h194l41 -758l402 758h209l75 -762z" />
    <glyph glyph-name="Wacute" unicode="&#x1e82;" horiz-adv-x="2009" 
d="M1534 1847l-268 -286h-166l231 286h203zM1929 1434h219l-684 -1434h-250l-61 1251l-580 -1251h-251l-62 1434h205l27 -1192l557 1192h268l63 -1196z" />
    <glyph glyph-name="wacute" unicode="&#x1e83;" horiz-adv-x="1597" 
d="M1278 1434l-268 -287h-158l231 287h195zM1464 1024h203l-551 -1024h-172l-82 821l-436 -821h-172l-96 1024h194l41 -758l402 758h209l75 -762z" />
    <glyph glyph-name="Wdieresis" unicode="&#x1e84;" horiz-adv-x="2009" 
d="M993 1548q-50 0 -82 31t-32 82q0 55 38.5 93t94.5 38q52 0 83 -31t31 -82q0 -56 -37 -93.5t-96 -37.5zM1417 1548q-50 0 -82 31t-32 82q0 55 38.5 93t94.5 38q52 0 83 -31t31 -82q0 -56 -37 -93.5t-96 -37.5zM1929 1434h219l-684 -1434h-250l-61 1251l-580 -1251h-251
l-62 1434h205l27 -1192l557 1192h268l63 -1196z" />
    <glyph glyph-name="wdieresis" unicode="&#x1e85;" horiz-adv-x="1597" 
d="M762 1178q-48 0 -78.5 29.5t-30.5 76.5q0 52 36 87.5t89 35.5q50 0 80.5 -28.5t30.5 -75.5q0 -53 -35.5 -89t-91.5 -36zM1159 1178q-47 0 -77.5 29.5t-30.5 76.5q0 52 36 87.5t89 35.5q50 0 80 -28.5t30 -75.5q0 -53 -35.5 -89t-91.5 -36zM1464 1024h203l-551 -1024h-172
l-82 821l-436 -821h-172l-96 1024h194l41 -758l402 758h209l75 -762z" />
    <glyph glyph-name="uni1E9E" unicode="&#x1e9e;" horiz-adv-x="1357" 
d="M1354 1319l-43 -199l-432 -274q166 -12 263 -111.5t97 -255.5q0 -234 -151.5 -372t-401.5 -138q-86 0 -168.5 22.5t-118.5 55.5l35 166q95 -66 234 -66q172 0 269 83t97 237q0 108 -69 170.5t-217 62.5h-175l31 150l543 356q-97 78 -246 78q-174 0 -284.5 -94.5
t-149.5 -284.5l-193 -905h-198l198 938q52 248 218.5 392.5t425.5 144.5q269 0 436 -156z" />
    <glyph glyph-name="uni1EA0" unicode="&#x1ea0;" horiz-adv-x="1341" 
d="M1184 0h-203l-45 381h-576l-204 -381h-213l788 1434h268zM449 545h466l-84 710zM524 -92q57 0 92 -34t35 -89q0 -61 -41 -102t-106 -41q-55 0 -90 33.5t-35 88.5q0 60 42 102t103 42z" />
    <glyph glyph-name="uni1EA1" unicode="&#x1ea1;" horiz-adv-x="1077" 
d="M561 1055q192 0 297 -87t105 -255q0 -64 -19 -148l-121 -565h-186l25 109q-55 -65 -134.5 -102.5t-167.5 -37.5q-141 0 -223 86t-82 217q0 161 114 265t284 104q107 0 181 -43.5t107 -112.5l23 101q10 52 10 86q0 101 -63.5 157t-180.5 56q-181 0 -348 -144l41 201
q154 113 338 113zM446 121q117 0 189 59t72 152q0 76 -56 123t-151 47q-114 0 -183 -58.5t-69 -154.5q0 -80 52 -124t146 -44zM377 -129q57 0 92 -34t35 -89q0 -61 -41.5 -102t-106.5 -41q-55 0 -90 34t-35 89q0 60 42.5 101.5t103.5 41.5z" />
    <glyph glyph-name="uni1EB8" unicode="&#x1eb8;" horiz-adv-x="1208" 
d="M1243 1253h-686l-86 -409h643l-37 -176h-643l-102 -488h692l-37 -180h-893l303 1434h883zM514 -92q57 0 92 -34t35 -89q0 -61 -41 -102t-106 -41q-55 0 -90 33.5t-35 88.5q0 60 42 102t103 42z" />
    <glyph glyph-name="uni1EB9" unicode="&#x1eb9;" horiz-adv-x="1101" 
d="M637 1055q186 0 290.5 -110t104.5 -288q0 -61 -12 -125l-10 -53h-727v-8q0 -158 83.5 -245t237.5 -87q86 0 164.5 26t171.5 77l-39 -183q-62 -30 -101 -46t-101 -30t-128 -14q-224 0 -352.5 135t-128.5 355q0 124 38.5 232.5t108 189t173 127.5t227.5 47zM618 885
q-128 0 -209 -72.5t-110 -194.5h553q2 12 2 37q0 106 -63.5 168t-172.5 62zM471 -129q57 0 92 -34t35 -89q0 -61 -41 -102t-106 -41q-55 0 -90 34t-35 89q0 60 42 101.5t103 41.5z" />
    <glyph glyph-name="uni1ECA" unicode="&#x1eca;" horiz-adv-x="602" 
d="M92 0l305 1434h199l-305 -1434h-199zM133 -358q-55 0 -90 33.5t-35 88.5q0 60 42.5 102t103.5 42q57 0 92 -34t35 -89q0 -61 -41.5 -102t-106.5 -41z" />
    <glyph glyph-name="uni1ECB" unicode="&#x1ecb;" horiz-adv-x="516" 
d="M418 1212q-50 0 -79.5 29t-29.5 76q0 59 39.5 98t97.5 39q50 0 79.5 -28.5t29.5 -75.5q0 -59 -38.5 -98.5t-98.5 -39.5zM55 0l217 1024h189l-217 -1024h-189zM84 -395q-55 0 -90 34t-35 89q0 60 42 101.5t103 41.5q57 0 92 -34t35 -89q0 -61 -41 -102t-106 -41z" />
    <glyph glyph-name="uni1ECC" unicode="&#x1ecc;" horiz-adv-x="1652" 
d="M797 -41q-197 0 -347 89t-228.5 239t-78.5 336q0 236 101.5 430t288.5 308t423 114q147 0 268.5 -51.5t202.5 -141.5t125.5 -211.5t44.5 -261.5q0 -234 -103.5 -428.5t-287.5 -308t-409 -113.5zM821 150q105 0 197 36.5t159.5 99t116 145.5t73 178t24.5 194
q0 218 -128.5 349.5t-334.5 131.5q-138 0 -250 -55.5t-182.5 -149t-108 -209.5t-37.5 -243q0 -214 131.5 -345.5t339.5 -131.5zM715 -358q-55 0 -90 33.5t-35 88.5q0 60 42 102t103 42q57 0 92 -34t35 -89q0 -61 -41 -102t-106 -41z" />
    <glyph glyph-name="uni1ECD" unicode="&#x1ecd;" horiz-adv-x="1163" 
d="M530 -41q-197 0 -320.5 133.5t-123.5 343.5q0 174 70 315.5t195 222.5t280 81q198 0 322 -129t124 -346q0 -173 -69.5 -315t-195 -224t-282.5 -82zM545 133q151 0 245.5 122t94.5 308q0 150 -74.5 235t-198.5 85q-150 0 -241.5 -120.5t-91.5 -309.5q0 -150 72 -235
t194 -85zM444 -395q-55 0 -90 34t-35 89q0 60 42.5 101.5t103.5 41.5q57 0 92 -34t35 -89q0 -61 -41.5 -102t-106.5 -41z" />
    <glyph glyph-name="uni1EE4" unicode="&#x1ee4;" horiz-adv-x="1470" 
d="M655 -41q-215 0 -345 125.5t-130 341.5q0 80 17 158l180 850h198l-188 -877q-14 -75 -14 -119q0 -141 82 -214.5t221 -73.5q161 0 267.5 90.5t143.5 273.5l197 920h199l-197 -926q-58 -272 -221 -410.5t-410 -138.5zM526 -358q-55 0 -90 33.5t-35 88.5q0 60 42.5 102
t103.5 42q57 0 92 -34t35 -89q0 -61 -41.5 -102t-106.5 -41z" />
    <glyph glyph-name="uni1EE5" unicode="&#x1ee5;" horiz-adv-x="1179" 
d="M942 1024h188l-217 -1024h-188l37 176q-132 -203 -363 -203q-127 0 -210 80t-83 223q0 44 13 107l135 641h188l-131 -621q-10 -55 -10 -88q0 -91 50.5 -136.5t140.5 -45.5q259 0 337 356zM436 -129q57 0 92 -34t35 -89q0 -61 -41 -102t-106 -41q-55 0 -90 34t-35 89
q0 60 42 101.5t103 41.5z" />
    <glyph glyph-name="Ygrave" unicode="&#x1ef2;" horiz-adv-x="1318" 
d="M1028 1561h-166l-237 286h202zM1229 1434h233l-700 -897l-113 -537h-198l112 537l-307 897h205l233 -703z" />
    <glyph glyph-name="ygrave" unicode="&#x1ef3;" horiz-adv-x="1071" 
d="M737 1147h-157l-209 287h194zM936 1024h209l-946 -1413h-203l340 489l-186 924h188l131 -711z" />
    <glyph glyph-name="uni2002" unicode="&#x2002;" horiz-adv-x="1228" 
 />
    <glyph glyph-name="uni2003" unicode="&#x2003;" horiz-adv-x="1638" 
 />
    <glyph glyph-name="uni2009" unicode="&#x2009;" horiz-adv-x="368" 
 />
    <glyph glyph-name="uni200A" unicode="&#x200a;" horiz-adv-x="153" 
 />
    <glyph glyph-name="endash" unicode="&#x2013;" horiz-adv-x="1345" 
d="M160 565l35 164h1044l-35 -164h-1044z" />
    <glyph glyph-name="emdash" unicode="&#x2014;" horiz-adv-x="1796" 
d="M160 565l35 164h1495l-35 -164h-1495z" />
    <glyph glyph-name="quoteleft" unicode="&#x2018;" horiz-adv-x="493" 
d="M618 1516l-219 -553h-223l313 553h129z" />
    <glyph glyph-name="quoteright" unicode="&#x2019;" horiz-adv-x="483" 
d="M197 963l219 553h223l-313 -553h-129z" />
    <glyph glyph-name="quotesinglbase" unicode="&#x201a;" horiz-adv-x="483" 
d="M-74 -307l219 553h224l-314 -553h-129z" />
    <glyph glyph-name="quotedblleft" unicode="&#x201c;" horiz-adv-x="862" 
d="M618 1516l-219 -553h-223l313 553h129zM987 1516l-219 -553h-223l313 553h129z" />
    <glyph glyph-name="quotedblright" unicode="&#x201d;" horiz-adv-x="851" 
d="M197 963l219 553h223l-313 -553h-129zM565 963l219 553h224l-314 -553h-129z" />
    <glyph glyph-name="quotedblbase" unicode="&#x201e;" horiz-adv-x="851" 
d="M-74 -307l219 553h224l-314 -553h-129zM295 -307l219 553h223l-313 -553h-129z" />
    <glyph glyph-name="dagger" unicode="&#x2020;" horiz-adv-x="808" 
d="M883 1235l-31 -148h-242l-147 -692h-168l147 692h-241l30 148h242l62 287h167l-61 -287h242z" />
    <glyph glyph-name="daggerdbl" unicode="&#x2021;" horiz-adv-x="874" 
d="M885 1087h-242l-55 -262h241l-32 -147h-242l-59 -283h-168l59 283h-242l33 147h242l55 262h-242l31 148h242l61 287h168l-61 -287h241z" />
    <glyph glyph-name="bullet" unicode="&#x2022;" horiz-adv-x="1206" 
d="M643 244q-187 0 -318.5 132t-131.5 320q0 124 60 228.5t163.5 164.5t226.5 60q187 0 319 -132.5t132 -320.5q0 -187 -132.5 -319.5t-318.5 -132.5z" />
    <glyph glyph-name="ellipsis" unicode="&#x2026;" horiz-adv-x="1634" 
d="M229 -31q-56 0 -91.5 35.5t-35.5 93.5q0 63 42.5 107.5t105.5 44.5q58 0 93.5 -35t35.5 -94q0 -64 -42 -108t-108 -44zM721 -31q-56 0 -91.5 35.5t-35.5 93.5q0 64 42 108t105 44q59 0 94 -35t35 -94q0 -64 -41.5 -108t-107.5 -44zM1212 -31q-56 0 -91.5 35.5t-35.5 93.5
q0 63 42.5 107.5t105.5 44.5q59 0 94 -35t35 -94q0 -64 -42 -108t-108 -44z" />
    <glyph glyph-name="perthousand" unicode="&#x2030;" horiz-adv-x="2570" 
d="M459 580q-126 0 -205.5 94t-79.5 250q0 144 48 260.5t133 183t190 66.5q131 0 208.5 -91t77.5 -245q0 -221 -107 -369.5t-265 -148.5zM358 0l940 1362h172l-938 -1362h-174zM479 717q58 0 102.5 53.5t66.5 133.5t22 169q0 223 -144 223q-59 0 -104.5 -55t-66.5 -134
t-21 -163q0 -227 145 -227zM1321 -18q-126 0 -205.5 94t-79.5 250q0 221 109 365.5t282 144.5q131 0 209 -91t78 -245q0 -223 -110.5 -370.5t-282.5 -147.5zM2087 -18q-126 0 -205.5 94t-79.5 250q0 221 109 365.5t282 144.5q131 0 209 -91t78 -245q0 -223 -110.5 -370.5
t-282.5 -147.5zM1341 119q99 0 155 107t56 249q0 223 -143 223q-69 0 -119.5 -55.5t-72 -133t-21.5 -163.5q0 -227 145 -227zM2107 119q99 0 155 107t56 249q0 223 -143 223q-69 0 -119.5 -55.5t-72 -133t-21.5 -163.5q0 -227 145 -227z" />
    <glyph glyph-name="guilsinglleft" unicode="&#x2039;" horiz-adv-x="743" 
d="M791 1024l-502 -516l260 -508h-197l-276 512l497 512h218z" />
    <glyph glyph-name="guilsinglright" unicode="&#x203a;" horiz-adv-x="741" 
d="M391 1024l277 -512l-498 -512h-217l502 516l-260 508h196z" />
    <glyph glyph-name="fraction" unicode="&#x2044;" horiz-adv-x="352" 
d="M-434 0l1128 1434h172l-1126 -1434h-174z" />
    <glyph glyph-name="uni2070" unicode="&#x2070;" horiz-adv-x="854" 
d="M446 590q-123 0 -191.5 80t-68.5 225q0 151 53 288.5t157.5 229.5t236.5 92q126 0 195 -80t69 -223q0 -88 -20.5 -176.5t-60 -166.5t-93 -138.5t-125.5 -95.5t-152 -35zM475 727q76 0 137.5 78t91 181t29.5 198q0 88 -33 136t-96 48q-58 0 -108.5 -45.5t-81.5 -115
t-48.5 -148t-17.5 -148.5q0 -88 33 -136t94 -48z" />
    <glyph glyph-name="uni2074" unicode="&#x2074;" horiz-adv-x="806" 
d="M836 954l-27 -127h-133l-45 -211h-148l45 211h-405l29 136l462 512h199l-111 -521h134zM303 954h252l78 371z" />
    <glyph glyph-name="uni2075" unicode="&#x2075;" horiz-adv-x="755" 
d="M805 1337h-375l-41 -196q55 22 129 22q117 0 179.5 -71t62.5 -181q0 -143 -102 -238t-257 -95q-77 0 -151.5 23t-112.5 63l27 137q36 -41 97 -63.5t128 -22.5q95 0 153 51.5t58 134.5q0 66 -42 104.5t-124 38.5q-92 0 -221 -59l102 490h516z" />
    <glyph glyph-name="uni2076" unicode="&#x2076;" horiz-adv-x="806" 
d="M643 1503q143 0 227 -71l-34 -144q-27 34 -79.5 56t-123.5 22q-105 0 -177.5 -75t-101.5 -214q71 115 201 115q108 0 182 -75t74 -187q0 -150 -91 -245t-241 -95q-130 0 -210.5 79.5t-80.5 223.5q0 119 30.5 228t86.5 194.5t144 136.5t194 51zM510 1073q-84 0 -133 -56.5
t-49 -142.5q0 -66 45 -110.5t112 -44.5q82 0 129.5 56t47.5 136q0 72 -41.5 117t-110.5 45z" />
    <glyph glyph-name="uni2077" unicode="&#x2077;" horiz-adv-x="690" 
d="M264 1475h584l-27 -125l-530 -734h-176l542 727h-421z" />
    <glyph glyph-name="uni2078" unicode="&#x2078;" horiz-adv-x="792" 
d="M844 1268q0 -77 -47 -132t-125 -81q104 -60 104 -183q0 -128 -95 -205t-241 -77q-125 0 -203.5 70.5t-78.5 175.5q0 88 55 149t149 90q-90 58 -90 172q0 115 92.5 186.5t227.5 71.5q113 0 182.5 -68.5t69.5 -168.5zM539 1120q64 0 109.5 41.5t45.5 98.5q0 52 -34 83
t-89 31q-69 0 -110 -37.5t-41 -95.5q0 -53 32 -87t87 -34zM451 723q77 0 128.5 45.5t51.5 112.5q0 57 -37.5 95t-101.5 38q-82 0 -132.5 -45.5t-50.5 -108.5q0 -61 38.5 -99t103.5 -38z" />
    <glyph glyph-name="uni2079" unicode="&#x2079;" horiz-adv-x="804" 
d="M555 1505q133 0 210 -86t77 -254q0 -57 -8 -104q-13 -90 -46 -171t-85.5 -149.5t-133 -109.5t-176.5 -41q-144 0 -225 94l29 135q65 -92 198 -92q103 0 180 83.5t103 227.5q-69 -118 -201 -118q-108 0 -181 74t-73 188q0 136 93.5 229.5t238.5 93.5zM518 1036
q76 0 127 52t51 129q0 68 -41 113.5t-108 45.5q-77 0 -124.5 -55t-47.5 -133q0 -65 36 -108.5t107 -43.5z" />
    <glyph glyph-name="uni20A9" unicode="&#x20a9;" horiz-adv-x="2048" 
d="M2011 795h-235l-74 -164h274l-30 -144h-308l-219 -487h-235l-4 487h-318l-213 -487h-237l-6 487h-320l31 144h286l-2 164h-249l30 143h217l-4 424h197l-6 -424h315l186 424h240l4 -424h324l180 424h195l-191 -424h203zM1171 1194l-110 -256h113zM584 795l-2 -164h184
l72 164h-254zM926 631h252l-2 164h-179zM1524 631l69 164h-260l2 -164h189zM575 199l127 288h-122zM1341 199l123 288h-127z" />
    <glyph glyph-name="Euro" unicode="&#x20ac;" horiz-adv-x="1378" 
d="M995 1393q123 0 223 -39.5t166 -100.5l-36 -188q-63 65 -158.5 106t-214.5 41q-179 0 -305 -88t-189 -237h666l-70 -144h-639q-12 -67 -12 -139v-10h598l-70 -143h-508q39 -143 148.5 -226.5t267.5 -83.5q204 0 379 117l-39 -199q-173 -100 -371 -100q-238 0 -390.5 134
t-190.5 358h-184l30 143h142q0 76 12 149h-123l31 144h125q75 232 261.5 369t450.5 137z" />
    <glyph glyph-name="bitcoin" unicode="&#x20bf;" horiz-adv-x="1230" 
d="M928 735q91 -34 139.5 -114t48.5 -183q0 -163 -96 -271t-262 -147l-56 -264h-151l51 244h-33h-143l-51 -244h-152l51 244h-180l289 1362h182l51 246h152l-51 -246h170h4l53 246h152l-60 -279q75 -38 116.5 -111.5t41.5 -162.5q0 -131 -70 -210.5t-196 -109.5zM811 1196
h-272l-90 -422h286q122 0 191 68.5t69 179.5q0 76 -47.5 125t-136.5 49zM584 170q158 0 247 69t89 199q0 86 -54.5 139.5t-154.5 53.5h-293l-99 -461h265z" />
    <glyph glyph-name="uni2113" unicode="&#x2113;" horiz-adv-x="989" 
d="M397 430q12 -134 73.5 -209.5t162.5 -75.5q108 0 211 60l-37 -185q-118 -51 -221 -51q-156 0 -246 104t-117 277q-112 -48 -215 -84l41 185q82 25 164 59q2 153 41.5 307t109 283.5t178 211t236.5 81.5q116 0 182 -71t66 -183q0 -104 -48 -205.5t-136 -190.5
t-198.5 -166.5t-246.5 -146.5zM743 1237q-66 0 -127 -62t-104.5 -158.5t-73 -205.5t-39.5 -211q200 111 325.5 245.5t125.5 268.5q0 56 -27.5 89.5t-79.5 33.5z" />
    <glyph glyph-name="uni2116" unicode="&#x2116;" horiz-adv-x="2445" 
d="M2120 1456q163 0 263.5 -101.5t100.5 -271.5q0 -202 -128.5 -338.5t-323.5 -136.5q-165 0 -267 105t-102 270q0 202 130.5 337.5t326.5 135.5zM1133 227l256 1207h188l-303 -1434h-250l-465 1249l-266 -1249h-189l304 1434h278zM2044 770q116 0 190 84.5t74 214.5
q0 106 -56.5 166.5t-150.5 60.5q-117 0 -189.5 -85t-72.5 -214q0 -108 55 -167.5t150 -59.5z" />
    <glyph glyph-name="uni2117" unicode="&#x2117;" horiz-adv-x="1458" 
d="M868 1393q166 0 287 -79.5t180.5 -213.5t59.5 -305q0 -170 -57 -324.5t-153.5 -266.5t-230.5 -178.5t-282 -66.5q-167 0 -290.5 79t-186 212t-62.5 301q0 231 95 424t264 305.5t376 112.5zM682 61q106 0 202 41.5t168 113t125 165.5t80 202.5t27 219.5q0 222 -119 354.5
t-313 132.5q-139 0 -256 -63.5t-192 -168t-116.5 -236.5t-41.5 -273q0 -220 120 -354t316 -134zM913 1038q91 0 143 -57.5t52 -142.5q0 -128 -83 -201.5t-222 -73.5h-121l-51 -241h-129l153 716h258zM784 672q90 0 137.5 40t47.5 115q0 44 -28.5 71.5t-88.5 27.5h-92
l-53 -254h77z" />
    <glyph glyph-name="trademark" unicode="&#x2122;" horiz-adv-x="1685" 
d="M815 1245h-233l-129 -608h-129l129 608h-228l25 117h590zM1475 1362h172l-72 -727h-129l67 577l-313 -577h-127l-53 579l-172 -579h-125l223 727h176l58 -545z" />
    <glyph glyph-name="uni2126" unicode="&#x2126;" horiz-adv-x="1542" 
d="M1481 809q0 -212 -111 -373t-317 -266h266l-37 -170h-557l37 174q228 53 370 219.5t142 390.5q0 193 -107 310.5t-293 117.5q-154 0 -273.5 -77.5t-182 -205t-62.5 -280.5q0 -161 74 -285t209 -190l-37 -174h-557l37 170h332q-126 83 -191 210.5t-65 278.5t59.5 287
t160 234t239.5 155.5t292 57.5q165 0 296.5 -77t203.5 -210t72 -297z" />
    <glyph glyph-name="estimated" unicode="&#x212e;" horiz-adv-x="1548" 
d="M1468 688h-1005v-436q159 -156 409 -156q166 0 303 56.5t228 150.5v-149q-210 -195 -531 -195q-207 0 -371.5 95.5t-254.5 258.5t-90 361q0 201 83.5 363.5t243.5 259t369 96.5q272 0 444 -170t172 -455v-80zM852 1260q-238 0 -389 -154v-301h739v319q-130 136 -350 136z
" />
    <glyph glyph-name="uni2153" unicode="&#x2153;" horiz-adv-x="1681" 
d="M303 616l143 680l-258 -155l33 155l299 179h117l-182 -859h-152zM1274 1434h172l-1127 -1434h-174zM1413 457q64 -18 95.5 -71t31.5 -122q0 -130 -97 -210.5t-247 -80.5q-164 0 -252 82l27 140q28 -36 84 -61t135 -25q90 0 143 39.5t53 109.5q0 60 -36 95.5t-113 35.5
h-160l31 121h162q79 0 126.5 36.5t47.5 96.5q0 111 -137 111q-74 0 -134.5 -23.5t-97.5 -54.5l31 147q115 68 233 68q122 0 189 -58.5t67 -158.5q0 -86 -49.5 -144t-132.5 -73z" />
    <glyph glyph-name="uni2154" unicode="&#x2154;" horiz-adv-x="1835" 
d="M692 770l-30 -141h-549l22 112l314 265q92 79 117 108q57 66 57 143q0 48 -35.5 78.5t-100.5 30.5q-128 0 -239 -119l28 162q99 96 242 96q120 0 191 -62.5t71 -166.5q0 -69 -32.5 -132t-77 -107.5t-117.5 -100.5l-215 -166h354zM1427 1434h172l-1126 -1434h-174z
M1567 457q64 -18 95.5 -71t31.5 -122q0 -130 -97 -210.5t-247 -80.5q-164 0 -252 82l26 140q28 -36 84 -61t135 -25q90 0 143.5 39.5t53.5 109.5q0 60 -36 95.5t-113 35.5h-160l31 121h161q79 0 126.5 36.5t47.5 96.5q0 111 -137 111q-74 0 -134 -23t-97 -55l31 147
q115 68 233 68q122 0 189 -58.5t67 -158.5q0 -86 -49.5 -144t-132.5 -73z" />
    <glyph glyph-name="arrowleft" unicode="&#x2190;" horiz-adv-x="1634" 
d="M1606 821v-176h-1211l486 -414h-250l-500 420v160l500 424h250l-486 -414h1211z" />
    <glyph glyph-name="arrowup" unicode="&#x2191;" horiz-adv-x="1112" 
d="M1110 995v-250l-391 463v-1208h-180v1208l-392 -463v250l404 480h160z" />
    <glyph glyph-name="arrowright" unicode="&#x2192;" horiz-adv-x="1634" 
d="M1096 1235l499 -424v-160l-499 -420h-250l485 414h-1210v176h1210l-485 414h250z" />
    <glyph glyph-name="arrowdown" unicode="&#x2193;" horiz-adv-x="1112" 
d="M657 225l392 463v-250l-400 -479h-160l-403 479v250l391 -463v1209h180v-1209z" />
    <glyph glyph-name="uni2196" unicode="&#x2196;" horiz-adv-x="1470" 
d="M1386 414l-129 -125l-847 846v-574l-174 180v693h675l181 -174h-549z" />
    <glyph glyph-name="uni2197" unicode="&#x2197;" horiz-adv-x="1187" 
d="M506 1434h676v-693l-174 -180v574l-848 -846l-129 125l843 846h-548z" />
    <glyph glyph-name="uni2198" unicode="&#x2198;" horiz-adv-x="1460" 
d="M1124 872l174 -180v-692h-675l-181 174h549l-844 846l129 125l848 -846v573z" />
    <glyph glyph-name="uni2199" unicode="&#x2199;" horiz-adv-x="1185" 
d="M1247 1020l-844 -846h549l-180 -174h-676v692l174 180v-573l848 846z" />
    <glyph glyph-name="uni21A4" unicode="&#x21a4;" horiz-adv-x="1802" 
d="M1491 1235h180v-1004h-180v414h-1092l486 -414h-250l-500 420v160l500 424h250l-486 -414h1092v414z" />
    <glyph glyph-name="uni21A5" unicode="&#x21a5;" horiz-adv-x="1257" 
d="M1108 745l-391 463v-1032h391v-176h-963v176h392v1032l-392 -463v250l404 480h160l399 -480v-250z" />
    <glyph glyph-name="uni21A6" unicode="&#x21a6;" horiz-adv-x="1773" 
d="M1239 1235l500 -424v-160l-500 -420h-250l486 414h-1092v-414h-180v1004h180v-414h1092l-486 414h250z" />
    <glyph glyph-name="uni21A7" unicode="&#x21a7;" horiz-adv-x="1325" 
d="M1210 1257h-391v-1032l391 463v-250l-399 -479h-160l-403 479v250l391 -463v1032h-391v177h962v-177z" />
    <glyph glyph-name="uni21B0" unicode="&#x21b0;" horiz-adv-x="1812" 
d="M420 1020h1210v-1020h-180v844h-1030l485 -414h-250l-499 422v158l499 424h250z" />
    <glyph glyph-name="uni21B1" unicode="&#x21b1;" horiz-adv-x="1638" 
d="M1153 1434l500 -424v-158l-500 -422h-250l486 414h-1031v-844h-180v1020h1211l-486 414h250z" />
    <glyph glyph-name="uni21B2" unicode="&#x21b2;" horiz-adv-x="1640" 
d="M1540 1434v-1020h-1210l485 -414h-250l-499 424v158l499 422h250l-485 -414h1030v844h180z" />
    <glyph glyph-name="uni21B3" unicode="&#x21b3;" horiz-adv-x="1826" 
d="M1237 1004l500 -422v-158l-500 -424h-250l486 414h-1211v1020h180v-844h1031l-486 414h250z" />
    <glyph glyph-name="partialdiff" unicode="&#x2202;" horiz-adv-x="1177" 
d="M633 1393q118 0 210 -43t148.5 -118.5t85.5 -173.5t29 -214q0 -144 -21 -271t-68 -239t-117.5 -192t-174.5 -126.5t-233 -46.5q-184 0 -301 118t-117 306q0 145 65 263t181 185.5t260 67.5q129 0 219.5 -59t118.5 -158q14 93 14 154q0 173 -85.5 274t-254.5 101
t-336 -127l41 192q160 107 336 107zM506 137q151 0 250.5 101.5t99.5 248.5q0 112 -71.5 188.5t-180.5 76.5q-148 0 -243 -97t-95 -249q0 -120 68 -194.5t172 -74.5z" />
    <glyph glyph-name="uni2206" unicode="&#x2206;" horiz-adv-x="1280" 
d="M944 1362l199 -1206l-33 -156h-1147l33 156l711 1206h237zM793 1184l-594 -1010h755z" />
    <glyph glyph-name="product" unicode="&#x220f;" horiz-adv-x="1490" 
d="M1602 1362l-37 -174h-215l-252 -1188h-189l252 1188h-545l-251 -1188h-189l252 1188h-215l37 174h1352z" />
    <glyph glyph-name="summation" unicode="&#x2211;" horiz-adv-x="1128" 
d="M1223 1362l-37 -174h-772l417 -629l-653 -631h740l-37 -174h-949l43 203l627 625l-373 569l45 211h949z" />
    <glyph glyph-name="minus" unicode="&#x2212;" 
d="M184 567l35 162h922l-35 -162h-922z" />
    <glyph glyph-name="uni2215" unicode="&#x2215;" horiz-adv-x="921" 
d="M-90 -246l995 1884h185l-996 -1884h-184z" />
    <glyph glyph-name="radical" unicode="&#x221a;" horiz-adv-x="1353" 
d="M1522 1362l-37 -174h-406l-745 -1434h-213l-86 840h190l43 -623l699 1391h555z" />
    <glyph glyph-name="infinity" unicode="&#x221e;" 
d="M348 428q-95 0 -153 68.5t-58 173.5q0 126 97 216.5t231 90.5q88 0 143.5 -37.5t91.5 -124.5q79 88 146.5 125t154.5 37q95 0 153 -68.5t58 -173.5q0 -128 -98 -217.5t-229 -89.5q-93 0 -143.5 37t-88.5 125q-78 -88 -145 -125t-160 -37zM393 573q46 0 88 28t109 104
q-31 68 -62.5 97t-78.5 29q-64 0 -111 -42t-47 -109q0 -45 28.5 -76t73.5 -31zM903 573q61 0 107.5 42.5t46.5 105.5q0 47 -27.5 78.5t-71.5 31.5q-47 0 -90.5 -28t-105.5 -98q35 -78 64.5 -105t76.5 -27z" />
    <glyph glyph-name="integral" unicode="&#x222b;" horiz-adv-x="980" 
d="M31 -266q-93 0 -172 53l35 162q43 -49 129 -49q90 0 140 50t87 161l309 909q30 88 65.5 153t84 116.5t113.5 77.5t145 26q93 0 170 -54l-35 -161q-43 49 -129 49q-90 0 -140.5 -49t-87.5 -160l-309 -912q-62 -182 -156 -277t-249 -95z" />
    <glyph glyph-name="approxequal" unicode="&#x2248;" 
d="M852 639q-53 0 -96 16.5t-71.5 39.5t-53.5 46t-53.5 39.5t-59.5 16.5q-54 0 -96 -37.5t-55 -100.5h-158q31 141 128 220t210 79q52 0 95 -16t71.5 -39t54 -46.5t53.5 -39.5t58 -16q54 0 97 37.5t56 99.5h158q-29 -140 -127 -219.5t-211 -79.5zM774 270q-53 0 -96 16.5
t-71.5 39.5t-53.5 46t-53.5 39.5t-59.5 16.5q-54 0 -96 -37.5t-55 -99.5h-158q31 141 128 220t210 79q52 0 95 -16.5t71.5 -39.5t54 -46t53.5 -39.5t58 -16.5q54 0 97 37.5t56 99.5h158q-29 -140 -127 -219.5t-211 -79.5z" />
    <glyph glyph-name="notequal" unicode="&#x2260;" 
d="M1145 752h-352l-127 -207h436l-35 -162h-500l-157 -256h-164l157 256h-258l35 162h322l127 207h-406l35 161h469l158 256h164l-158 -256h289z" />
    <glyph glyph-name="lessequal" unicode="&#x2264;" horiz-adv-x="1267" 
d="M1237 1188l-41 -184l-758 -218l666 -221l-37 -172l-838 301l43 197zM92 158l33 161h922l-33 -161h-922z" />
    <glyph glyph-name="greaterequal" unicode="&#x2265;" horiz-adv-x="1267" 
d="M326 1188l837 -297l-41 -197l-964 -301l37 180l759 220l-665 219zM111 158l34 161h922l-35 -161h-921z" />
    <glyph glyph-name="angleleft" unicode="&#x2329;" horiz-adv-x="684" 
d="M883 1638l-582 -938l205 -946h-184l-228 942l582 942h207z" />
    <glyph glyph-name="angleright" unicode="&#x232a;" horiz-adv-x="684" 
d="M442 1638l228 -942l-582 -942h-207l582 938l-205 946h184z" />
    <glyph glyph-name="uni2460" unicode="&#x2460;" horiz-adv-x="1458" 
d="M672 -41q-167 0 -290.5 79t-186 212t-62.5 301q0 231 95 424t264 305.5t376 112.5q166 0 287 -79.5t180.5 -213.5t59.5 -305q0 -170 -57 -324.5t-153.5 -266.5t-230.5 -178.5t-282 -66.5zM682 61q106 0 202 41.5t168 113t125 165.5t80 202.5t27 219.5q0 222 -119 354.5
t-313 132.5q-139 0 -256 -63.5t-192 -168t-116.5 -236.5t-41.5 -273q0 -220 120 -354t316 -134zM631 285l131 614l-234 -139l29 141l270 164h109l-166 -780h-139z" />
    <glyph glyph-name="uni2461" unicode="&#x2461;" horiz-adv-x="1458" 
d="M672 -41q-167 0 -290.5 79t-186 212t-62.5 301q0 231 95 424t264 305.5t376 112.5q166 0 287 -79.5t180.5 -213.5t59.5 -305q0 -170 -57 -324.5t-153.5 -266.5t-230.5 -178.5t-282 -66.5zM682 61q106 0 202 41.5t168 113t125 165.5t80 202.5t27 219.5q0 222 -119 354.5
t-313 132.5q-139 0 -256 -63.5t-192 -168t-116.5 -236.5t-41.5 -273q0 -220 120 -354t316 -134zM424 297l20 102l285 240q86 75 109 101q51 61 51 128q0 43 -32 71t-91 28q-116 0 -219 -107l26 146q88 88 220 88q109 0 174 -57t65 -152q0 -90 -52.5 -160.5t-154.5 -149.5
l-194 -149h321l-28 -129h-500z" />
    <glyph glyph-name="uni2462" unicode="&#x2462;" horiz-adv-x="1458" 
d="M672 -41q-167 0 -290.5 79t-186 212t-62.5 301q0 231 95 424t264 305.5t376 112.5q166 0 287 -79.5t180.5 -213.5t59.5 -305q0 -170 -57 -324.5t-153.5 -266.5t-230.5 -178.5t-282 -66.5zM682 61q106 0 202 41.5t168 113t125 165.5t80 202.5t27 219.5q0 222 -119 354.5
t-313 132.5q-139 0 -256 -63.5t-192 -168t-116.5 -236.5t-41.5 -273q0 -220 120 -354t316 -134zM678 260q-146 0 -229 74l24 127q26 -33 77 -55.5t122 -22.5q83 0 131.5 35.5t48.5 99.5q0 55 -33 87t-104 32h-146l29 111h147q72 0 115 33t43 87q0 101 -125 101t-209 -70
l27 133q106 62 213 62q111 0 171 -53t60 -144q0 -78 -45.5 -131.5t-120.5 -65.5q58 -16 87.5 -64.5t29.5 -111.5q0 -118 -88.5 -191t-224.5 -73z" />
    <glyph glyph-name="uni2463" unicode="&#x2463;" horiz-adv-x="1458" 
d="M672 -41q-167 0 -290.5 79t-186 212t-62.5 301q0 231 95 424t264 305.5t376 112.5q166 0 287 -79.5t180.5 -213.5t59.5 -305q0 -170 -57 -324.5t-153.5 -266.5t-230.5 -178.5t-282 -66.5zM682 61q106 0 202 41.5t168 113t125 165.5t80 202.5t27 219.5q0 222 -119 354.5
t-313 132.5q-139 0 -256 -63.5t-192 -168t-116.5 -236.5t-41.5 -273q0 -220 120 -354t316 -134zM723 285l41 190h-369l25 123l422 467h180l-100 -473h120l-24 -117h-121l-41 -190h-133zM559 592h229l70 334z" />
    <glyph glyph-name="uni2464" unicode="&#x2464;" horiz-adv-x="1458" 
d="M672 -41q-167 0 -290.5 79t-186 212t-62.5 301q0 231 95 424t264 305.5t376 112.5q166 0 287 -79.5t180.5 -213.5t59.5 -305q0 -170 -57 -324.5t-153.5 -266.5t-230.5 -178.5t-282 -66.5zM682 61q106 0 202 41.5t168 113t125 165.5t80 202.5t27 219.5q0 222 -119 354.5
t-313 132.5q-139 0 -256 -63.5t-192 -168t-116.5 -236.5t-41.5 -273q0 -220 120 -354t316 -134zM688 248q-69 0 -136 21.5t-103 58.5l24 123q33 -36 88.5 -57t116.5 -21q86 0 139 47.5t53 122.5q0 59 -38.5 95t-112.5 36q-82 0 -201 -56l92 447h469l-24 -125h-340l-37 -180
q52 20 117 20q106 0 162.5 -64t56.5 -163q0 -131 -92.5 -218t-233.5 -87z" />
    <glyph glyph-name="uni2465" unicode="&#x2465;" horiz-adv-x="1458" 
d="M672 -41q-167 0 -290.5 79t-186 212t-62.5 301q0 231 95 424t264 305.5t376 112.5q166 0 287 -79.5t180.5 -213.5t59.5 -305q0 -170 -57 -324.5t-153.5 -266.5t-230.5 -178.5t-282 -66.5zM682 61q106 0 202 41.5t168 113t125 165.5t80 202.5t27 219.5q0 222 -119 354.5
t-313 132.5q-139 0 -256 -63.5t-192 -168t-116.5 -236.5t-41.5 -273q0 -220 120 -354t316 -134zM711 260q-119 0 -192 72.5t-73 202.5q0 147 46.5 271t142 204t223.5 80q131 0 207 -66l-31 -129q-59 70 -184 70q-96 0 -162 -69t-92 -196q66 107 182 107q99 0 166.5 -68.5
t67.5 -169.5q0 -136 -83 -222.5t-218 -86.5zM715 377q75 0 118.5 51.5t43.5 124.5q0 65 -38.5 105t-101.5 40q-76 0 -121 -51.5t-45 -128.5q0 -60 41.5 -100.5t102.5 -40.5z" />
    <glyph glyph-name="uni2466" unicode="&#x2466;" horiz-adv-x="1458" 
d="M672 -41q-167 0 -290.5 79t-186 212t-62.5 301q0 231 95 424t264 305.5t376 112.5q166 0 287 -79.5t180.5 -213.5t59.5 -305q0 -170 -57 -324.5t-153.5 -266.5t-230.5 -178.5t-282 -66.5zM682 61q106 0 202 41.5t168 113t125 165.5t80 202.5t27 219.5q0 222 -119 354.5
t-313 132.5q-139 0 -256 -63.5t-192 -168t-116.5 -236.5t-41.5 -273q0 -220 120 -354t316 -134zM449 285l489 659h-379l25 121h530l-22 -113l-484 -667h-159z" />
    <glyph glyph-name="uni2467" unicode="&#x2467;" horiz-adv-x="1458" 
d="M672 -41q-167 0 -290.5 79t-186 212t-62.5 301q0 231 95 424t264 305.5t376 112.5q166 0 287 -79.5t180.5 -213.5t59.5 -305q0 -170 -57 -324.5t-153.5 -266.5t-230.5 -178.5t-282 -66.5zM682 61q106 0 202 41.5t168 113t125 165.5t80 202.5t27 219.5q0 222 -119 354.5
t-313 132.5q-139 0 -256 -63.5t-192 -168t-116.5 -236.5t-41.5 -273q0 -220 120 -354t316 -134zM700 260q-114 0 -185 64t-71 159q0 80 50.5 135.5t136.5 81.5q-82 51 -82 158q0 104 83.5 169t207.5 65q102 0 164.5 -62.5t62.5 -152.5q0 -71 -42 -121t-114 -74
q95 -56 95 -166q0 -116 -86.5 -186t-219.5 -70zM791 741q58 0 99.5 37t41.5 90q0 47 -31.5 76t-81.5 29q-62 0 -99.5 -34t-37.5 -87q0 -48 29 -79.5t80 -31.5zM711 381q70 0 116.5 41.5t46.5 101.5q0 53 -34 87t-92 34q-74 0 -120 -41.5t-46 -97.5t35 -90.5t94 -34.5z" />
    <glyph glyph-name="uni2468" unicode="&#x2468;" horiz-adv-x="1458" 
d="M672 -41q-167 0 -290.5 79t-186 212t-62.5 301q0 231 95 424t264 305.5t376 112.5q166 0 287 -79.5t180.5 -213.5t59.5 -305q0 -170 -57 -324.5t-153.5 -266.5t-230.5 -178.5t-282 -66.5zM682 61q106 0 202 41.5t168 113t125 165.5t80 202.5t27 219.5q0 222 -119 354.5
t-313 132.5q-139 0 -256 -63.5t-192 -168t-116.5 -236.5t-41.5 -273q0 -220 120 -354t316 -134zM659 260q-131 0 -204 86l26 123q58 -84 181 -84q94 0 163.5 76t92.5 207q-64 -109 -183 -109q-98 0 -164.5 67.5t-66.5 172.5q0 124 85 208.5t218 84.5q121 0 190.5 -78
t69.5 -232q0 -89 -25 -178.5t-73 -167.5t-128.5 -127t-181.5 -49zM772 666q70 0 116 47t46 116q0 62 -37 104t-98 42q-70 0 -113 -50.5t-43 -121.5q0 -59 32.5 -98t96.5 -39z" />
    <glyph glyph-name="uni2469" unicode="&#x2469;" horiz-adv-x="1458" 
d="M672 -41q-167 0 -290.5 79t-186 212t-62.5 301q0 231 95 424t264 305.5t376 112.5q166 0 287 -79.5t180.5 -213.5t59.5 -305q0 -170 -57 -324.5t-153.5 -266.5t-230.5 -178.5t-282 -66.5zM682 61q106 0 202 41.5t168 113t125 165.5t80 202.5t27 219.5q0 222 -119 354.5
t-313 132.5q-139 0 -256 -63.5t-192 -168t-116.5 -236.5t-41.5 -273q0 -220 120 -354t316 -134zM829 260q-79 0 -127.5 62t-48.5 186q0 92 19.5 190.5t57 188.5t101 147.5t142.5 57.5q81 0 133.5 -61.5t52.5 -186.5q0 -72 -13 -150.5t-41 -156t-66 -139t-93 -100t-117 -38.5
zM385 285l131 616l-137 -90l29 131l180 123h86l-166 -780h-123zM846 389q43 0 79 52t57.5 127.5t33.5 151t12 130.5q0 54 -20.5 83.5t-51.5 29.5q-42 0 -77.5 -52.5t-56 -129.5t-31.5 -153.5t-11 -133.5q0 -53 18 -79t48 -26z" />
    <glyph glyph-name="filledbox" unicode="&#x25a0;" horiz-adv-x="1665" 
d="M248 61v1239h1239v-1239h-1239z" />
    <glyph glyph-name="uni25A1" unicode="&#x25a1;" horiz-adv-x="1665" 
d="M248 61v1239h1239v-1239h-1239zM393 201h948v960h-948v-960z" />
    <glyph glyph-name="triagup" unicode="&#x25b2;" horiz-adv-x="1564" 
d="M-14 61l721 1373l723 -1373h-1444z" />
    <glyph glyph-name="uni25B3" unicode="&#x25b3;" horiz-adv-x="1564" 
d="M707 1434l723 -1373h-1444zM1198 201l-491 936l-490 -936h981z" />
    <glyph glyph-name="uni25B6" unicode="&#x25b6;" horiz-adv-x="1581" 
d="M299 -6v1444l1270 -744z" />
    <glyph glyph-name="uni25B7" unicode="&#x25b7;" horiz-adv-x="1581" 
d="M299 1438l1270 -744l-1270 -700v1444zM1286 698l-842 494v-961z" />
    <glyph glyph-name="triagdn" unicode="&#x25bc;" horiz-adv-x="1568" 
d="M211 1300h1444l-723 -1372z" />
    <glyph glyph-name="uni25BD" unicode="&#x25bd;" horiz-adv-x="1568" 
d="M211 1300h1444l-723 -1372zM1423 1161h-981l490 -936z" />
    <glyph glyph-name="uni25C0" unicode="&#x25c0;" horiz-adv-x="1581" 
d="M1282 -6l-1270 700l1270 744v-1444z" />
    <glyph glyph-name="uni25C1" unicode="&#x25c1;" horiz-adv-x="1581" 
d="M12 694l1270 744v-1444zM1137 1192l-842 -494l842 -467v961z" />
    <glyph glyph-name="uni25C6" unicode="&#x25c6;" horiz-adv-x="1855" 
d="M956 -205l-870 875l870 876l883 -876z" />
    <glyph glyph-name="uni25C7" unicode="&#x25c7;" horiz-adv-x="1855" 
d="M956 -205l-870 875l870 876l883 -876zM956 -4l680 674l-680 678l-669 -678z" />
    <glyph glyph-name="lozenge" unicode="&#x25ca;" horiz-adv-x="1157" 
d="M838 1362l288 -666l-577 -696h-160l-280 696l569 666h160zM506 168l426 520l-209 506l-426 -508z" />
    <glyph glyph-name="circle" unicode="&#x25cb;" horiz-adv-x="1548" 
d="M809 18q-182 0 -333.5 87t-237.5 237.5t-86 331.5q0 136 51 258t138 210t209 139.5t259 51.5q183 0 334.5 -87.5t238 -238.5t86.5 -333q0 -181 -86.5 -331.5t-238 -237.5t-334.5 -87zM809 158q218 0 366 149t148 367q0 144 -67.5 263t-185.5 188t-261 69
q-215 0 -363.5 -151t-148.5 -369q0 -143 67.5 -261.5t185.5 -186.5t259 -68z" />
    <glyph glyph-name="uni25CF" unicode="&#x25cf;" horiz-adv-x="1548" 
d="M809 18q-182 0 -333.5 87t-237.5 237.5t-86 331.5q0 136 51 258t138 210t209 139.5t259 51.5q183 0 334.5 -87.5t238 -238.5t86.5 -333q0 -181 -86.5 -331.5t-238 -237.5t-334.5 -87z" />
    <glyph glyph-name="uni2661" unicode="&#x2661;" horiz-adv-x="1656" 
d="M1255 1434q175 0 281 -118t106 -312q0 -122 -46 -246.5t-141 -257.5t-226.5 -270t-317.5 -300q-182 161 -311.5 296t-226 269t-143 260t-46.5 249q0 194 106 312t281 118q119 0 209.5 -54t132.5 -157q42 103 132.5 157t209.5 54zM911 121q313 286 449.5 492.5
t136.5 390.5q0 135 -67 212.5t-187 77.5q-222 0 -252 -276h-155q-30 276 -252 276q-120 0 -187 -77.5t-67 -210.5q0 -185 137.5 -394.5t443.5 -490.5z" />
    <glyph glyph-name="heart" unicode="&#x2665;" horiz-adv-x="1656" 
d="M1262 1434q169 0 274.5 -118.5t105.5 -311.5q0 -122 -46 -247t-141.5 -258t-227 -270t-316.5 -299q-179 157 -308.5 292t-226 269.5t-144.5 262.5t-48 252q0 191 106 309.5t275 118.5q138 0 229.5 -80.5t118.5 -216.5q28 136 120 216.5t229 80.5z" />
    <glyph glyph-name="uni2776" unicode="&#x2776;" horiz-adv-x="1458" 
d="M672 -41q148 0 282 66.5t230.5 178.5t153.5 266.5t57 324.5q0 171 -59.5 305t-180.5 213.5t-287 79.5q-207 0 -376 -112.5t-264 -305.5t-95 -424q0 -168 62.5 -301t186 -212t290.5 -79zM631 285l131 614l-234 -139l29 141l270 164h109l-166 -780h-139z" />
    <glyph glyph-name="uni2777" unicode="&#x2777;" horiz-adv-x="1458" 
d="M672 -41q148 0 282 66.5t230.5 178.5t153.5 266.5t57 324.5q0 171 -59.5 305t-180.5 213.5t-287 79.5q-207 0 -376 -112.5t-264 -305.5t-95 -424q0 -168 62.5 -301t186 -212t290.5 -79zM424 297l20 102l285 240q86 75 109 101q51 61 51 128q0 43 -32 71t-91 28
q-116 0 -219 -107l26 146q88 88 220 88q109 0 174 -57t65 -152q0 -90 -52.5 -160.5t-154.5 -149.5l-194 -149h321l-28 -129h-500z" />
    <glyph glyph-name="uni2778" unicode="&#x2778;" horiz-adv-x="1458" 
d="M672 -41q148 0 282 66.5t230.5 178.5t153.5 266.5t57 324.5q0 171 -59.5 305t-180.5 213.5t-287 79.5q-207 0 -376 -112.5t-264 -305.5t-95 -424q0 -168 62.5 -301t186 -212t290.5 -79zM678 260q-146 0 -229 74l24 127q26 -33 77 -55.5t122 -22.5q83 0 131.5 35.5
t48.5 99.5q0 55 -33 87t-104 32h-146l29 111h147q72 0 115 33t43 87q0 101 -125 101t-209 -70l27 133q106 62 213 62q111 0 171 -53t60 -144q0 -78 -45.5 -131.5t-120.5 -65.5q58 -16 87.5 -64.5t29.5 -111.5q0 -118 -88.5 -191t-224.5 -73z" />
    <glyph glyph-name="uni2779" unicode="&#x2779;" horiz-adv-x="1458" 
d="M672 -41q148 0 282 66.5t230.5 178.5t153.5 266.5t57 324.5q0 171 -59.5 305t-180.5 213.5t-287 79.5q-207 0 -376 -112.5t-264 -305.5t-95 -424q0 -168 62.5 -301t186 -212t290.5 -79zM723 285l41 190h-369l25 123l422 467h180l-100 -473h120l-24 -117h-121l-41 -190
h-133zM559 592h229l70 334z" />
    <glyph glyph-name="uni277A" unicode="&#x277a;" horiz-adv-x="1458" 
d="M672 -41q148 0 282 66.5t230.5 178.5t153.5 266.5t57 324.5q0 171 -59.5 305t-180.5 213.5t-287 79.5q-207 0 -376 -112.5t-264 -305.5t-95 -424q0 -168 62.5 -301t186 -212t290.5 -79zM688 248q-69 0 -136 21.5t-103 58.5l24 123q33 -36 88.5 -57t116.5 -21
q86 0 139 47.5t53 122.5q0 59 -38.5 95t-112.5 36q-82 0 -201 -56l92 447h469l-24 -125h-340l-37 -180q52 20 117 20q106 0 162.5 -64t56.5 -163q0 -131 -92.5 -218t-233.5 -87z" />
    <glyph glyph-name="uni277B" unicode="&#x277b;" horiz-adv-x="1458" 
d="M672 -41q148 0 282 66.5t230.5 178.5t153.5 266.5t57 324.5q0 171 -59.5 305t-180.5 213.5t-287 79.5q-207 0 -376 -112.5t-264 -305.5t-95 -424q0 -168 62.5 -301t186 -212t290.5 -79zM711 260q-119 0 -192 72.5t-73 202.5q0 147 46.5 271t142 204t223.5 80
q131 0 207 -66l-31 -129q-59 70 -184 70q-96 0 -162 -69t-92 -196q66 107 182 107q99 0 166.5 -68.5t67.5 -169.5q0 -136 -83 -222.5t-218 -86.5zM715 377q75 0 118.5 51.5t43.5 124.5q0 65 -38.5 105t-101.5 40q-76 0 -121 -51.5t-45 -128.5q0 -60 41.5 -100.5t102.5 -40.5
z" />
    <glyph glyph-name="uni277C" unicode="&#x277c;" horiz-adv-x="1458" 
d="M672 -41q148 0 282 66.5t230.5 178.5t153.5 266.5t57 324.5q0 171 -59.5 305t-180.5 213.5t-287 79.5q-207 0 -376 -112.5t-264 -305.5t-95 -424q0 -168 62.5 -301t186 -212t290.5 -79zM449 285l489 659h-379l25 121h530l-22 -113l-484 -667h-159z" />
    <glyph glyph-name="uni277D" unicode="&#x277d;" horiz-adv-x="1458" 
d="M672 -41q148 0 282 66.5t230.5 178.5t153.5 266.5t57 324.5q0 171 -59.5 305t-180.5 213.5t-287 79.5q-207 0 -376 -112.5t-264 -305.5t-95 -424q0 -168 62.5 -301t186 -212t290.5 -79zM700 260q-114 0 -185 64t-71 159q0 80 50.5 135.5t136.5 81.5q-82 51 -82 158
q0 104 83.5 169t207.5 65q102 0 164.5 -62.5t62.5 -152.5q0 -71 -42 -121t-114 -74q95 -56 95 -166q0 -116 -86.5 -186t-219.5 -70zM791 741q58 0 99.5 37t41.5 90q0 47 -31.5 76t-81.5 29q-62 0 -99.5 -34t-37.5 -87q0 -48 29 -79.5t80 -31.5zM711 381q70 0 116.5 41.5
t46.5 101.5q0 53 -34 87t-92 34q-74 0 -120 -41.5t-46 -97.5t35 -90.5t94 -34.5z" />
    <glyph glyph-name="uni277E" unicode="&#x277e;" horiz-adv-x="1458" 
d="M672 -41q148 0 282 66.5t230.5 178.5t153.5 266.5t57 324.5q0 171 -59.5 305t-180.5 213.5t-287 79.5q-207 0 -376 -112.5t-264 -305.5t-95 -424q0 -168 62.5 -301t186 -212t290.5 -79zM659 260q-131 0 -204 86l26 123q58 -84 181 -84q94 0 163.5 76t92.5 207
q-64 -109 -183 -109q-98 0 -164.5 67.5t-66.5 172.5q0 124 85 208.5t218 84.5q121 0 190.5 -78t69.5 -232q0 -89 -25 -178.5t-73 -167.5t-128.5 -127t-181.5 -49zM772 666q70 0 116 47t46 116q0 62 -37 104t-98 42q-70 0 -113 -50.5t-43 -121.5q0 -59 32.5 -98t96.5 -39z
" />
    <glyph glyph-name="uni277F" unicode="&#x277f;" horiz-adv-x="1458" 
d="M672 -41q148 0 282 66.5t230.5 178.5t153.5 266.5t57 324.5q0 171 -59.5 305t-180.5 213.5t-287 79.5q-207 0 -376 -112.5t-264 -305.5t-95 -424q0 -168 62.5 -301t186 -212t290.5 -79zM829 260q-79 0 -127.5 62t-48.5 186q0 92 19.5 190.5t57 188.5t101 147.5
t142.5 57.5q81 0 133.5 -61.5t52.5 -186.5q0 -72 -13 -150.5t-41 -156t-66 -139t-93 -100t-117 -38.5zM385 285l131 616l-137 -90l29 131l180 123h86l-166 -780h-123zM846 389q43 0 79 52t57.5 127.5t33.5 151t12 130.5q0 54 -20.5 83.5t-51.5 29.5q-42 0 -77.5 -52.5
t-56 -129.5t-31.5 -153.5t-11 -133.5q0 -53 18 -79t48 -26z" />
    <glyph glyph-name="uni300A" unicode="&#x300a;" horiz-adv-x="1187" 
d="M883 1638l-582 -938l205 -946h-184l-228 942l582 942h207zM1386 1638l-581 -938l205 -946h-185l-227 942l582 942h206z" />
    <glyph glyph-name="uni300B" unicode="&#x300b;" horiz-adv-x="1187" 
d="M442 1638l228 -942l-582 -942h-207l582 938l-205 946h184zM946 1638l228 -942l-582 -942h-207l582 938l-205 946h184z" />
    <glyph glyph-name="uni300C" unicode="&#x300c;" horiz-adv-x="667" 
d="M199 778l182 860h487l-34 -161h-308l-147 -699h-180z" />
    <glyph glyph-name="uni300D" unicode="&#x300d;" horiz-adv-x="466" 
d="M348 614l-182 -860h-488l35 162h307l148 698h180z" />
    <glyph glyph-name="uni300E" unicode="&#x300e;" horiz-adv-x="933" 
d="M176 676l205 960h715l-82 -387h-328l-123 -573h-387zM326 799h141l121 573h327l31 141h-469z" />
    <glyph glyph-name="uni300F" unicode="&#x300f;" horiz-adv-x="919" 
d="M823 717l-205 -961h-714l82 387h327l123 574h387zM674 594h-142l-120 -574h-328l-31 -141h469z" />
    <glyph glyph-name="uni3010" unicode="&#x3010;" horiz-adv-x="784" 
d="M23 -246l401 1886h598q-445 -389 -561 -935q-35 -166 -35 -318q0 -354 195 -633h-598z" />
    <glyph glyph-name="uni3011" unicode="&#x3011;" horiz-adv-x="784" 
d="M762 1640l-402 -1886h-598q446 390 562 936q34 161 34 318q0 355 -194 632h598z" />
    <glyph glyph-name="uni3014" unicode="&#x3014;" horiz-adv-x="598" 
d="M268 -266l-235 325l272 1278l373 326l102 -125l-311 -270l-242 -1139l197 -270z" />
    <glyph glyph-name="uni3015" unicode="&#x3015;" horiz-adv-x="598" 
d="M0 -266l-102 125l311 270l242 1139l-197 270l156 125l235 -326l-272 -1278z" />
    <glyph glyph-name="uniF8FF" unicode="&#xf8ff;" horiz-adv-x="2013" 
d="M2009 934q5 -17 4 -24.5t-8 -21t-8 -16.5q-16 -43 -22.5 -93t-9 -116.5t-5.5 -95.5q-3 -30 -16.5 -81.5t-16.5 -65.5q-2 -9 -6 -31.5t-8 -36.5q-5 -32 -20 -39.5t-46 -3.5q-23 2 -59 13.5t-53 13.5q-14 2 -46 4.5t-55.5 6t-44.5 9.5q-47 14 -51 15q-11 3 -14 -11
q-9 -16 -38.5 -71t-47.5 -84q-6 -8 -20.5 -30.5t-22 -33.5t-20.5 -27.5t-25 -29.5q-47 -52 -136 -117q-13 -9 -28 -17.5t-26.5 -15t-29.5 -14t-27.5 -11.5t-30 -10t-28 -8.5t-30.5 -8.5t-28 -7t-31 -7t-29 -7q-173 -47 -324 -15q-21 4 -70.5 10.5t-74.5 12.5q-73 18 -142 70
q-42 27 -67 59q-22 26 -29 37q-8 16 -20 22q-5 2 -10.5 6.5t-8.5 8.5l-2 4q-2 2 -1 15l1 13v2q-5 5 -8 13l-2 8q-59 152 -66 326q-5 138 50 344q42 167 141 338q59 104 106 145q22 22 66 45q25 15 27 18l45 35q7 4 21.5 13t21.5 12q4 2 15.5 9.5t20.5 10.5q25 15 78 37
q84 29 107 35q104 26 155 31q42 0 51 0.5t50.5 -3.5t50.5 -5q115 -9 274 -105q158 -93 215 -188q26 -43 60 -133q9 -28 15 -81.5t11 -74.5q2 -9 5 -34t6.5 -42.5t7.5 -21.5q18 -2 73.5 23t71.5 28q34 11 97 47q1 1 5.5 3.5t6.5 3.5t6.5 3t6.5 2.5t6.5 1.5t7.5 1t6.5 -1
t6.5 -3t6.5 -5t6.5 -8zM1917 805q6 24 6 45q-9 -3 -51 -20.5t-43 -18.5q-18 -5 -53 -19.5t-65 -23.5t-54 -10q-20 0 -27 7.5t-10 31.5q-1 14 0 47t0 47q-3 100 -33.5 190t-81.5 150q-112 122 -264 181t-307 42q-114 -12 -207 -53q-140 -60 -186 -94q-7 -5 -26.5 -20t-28 -22
t-25 -20.5t-26.5 -23.5t-22.5 -23.5t-21.5 -26.5q-64 -94 -112 -202q-42 -114 -70 -219q-19 -72 -37 -205q-11 -79 16 -211q1 -8 5.5 -33.5t7 -38t7 -32t11 -34.5t14.5 -28q58 57 98 132.5t54 152.5q13 73 16 172q-1 12 -0.5 43t-1.5 41q0 3 -2 19t-2 27t7 23t22 15
q30 -1 39.5 -41.5t1.5 -135.5q0 -5 -1 -35t-1.5 -41t-2.5 -35.5t-5.5 -44t-8.5 -38.5q-27 -101 -73 -176q-7 -13 -56 -80q-6 -8 -21.5 -24.5t-22.5 -28t-5 -21.5q3 -19 47 -63q7 -12 17.5 -21t17.5 -12.5l27 -13.5q97 -56 178 -68q8 -1 24 -2q75 -10 169.5 -9.5t173.5 19.5
q8 2 33.5 11.5t43.5 11.5q10 2 37 4t41 8q49 18 121 86q15 12 40 29.5t42.5 32t30.5 30.5q41 46 90 133q38 52 43 70q5 12 8.5 24.5t5 21t0.5 9.5q-1 4 -11.5 5.5t-23 0.5t-22.5 0q-16 2 -50.5 10.5t-50.5 10.5q-2 0 -16.5 1t-22.5 2t-19 6t-17 13q-13 20 4.5 38.5
t46.5 15.5q32 -3 95.5 -18.5t94.5 -18.5q26 -3 35 18q2 29 21 72l5 17q5 17 9 25.5t14.5 18t24.5 8.5q9 0 15 -3t8 -8t2.5 -10.5t-1 -12t-3 -11t-3.5 -9.5l-2 -5q-3 -12 -18 -50t-17 -56q-1 -12 2 -14.5t27 -10.5q52 -13 180 -29q84 -21 90 -20l5 35q36 130 38 196
q4 74 19 195zM911 924q8 -6 7 -15t-10 -32q-5 -11 -7 -17t-8 -23.5t-9 -24.5t-10 -20.5t-14.5 -21t-20 -17t-28.5 -16.5q-106 -42 -160 -4q-29 27 -39 55t-10 76q1 5 1 19.5t1.5 23t9 15t21.5 4.5q24 -3 24 -49q-3 -68 37 -91q17 -12 50 -7t59 24q17 13 30 52.5t25 55.5
q15 20 30 24t21 -11zM1384 905q38 14 36 -32q-1 -22 -11 -54q-12 -36 -39.5 -66t-60.5 -42q-100 -34 -135 -11q-7 6 -12.5 14t-9 15t-5.5 18.5t-3 18.5t-1 20.5v18.5t1 19t1 16l1 6q1 7 2 11t2.5 11.5t4.5 12t7.5 9t11 6.5t14.5 1q26 -3 20 -35q0 -6 -2 -22t-2.5 -27
t0 -24.5t5 -22.5t12.5 -14q15 -6 51 6.5t51 29.5q4 4 23 56.5t38 60.5z" />
    <glyph glyph-name="M.ss02" horiz-adv-x="1890" 
d="M1556 1434h328l-305 -1434h-193l269 1264l-725 -1264h-213l-168 1276l-270 -1276h-187l305 1434h316l157 -1190z" />
    <glyph glyph-name="i.loclTRK" horiz-adv-x="516" 
d="M418 1212q-50 0 -79.5 29t-29.5 76q0 59 39.5 98t97.5 39q50 0 79.5 -28.5t29.5 -75.5q0 -59 -38.5 -98.5t-98.5 -39.5zM55 0l217 1024h189l-217 -1024h-189z" />
    <glyph glyph-name="a.ss01" horiz-adv-x="1222" 
d="M985 1024h189l-218 -1024h-188l33 158q-60 -89 -138 -139t-188 -50q-119 0 -208.5 62.5t-135 167.5t-45.5 237q0 164 65.5 305.5t184.5 227.5t264 86q260 0 338 -256zM537 141q106 0 187.5 67t122 167.5t40.5 212.5q0 145 -69.5 221t-194.5 76q-105 0 -186 -62.5
t-121 -158.5t-40 -207q0 -151 72.5 -233.5t188.5 -82.5z" />
    <glyph glyph-name="aacute.ss01" horiz-adv-x="1222" 
d="M1063 1434l-268 -287h-158l231 287h195zM985 1024h189l-218 -1024h-188l33 158q-60 -89 -138 -139t-188 -50q-119 0 -208.5 62.5t-135 167.5t-45.5 237q0 164 65.5 305.5t184.5 227.5t264 86q260 0 338 -256zM537 141q106 0 187.5 67t122 167.5t40.5 212.5
q0 145 -69.5 221t-194.5 76q-105 0 -186 -62.5t-121 -158.5t-40 -207q0 -151 72.5 -233.5t188.5 -82.5z" />
    <glyph glyph-name="abreve.ss01" horiz-adv-x="1222" 
d="M739 1130q-110 0 -181 59.5t-71 168.5q0 30 5 55h131q0 -4 -1 -13.5t-1 -13.5q0 -62 33 -97.5t94 -35.5q69 0 120 44t68 116h143q-31 -136 -125.5 -209.5t-214.5 -73.5zM985 1024h189l-218 -1024h-188l33 158q-60 -89 -138 -139t-188 -50q-119 0 -208.5 62.5t-135 167.5
t-45.5 237q0 164 65.5 305.5t184.5 227.5t264 86q260 0 338 -256zM537 141q106 0 187.5 67t122 167.5t40.5 212.5q0 145 -69.5 221t-194.5 76q-105 0 -186 -62.5t-121 -158.5t-40 -207q0 -151 72.5 -233.5t188.5 -82.5z" />
    <glyph glyph-name="acircumflex.ss01" horiz-adv-x="1222" 
d="M766 1327l-174 -180h-164l264 287h189l141 -287h-152zM985 1024h189l-218 -1024h-188l33 158q-60 -89 -138 -139t-188 -50q-119 0 -208.5 62.5t-135 167.5t-45.5 237q0 164 65.5 305.5t184.5 227.5t264 86q260 0 338 -256zM537 141q106 0 187.5 67t122 167.5t40.5 212.5
q0 145 -69.5 221t-194.5 76q-105 0 -186 -62.5t-121 -158.5t-40 -207q0 -151 72.5 -233.5t188.5 -82.5z" />
    <glyph glyph-name="adieresis.ss01" horiz-adv-x="1222" 
d="M547 1178q-48 0 -78.5 29.5t-30.5 76.5q0 52 36 87.5t89 35.5q50 0 80.5 -28.5t30.5 -75.5q0 -53 -35.5 -89t-91.5 -36zM944 1178q-47 0 -77.5 29.5t-30.5 76.5q0 52 36 87.5t89 35.5q50 0 80 -28.5t30 -75.5q0 -53 -35.5 -89t-91.5 -36zM985 1024h189l-218 -1024h-188
l33 158q-60 -89 -138 -139t-188 -50q-119 0 -208.5 62.5t-135 167.5t-45.5 237q0 164 65.5 305.5t184.5 227.5t264 86q260 0 338 -256zM537 141q106 0 187.5 67t122 167.5t40.5 212.5q0 145 -69.5 221t-194.5 76q-105 0 -186 -62.5t-121 -158.5t-40 -207q0 -151 72.5 -233.5
t188.5 -82.5z" />
    <glyph glyph-name="uni0227.ss01" horiz-adv-x="1222" 
d="M745 1159q-54 0 -89 34t-35 89q0 60 42 101.5t103 41.5q57 0 92 -33.5t35 -88.5q0 -61 -41.5 -102.5t-106.5 -41.5zM985 1024h189l-218 -1024h-188l33 158q-60 -89 -138 -139t-188 -50q-119 0 -208.5 62.5t-135 167.5t-45.5 237q0 164 65.5 305.5t184.5 227.5t264 86
q260 0 338 -256zM537 141q106 0 187.5 67t122 167.5t40.5 212.5q0 145 -69.5 221t-194.5 76q-105 0 -186 -62.5t-121 -158.5t-40 -207q0 -151 72.5 -233.5t188.5 -82.5z" />
    <glyph glyph-name="uni1EA1.ss01" horiz-adv-x="1222" 
d="M985 1024h189l-218 -1024h-188l33 158q-60 -89 -138 -139t-188 -50q-119 0 -208.5 62.5t-135 167.5t-45.5 237q0 164 65.5 305.5t184.5 227.5t264 86q260 0 338 -256zM537 141q106 0 187.5 67t122 167.5t40.5 212.5q0 145 -69.5 221t-194.5 76q-105 0 -186 -62.5
t-121 -158.5t-40 -207q0 -151 72.5 -233.5t188.5 -82.5zM459 -129q57 0 92 -34t35 -89q0 -61 -41.5 -102t-106.5 -41q-55 0 -90 34t-35 89q0 60 42.5 101.5t103.5 41.5z" />
    <glyph glyph-name="agrave.ss01" horiz-adv-x="1222" 
d="M827 1147h-157l-209 287h194zM985 1024h189l-218 -1024h-188l33 158q-60 -89 -138 -139t-188 -50q-119 0 -208.5 62.5t-135 167.5t-45.5 237q0 164 65.5 305.5t184.5 227.5t264 86q260 0 338 -256zM537 141q106 0 187.5 67t122 167.5t40.5 212.5q0 145 -69.5 221
t-194.5 76q-105 0 -186 -62.5t-121 -158.5t-40 -207q0 -151 72.5 -233.5t188.5 -82.5z" />
    <glyph glyph-name="amacron.ss01" horiz-adv-x="1222" 
d="M1055 1327l-29 -135h-584l29 135h584zM985 1024h189l-218 -1024h-188l33 158q-60 -89 -138 -139t-188 -50q-119 0 -208.5 62.5t-135 167.5t-45.5 237q0 164 65.5 305.5t184.5 227.5t264 86q260 0 338 -256zM537 141q106 0 187.5 67t122 167.5t40.5 212.5q0 145 -69.5 221
t-194.5 76q-105 0 -186 -62.5t-121 -158.5t-40 -207q0 -151 72.5 -233.5t188.5 -82.5z" />
    <glyph glyph-name="aogonek.ss01" horiz-adv-x="1222" 
d="M985 1024h189l-218 -1024h-22q-117 -13 -176.5 -62t-59.5 -118q0 -55 32.5 -85t82.5 -30q66 0 121 33l-27 -111q-64 -33 -133 -33q-90 0 -141 54t-51 141q0 78 48.5 136.5t139.5 82.5l31 150q-60 -89 -138 -139t-188 -50q-119 0 -208.5 62.5t-135 167.5t-45.5 237
q0 164 65.5 305.5t184.5 227.5t264 86q260 0 338 -256zM537 141q106 0 187.5 67t122 167.5t40.5 212.5q0 145 -69.5 221t-194.5 76q-105 0 -186 -62.5t-121 -158.5t-40 -207q0 -151 72.5 -233.5t188.5 -82.5z" />
    <glyph glyph-name="aring.ss01" horiz-adv-x="1222" 
d="M745 1137q-80 0 -131 50t-51 132q0 88 61.5 149.5t151.5 61.5q84 0 135.5 -49.5t51.5 -132.5q0 -89 -62 -150t-156 -61zM772 1440q-49 0 -82 -33.5t-33 -81.5q0 -44 27 -71t70 -27q50 0 82 33t32 81q0 44 -26.5 71.5t-69.5 27.5zM985 1024h189l-218 -1024h-188l33 158
q-60 -89 -138 -139t-188 -50q-119 0 -208.5 62.5t-135 167.5t-45.5 237q0 164 65.5 305.5t184.5 227.5t264 86q260 0 338 -256zM537 141q106 0 187.5 67t122 167.5t40.5 212.5q0 145 -69.5 221t-194.5 76q-105 0 -186 -62.5t-121 -158.5t-40 -207q0 -151 72.5 -233.5
t188.5 -82.5z" />
    <glyph glyph-name="aringacute.ss01" horiz-adv-x="1222" 
d="M1071 1782l-188 -205h-117l152 205h153zM745 1137q-80 0 -131 50t-51 132q0 88 61.5 149.5t151.5 61.5q84 0 135.5 -49.5t51.5 -132.5q0 -89 -62 -150t-156 -61zM772 1440q-49 0 -82 -33.5t-33 -81.5q0 -44 27 -71t70 -27q50 0 82 33t32 81q0 44 -26.5 71.5t-69.5 27.5z
M985 1024h189l-218 -1024h-188l33 158q-60 -89 -138 -139t-188 -50q-119 0 -208.5 62.5t-135 167.5t-45.5 237q0 164 65.5 305.5t184.5 227.5t264 86q260 0 338 -256zM537 141q106 0 187.5 67t122 167.5t40.5 212.5q0 145 -69.5 221t-194.5 76q-105 0 -186 -62.5
t-121 -158.5t-40 -207q0 -151 72.5 -233.5t188.5 -82.5z" />
    <glyph glyph-name="atilde.ss01" horiz-adv-x="1222" 
d="M633 1264q-76 0 -96 -93h-111q23 104 81.5 159.5t141.5 55.5q37 0 69.5 -18.5t52 -40.5t44.5 -40.5t49 -18.5q38 0 63 25t34 67h112q-22 -103 -79 -158t-140 -55q-38 0 -71.5 18.5t-53.5 40t-46 40t-50 18.5zM985 1024h189l-218 -1024h-188l33 158q-60 -89 -138 -139
t-188 -50q-119 0 -208.5 62.5t-135 167.5t-45.5 237q0 164 65.5 305.5t184.5 227.5t264 86q260 0 338 -256zM537 141q106 0 187.5 67t122 167.5t40.5 212.5q0 145 -69.5 221t-194.5 76q-105 0 -186 -62.5t-121 -158.5t-40 -207q0 -151 72.5 -233.5t188.5 -82.5z" />
    <glyph glyph-name="t.ss03" horiz-adv-x="780" 
d="M494 864l-121 -573q-8 -46 -8 -62q0 -108 118 -108q91 0 185 51l-35 -164q-89 -49 -207 -49q-121 0 -186.5 62.5t-65.5 175.5q0 36 10 94l123 573h-207l33 160h207l55 256l201 61l-68 -317h303l-32 -160h-305z" />
    <glyph glyph-name="tbar.ss03" horiz-adv-x="802" 
d="M815 864h-305l-59 -284h307l-29 -136h-307l-33 -153q-8 -46 -8 -62q0 -108 119 -108q90 0 184 51l-35 -164q-89 -49 -207 -49q-121 0 -186.5 62.5t-65.5 175.5q0 30 11 94l32 153h-190l29 136h190l62 284h-207l33 160h206l56 256l200 61l-67 -317h303z" />
    <glyph glyph-name="tcaron.ss03" horiz-adv-x="780" 
d="M1096 1470l-269 -286h-157l231 286h195zM596 1341l-68 -317h303l-32 -160h-305l-121 -573q-8 -46 -8 -62q0 -108 118 -108q91 0 185 51l-35 -164q-89 -49 -207 -49q-121 0 -186.5 62.5t-65.5 175.5q0 36 10 94l123 573h-207l33 160h207l55 256z" />
    <glyph glyph-name="uni0163.ss03" horiz-adv-x="780" 
d="M494 864l-121 -573q-8 -46 -8 -62q0 -108 118 -108q91 0 185 51l-35 -164q-89 -49 -207 -49h-4l-4 -18h2q70 0 107.5 -40t37.5 -102q0 -95 -60.5 -150t-160.5 -55q-92 0 -160 46l27 118q42 -53 129 -53q54 0 81.5 21.5t27.5 58.5q0 29 -24 47t-71 18h-53l27 121
q-75 23 -114.5 81.5t-39.5 144.5q0 36 10 94l123 573h-207l33 160h207l55 256l201 61l-68 -317h303l-32 -160h-305z" />
    <glyph glyph-name="uni021B.ss03" horiz-adv-x="780" 
d="M494 864l-121 -573q-8 -46 -8 -62q0 -108 118 -108q91 0 185 51l-35 -164q-89 -49 -207 -49q-121 0 -186.5 62.5t-65.5 175.5q0 36 10 94l123 573h-207l33 160h207l55 256l201 61l-68 -317h303l-32 -160h-305zM125 -489l158 368h215l-252 -368h-121z" />
    <glyph glyph-name="u.ss04" horiz-adv-x="1146" 
d="M496 -41q-167 0 -276 91t-109 249q0 54 10 98l133 627h188l-137 -649q-6 -30 -6 -60q0 -88 58 -136t151 -48q106 0 178 63t98 181l138 649h188l-141 -666q-40 -191 -161.5 -295t-311.5 -104z" />
    <glyph glyph-name="uacute.ss04" horiz-adv-x="1146" 
d="M621 1147l231 287h195l-269 -287h-157zM496 -41q-167 0 -276 91t-109 249q0 54 10 98l133 627h188l-137 -649q-6 -30 -6 -60q0 -88 58 -136t151 -48q106 0 178 63t98 181l138 649h188l-141 -666q-40 -191 -161.5 -295t-311.5 -104z" />
    <glyph glyph-name="ubreve.ss04" horiz-adv-x="1146" 
d="M723 1130q-110 0 -181 59.5t-71 168.5q0 35 4 55h131q0 -4 -1 -13.5t-1 -13.5q0 -62 33 -97.5t94 -35.5q69 0 120.5 44t68.5 116h143q-31 -136 -125.5 -209.5t-214.5 -73.5zM496 -41q-167 0 -276 91t-109 249q0 54 10 98l133 627h188l-137 -649q-6 -30 -6 -60
q0 -88 58 -136t151 -48q106 0 178 63t98 181l138 649h188l-141 -666q-40 -191 -161.5 -295t-311.5 -104z" />
    <glyph glyph-name="ucircumflex.ss04" horiz-adv-x="1146" 
d="M750 1327l-175 -180h-163l264 287h188l142 -287h-152zM922 1024h188l-141 -666q-40 -191 -161.5 -295t-311.5 -104q-167 0 -276 91t-109 249q0 54 10 98l133 627h188l-137 -649q-6 -30 -6 -60q0 -88 58 -136t151 -48q106 0 178 63t98 181z" />
    <glyph glyph-name="udieresis.ss04" horiz-adv-x="1146" 
d="M530 1178q-47 0 -77.5 29.5t-30.5 76.5q0 52 36 87.5t89 35.5q50 0 80 -28.5t30 -75.5q0 -53 -35.5 -89t-91.5 -36zM928 1178q-48 0 -78.5 29.5t-30.5 76.5q0 52 36 87.5t89 35.5q50 0 80.5 -28.5t30.5 -75.5q0 -53 -35.5 -89t-91.5 -36zM496 -41q-167 0 -276 91
t-109 249q0 54 10 98l133 627h188l-137 -649q-6 -30 -6 -60q0 -88 58 -136t151 -48q106 0 178 63t98 181l138 649h188l-141 -666q-40 -191 -161.5 -295t-311.5 -104z" />
    <glyph glyph-name="uni1EE5.ss04" horiz-adv-x="1146" 
d="M496 -41q-167 0 -276 91t-109 249q0 54 10 98l133 627h188l-137 -649q-6 -30 -6 -60q0 -88 58 -136t151 -48q106 0 178 63t98 181l138 649h188l-141 -666q-40 -191 -161.5 -295t-311.5 -104zM399 -395q-55 0 -90 34t-35 89q0 60 42.5 101.5t103.5 41.5q57 0 92 -34
t35 -89q0 -61 -41.5 -102t-106.5 -41z" />
    <glyph glyph-name="ugrave.ss04" horiz-adv-x="1146" 
d="M811 1147h-158l-209 287h195zM496 -41q-167 0 -276 91t-109 249q0 54 10 98l133 627h188l-137 -649q-6 -30 -6 -60q0 -88 58 -136t151 -48q106 0 178 63t98 181l138 649h188l-141 -666q-40 -191 -161.5 -295t-311.5 -104z" />
    <glyph glyph-name="uhungarumlaut.ss04" horiz-adv-x="1146" 
d="M479 1147l252 287h174l-289 -287h-137zM786 1147l252 287h174l-288 -287h-138zM496 -41q-167 0 -276 91t-109 249q0 54 10 98l133 627h188l-137 -649q-6 -30 -6 -60q0 -88 58 -136t151 -48q106 0 178 63t98 181l138 649h188l-141 -666q-40 -191 -161.5 -295t-311.5 -104z
" />
    <glyph glyph-name="umacron.ss04" horiz-adv-x="1146" 
d="M426 1192l29 135h583l-28 -135h-584zM496 -41q-167 0 -276 91t-109 249q0 54 10 98l133 627h188l-137 -649q-6 -30 -6 -60q0 -88 58 -136t151 -48q106 0 178 63t98 181l138 649h188l-141 -666q-40 -191 -161.5 -295t-311.5 -104z" />
    <glyph glyph-name="uogonek.ss04" horiz-adv-x="1146" 
d="M922 1024h188l-141 -666q-40 -191 -161.5 -295t-311.5 -104h-21q-92 -48 -92 -139q0 -55 32.5 -85t82.5 -30q65 0 120 33l-26 -111q-64 -33 -133 -33q-90 0 -141.5 54t-51.5 141q0 118 107 184q-120 30 -191 114.5t-71 211.5q0 54 10 98l133 627h188l-137 -649
q-6 -30 -6 -60q0 -88 58 -136t151 -48q106 0 178 63t98 181z" />
    <glyph glyph-name="uring.ss04" horiz-adv-x="1146" 
d="M729 1137q-80 0 -131 50t-51 132q0 88 61.5 149.5t151.5 61.5q84 0 135 -49.5t51 -132.5q0 -89 -61.5 -150t-155.5 -61zM737 1227q50 0 82.5 33t32.5 81q0 44 -26.5 71.5t-69.5 27.5q-49 0 -82 -33.5t-33 -81.5q0 -44 26.5 -71t69.5 -27zM496 -41q-167 0 -276 91
t-109 249q0 54 10 98l133 627h188l-137 -649q-6 -30 -6 -60q0 -88 58 -136t151 -48q106 0 178 63t98 181l138 649h188l-141 -666q-40 -191 -161.5 -295t-311.5 -104z" />
    <glyph glyph-name="utilde.ss04" horiz-adv-x="1146" 
d="M838 1147q-38 0 -72 18.5t-54 40t-46 40t-50 18.5q-76 0 -96 -93h-110q23 104 81.5 159.5t141.5 55.5q37 0 69.5 -18.5t52 -40.5t44.5 -40.5t49 -18.5q75 0 96 92h113q-22 -103 -79 -158t-140 -55zM496 -41q-167 0 -276 91t-109 249q0 54 10 98l133 627h188l-137 -649
q-6 -30 -6 -60q0 -88 58 -136t151 -48q106 0 178 63t98 181l138 649h188l-141 -666q-40 -191 -161.5 -295t-311.5 -104z" />
    <glyph glyph-name="I_S_B_N" horiz-adv-x="4628" 
d="M844 1085q0 122 64.5 212t171 134t239.5 44q115 0 231.5 -47t196.5 -125l-45 -197q-80 85 -183.5 133.5t-205.5 48.5q-127 0 -198 -51.5t-71 -142.5q0 -77 44 -125.5t145 -108.5l151 -90q126 -75 186 -165.5t60 -207.5q0 -181 -137.5 -309.5t-357.5 -128.5
q-137 0 -269.5 56t-220.5 171l49 203q166 -242 428 -242q141 0 221 64.5t80 171.5q0 74 -40 124t-142 114l-162 100q-117 72 -176 160t-59 204zM92 0l305 1434h199l-305 -1434h-199zM2982 1100q0 -129 -65.5 -213.5t-190.5 -116.5q93 -35 146 -123t53 -207
q0 -202 -145.5 -321t-385.5 -119h-557l303 1434h488q172 0 263 -93t91 -241zM4434 1434h188l-303 -1434h-250l-465 1249l-266 -1249h-188l303 1434h278l447 -1207zM2525 817q124 0 190 68.5t66 179.5q0 90 -53.5 141t-159.5 51h-266l-94 -440h317zM2408 178q143 0 227.5 78
t84.5 199q0 97 -56 152t-163 55h-326l-102 -484h335z" />
    <glyph glyph-name="w_w_w" horiz-adv-x="4268" 
d="M4155 1024h203l-551 -1024h-172l-84 819l-434 -819h-172l-72 827l-422 -827h-172l-84 819l-434 -819h-172l-71 827l-422 -827h-172l-84 819l-434 -819h-173l-96 1024h187l47 -756l403 756h209l76 -764l401 764h187l77 -766l406 766h209l76 -764l401 764h186l78 -766
l406 766h209l75 -762z" />
    <glyph glyph-name="ordfeminine.ss01" horiz-adv-x="1081" 
d="M952 1430h176l-188 -887h-174l25 121q-107 -148 -277 -148q-152 0 -241 114.5t-89 293.5q0 141 57 262.5t160.5 195.5t229.5 74q102 0 174.5 -51.5t107.5 -153.5zM578 674q87 0 156 56.5t103.5 141.5t34.5 179q0 120 -59.5 183.5t-159.5 63.5q-90 0 -157 -53t-99 -133.5
t-32 -175.5q0 -125 58 -193.5t155 -68.5z" />
    <glyph glyph-name="a.sups.ss01" horiz-adv-x="937" 
d="M842 1434h151l-155 -734h-154l23 101q-93 -123 -224 -123q-128 0 -205 93t-77 245q0 184 110.5 310t274.5 126t229 -143zM532 813q73 0 129.5 46t84.5 116t28 149q0 95 -46.5 145t-133.5 50q-108 0 -173 -86t-65 -203q0 -101 47 -159t129 -58z" />
    <glyph glyph-name="t.sups.ss03" horiz-adv-x="624" 
d="M508 1305l-80 -379q-6 -30 -6 -47q0 -86 88 -86q65 0 127 47l-29 -138q-70 -36 -147 -36q-92 0 -143.5 47t-51.5 137q0 39 8 78l82 377h-145l29 129h143l39 180l162 49l-49 -229h217l-29 -129h-215z" />
    <glyph glyph-name="u.sups.ss04" horiz-adv-x="894" 
d="M510 666q-129 0 -209 68.5t-80 180.5q0 37 8 70l97 449h153l-100 -469q-4 -14 -4 -39q0 -59 39.5 -93t103.5 -34q77 0 126 44.5t67 125.5l100 465h152l-103 -482q-30 -137 -119.5 -211.5t-230.5 -74.5z" />
    <glyph glyph-name="a.sups" horiz-adv-x="817" 
d="M541 1460q140 0 214 -64.5t74 -185.5q0 -48 -12 -104l-88 -406h-139l16 78q-84 -100 -207 -100q-99 0 -161 62t-62 159q0 117 82 192.5t207 75.5q66 0 118.5 -27.5t78.5 -76.5l12 61q6 30 6 56q0 70 -41.5 108.5t-118.5 38.5q-126 0 -258 -115l33 166q118 82 246 82z
M461 805q76 0 124 38.5t48 98.5q0 51 -36 82t-99 31q-76 0 -122 -38.5t-46 -101.5q0 -53 33.5 -81.5t97.5 -28.5z" />
    <glyph glyph-name="b.sups" horiz-adv-x="937" 
d="M688 1456q127 0 207 -92.5t80 -239.5q0 -186 -110 -316t-267 -130q-177 0 -236 166l-30 -144h-152l223 1049h154l-86 -403q89 110 217 110zM584 811q108 0 171.5 88.5t63.5 210.5q0 97 -47.5 154t-128.5 57q-110 0 -178 -92t-68 -213q0 -99 48.5 -152t138.5 -53z" />
    <glyph glyph-name="c.sups" horiz-adv-x="800" 
d="M547 680q-151 0 -247.5 98t-96.5 252q0 185 118 304.5t302 119.5q147 0 262 -84l-33 -143q-83 92 -231 92q-119 0 -191 -77t-72 -204q0 -101 59.5 -162t157.5 -61q100 0 228 76l-35 -156q-43 -19 -67 -28t-66.5 -18t-87.5 -9z" />
    <glyph glyph-name="d.sups" horiz-adv-x="937" 
d="M909 1749h152l-223 -1049h-152l23 103q-91 -125 -226 -125q-128 0 -205 93t-77 245q0 184 110.5 310t274.5 126q168 0 229 -143zM532 813q73 0 129.5 46t84.5 116t28 149q0 95 -46.5 145t-133.5 50q-108 0 -173 -86t-65 -203q0 -101 47 -159t129 -58z" />
    <glyph glyph-name="e.sups" horiz-adv-x="845" 
d="M600 1456q134 0 211.5 -79.5t77.5 -211.5q0 -45 -8 -86l-9 -45h-516q0 -107 57.5 -166t161.5 -59q110 0 250 70l-30 -140q-51 -24 -75.5 -34.5t-71 -21.5t-95.5 -11q-160 0 -255 96.5t-95 257.5q0 189 111.5 309.5t285.5 120.5zM586 1321q-83 0 -140 -47t-77 -131h376
q3 12 3 26q0 69 -44 110.5t-118 41.5z" />
    <glyph glyph-name="f.sups" horiz-adv-x="606" 
d="M692 1622q-111 0 -135 -117l-14 -71h217l-31 -129h-215l-129 -605h-154l127 605h-127l29 129h125l18 84q25 115 96.5 177t180.5 62q93 0 158 -47l-27 -125q-43 37 -119 37z" />
    <glyph glyph-name="g.sups" horiz-adv-x="927" 
d="M831 1434h154l-143 -670q-37 -168 -148 -258t-276 -90q-81 0 -154 32t-114 78l32 152q32 -58 94.5 -93.5t131.5 -35.5q229 0 286 244l8 38q-85 -110 -219 -110q-124 0 -201 87.5t-77 227.5q0 172 107 295t257 123q171 0 234 -160zM528 854q98 0 165 78t67 192
q0 94 -46.5 145.5t-129.5 51.5q-103 0 -165.5 -81t-62.5 -191q0 -90 47 -142.5t125 -52.5z" />
    <glyph glyph-name="h.sups" horiz-adv-x="909" 
d="M692 1456q109 0 168.5 -63t59.5 -183q0 -56 -15 -127l-82 -383h-151l86 408q10 44 10 90q0 65 -32 96t-99 31q-152 0 -211 -186l-94 -439h-152l223 1049h154l-90 -416q86 123 225 123z" />
    <glyph glyph-name="i.sups" horiz-adv-x="444" 
d="M453 1554q-37 0 -60.5 22.5t-23.5 59.5q0 44 30 73.5t74 29.5q39 0 62.5 -22t23.5 -58q0 -44 -31 -74.5t-75 -30.5zM186 700l158 734h150l-158 -734h-150z" />
    <glyph glyph-name="j.sups" horiz-adv-x="430" 
d="M446 1554q-39 0 -62.5 22t-23.5 60q0 44 31 73.5t76 29.5q37 0 60.5 -22t23.5 -58q0 -43 -30.5 -74t-74.5 -31zM74 414q-41 0 -77.5 14t-53.5 31l24 125q51 -37 103 -37q42 0 67 28t37 89l162 770h149l-168 -807q-20 -98 -85.5 -155.5t-157.5 -57.5z" />
    <glyph glyph-name="k.sups" horiz-adv-x="798" 
d="M956 1434l-407 -332l268 -402h-182l-227 371l-80 -371h-150l225 1049h152l-129 -594l315 279h215z" />
    <glyph glyph-name="l.sups" horiz-adv-x="446" 
d="M186 700l226 1049h151l-227 -1049h-150z" />
    <glyph glyph-name="m.sups" 
d="M1073 1456q97 0 153 -60t56 -167q0 -55 -10 -99l-90 -430h-152l92 439q8 36 8 69q0 117 -110 117q-60 0 -105 -43t-63 -121q0 -8 -4 -24l-92 -437h-150l92 453q7 35 7 55q0 117 -113 117q-55 0 -99.5 -45t-66.5 -119l-94 -461h-152l156 734h147l-18 -84q77 106 197 106
q65 0 112.5 -36.5t69.5 -100.5q84 137 229 137z" />
    <glyph glyph-name="n.sups" horiz-adv-x="909" 
d="M692 1456q109 0 168.5 -63t59.5 -183q0 -56 -15 -127l-82 -383h-151l86 408q10 44 10 90q0 65 -32 96t-99 31q-153 0 -209 -182l-96 -443h-152l156 732h153l-20 -97q84 121 223 121z" />
    <glyph glyph-name="o.sups" horiz-adv-x="884" 
d="M506 666q-140 0 -223.5 95t-83.5 249q0 189 119 317.5t290 128.5q145 0 228.5 -92t83.5 -252q0 -189 -119.5 -317.5t-294.5 -128.5zM530 803q101 0 167.5 84.5t66.5 212.5q0 104 -47.5 162.5t-128.5 58.5q-105 0 -170.5 -84.5t-65.5 -214.5q0 -104 46.5 -161.5
t131.5 -57.5z" />
    <glyph glyph-name="p.sups" horiz-adv-x="937" 
d="M688 1456q127 0 207 -92.5t80 -239.5q0 -186 -110 -316t-267 -130q-176 0 -238 151l-86 -401h-151l213 1006h153l-20 -101q86 123 219 123zM584 811q108 0 171.5 88.5t63.5 210.5q0 97 -47.5 154t-128.5 57q-110 0 -178 -92t-68 -213q0 -99 48.5 -152t138.5 -53z" />
    <glyph glyph-name="q.sups" horiz-adv-x="937" 
d="M842 1434h151l-213 -1006h-153l80 375q-89 -125 -224 -125q-128 0 -205 93t-77 245q0 184 110.5 310t274.5 126t229 -143zM532 813q73 0 129.5 46t84.5 116t28 149q0 95 -46.5 145t-133.5 50q-108 0 -173 -86t-65 -203q0 -101 47 -159t129 -58z" />
    <glyph glyph-name="r.sups" horiz-adv-x="608" 
d="M653 1446q61 0 97 -39l-29 -143q-49 43 -117 43q-59 0 -108.5 -49t-75.5 -134l-90 -424h-150l156 734h149l-26 -123q80 135 194 135z" />
    <glyph glyph-name="s.sups" horiz-adv-x="722" 
d="M453 672q-90 0 -170.5 34t-126.5 91l32 141q45 -62 117.5 -98.5t145.5 -36.5q118 0 118 100q0 31 -16.5 52.5t-54.5 41.5l-115 54q-135 63 -135 182q0 102 75.5 162.5t202.5 60.5q69 0 140 -29t112 -73l-33 -148q-38 53 -100 86t-123 33q-123 0 -123 -86
q0 -25 14.5 -43.5t51.5 -38.5l106 -47q80 -37 117 -83.5t37 -113.5q0 -112 -73.5 -176.5t-198.5 -64.5z" />
    <glyph glyph-name="t.sups" horiz-adv-x="612" 
d="M766 1434l-29 -129h-196l-127 -605h-156l129 605h-174l27 129h174l39 180l163 49l-49 -229h199z" />
    <glyph glyph-name="u.sups" horiz-adv-x="911" 
d="M815 1434h152l-156 -734h-152l19 86q-85 -110 -225 -110q-103 0 -166.5 64t-63.5 171q0 43 8 82l95 441h151l-92 -430q-8 -33 -8 -70q0 -133 133 -133q170 0 223 250z" />
    <glyph glyph-name="v.sups" horiz-adv-x="815" 
d="M797 1434h164l-443 -734h-137l-135 734h157l80 -539z" />
    <glyph glyph-name="w.sups" horiz-adv-x="1200" 
d="M1176 1434h165l-397 -734h-137l-55 557l-299 -557h-136l-69 734h158l24 -508l270 508h168l50 -514z" />
    <glyph glyph-name="x.sups" horiz-adv-x="786" 
d="M930 1434l-328 -367l189 -367h-173l-122 271l-232 -271h-184l350 396l-178 338h170l113 -250l215 250h180z" />
    <glyph glyph-name="y.sups" horiz-adv-x="823" 
d="M811 1434h166l-678 -1006h-164l254 356l-141 650h151l99 -482z" />
    <glyph glyph-name="z.sups" horiz-adv-x="731" 
d="M829 1434l-26 -127l-473 -473h399l-29 -134h-573l29 136l458 467h-354l29 131h540z" />
    <glyph glyph-name="zero.lf" horiz-adv-x="1282" 
d="M590 -31q-195 0 -317.5 158.5t-122.5 409.5q0 269 78 480t221.5 329t328.5 118q200 0 322.5 -153.5t122.5 -397.5q0 -273 -81 -488.5t-225.5 -335.5t-326.5 -120zM610 150q96 0 175 61.5t129.5 164.5t78 234t27.5 273q0 189 -65 295t-199 106q-98 0 -177.5 -63
t-128 -167.5t-74.5 -232t-26 -264.5q0 -195 65.5 -301t194.5 -106z" />
    <glyph glyph-name="one.lf" horiz-adv-x="788" 
d="M610 1434h172l-303 -1434h-188l256 1208l-402 -243l45 209z" />
    <glyph glyph-name="two.lf" horiz-adv-x="1062" 
d="M698 514l-397 -334h598l-39 -180h-840l37 186l475 414q147 128 197 184q117 135 119 265q0 104 -65 168.5t-187 64.5q-198 0 -375 -184l49 221q155 145 379 145q180 0 289 -108.5t109 -274.5q0 -88 -25.5 -166.5t-77.5 -149t-107.5 -126t-138.5 -125.5z" />
    <glyph glyph-name="three.lf" horiz-adv-x="1101" 
d="M762 758q100 -27 154.5 -111t54.5 -207q0 -211 -154 -341t-393 -130q-115 0 -218.5 33t-172.5 98l39 189q43 -60 132 -101t212 -41q165 0 264.5 76t99.5 211q0 105 -68 167.5t-214 62.5h-244l41 159h250q150 0 237.5 69t87.5 189q0 98 -64 152.5t-196 54.5
q-117 0 -210.5 -39.5t-149.5 -91.5l45 197q177 110 367 110q192 0 296.5 -96t104.5 -254q0 -143 -82.5 -238.5t-218.5 -117.5z" />
    <glyph glyph-name="four.lf" horiz-adv-x="1189" 
d="M1147 561l-35 -162h-227l-84 -399h-185l84 399h-665l45 211l739 824h285l-184 -873h227zM256 561h479l148 699z" />
    <glyph glyph-name="five.lf" horiz-adv-x="1142" 
d="M1120 1255h-639l-80 -376q100 47 230 47q102 0 182 -32.5t129.5 -89t75.5 -130t26 -158.5q0 -153 -73.5 -278.5t-204 -197t-291.5 -71.5q-125 0 -242 38t-178 104l41 184q54 -67 151.5 -104t201.5 -37q178 0 283.5 94.5t105.5 251.5q0 122 -77.5 195t-228.5 73
q-94 0 -176.5 -24t-175.5 -66l162 756h815z" />
    <glyph glyph-name="six.lf" horiz-adv-x="1224" 
d="M874 1464q224 0 349 -116l-47 -193q-42 55 -123 92t-189 37q-190 0 -321 -137t-181 -383q128 192 369 192q166 0 280.5 -123.5t114.5 -304.5q0 -246 -153.5 -402.5t-394.5 -156.5q-203 0 -324 131t-121 369q0 150 31 299q31 148 92.5 273t149 220.5t208 149t260.5 53.5z
M657 797q-154 0 -248 -103.5t-94 -255.5q0 -129 76 -213t199 -84q99 0 176.5 51.5t117.5 132t40 171.5q0 137 -73 219t-194 82z" />
    <glyph glyph-name="seven.lf" horiz-adv-x="999" 
d="M246 1434h901l-37 -172l-860 -1262h-232l889 1264h-696z" />
    <glyph glyph-name="eight.lf" horiz-adv-x="1189" 
d="M1167 1098q0 -131 -81.5 -223.5t-217.5 -133.5q88 -46 135.5 -127t47.5 -184q0 -139 -70 -245t-188.5 -161t-266.5 -55q-196 0 -318 108.5t-122 272.5q0 158 91.5 266t246.5 152q-77 43 -119.5 114t-42.5 160q0 188 145.5 305t360.5 117q177 0 288 -106.5t111 -259.5z
M680 819q122 0 205.5 78t83.5 188q0 94 -65 150.5t-171 56.5q-129 0 -204.5 -72t-75.5 -186q0 -93 61 -154t166 -61zM539 141q139 0 229 87t90 214q0 103 -67 169.5t-185 66.5q-144 0 -232.5 -89t-88.5 -210q0 -106 68.5 -172t185.5 -66z" />
    <glyph glyph-name="nine.lf" horiz-adv-x="1212" 
d="M721 1464q209 0 324.5 -136.5t115.5 -412.5q0 -209 -63 -401q-37 -115 -94 -210.5t-135 -172t-183 -119.5t-227 -43q-237 0 -359 154l43 178q46 -69 128.5 -110t187.5 -41q189 0 312.5 140.5t170.5 407.5q-122 -196 -344 -196q-179 0 -295.5 121.5t-116.5 316.5
q0 221 151 372.5t384 151.5zM655 662q139 0 231.5 94t92.5 237q0 128 -75.5 214.5t-201.5 86.5q-93 0 -166 -49.5t-110 -127.5t-37 -169q0 -120 68 -203t198 -83z" />
    <glyph glyph-name="zero.lf.zero" horiz-adv-x="1282" 
d="M778 1464q200 0 322.5 -153.5t122.5 -397.5q0 -273 -81 -488.5t-225.5 -335.5t-326.5 -120q-195 0 -317.5 158.5t-122.5 409.5q0 269 78 480t221.5 329t328.5 118zM756 1284q-98 0 -177.5 -63t-128 -167.5t-74.5 -232t-26 -264.5v-37l633 602q-65 162 -227 162zM610 150
q96 0 175 61.5t129.5 164.5t78 234t27.5 273q0 53 -2 78l-643 -611q57 -200 235 -200z" />
    <glyph glyph-name="zero.osf" horiz-adv-x="1271" 
d="M596 -41q-219 0 -355.5 145t-136.5 388q0 178 74.5 327.5t211 238.5t306.5 89q215 0 352.5 -140t137.5 -386q0 -179 -74 -330t-210 -241.5t-306 -90.5zM602 137q112 0 200 63t135.5 169.5t47.5 236.5q0 173 -83.5 269t-221.5 96q-167 0 -271 -133.5t-104 -335.5
q0 -174 80 -269.5t217 -95.5z" />
    <glyph glyph-name="one.osf" horiz-adv-x="778" 
d="M582 1116h151l-237 -1116h-189l193 901l-412 -211l41 187z" />
    <glyph glyph-name="two.osf" horiz-adv-x="1017" 
d="M580 334l-258 -156h536l-37 -178h-823l35 162l430 264q150 94 224.5 179t74.5 188q0 79 -58.5 127.5t-164.5 48.5q-194 0 -373 -168l43 207q92 69 182 104t197 35q174 0 274.5 -95.5t100.5 -232.5q0 -77 -26 -144t-79.5 -126t-118.5 -108.5t-159 -106.5z" />
    <glyph glyph-name="three.osf" horiz-adv-x="1048" 
d="M678 475q101 -28 151 -110t50 -193q0 -202 -150 -325t-383 -123q-113 0 -215 31t-170 93l37 187q42 -56 130.5 -94.5t209.5 -38.5q159 0 253.5 70t94.5 194q0 98 -65 156.5t-203 58.5h-246l39 160h252q141 0 225 64.5t84 174.5q0 90 -61 139.5t-185 49.5
q-116 0 -208.5 -37.5t-149.5 -87.5l43 198q176 105 362 105q187 0 289.5 -91t102.5 -243q0 -136 -79 -226.5t-208 -111.5z" />
    <glyph glyph-name="four.osf" horiz-adv-x="1196" 
d="M1092 268l-35 -162h-228l-73 -348h-185l74 348h-665l40 191l750 823h274l-180 -852h228zM211 268h469l143 678z" />
    <glyph glyph-name="five.osf" horiz-adv-x="1081" 
d="M1012 938h-617l-73 -346q93 41 217 41q195 0 299 -110t104 -279q0 -146 -71.5 -265.5t-198 -187t-281.5 -67.5q-122 0 -235.5 36t-173.5 99l38 182q52 -64 148 -99.5t197 -35.5q169 0 269.5 88t100.5 233q0 113 -73 180.5t-218 67.5q-64 0 -131 -14t-110.5 -30
t-102.5 -42l154 727h795z" />
    <glyph glyph-name="six.osf" horiz-adv-x="1183" 
d="M827 1393q223 0 353 -111l-45 -192q-44 52 -126.5 87t-191.5 35q-179 0 -303 -130t-170 -363q122 190 346 190q167 0 282 -117.5t115 -289.5q0 -233 -150.5 -383t-385.5 -150q-196 0 -314 124.5t-118 350.5q0 197 53 377q36 124 95.5 227t140.5 181t188.5 121t230.5 43z
M621 750q-145 0 -232.5 -96.5t-87.5 -237.5q0 -120 75 -198.5t195 -78.5q94 0 167.5 48t111 123t37.5 161q0 126 -72.5 202.5t-193.5 76.5z" />
    <glyph glyph-name="seven.osf" horiz-adv-x="985" 
d="M174 1116h901l-37 -172l-872 -1190h-225l897 1192h-701z" />
    <glyph glyph-name="eight.osf" horiz-adv-x="1169" 
d="M1137 1044q0 -126 -80 -211t-215 -124q88 -44 136 -122.5t48 -178.5q0 -132 -68 -233t-183.5 -153.5t-260.5 -52.5q-192 0 -312 103.5t-120 259.5q0 150 90 253t242 146q-78 40 -121 107.5t-43 152.5q0 179 142.5 290.5t352.5 111.5q174 0 283 -102t109 -247zM662 778
q117 0 196.5 74.5t79.5 179.5q0 86 -61.5 137.5t-163.5 51.5q-125 0 -199 -66.5t-74 -171.5q0 -89 60 -147t162 -58zM526 141q133 0 220.5 81t87.5 198q0 98 -64.5 160.5t-177.5 62.5q-139 0 -225 -84.5t-86 -200.5q0 -97 66.5 -157t178.5 -60z" />
    <glyph glyph-name="nine.osf" horiz-adv-x="1155" 
d="M637 1147q186 0 305 -135.5t119 -347.5q0 -192 -47 -369q-33 -122 -88 -223.5t-132 -180.5t-182.5 -123t-230.5 -44q-232 0 -352 145l41 178q44 -65 125 -104t184 -39q190 0 307.5 137.5t159.5 388.5q-117 -203 -340 -203q-170 0 -282.5 118t-112.5 310q0 100 38 190
t105 156.5t166.5 106t216.5 39.5zM561 387q138 0 228 88t90 213q0 126 -72.5 207.5t-192.5 81.5q-135 0 -219 -93t-84 -222q0 -118 64.5 -196.5t185.5 -78.5z" />
    <glyph glyph-name="zero.osf.zero" horiz-adv-x="1271" 
d="M696 1147q215 0 352.5 -140t137.5 -386q0 -179 -74 -330t-210 -241.5t-306 -90.5q-219 0 -355.5 145t-136.5 388q0 178 74.5 327.5t211 238.5t306.5 89zM680 971q-167 0 -271 -133.5t-104 -335.5q0 -78 19 -146l563 535q-80 80 -207 80zM602 137q112 0 200 63
t135.5 169.5t47.5 236.5q0 89 -27 168l-571 -543q79 -94 215 -94z" />
    <glyph glyph-name="zero.tf" 
d="M592 -31q-197 0 -311.5 145t-114.5 423q0 166 39 318.5t110.5 273t185 192.5t251.5 72q199 0 312.5 -142t113.5 -413q0 -132 -24.5 -258t-74 -236.5t-118 -194t-164 -132t-205.5 -48.5zM602 150q76 0 139.5 41.5t106 109.5t72.5 158.5t43.5 186.5t13.5 194
q0 372 -242 372q-77 0 -141 -42t-105.5 -110.5t-70 -159t-41 -184.5t-12.5 -190q0 -376 237 -376z" />
    <glyph glyph-name="one.tf" 
d="M700 174h369l-37 -174h-926l37 174h369l207 967l-397 -232l40 195l439 258h151z" />
    <glyph glyph-name="two.tf" 
d="M791 489l-390 -311h596l-36 -178h-844l35 178l479 393q63 52 99 83.5t81 77.5t68.5 83t40 84.5t16.5 97.5q0 95 -63.5 154t-180.5 59q-191 0 -360 -176l47 219q150 140 362 140q180 0 288 -103.5t108 -261.5q0 -84 -25 -158.5t-75.5 -141t-107 -120.5t-138.5 -119z" />
    <glyph glyph-name="three.tf" 
d="M842 721q101 -28 150.5 -110t49.5 -193q0 -202 -149.5 -325.5t-382.5 -123.5q-113 0 -215 31.5t-170 93.5l37 187q42 -57 130.5 -95.5t209.5 -38.5q159 0 253.5 70.5t94.5 194.5q0 98 -65 156.5t-203 58.5h-246l39 159h252q141 0 225 65t84 175q0 90 -61 139t-185 49
q-116 0 -208.5 -37.5t-149.5 -86.5l43 198q175 105 362 105t289 -90.5t102 -243.5q0 -136 -78.5 -226.5t-207.5 -111.5z" />
    <glyph glyph-name="four.tf" 
d="M1174 510l-35 -162h-228l-73 -348h-185l74 348h-666l45 211l736 803h284l-180 -852h228zM283 510h479l143 678z" />
    <glyph glyph-name="five.tf" 
d="M1161 1184h-620l-74 -346q93 41 211 41q104 0 184.5 -31t130 -85t74.5 -124.5t25 -153.5q0 -220 -159.5 -368t-400.5 -148q-118 0 -231.5 36.5t-173.5 98.5l39 183q52 -64 147.5 -99.5t200.5 -35.5q166 0 268.5 88.5t102.5 230.5q0 115 -74.5 182.5t-222.5 67.5
q-63 0 -129.5 -14t-110 -30t-102.5 -42l153 727h799z" />
    <glyph glyph-name="six.tf" 
d="M870 1393q224 0 353 -111l-45 -192q-44 52 -126.5 87t-191.5 35q-179 0 -303 -130t-170 -363q122 190 346 190q167 0 282 -117.5t115 -289.5q0 -233 -150.5 -383t-385.5 -150q-196 0 -314 124.5t-118 350.5q0 197 53 377q36 124 95.5 227t140.5 181t188.5 121t230.5 43z
M664 750q-145 0 -232.5 -96.5t-87.5 -237.5q0 -120 75 -198.5t195 -78.5q94 0 167.5 48t111 123t37.5 161q0 126 -72.5 202.5t-193.5 76.5z" />
    <glyph glyph-name="seven.tf" 
d="M367 1362h901l-37 -172l-844 -1190h-231l870 1192h-694z" />
    <glyph glyph-name="eight.tf" 
d="M1186 1044q0 -126 -80 -211t-215 -124q88 -44 136 -122.5t48 -178.5q0 -132 -68 -233t-183.5 -153.5t-260.5 -52.5q-192 0 -312 103.5t-120 259.5q0 150 90 253t242 146q-78 40 -121 107.5t-43 152.5q0 179 143 290.5t353 111.5q174 0 282.5 -102t108.5 -247zM711 778
q117 0 196.5 74.5t79.5 179.5q0 86 -61.5 137.5t-163.5 51.5q-125 0 -199 -66.5t-74 -171.5q0 -89 60 -147t162 -58zM575 141q133 0 220.5 81t87.5 198q0 98 -64.5 160.5t-177.5 62.5q-139 0 -225 -84.5t-86 -200.5q0 -97 66.5 -157t178.5 -60z" />
    <glyph glyph-name="nine.tf" 
d="M733 1393q202 0 319 -133.5t117 -395.5q0 -172 -47 -327q-33 -116 -87.5 -215.5t-131.5 -180t-184 -126.5t-232 -46q-229 0 -350 146l41 178q44 -65 125 -104t184 -39q190 0 306.5 137t160.5 389q-119 -203 -338 -203q-171 0 -284 117t-113 301q0 137 64.5 251.5
t183 182.5t266.5 68zM676 633q134 0 222.5 88.5t88.5 220.5q0 120 -73 200.5t-195 80.5q-133 0 -216 -95t-83 -229q0 -114 65.5 -190t190.5 -76z" />
    <glyph glyph-name="zero.tf.zero" 
d="M752 1393q199 0 312.5 -142t113.5 -413q0 -132 -24.5 -258t-74 -236.5t-118 -194t-164 -132t-205.5 -48.5q-197 0 -311.5 145t-114.5 423q0 166 39 318.5t110.5 273t185 192.5t251.5 72zM735 1212q-77 0 -141 -42t-105.5 -110.5t-70 -159t-41 -184.5t-12.5 -190
q0 -33 2 -49l583 570q-56 165 -215 165zM602 150q76 0 139.5 41.5t106 109.5t72.5 158.5t43.5 186.5t13.5 194v43l-584 -570q52 -163 209 -163z" />
    <glyph glyph-name="zero.tosf" 
d="M594 -41q-213 0 -346 145t-133 388q0 178 73 327.5t206.5 238.5t299.5 89q210 0 345 -140.5t135 -385.5q0 -179 -72.5 -330t-206.5 -241.5t-301 -90.5zM600 137q164 0 268.5 135t104.5 334q0 173 -80.5 269t-214.5 96q-162 0 -262.5 -134t-100.5 -335q0 -174 77 -269.5
t208 -95.5z" />
    <glyph glyph-name="one.tosf" 
d="M686 174h369l-37 -174h-926l37 174h369l153 723l-364 -186l39 190l409 215h152z" />
    <glyph glyph-name="two.tosf" 
d="M707 334l-258 -156h536l-37 -178h-823l35 162l430 264q150 94 224.5 179t74.5 188q0 79 -58.5 127.5t-164.5 48.5q-194 0 -373 -168l43 207q92 69 182 104t197 35q174 0 274.5 -95.5t100.5 -232.5q0 -77 -26 -144t-79.5 -126t-118.5 -108.5t-159 -106.5z" />
    <glyph glyph-name="three.tosf" 
d="M788 475q101 -28 151 -110t50 -193q0 -202 -149.5 -325t-382.5 -123q-113 0 -215 31t-170 93l37 187q42 -56 130.5 -94.5t209.5 -38.5q159 0 253.5 70t94.5 194q0 98 -65.5 156.5t-203.5 58.5h-245l39 160h251q141 0 225.5 64.5t84.5 174.5q0 90 -61 139.5t-185 49.5
q-116 0 -208.5 -37.5t-149.5 -87.5l43 198q176 105 362 105q187 0 289 -90.5t102 -243.5q0 -136 -79 -226.5t-208 -111.5z" />
    <glyph glyph-name="four.tosf" 
d="M1128 268l-34 -162h-228l-73 -348h-185l74 348h-666l41 191l750 823h274l-180 -852h227zM248 268h469l143 678z" />
    <glyph glyph-name="five.tosf" 
d="M1106 938h-617l-73 -346q93 41 217 41q195 0 299 -110t104 -279q0 -146 -71.5 -265.5t-198 -187t-281.5 -67.5q-122 0 -235.5 36t-173.5 99l39 182q52 -64 147.5 -99.5t196.5 -35.5q169 0 269.5 88t100.5 233q0 113 -72.5 180.5t-217.5 67.5q-64 0 -131 -14t-110.5 -30
t-102.5 -42l153 727h795z" />
    <glyph glyph-name="six.tosf" 
d="M870 1393q224 0 353 -111l-45 -192q-44 52 -126.5 87t-191.5 35q-179 0 -303 -130t-170 -363q122 190 346 190q167 0 282 -117.5t115 -289.5q0 -233 -150.5 -383t-385.5 -150q-196 0 -314 124.5t-118 350.5q0 197 53 377q36 124 95.5 227t140.5 181t188.5 121t230.5 43z
M664 750q-145 0 -232.5 -96.5t-87.5 -237.5q0 -120 75 -198.5t195 -78.5q94 0 167.5 48t111 123t37.5 161q0 126 -72.5 202.5t-193.5 76.5z" />
    <glyph glyph-name="seven.tosf" 
d="M315 1116h902l-37 -172l-873 -1190h-225l897 1192h-700z" />
    <glyph glyph-name="eight.tosf" 
d="M1194 1044q0 -126 -80 -211t-215 -124q88 -44 136 -122.5t48 -178.5q0 -132 -68 -233t-183.5 -153.5t-260.5 -52.5q-192 0 -312 103.5t-120 259.5q0 150 90 253t242 146q-78 40 -121 107.5t-43 152.5q0 179 143 290.5t353 111.5q174 0 282.5 -102t108.5 -247zM719 778
q117 0 196.5 74.5t79.5 179.5q0 86 -61.5 137.5t-163.5 51.5q-125 0 -198.5 -66.5t-73.5 -171.5q0 -89 59.5 -147t161.5 -58zM584 141q133 0 220 81t87 198q0 98 -64.5 160.5t-177.5 62.5q-139 0 -225 -84.5t-86 -200.5q0 -97 66.5 -157t179.5 -60z" />
    <glyph glyph-name="nine.tosf" 
d="M694 1147q186 0 305 -135.5t119 -347.5q0 -192 -47 -369q-33 -122 -88 -223.5t-132 -180.5t-182.5 -123t-230.5 -44q-232 0 -352 145l41 178q44 -65 125 -104t184 -39q190 0 307.5 137.5t159.5 388.5q-117 -203 -340 -203q-170 0 -282.5 118t-112.5 310q0 100 38 190
t105 156.5t166.5 106t216.5 39.5zM618 387q138 0 228 88t90 213q0 127 -72 208t-192 81q-135 0 -219 -93t-84 -222q0 -118 64 -196.5t185 -78.5z" />
    <glyph glyph-name="zero.tosf.zero" 
d="M694 1147q210 0 345 -140.5t135 -385.5q0 -179 -72.5 -330t-206.5 -241.5t-301 -90.5q-213 0 -346 145t-133 388q0 178 73 327.5t206.5 238.5t299.5 89zM678 971q-162 0 -262.5 -134t-100.5 -335q0 -76 15 -135l551 522q-79 82 -203 82zM600 137q164 0 268.5 135
t104.5 334q0 91 -25 164l-559 -532q75 -101 211 -101z" />
    <glyph glyph-name="zero.zero" horiz-adv-x="1255" 
d="M754 1393q196 0 316 -146.5t120 -378.5q0 -260 -78.5 -465t-219.5 -319.5t-319 -114.5q-190 0 -311 151.5t-121 389.5q0 256 76.5 457t216.5 313.5t320 112.5zM731 1212q-95 0 -171 -59t-123 -157.5t-72 -218.5t-25 -249v-28l606 577q-64 135 -215 135zM594 150
q93 0 169.5 58t125 155t74.5 220t26 257q0 26 -4 80l-618 -590q58 -180 227 -180z" />
    <glyph glyph-name="zero.subs" horiz-adv-x="854" 
d="M315 -27q-123 0 -191.5 80.5t-68.5 225.5q0 151 53 288.5t157.5 229.5t236.5 92q126 0 195 -80t69 -223q0 -88 -20.5 -176.5t-60 -167t-93 -138.5t-125.5 -95.5t-152 -35.5zM344 111q58 0 108.5 45.5t82 115t49.5 148t18 147.5q0 88 -33 136.5t-96 48.5
q-58 0 -108.5 -45.5t-81.5 -115t-48.5 -148t-17.5 -148.5q0 -88 33 -136t94 -48z" />
    <glyph glyph-name="one.subs" horiz-adv-x="579" 
d="M389 858h117l-182 -858h-152l143 680l-258 -156l33 156z" />
    <glyph glyph-name="two.subs" horiz-adv-x="722" 
d="M420 307l-215 -166h354l-31 -141h-548l22 113l313 264q92 79 118 110q56 66 56 142q0 48 -35 78t-100 30q-128 0 -239 -119l28 162q100 97 242 97q120 0 191 -62.5t71 -167.5q0 -69 -32.5 -132t-77 -107.5t-117.5 -100.5z" />
    <glyph glyph-name="three.subs" horiz-adv-x="735" 
d="M467 457q64 -18 95.5 -71t31.5 -122q0 -130 -97 -210.5t-247 -80.5q-164 0 -252 82l27 140q28 -36 84 -61t135 -25q90 0 143 39.5t53 109.5q0 60 -36 95.5t-113 35.5h-160l31 121h162q79 0 126.5 36.5t47.5 96.5q0 111 -138 111q-74 0 -134 -23t-97 -55l31 147
q115 68 233 68q122 0 189 -58.5t67 -158.5q0 -86 -49.5 -144t-132.5 -73z" />
    <glyph glyph-name="four.subs" horiz-adv-x="806" 
d="M705 338l-27 -127h-133l-45 -211h-148l45 211h-405l28 135l463 512h199l-111 -520h134zM172 338h252l78 371z" />
    <glyph glyph-name="five.subs" horiz-adv-x="755" 
d="M674 721h-375l-41 -197q57 23 129 23q117 0 179.5 -71t62.5 -181q0 -143 -102 -238.5t-257 -95.5q-77 0 -151.5 23t-112.5 63l27 137q36 -41 97 -63.5t128 -22.5q95 0 153 51.5t58 135.5q0 66 -42 104.5t-124 38.5q-92 0 -221 -59l102 489h516z" />
    <glyph glyph-name="six.subs" horiz-adv-x="806" 
d="M512 887q142 0 227 -72l-34 -143q-27 34 -79.5 56t-123.5 22q-105 0 -177.5 -75t-101.5 -214q70 114 201 114q108 0 182 -75t74 -187q0 -150 -91 -245t-241 -95q-130 0 -210.5 79.5t-80.5 223.5q0 161 51.5 298t157 225t246.5 88zM379 457q-84 0 -133 -56.5t-49 -142.5
q0 -66 45 -111t112 -45q82 0 129 56.5t47 136.5q0 72 -41 117t-110 45z" />
    <glyph glyph-name="seven.subs" horiz-adv-x="690" 
d="M133 858h584l-27 -125l-530 -733h-176l542 727h-422z" />
    <glyph glyph-name="eight.subs" horiz-adv-x="792" 
d="M713 651q0 -77 -47 -132t-125 -81q104 -60 104 -182q0 -128 -95.5 -205.5t-240.5 -77.5q-125 0 -203.5 70.5t-78.5 175.5q0 88 55 149.5t149 90.5q-90 58 -90 172q0 115 92.5 186.5t227.5 71.5q113 0 182.5 -69t69.5 -169zM408 504q64 0 109.5 41t45.5 98q0 52 -34 83.5
t-89 31.5q-69 0 -110 -37.5t-41 -95.5q0 -53 32 -87t87 -34zM319 106q77 0 129 46t52 112q0 57 -38 95t-102 38q-82 0 -132 -45t-50 -108q0 -61 38 -99.5t103 -38.5z" />
    <glyph glyph-name="nine.subs" horiz-adv-x="804" 
d="M424 889q133 0 210 -86t77 -254q0 -53 -9 -105q-13 -90 -46 -171t-85.5 -149.5t-132.5 -109.5t-176 -41q-143 0 -225 95l29 135q65 -92 198 -92q103 0 180 83.5t103 227.5q-70 -119 -201 -119q-108 0 -181 74t-73 188q0 136 93.5 230t238.5 94zM387 420q76 0 127 51.5
t51 128.5q0 68 -41 114t-108 46q-77 0 -124.5 -55.5t-47.5 -133.5q0 -65 36 -108t107 -43z" />
    <glyph glyph-name="zero.dnom" horiz-adv-x="854" 
d="M315 -27q-123 0 -191.5 80.5t-68.5 225.5q0 151 53 288.5t157.5 229.5t236.5 92q126 0 195 -80t69 -223q0 -88 -20.5 -176.5t-60 -167t-93 -138.5t-125.5 -95.5t-152 -35.5zM344 111q58 0 108.5 45.5t82 115t49.5 148t18 147.5q0 88 -33 136.5t-96 48.5
q-58 0 -108.5 -45.5t-81.5 -115t-48.5 -148t-17.5 -148.5q0 -88 33 -136t94 -48z" />
    <glyph glyph-name="one.dnom" horiz-adv-x="579" 
d="M389 858h117l-182 -858h-152l143 680l-258 -156l33 156z" />
    <glyph glyph-name="two.dnom" horiz-adv-x="722" 
d="M420 307l-215 -166h354l-31 -141h-548l22 113l313 264q92 79 118 110q56 66 56 142q0 48 -35 78t-100 30q-128 0 -239 -119l28 162q100 97 242 97q120 0 191 -62.5t71 -167.5q0 -69 -32.5 -132t-77 -107.5t-117.5 -100.5z" />
    <glyph glyph-name="three.dnom" horiz-adv-x="735" 
d="M467 457q64 -18 95.5 -71t31.5 -122q0 -130 -97 -210.5t-247 -80.5q-164 0 -252 82l27 140q28 -36 84 -61t135 -25q90 0 143 39.5t53 109.5q0 60 -36 95.5t-113 35.5h-160l31 121h162q79 0 126.5 36.5t47.5 96.5q0 111 -138 111q-74 0 -134 -23t-97 -55l31 147
q115 68 233 68q122 0 189 -58.5t67 -158.5q0 -86 -49.5 -144t-132.5 -73z" />
    <glyph glyph-name="four.dnom" horiz-adv-x="806" 
d="M705 338l-27 -127h-133l-45 -211h-148l45 211h-405l28 135l463 512h199l-111 -520h134zM172 338h252l78 371z" />
    <glyph glyph-name="five.dnom" horiz-adv-x="755" 
d="M674 721h-375l-41 -197q57 23 129 23q117 0 179.5 -71t62.5 -181q0 -143 -102 -238.5t-257 -95.5q-77 0 -151.5 23t-112.5 63l27 137q36 -41 97 -63.5t128 -22.5q95 0 153 51.5t58 135.5q0 66 -42 104.5t-124 38.5q-92 0 -221 -59l102 489h516z" />
    <glyph glyph-name="six.dnom" horiz-adv-x="806" 
d="M512 887q142 0 227 -72l-34 -143q-27 34 -79.5 56t-123.5 22q-105 0 -177.5 -75t-101.5 -214q70 114 201 114q108 0 182 -75t74 -187q0 -150 -91 -245t-241 -95q-130 0 -210.5 79.5t-80.5 223.5q0 161 51.5 298t157 225t246.5 88zM379 457q-84 0 -133 -56.5t-49 -142.5
q0 -66 45 -111t112 -45q82 0 129 56.5t47 136.5q0 72 -41 117t-110 45z" />
    <glyph glyph-name="seven.dnom" horiz-adv-x="690" 
d="M133 858h584l-27 -125l-530 -733h-176l542 727h-422z" />
    <glyph glyph-name="eight.dnom" horiz-adv-x="792" 
d="M713 651q0 -77 -47 -132t-125 -81q104 -60 104 -182q0 -128 -95.5 -205.5t-240.5 -77.5q-125 0 -203.5 70.5t-78.5 175.5q0 88 55 149.5t149 90.5q-90 58 -90 172q0 115 92.5 186.5t227.5 71.5q113 0 182.5 -69t69.5 -169zM408 504q64 0 109.5 41t45.5 98q0 52 -34 83.5
t-89 31.5q-69 0 -110 -37.5t-41 -95.5q0 -53 32 -87t87 -34zM319 106q77 0 129 46t52 112q0 57 -38 95t-102 38q-82 0 -132 -45t-50 -108q0 -61 38 -99.5t103 -38.5z" />
    <glyph glyph-name="nine.dnom" horiz-adv-x="804" 
d="M424 889q133 0 210 -86t77 -254q0 -53 -9 -105q-13 -90 -46 -171t-85.5 -149.5t-132.5 -109.5t-176 -41q-143 0 -225 95l29 135q65 -92 198 -92q103 0 180 83.5t103 227.5q-70 -119 -201 -119q-108 0 -181 74t-73 188q0 136 93.5 230t238.5 94zM387 420q76 0 127 51.5
t51 128.5q0 68 -41 114t-108 46q-77 0 -124.5 -55.5t-47.5 -133.5q0 -65 36 -108t107 -43z" />
    <glyph glyph-name="zero.numr" horiz-adv-x="854" 
d="M446 590q-123 0 -191.5 80t-68.5 225q0 151 53 288.5t157.5 229.5t236.5 92q126 0 195 -80t69 -223q0 -88 -20.5 -176.5t-60 -166.5t-93 -138.5t-125.5 -95.5t-152 -35zM475 727q76 0 137.5 78t91 181t29.5 198q0 88 -33 136t-96 48q-58 0 -108.5 -45.5t-81.5 -115
t-48.5 -148t-17.5 -148.5q0 -88 33 -136t94 -48z" />
    <glyph glyph-name="one.numr" horiz-adv-x="579" 
d="M520 1475h117l-182 -859h-152l143 680l-258 -155l33 155z" />
    <glyph glyph-name="two.numr" horiz-adv-x="722" 
d="M553 936l-215 -166h354l-30 -141h-549l22 112l314 265q92 79 117 108q57 66 57 143q0 48 -35.5 78.5t-100.5 30.5q-128 0 -239 -119l28 162q99 96 242 96q120 0 191 -62.5t71 -166.5q0 -69 -32.5 -132t-77 -107.5t-117.5 -100.5z" />
    <glyph glyph-name="three.numr" horiz-adv-x="735" 
d="M598 1073q64 -18 95.5 -70.5t31.5 -121.5q0 -130 -97 -210.5t-247 -80.5q-164 0 -252 82l27 139q28 -36 84 -61t135 -25q90 0 143 39.5t53 109.5q0 60 -36 96t-113 36h-160l31 120h162q79 0 126.5 37t47.5 97q0 110 -137 110q-74 0 -134.5 -23.5t-97.5 -54.5l31 148
q113 67 233 67q122 0 189 -58.5t67 -158.5q0 -86 -49.5 -144t-132.5 -73z" />
    <glyph glyph-name="four.numr" horiz-adv-x="806" 
d="M836 954l-27 -127h-133l-45 -211h-148l45 211h-405l29 136l462 512h199l-111 -521h134zM303 954h252l78 371z" />
    <glyph glyph-name="five.numr" horiz-adv-x="755" 
d="M805 1337h-375l-41 -196q55 22 129 22q117 0 179.5 -71t62.5 -181q0 -143 -102 -238t-257 -95q-77 0 -151.5 23t-112.5 63l27 137q36 -41 97 -63.5t128 -22.5q95 0 153 51.5t58 134.5q0 66 -42 104.5t-124 38.5q-92 0 -221 -59l102 490h516z" />
    </font>
</defs>
</svg>
